<svg xmlns="http://www.w3.org/2000/svg"><metadata>Generated by SVGconv. Copyright : Copyright (c) 2013 by Gayane Bagdasaryan, Dmitry Rastvortsev. All rights reserved. Designer : Gayane Bagdasaryan, Dmitry Rastvortsev Foundry : Gayane Bagdasaryan, Dmitry Rastvortsev Foundry URL : http://www.brownfox.org</metadata><defs><font id="BrutalType-Bold" horiz-adv-x="574"><font-face ascent="955" descent="277" units-per-em="1000"/><glyph horiz-adv-x="234"/><glyph horiz-adv-x="234"/><glyph d="M92 700h130v-480h-130zM92 130h130v-130l-130 0z" horiz-adv-x="313" unicode="!"/><glyph d="M50 653v52h130v-52l-26 -206h-78zM246 653v52h130v-52l-26 -206l-78 0z" horiz-adv-x="426" unicode="&quot;"/><glyph d="M88 47l24 112h-78v118h103l31 146h-88v118h113l34 159h115v-47l-24 -112h129l34 159h116v-47l-24 -112h78v-118h-103l-31 -146h88v-118h-112l-34 -159h-116v47l24 112h-129l-34 -159h-116zM391 277l32 146h-130l-31 -146z" horiz-adv-x="685" unicode="#"/><glyph d="M173 227q0 -36 10.5 -60q10.5 -24 28.5 -38q18 -14 41 -20q23 -6 48 -6q51 0 77.5 24q26.5 24 26.5 61q0 19 -7 31.5q-7 12.5 -19 22q-12 9.5 -28 17q-16 7.5 -34 15.5l-81 36q-42 18 -74.5 36.5q-32.5 18.5 -55 41q-22.5 22.5 -34 52.5q-11.5 30 -11.5 72q0 40 13 73.5q13 33.5 36.5 59.5q23.5 26 55.5 43q32 17 71 23l0 92h130v-95q31 -7 61.5 -24.5q30.5 -17.5 54.5 -46q24 -28.5 38.5 -68q14.5 -39.5 14.5 -90.5l-130 0q0 33 -9 56q-9 23 -24 36.5q-15 13.5 -36 19.5q-21 6 -45 6q-44 0 -71 -21.5q-27 -21.5 -27 -57.5q0 -20 7 -33.5q7 -13.5 20.5 -24q13.5 -10.5 33 -20q19.5 -9.5 44.5 -20.5l66 -29q37 -17 69.5 -34q32.5 -17 56.5 -39q24 -22 37.5 -51q13.5 -29 13.5 -69q0 -76 -42 -133q-42 -57 -133 -76l0 -107h-130v106q-41 6 -76 23.5q-35 17.5 -61.5 47.5q-26.5 30 -41.5 72q-15 42 -15 96z" horiz-adv-x="600" unicode="$"/><glyph d="M196 449q21 0 32.5 13q11.5 13 11.5 32v83q0 19 -11.5 32q-11.5 13 -32.5 13q-22 0 -33 -13.5q-11 -13.5 -11 -31.5v-83q0 -18 11 -31.5q11 -13.5 33 -13.5zt0 0zM196 356q-73 0 -115.5 39q-42.5 39 -42.5 117v47q0 78 42.5 117q42.5 39 115.5 39q73 0 115.5 -39q42.5 -39 42.5 -117v-47q0 -78 -42.5 -117q-42.5 -39 -115.5 -39zt0 0zM596 78q21 0 32.5 13q11.5 13 11.5 32v83q0 18 -11.5 31.5q-11.5 13.5 -32.5 13.5q-22 0 -33 -13.5q-11 -13.5 -11 -31.5v-83q0 -18 11 -31.5q11 -13.5 33 -13.5zt0 0zM596 -15q-73 0 -115.5 39q-42.5 39 -42.5 117v47q0 78 42.5 117q42.5 39 115.5 39q73 0 115.5 -39q42.5 -39 42.5 -117v-47q0 -78 -42.5 -117q-42.5 -39 -115.5 -39zt0 0zM146 47l409 653h92v-47l-409 -653l-92 0z" horiz-adv-x="792" unicode="%"/><glyph d="M53 175q0 25 5 47q5 22 17 44.5q12 22.5 32 45.5q20 23 50 50l9 8l-14 15q-12 12 -25 26q-13 14 -24 32.5q-11 18.5 -18 41q-7 22.5 -7 50.5q0 38 14 70q14 32 38.5 54.5q24.5 22.5 59 35q34.5 12.5 76.5 12.5q40 0 73.5 -11.5q33.5 -11.5 58 -33q24.5 -21.5 38.5 -52q14 -30.5 14 -68.5q0 -47 -24 -81q-24 -34 -57 -63l-27 -25l119 -119q22 61 22 122l123 0q0 -52 -13.5 -107q-13.5 -55 -40.5 -106l102 -102v-61h-114l-64 63q-38 -35 -86 -55q-48 -20 -108 -20q-106 0 -167.5 49q-61.5 49 -61.5 138zt0 0zM281 106q32 0 59.5 11q27.5 11 50.5 31l-143 141l-10 -9q-30 -27 -42.5 -49.5q-12.5 -22.5 -12.5 -47.5q0 -36 25.5 -56.5q25.5 -20.5 72.5 -20.5zt0 0zM262 454l27 24q17 15 26.5 27q9.5 12 9.5 32q0 25 -17 38.5q-17 13.5 -40 13.5q-29 0 -44.5 -15.5q-15.5 -15.5 -15.5 -38.5q0 -19 9 -32q9 -13 26 -30z" horiz-adv-x="686" unicode="&amp;"/><glyph d="M50 653v52h130v-52l-26 -206l-78 0z" horiz-adv-x="230" unicode="'"/><glyph d="M274 -160q-88 0 -137 51.5q-49 51.5 -49 148.5v532q0 97 49 148.5q49 51.5 137 51.5l0 -118q-30 0 -44.5 -23q-14.5 -23 -14.5 -52v-546q0 -29 14.5 -52q14.5 -23 44.5 -23l0 -118z" horiz-adv-x="318" unicode="("/><glyph d="M44 -160q88 0 137 51.5q49 51.5 49 148.5v532q0 97 -49 148.5q-49 51.5 -137 51.5l0 -118q30 0 44.5 -23q14.5 -23 14.5 -52v-546q0 -29 -14.5 -52q-14.5 -23 -44.5 -23l0 -118z" horiz-adv-x="318" unicode=")"/><glyph d="M185 446l-92 -65l-51 90l102 48l-102 48l51 90l92 -65l-8 113h102l-9 -113l94 65l50 -90l-103 -48l103 -48l-50 -90l-94 65l9 -113l-102 0z" horiz-adv-x="456" unicode="*"/><glyph d="M227 259h-165v108h165v167h118v-167h165v-108h-165v-167l-118 0z" horiz-adv-x="572" unicode="+"/><glyph d="M82 143h128v-55l-86 -207l-92 0z" horiz-adv-x="260" unicode=","/><glyph d="M58 372h328v-118l-328 0z" horiz-adv-x="444" unicode="-"/><glyph d="M68 143h143v-143l-143 0z" horiz-adv-x="279" unicode="."/><glyph d="M38 -53l277 825h106v-47l-277 -825l-106 0z" horiz-adv-x="459" unicode="/"/><glyph d="M307 103q57 0 83.5 33q26.5 33 26.5 81v266q0 48 -26.5 81q-26.5 33 -83.5 33q-56 0 -82.5 -33q-26.5 -33 -26.5 -81v-266q0 -48 26.5 -81q26.5 -33 82.5 -33zt0 0zM307 -15q-110 0 -174.5 60.5q-64.5 60.5 -64.5 178.5v252q0 118 64.5 178.5q64.5 60.5 174.5 60.5q111 0 175.5 -60.5q64.5 -60.5 64.5 -178.5v-252q0 -118 -64.5 -178.5t-175.5 -60.5z" horiz-adv-x="615" unicode="0"/><glyph d="M112 524h-69v69l166 107h33v-700l-130 0z" horiz-adv-x="330" unicode="1"/><glyph d="M46 106l211 213q35 36 57.5 60q22.5 24 35.5 43q13 19 18 36q5 17 5 38q0 19 -5 37q-5 18 -16.5 32q-11.5 14 -30 23q-18.5 9 -45.5 9q-30 0 -49.5 -10q-19.5 -10 -31.5 -27q-12 -17 -17.5 -39.5q-5.5 -22.5 -5.5 -47.5l-124 0q0 57 17 102q17 45 47 76q30 31 72 47.5q42 16.5 92 16.5q57 0 100 -18q43 -18 71 -48q28 -30 42 -68.5q14 -38.5 14 -79.5q0 -39 -9.5 -70q-9.5 -31 -28 -60.5q-18.5 -29.5 -46 -59q-27.5 -29.5 -64.5 -65.5l-133 -128h280v-118l-456 0z" horiz-adv-x="562" unicode="2"/><glyph d="M288 -15q-111 0 -175.5 63.5q-64.5 63.5 -66.5 181.5l125 0q2 -54 31.5 -90.5q29.5 -36.5 89.5 -36.5q31 0 52 8.5q21 8.5 34 23.5q13 15 19 34.5q6 19.5 6 42.5q0 46 -30 68.5q-30 22.5 -84 22.5h-44v118h35q47 0 75.5 20q28.5 20 28.5 68q0 14 -4 29.5q-4 15.5 -14.5 28.5q-10.5 13 -28.5 21.5q-18 8.5 -46 8.5q-57 0 -81.5 -34.5q-24.5 -34.5 -25.5 -84.5l-124 0q0 115 62 176q62 61 168 61q54 0 95.5 -15q41.5 -15 69 -41.5q27.5 -26.5 42 -62q14.5 -35.5 14.5 -75.5q0 -55 -22 -91q-22 -36 -60 -62q21 -9 40 -24.5q19 -15.5 33 -37q14 -21.5 22.5 -48.5q8.5 -27 8.5 -57q0 -100 -63.5 -158t-181.5 -58z" horiz-adv-x="591" unicode="3"/><glyph d="M330 129h-302v100l232 471h114v-47l-199 -406h155v164h130v-164h79v-118h-79v-129l-130 0z" horiz-adv-x="557" unicode="4"/><glyph d="M291 -15q-101 0 -165.5 54.5q-64.5 54.5 -75.5 156.5l127 0q6 -40 36.5 -66.5q30.5 -26.5 80.5 -26.5q57 0 83 37q26 37 26 100q0 59 -29 94.5q-29 35.5 -77 35.5q-42 0 -65.5 -17.5q-23.5 -17.5 -34.5 -35.5l-125 0l37 383h385v-118h-284l-14 -138q14 8 27 14q13 6 27.5 10q14.5 4 31.5 6q17 2 39 2q40 0 78 -12.5q38 -12.5 68 -40.5q30 -28 48 -73q18 -45 18 -110q0 -63 -17.5 -110.5q-17.5 -47.5 -49.5 -80q-32 -32.5 -76.5 -48.5t-98.5 -16z" horiz-adv-x="591" unicode="5"/><glyph d="M295 -15q-56 0 -101 16q-45 16 -77 46.5q-32 30.5 -49.5 73.5q-17.5 43 -17.5 97q0 48 16.5 95.5q16.5 47.5 51.5 104.5l179 282h119v-47l-136 -209q14 2 27.5 3.5q13.5 1.5 31.5 1.5q41 0 77.5 -13.5q36.5 -13.5 64 -41q27.5 -27.5 43.5 -68q16 -40.5 16 -94.5q0 -59 -17.5 -105q-17.5 -46 -49.5 -77.5q-32 -31.5 -77.5 -48q-45.5 -16.5 -100.5 -16.5zt0 0zM295 103q57 0 86 33q29 33 29 88q0 55 -28 87.5q-28 32.5 -88 32.5q-32 0 -53.5 -9.5q-21.5 -9.5 -35 -25.5q-13.5 -16 -19.5 -38q-6 -22 -6 -47q0 -55 29 -88t86 -33z" horiz-adv-x="588" unicode="6"/><glyph d="M153 47l207 535h-204v-85h-120v203h458v-110l-224 -590l-117 0z" horiz-adv-x="544" unicode="7"/><glyph d="M309 -15q-118 0 -184.5 57q-66.5 57 -66.5 156q0 30 8.5 56.5q8.5 26.5 23 49q14.5 22.5 33.5 38.5q19 16 40 25q-19 13 -35 28q-16 15 -27.5 33q-11.5 18 -18 40.5q-6.5 22.5 -6.5 51.5q0 39 15 74.5q15 35.5 44.5 62.5q29.5 27 73 42.5q43.5 15.5 100.5 15.5q57 0 100.5 -15.5q43.5 -15.5 73 -42.5q29.5 -27 44.5 -62.5q15 -35.5 15 -74.5q0 -58 -24.5 -92.5q-24.5 -34.5 -61.5 -60.5q21 -9 40 -25q19 -16 33 -38.5q14 -22.5 22.5 -49q8.5 -26.5 8.5 -56.5q0 -99 -66.5 -156q-66.5 -57 -184.5 -57zt0 0zM309 101q31 0 53.5 9q22.5 9 37.5 24q15 15 22 34.5q7 19.5 7 41.5q0 50 -33 77.5q-33 27.5 -87 27.5q-54 0 -87 -27.5q-33 -27.5 -33 -77.5q0 -22 7 -41.5q7 -19.5 22 -34.5q15 -15 37.5 -24q22.5 -9 53.5 -9zt0 0zM309 414q44 0 74 23q30 23 30 73q0 38 -24.5 65q-24.5 27 -79.5 27q-54 0 -79 -27q-25 -27 -25 -65q0 -50 30 -73t74 -23z" horiz-adv-x="618" unicode="8"/><glyph d="M293 715q55 0 100.5 -16q45.5 -16 77.5 -46.5q32 -30.5 49.5 -73.5q17.5 -43 17.5 -97q0 -48 -16.5 -95.5q-16.5 -47.5 -51.5 -104.5l-179 -282h-119v47l136 209q-14 -2 -27.5 -3.5q-13.5 -1.5 -31.5 -1.5q-41 0 -77.5 13.5q-36.5 13.5 -64 41q-27.5 27.5 -43.5 68q-16 40.5 -16 94.5q0 59 17.5 105q17.5 46 49.5 77.5q32 31.5 77 48q45 16.5 101 16.5zt0 0zM293 597q-57 0 -86 -33q-29 -33 -29 -88q0 -55 28 -87.5q28 -32.5 88 -32.5q31 0 53 9.5q22 9.5 35.5 25.5q13.5 16 19.5 38q6 22 6 47q0 55 -29 88t-86 33z" horiz-adv-x="588" unicode="9"/><glyph d="M68 143h143v-143h-143zM68 524h143v-143l-143 0z" horiz-adv-x="279" unicode=":"/><glyph d="M82 143h128v-55l-86 -207h-92zM67 524h143v-143l-143 0z" horiz-adv-x="278" unicode=";"/><glyph d="M62 260v106l346 179h62v-92l-279 -140l279 -140v-93l-62 0z" horiz-adv-x="532" unicode="&lt;"/><glyph d="M62 259h449v-108h-449zM62 475h449v-108l-449 0z" horiz-adv-x="573" unicode="="/><glyph d="M62 173l280 140l-280 140v92h62l346 -179v-106l-346 -180l-62 0z" horiz-adv-x="532" unicode="&gt;"/><glyph d="M184 335l100 71q34 24 53.5 45.5q19.5 21.5 19.5 60.5q0 36 -24 60.5q-24 24.5 -70 24.5q-54 0 -82.5 -32.5q-28.5 -32.5 -28.5 -86.5l-124 0q0 57 18 101.5q18 44.5 50 74.5q32 30 75 45.5q43 15.5 93 15.5q56 0 98 -17q42 -17 69.5 -44.5q27.5 -27.5 41.5 -63.5q14 -36 14 -75q0 -42 -13.5 -73q-13.5 -31 -34.5 -55q-21 -24 -46 -42q-25 -18 -48 -33l-31 -21v-71h-130zM184 130h130v-130l-130 0z" horiz-adv-x="525" unicode="?"/><glyph d="M570 355q-15 15 -37 28.5q-22 13.5 -52 13.5q-25 0 -46 -16q-21 -16 -21 -48v-102q0 -32 21 -48q21 -16 46 -16q30 0 52 13.5q22 13.5 37 27.5zM587 114q-23 -20 -52.5 -35.5q-29.5 -15.5 -77.5 -15.5q-32 0 -60 9.5q-28 9.5 -49 28.5q-21 19 -33.5 48q-12.5 29 -12.5 68v131q0 39 12.5 68q12.5 29 33.5 48q21 19 49 28q28 9 60 9q48 0 77.5 -15q29.5 -15 52.5 -36l32 42h63v-271q0 -27 13 -43.5q13 -16.5 41 -16.5q16 0 30.5 8q14.5 8 25 26.5q10.5 18.5 16.5 49.5q6 31 6 77q0 70 -25 125q-25 55 -67 93q-42 38 -98 58.5q-56 20.5 -119 20.5q-71 0 -131 -23.5q-60 -23.5 -103.5 -67.5q-43.5 -44 -67.5 -106q-24 -62 -24 -139q0 -77 24 -139q24 -62 67.5 -105.5q43.5 -43.5 103.5 -67q60 -23.5 131 -23.5h25v-99h-25q-97 0 -177.5 32q-80.5 32 -138 89.5q-57.5 57.5 -89.5 137q-32 79.5 -32 174.5q0 97 32 177q32 80 89.5 137q57.5 57 138 88q80.5 31 177.5 31q88 0 164.5 -27.5q76.5 -27.5 133 -78.5q56.5 -51 89 -123.5q32.5 -72.5 32.5 -163.5q0 -59 -13.5 -107q-13.5 -48 -40 -82q-26.5 -34 -64.5 -52q-38 -18 -86 -18q-48 0 -79.5 13t-53.5 38z" horiz-adv-x="992" unicode="@"/><glyph d="M18 47l242 653h139l243 -653v-47h-140l-56 164h-239l-58 -164h-131zM403 282l-76 228l-78 -228z" horiz-adv-x="660" unicode="A"/><glyph d="M88 700h296q96 0 151.5 -48q55.5 -48 55.5 -145q0 -101 -78 -144q22 -9 41 -22.5q19 -13.5 33.5 -33.5q14.5 -20 23 -47q8.5 -27 8.5 -63q0 -99 -55.5 -148q-55.5 -49 -151.5 -49h-324zM376 409q28 0 50 19.5q22 19.5 22 64.5q0 44 -22 63.5q-22 19.5 -50 19.5h-146v-167zM405 124q28 0 50 19.5q22 19.5 22 64.5q0 44 -22 63.5q-22 19.5 -50 19.5h-175l0 -167z" horiz-adv-x="667" unicode="B"/><glyph d="M343 -15q-134 0 -204.5 66q-70.5 66 -70.5 186v226q0 120 70.5 186q70.5 66 204.5 66q52 0 99 -14q47 -14 83 -43.5q36 -29.5 57 -76q21 -46.5 21 -111.5v-10h-142v10q0 31 -10.5 53q-10.5 22 -28.5 35.5q-18 13.5 -41 20q-23 6.5 -47 6.5q-63 0 -93.5 -30q-30.5 -30 -30.5 -82v-246q0 -52 30.5 -82q30.5 -30 93.5 -30q24 0 47 6q23 6 41 19.5q18 13.5 28.5 35.5q10.5 22 10.5 54v10h142v-10q0 -65 -21 -111.5q-21 -46.5 -57 -76q-36 -29.5 -83 -43.5t-99 -14z" horiz-adv-x="661" unicode="C"/><glyph d="M342 124q34 0 59.5 9q25.5 9 43 25q17.5 16 26 36q8.5 20 8.5 43v226q0 22 -8.5 42.5q-8.5 20.5 -26 36.5q-17.5 16 -43 25q-25.5 9 -59.5 9h-112v-452zM88 700h254q64 0 115.5 -16q51.5 -16 88 -46.5q36.5 -30.5 56 -75.5q19.5 -45 19.5 -103v-218q0 -58 -19.5 -103q-19.5 -45 -56 -75.5q-36.5 -30.5 -88 -46.5q-51.5 -16 -115.5 -16l-254 0z" horiz-adv-x="689" unicode="D"/><glyph d="M88 700h456v-124h-314v-166h268v-118h-268v-168h316v-124l-458 0z" horiz-adv-x="594" unicode="E"/><glyph d="M88 700h464v-124h-322v-175h274v-118h-274v-283l-142 0z" horiz-adv-x="590" unicode="F"/><glyph d="M324 -15q-60 0 -107.5 17q-47.5 17 -80.5 49.5q-33 32.5 -50.5 78.5q-17.5 46 -17.5 104v229q0 120 73 186q73 66 206 66q57 0 105.5 -15.5q48.5 -15.5 84 -46q35.5 -30.5 56 -76q20.5 -45.5 20.5 -105.5l-142 0q0 54 -36.5 83.5q-36.5 29.5 -95.5 29.5q-66 0 -97.5 -31q-31.5 -31 -31.5 -85v-234q0 -57 32.5 -88.5q32.5 -31.5 94.5 -31.5q41 0 77.5 18.5q36.5 18.5 56.5 50.5l0 76h-124v118h266v-378h-76l-39 58q-32 -36 -76.5 -54.5t-97.5 -18.5z" horiz-adv-x="691" unicode="G"/><glyph d="M88 700h142v-288h256v288h142v-700h-142v288h-256v-288l-142 0z" horiz-adv-x="716" unicode="H"/><glyph d="M88 700h142v-700l-142 0z" horiz-adv-x="318" unicode="I"/><glyph d="M263 -15q-52 0 -96.5 11q-44.5 11 -77.5 37q-33 26 -52 69q-19 43 -19 107v31h142v-31q0 -51 27.5 -72.5q27.5 -21.5 75.5 -21.5q19 0 37.5 5q18.5 5 33 16.5q14.5 11.5 23 30.5q8.5 19 8.5 47v486h142v-491q0 -62 -19.5 -104.5q-19.5 -42.5 -52.5 -69q-33 -26.5 -77.5 -38.5t-94.5 -12z" horiz-adv-x="584" unicode="J"/><glyph d="M88 700h142v-288h74l169 288h132v-47l-177 -295l192 -311v-47h-141l-175 288h-74v-288l-142 0z" horiz-adv-x="637" unicode="K"/><glyph d="M88 700h142v-576h320v-124l-462 0z" horiz-adv-x="568" unicode="L"/><glyph d="M363 218l-138 230v-448h-137v700h137l184 -309l184 309h133v-700h-137v448l-138 -230z" horiz-adv-x="814" unicode="M"/><glyph d="M88 700h130l268 -436v436h142v-700h-130l-268 436v-436l-142 0z" horiz-adv-x="716" unicode="N"/><glyph d="M347 115q36 0 61.5 9.5q25.5 9.5 42.5 26q17 16.5 25 37q8 20.5 8 43.5v238q0 22 -8 43q-8 21 -25 37.5q-17 16.5 -42.5 26q-25.5 9.5 -61.5 9.5q-36 0 -61.5 -9.5q-25.5 -9.5 -42.5 -26q-17 -16.5 -25 -37.5q-8 -21 -8 -43v-238q0 -23 8 -43.5q8 -20.5 25 -37q17 -16.5 42.5 -26q25.5 -9.5 61.5 -9.5zt0 0zM347 -15q-64 0 -115.5 17q-51.5 17 -88 49.5q-36.5 32.5 -56 79.5q-19.5 47 -19.5 107v224q0 60 19.5 107q19.5 47 56 79.5q36.5 32.5 88 49.5q51.5 17 115.5 17q64 0 115.5 -17q51.5 -17 88 -49.5q36.5 -32.5 56 -79.5q19.5 -47 19.5 -107v-224q0 -60 -19.5 -107q-19.5 -47 -56 -79.5q-36.5 -32.5 -88 -49.5t-115.5 -17z" horiz-adv-x="694" unicode="O"/><glyph d="M88 700h313q95 0 148 -59.5q53 -59.5 53 -161.5q0 -101 -53 -160.5q-53 -59.5 -148 -59.5h-171v-259h-142zM375 383q32 0 57.5 23q25.5 23 25.5 74q0 25 -7 43q-7 18 -18.5 30q-11.5 12 -26.5 17.5q-15 5.5 -31 5.5h-145l0 -193z" horiz-adv-x="645" unicode="P"/><glyph d="M347 -15q-64 0 -115.5 17q-51.5 17 -88 49.5q-36.5 32.5 -56 79.5q-19.5 47 -19.5 107v224q0 60 19.5 107q19.5 47 56 79.5q36.5 32.5 88 49.5q51.5 17 115.5 17q64 0 115.5 -17q51.5 -17 88 -49.5q36.5 -32.5 56 -79.5q19.5 -47 19.5 -107v-224q0 -66 -21 -111.5q-21 -45.5 -58 -78.5l78 -119v-48h-137l-72 111q-13 -3 -34 -5q-21 -2 -35 -2zt0 0zM347 115q36 0 61.5 9.5q25.5 9.5 42.5 26q17 16.5 25 37q8 20.5 8 43.5v238q0 22 -8 43q-8 21 -25 37.5q-17 16.5 -42.5 26q-25.5 9.5 -61.5 9.5q-36 0 -61.5 -9.5q-25.5 -9.5 -42.5 -26q-17 -16.5 -25 -37.5q-8 -21 -8 -43v-238q0 -23 8 -43.5q8 -20.5 25 -37q17 -16.5 42.5 -26t61.5 -9.5z" horiz-adv-x="694" unicode="Q"/><glyph d="M88 700h303q108 0 162.5 -57.5q54.5 -57.5 54.5 -160.5q0 -75 -31.5 -125.5q-31.5 -50.5 -83.5 -76.5l129 -233v-47h-138l-146 263h-108v-263h-142zM365 383q47 0 72.5 21.5q25.5 21.5 25.5 75.5q0 53 -25.5 74.5q-25.5 21.5 -72.5 21.5h-135l0 -193z" horiz-adv-x="676" unicode="R"/><glyph d="M317 -15q-56 0 -106 15q-50 15 -87.5 45q-37.5 30 -59 75.5q-21.5 45.5 -21.5 106.5l142 0q0 -34 13.5 -56q13.5 -22 34.5 -34.5q21 -12.5 45.5 -17q24.5 -4.5 46.5 -4.5q57 0 86 21.5q29 21.5 29 54.5q0 19 -10.5 32q-10.5 13 -31 24q-20.5 11 -51 22q-30.5 11 -70.5 26l-29 11q-33 13 -66.5 28.5q-33.5 15.5 -60.5 38.5q-27 23 -43.5 54.5q-16.5 31.5 -16.5 76.5q0 48 18 86.5q18 38.5 51.5 66.5q33.5 28 81.5 43q48 15 108 15q57 0 105 -13q48 -13 83.5 -41.5q35.5 -28.5 55.5 -73.5q20 -45 20 -108l-142 0q0 30 -10.5 50.5q-10.5 20.5 -27.5 32.5q-17 12 -39.5 17.5q-22.5 5.5 -46.5 5.5q-53 0 -83.5 -19.5q-30.5 -19.5 -30.5 -53.5q0 -20 9 -32.5q9 -12.5 25 -22q16 -9.5 37.5 -17q21.5 -7.5 46.5 -16.5l28 -10q47 -17 90.5 -35q43.5 -18 76.5 -42q33 -24 53 -57.5q20 -33.5 20 -81.5q0 -46 -17 -85q-17 -39 -51.5 -67.5q-34.5 -28.5 -85.5 -44.5t-119 -16z" horiz-adv-x="648" unicode="S"/><glyph d="M215 576h-197v124h535v-124h-196v-576l-142 0z" horiz-adv-x="571" unicode="T"/><glyph d="M619 700v-470q0 -58 -19 -103.5q-19 -45.5 -54 -77q-35 -31.5 -85 -48q-50 -16.5 -112 -16.5q-62 0 -112 16.5q-50 16.5 -85.5 48q-35.5 31.5 -54.5 77q-19 45.5 -19 103.5v470h142v-476q0 -21 7.5 -40.5q7.5 -19.5 23 -35q15.5 -15.5 40 -24.5q24.5 -9 58.5 -9q33 0 57 9q24 9 39.5 24.5q15.5 15.5 23 35q7.5 19.5 7.5 40.5l0 476z" horiz-adv-x="696" unicode="U"/><glyph d="M18 653v47h136l179 -510l175 510h135v-47l-242 -653l-140 0z" horiz-adv-x="661" unicode="V"/><glyph d="M38 653v47h138l97 -473l105 305h89l108 -308l94 476h135v-47l-141 -653h-132l-110 314l-110 -314l-132 0z" horiz-adv-x="842" unicode="W"/><glyph d="M28 47l214 317l-194 289v47h145l137 -225l146 225h136v-47l-196 -288l216 -318v-47h-144l-161 250l-163 -250l-136 0z" horiz-adv-x="660" unicode="X"/><glyph d="M238 277l-230 376v47h140l162 -290l169 290h131v-47l-230 -370v-283l-142 0z" horiz-adv-x="618" unicode="Y"/><glyph d="M38 123l342 453h-327v124h490v-122l-343 -454h354v-124l-516 0z" horiz-adv-x="592" unicode="Z"/><glyph d="M88 772h204v-118h-77v-696h77v-118l-204 0z" horiz-adv-x="340" unicode="["/><glyph d="M421 -53l-277 825h-106v-47l277 -825l106 0z" horiz-adv-x="459" unicode="\"/><glyph d="M252 772h-204v-118h77v-696h-77v-118l204 0z" horiz-adv-x="340" unicode="]"/><glyph d="M62 434l151 271h109l153 -271v-47h-111l-97 171l-94 -171l-111 0z" horiz-adv-x="537" unicode="^"/><glyph d="M-1 -30h570v-108l-570 0z" horiz-adv-x="568" unicode="_"/><glyph d="M58 685v45h117l71 -140l-105 0z" horiz-adv-x="304" unicode="`"/><glyph d="M219 -12q-35 0 -67 10q-32 10 -56 29.5q-24 19.5 -38.5 48.5q-14.5 29 -14.5 68q0 81 52.5 125.5q52.5 44.5 159.5 44.5h108v33q0 34 -20 52.5q-20 18.5 -64 18.5q-45 0 -64.5 -17q-19.5 -17 -19.5 -43l-127 0q0 39 12.5 71.5q12.5 32.5 39 56q26.5 23.5 66 37q39.5 13.5 93.5 13.5q54 0 94 -13.5q40 -13.5 67 -37.5q27 -24 40 -57q13 -33 13 -72v-356h-75l-38 51q-29 -26 -65.5 -44.5q-36.5 -18.5 -95.5 -18.5zt0 0zM246 106q38 0 66 12.5q28 12.5 51 38.5l0 58h-108q-26 0 -42 -5.5q-16 -5.5 -25 -13.5q-9 -8 -12 -17.5q-3 -9.5 -3 -17.5q0 -55 73 -55z" horiz-adv-x="566" unicode="a"/><glyph d="M78 705h130v-218q8 7 20.5 15.5q12.5 8.5 30 16q17.5 7.5 39.5 12.5q22 5 49 5q38 0 72 -11.5q34 -11.5 59.5 -35.5q25.5 -24 40 -60q14.5 -36 14.5 -85v-164q0 -49 -14.5 -85q-14.5 -36 -40 -60q-25.5 -24 -59.5 -35.5q-34 -11.5 -72 -11.5q-57 0 -93 19q-36 19 -63 45l-38 -52h-75zM208 161q20 -20 47 -37.5q27 -17.5 65 -17.5q15 0 30 5.5q15 5.5 26.5 16q11.5 10.5 19 26q7.5 15.5 7.5 36.5v144q0 21 -7.5 36.5q-7.5 15.5 -19 26q-11.5 10.5 -26.5 16q-15 5.5 -30 5.5q-38 0 -65 -17.5q-27 -17.5 -47 -37.5z" horiz-adv-x="596" unicode="b"/><glyph d="M277 -12q-50 0 -91 13.5q-41 13.5 -70 38.5q-29 25 -45 61q-16 36 -16 81v160q0 45 16 81q16 36 45 61q29 25 70 38.5q41 13.5 91 13.5q49 0 88.5 -13q39.5 -13 67.5 -38q28 -25 43.5 -61.5q15.5 -36.5 15.5 -83.5v-6h-130v6q0 35 -21.5 56.5q-21.5 21.5 -63.5 21.5q-48 0 -70 -20.5q-22 -20.5 -22 -53.5v-164q0 -33 22 -53.5q22 -20.5 70 -20.5q42 0 63.5 21q21.5 21 21.5 56v10h130v-7q0 -46 -16 -83q-16 -37 -44.5 -62.5q-28.5 -25.5 -68 -39t-86.5 -13.5z" horiz-adv-x="543" unicode="c"/><glyph d="M518 0h-75l-38 52q-27 -26 -63 -45q-36 -19 -93 -19q-38 0 -72 11.5q-34 11.5 -59.5 35.5q-25.5 24 -40 60q-14.5 36 -14.5 85v164q0 49 14.5 85q14.5 36 40 60q25.5 24 59.5 35.5q34 11.5 72 11.5q27 0 49 -5q22 -5 39.5 -12.5q17.5 -7.5 30 -16q12.5 -8.5 20.5 -15.5l0 218h130zM388 363q-20 20 -47 37.5q-27 17.5 -65 17.5q-15 0 -30 -5.5q-15 -5.5 -26.5 -16q-11.5 -10.5 -19 -26q-7.5 -15.5 -7.5 -36.5v-144q0 -21 7.5 -36.5q7.5 -15.5 19 -26q11.5 -10.5 26.5 -16q15 -5.5 30 -5.5q38 0 65 17.5q27 17.5 47 37.5z" horiz-adv-x="596" unicode="d"/><glyph d="M283 -12q-51 0 -93 12.5q-42 12.5 -72 37q-30 24.5 -46.5 60.5q-16.5 36 -16.5 82v162q0 45 16.5 81q16.5 36 46.5 61q30 25 72 38.5q42 13.5 93 13.5q48 0 88.5 -12.5q40.5 -12.5 69 -37q28.5 -24.5 44.5 -60.5q16 -36 16 -82v-125h-316v-37q0 -33 23.5 -54.5q23.5 -21.5 74.5 -21.5q38 0 59 14q21 14 28 39l130 0q-8 -81 -64 -126q-56 -45 -153 -45zt0 0zM371 318v26q0 34 -24 54q-24 20 -69 20q-47 0 -70 -20.5q-23 -20.5 -23 -53.5l0 -26z" horiz-adv-x="556" unicode="e"/><glyph d="M90 411h-77v113h77q0 35 11 68q11 33 35.5 58.5q24.5 25.5 63.5 41q39 15.5 96 15.5q8 0 18.5 -0.5q10.5 -0.5 19.5 -1.5l0 -116h-21q-48 0 -69 -14.5q-21 -14.5 -24 -50.5l106 0v-113h-106v-411l-130 0z" horiz-adv-x="352" unicode="f"/><glyph d="M518 32q0 -51 -16.5 -89.5q-16.5 -38.5 -46 -64q-29.5 -25.5 -71 -38q-41.5 -12.5 -90.5 -12.5q-100 0 -159 45q-59 45 -59 126v4h130v-3q0 -9 4.5 -18.5q4.5 -9.5 14.5 -17.5q10 -8 26.5 -13q16.5 -5 41.5 -5q51 0 73 24q22 24 22 62v60q-8 -7 -20.5 -15.5q-12.5 -8.5 -30 -16q-17.5 -7.5 -39.5 -12.5q-22 -5 -49 -5q-38 0 -72 11.5q-34 11.5 -59.5 35.5q-25.5 24 -40 60q-14.5 36 -14.5 85v109q0 49 14.5 85q14.5 36 40 60q25.5 24 59.5 35.5q34 11.5 72 11.5q57 0 93 -19q36 -19 63 -45l38 52h75zM388 363q-20 20 -47 37.5q-27 17.5 -65 17.5q-15 0 -30 -5.5q-15 -5.5 -26.5 -16q-11.5 -10.5 -19 -26q-7.5 -15.5 -7.5 -36.5v-89q0 -21 7.5 -36.5q7.5 -15.5 19 -26q11.5 -10.5 26.5 -16q15 -5.5 30 -5.5q38 0 65 17.5q27 17.5 47 37.5z" horiz-adv-x="596" unicode="g"/><glyph d="M78 705h130v-218q24 20 57.5 34.5q33.5 14.5 80.5 14.5q85 0 133.5 -53.5q48.5 -53.5 48.5 -149.5v-333h-130v325q0 48 -23.5 70.5q-23.5 22.5 -57.5 22.5q-19 0 -36 -6q-17 -6 -31.5 -14.5q-14.5 -8.5 -25 -18q-10.5 -9.5 -16.5 -16.5l0 -363l-130 0z" horiz-adv-x="601" unicode="h"/><glyph d="M78 524h130v-524h-130zM78 705h130v-110l-130 0z" horiz-adv-x="286" unicode="i"/><glyph d="M209 524v-504q0 -33 -9 -67q-9 -34 -30 -62q-21 -28 -55.5 -45.5q-34.5 -17.5 -84.5 -17.5q-9 0 -17.5 0q-8.5 0 -19.5 2l0 116h22q13 0 24.5 3.5q11.5 3.5 20.5 12q9 8.5 14 23q5 14.5 5 37.5v502zM79 705h130v-110l-130 0z" horiz-adv-x="287" unicode="j"/><glyph d="M78 705h130v-380h55l127 199h112v-61l-122 -191l135 -211v-61h-116l-136 212h-55v-212l-130 0z" horiz-adv-x="552" unicode="k"/><glyph d="M78 705h130v-705l-130 0z" horiz-adv-x="286" unicode="l"/><glyph d="M507 0h-130v335q0 43 -21 63q-21 20 -51 20q-34 0 -57.5 -18q-23.5 -18 -39.5 -40l0 -360h-130v524h75l38 -52q23 24 58.5 44q35.5 20 86.5 20q49 0 85.5 -19.5q36.5 -19.5 57.5 -55.5q25 28 63 51.5q38 23.5 93 23.5q43 0 75 -14q32 -14 53.5 -39.5q21.5 -25.5 32 -60.5q10.5 -35 10.5 -76v-346h-130v335q0 43 -21 63q-21 20 -51 20q-34 0 -57.5 -18q-23.5 -18 -39.5 -40z" horiz-adv-x="879" unicode="m"/><glyph d="M78 524h75l38 -52q25 24 62.5 44q37.5 20 92.5 20q85 0 133.5 -53.5q48.5 -53.5 48.5 -149.5v-333h-130v325q0 48 -23.5 70.5q-23.5 22.5 -57.5 22.5q-19 0 -36 -6q-17 -6 -31.5 -14.5q-14.5 -8.5 -25 -18q-10.5 -9.5 -16.5 -16.5l0 -363l-130 0z" horiz-adv-x="601" unicode="n"/><glyph d="M283 106q49 0 73 24q24 24 24 58v148q0 34 -24 58q-24 24 -73 24q-51 0 -74.5 -24.5q-23.5 -24.5 -23.5 -57.5v-148q0 -33 23.5 -57.5q23.5 -24.5 74.5 -24.5zt0 0zM283 -12q-57 0 -100 15q-43 15 -71.5 41q-28.5 26 -42.5 61.5q-14 35.5 -14 76.5v160q0 41 14 76.5q14 35.5 42.5 61.5q28.5 26 71.5 41q43 15 100 15q57 0 99.5 -15q42.5 -15 71 -41q28.5 -26 42.5 -61.5q14 -35.5 14 -76.5v-160q0 -41 -14 -76.5q-14 -35.5 -42.5 -61.5q-28.5 -26 -71 -41t-99.5 -15z" horiz-adv-x="565" unicode="o"/><glyph d="M78 524h75l38 -52q27 26 63 45q36 19 93 19q38 0 72 -11.5q34 -11.5 59.5 -35.5q25.5 -24 40 -60q14.5 -36 14.5 -85v-164q0 -49 -14.5 -85q-14.5 -36 -40 -60q-25.5 -24 -59.5 -35.5q-34 -11.5 -72 -11.5q-27 0 -49 5q-22 5 -39.5 12.5q-17.5 7.5 -30 16q-12.5 8.5 -20.5 15.5l0 -197h-130zM208 161q20 -20 47 -37.5q27 -17.5 65 -17.5q15 0 30 5.5q15 5.5 26.5 16q11.5 10.5 19 26q7.5 15.5 7.5 36.5v144q0 21 -7.5 36.5q-7.5 15.5 -19 26q-11.5 10.5 -26.5 16q-15 5.5 -30 5.5q-38 0 -65 -17.5q-27 -17.5 -47 -37.5z" horiz-adv-x="596" unicode="p"/><glyph d="M518 -160h-130v197q-8 -7 -20.5 -15.5q-12.5 -8.5 -30 -16q-17.5 -7.5 -39.5 -12.5q-22 -5 -49 -5q-38 0 -72 11.5q-34 11.5 -59.5 35.5q-25.5 24 -40 60q-14.5 36 -14.5 85v164q0 49 14.5 85q14.5 36 40 60q25.5 24 59.5 35.5q34 11.5 72 11.5q57 0 93 -19q36 -19 63 -45l38 52h75zM388 363q-20 20 -47 37.5q-27 17.5 -65 17.5q-15 0 -30 -5.5q-15 -5.5 -26.5 -16q-11.5 -10.5 -19 -26q-7.5 -15.5 -7.5 -36.5v-144q0 -21 7.5 -36.5q7.5 -15.5 19 -26q11.5 -10.5 26.5 -16q15 -5.5 30 -5.5q38 0 65 17.5q27 17.5 47 37.5z" horiz-adv-x="596" unicode="q"/><glyph d="M78 524h75l38 -52q19 22 51.5 43q32.5 21 84.5 21h27v-125h-27q-42 0 -69.5 -11q-27.5 -11 -49.5 -37l0 -363l-130 0z" horiz-adv-x="382" unicode="r"/><glyph d="M284 -12q-52 0 -94.5 13.5q-42.5 13.5 -73.5 38.5q-31 25 -48.5 60.5q-17.5 35.5 -18.5 79.5l129 0q5 -35 37 -54.5q32 -19.5 85 -19.5q35 0 56 12q21 12 21 32q0 28 -35 36l-145 37q-25 6 -49.5 16.5q-24.5 10.5 -44 27q-19.5 16.5 -31.5 41.5q-12 25 -12 60q0 78 56 123q56 45 157 45q101 0 159.5 -46.5q58.5 -46.5 61.5 -133.5l-130 0q-2 31 -28.5 46.5q-26.5 15.5 -72.5 15.5q-43 0 -60 -13q-17 -13 -17 -29q0 -15 11.5 -23.5q11.5 -8.5 33.5 -13.5l149 -37q26 -6 48.5 -17q22.5 -11 39 -28q16.5 -17 26 -40.5q9.5 -23.5 9.5 -56.5q0 -40 -15.5 -72q-15.5 -32 -44.5 -54q-29 -22 -69.5 -34t-89.5 -12z" horiz-adv-x="559" unicode="s"/><glyph d="M287 0q-58 0 -95.5 17q-37.5 17 -59 45q-21.5 28 -29.5 63.5q-8 35.5 -8 73.5v212h-77v113h77v109h130v-109h119v-113h-119v-212q0 -51 20.5 -68.5q20.5 -17.5 55.5 -17.5h43v-113l-57 0z" horiz-adv-x="387" unicode="t"/><glyph d="M519 0h-75l-38 51q-25 -23 -62 -43q-37 -20 -91 -20q-85 0 -132.5 53q-47.5 53 -47.5 148v335h130v-327q0 -48 23 -69.5q23 -21.5 56 -21.5q19 0 35.5 6q16.5 6 30.5 14.5q14 8.5 24.5 17.5q10.5 9 16.5 16l0 364l130 0z" horiz-adv-x="597" unicode="u"/><glyph d="M18 463v61h121l123 -346l116 346h118v-61l-180 -463l-118 0z" horiz-adv-x="514" unicode="v"/><glyph d="M43 463v61h118l74 -346l84 254h87l85 -254l73 346h117v-61l-110 -463h-122l-86 228l-86 -228l-125 0z" horiz-adv-x="724" unicode="w"/><glyph d="M38 61l145 201l-143 201v61h117l107 -163l109 163h110v-61l-139 -196l148 -206v-61h-116l-114 174l-113 -174l-111 0z" horiz-adv-x="529" unicode="x"/><glyph d="M149 -113l49 113l-180 463v61h120l124 -347l117 347h118v-61l-242 -623l-106 0z" horiz-adv-x="515" unicode="y"/><glyph d="M48 113l256 298h-249v113h405v-113l-259 -298h273v-113l-426 0z" horiz-adv-x="533" unicode="z"/><glyph d="M295 -160q-88 0 -137 47.5q-49 47.5 -49 144.5v142q0 42 -13.5 60.5q-13.5 18.5 -42.5 18.5h-25v118h25q30 0 43 20.5q13 20.5 13 58.5v129q0 97 49 145q49 48 137 48l0 -118q-30 0 -44.5 -23q-14.5 -23 -14.5 -52v-164q0 -23 -6.5 -39.5q-6.5 -16.5 -16 -29q-9.5 -12.5 -20.5 -21q-11 -8.5 -21 -13.5q10 -5 21 -13.5q11 -8.5 20.5 -21q9.5 -12.5 16 -29.5q6.5 -17 6.5 -39v-176q0 -29 14.5 -52q14.5 -23 44.5 -23l0 -118z" horiz-adv-x="343" unicode="{"/><glyph d="M88 772h127v-872l-127 0z" horiz-adv-x="303" unicode="|"/><glyph d="M48 -160q88 0 137 47.5q49 47.5 49 144.5v142q0 42 13.5 60.5q13.5 18.5 42.5 18.5h25v118h-25q-30 0 -43 20.5q-13 20.5 -13 58.5v129q0 97 -49 145q-49 48 -137 48l0 -118q30 0 44.5 -23q14.5 -23 14.5 -52v-164q0 -23 6.5 -39.5q6.5 -16.5 16 -29q9.5 -12.5 20.5 -21q11 -8.5 21 -13.5q-10 -5 -21 -13.5q-11 -8.5 -20.5 -21q-9.5 -12.5 -16 -29.5q-6.5 -17 -6.5 -39v-176q0 -29 -14.5 -52q-14.5 -23 -44.5 -23l0 -118z" horiz-adv-x="339" unicode="}"/><glyph d="M456 341q-23 -49 -55 -82.5q-32 -33.5 -80 -33.5q-18 0 -36.5 7q-18.5 7 -33.5 17l-27 17q-11 7 -19.5 11q-8.5 4 -19.5 4q-14 0 -25 -10q-11 -10 -28 -39l-88 51q23 49 55 82.5q32 33.5 80 33.5q18 0 36.5 -7q18.5 -7 33.5 -17l27 -17q11 -7 19 -11q8 -4 20 -4q14 0 25 10q11 10 28 39z" horiz-adv-x="499" unicode="~"/><glyph horiz-adv-x="234"/><glyph d="M92 304h130v-464h-130zM92 524h130v-130l-130 0z" horiz-adv-x="313" unicode="¡"/><glyph d="M229 76q-79 14 -126.5 63q-47.5 49 -47.5 128v159q0 78 47.5 127.5q47.5 49.5 126.5 63.5l0 83h94v-82q80 -11 128 -60.5q48 -49.5 48 -132.5v-7h-123v10q0 28 -16 47.5q-16 19.5 -46 26.5l0 -311q26 4 44 25.5q18 21.5 18 51.5v10h123v-8q0 -41 -13 -74.5q-13 -33.5 -36.5 -58.5q-23.5 -25 -55.5 -40.5q-32 -15.5 -71 -21.5l0 -75h-94zM237 502q-29 -5 -45.5 -24.5q-16.5 -19.5 -16.5 -45.5v-171q0 -26 16.5 -45.5q16.5 -19.5 45.5 -24.5z" horiz-adv-x="550" unicode="¢"/><glyph d="M38 118h67v176h-67v118h67v109q0 45 15.5 81q15.5 36 44.5 61q29 25 70 38.5q41 13.5 91 13.5q49 0 89 -13q40 -13 68.5 -39.5q28.5 -26.5 44 -65.5q15.5 -39 15.5 -90v-34h-130v34q0 90 -89 90q-48 0 -68.5 -23.5q-20.5 -23.5 -20.5 -58.5v-103h129v-118h-129v-176h308v-118l-505 0z" horiz-adv-x="581" unicode="£"/><glyph d="M223 96h-162v103h162v81h-162v103h114l-167 270v47h119l162 -276l163 276h117v-47l-168 -270h115v-103h-163v-81h163v-103h-163v-96l-130 0z" horiz-adv-x="577" unicode="¥"/><glyph d="M88 250h127v-350h-127zM88 772h127v-330l-127 0z" horiz-adv-x="303" unicode="¦"/><glyph d="M173 28q0 -25 12 -42q12 -17 31 -27q19 -10 40.5 -14q21.5 -4 41.5 -4q48 0 74 15q26 15 26 41q0 15 -8 26q-8 11 -23 19.5q-15 8.5 -37 16q-22 7.5 -50 17.5l-26 9q-90 31 -139.5 72q-49.5 41 -49.5 112q0 47 20.5 81.5q20.5 34.5 48.5 63.5q-35 29 -49.5 56.5q-14.5 27.5 -14.5 68.5q0 36 15 66q15 30 43.5 52q28.5 22 69.5 34q41 12 92 12q51 0 94.5 -10.5q43.5 -10.5 75 -34q31.5 -23.5 49.5 -60.5q18 -37 18 -90l-124 0q0 24 -11.5 39.5q-11.5 15.5 -29 25q-17.5 9.5 -38.5 13.5q-21 4 -39 4q-45 0 -69 -14.5q-24 -14.5 -24 -38.5q0 -14 7.5 -24q7.5 -10 21.5 -18.5q14 -8.5 35 -16q21 -7.5 48 -16.5l40 -12q91 -30 140 -72q49 -42 49 -114q0 -48 -19 -82q-19 -34 -47 -64q34 -29 47 -55.5q13 -26.5 13 -67.5q0 -35 -15.5 -65.5q-15.5 -30.5 -45.5 -53q-30 -22.5 -74 -35.5q-44 -13 -101 -13q-49 0 -93 12q-44 12 -77.5 37q-33.5 25 -53 62.5q-19.5 37.5 -19.5 88.5zM376 166q17 23 24 42q7 19 7 39q0 16 -8.5 30.5q-8.5 14.5 -22 26q-13.5 11.5 -31.5 21q-18 9.5 -37 15.5l-79 27q-17 -22 -26 -41q-9 -19 -9 -39q0 -16 8.5 -30q8.5 -14 22.5 -25.5q14 -11.5 32.5 -21q18.5 -9.5 38.5 -16.5z" horiz-adv-x="593" unicode="§"/><glyph d="M64 705h130v-110h-130zM267 705h130v-110l-130 0z" horiz-adv-x="461" unicode="¨"/><glyph d="M420 -15q-76 0 -142 28q-66 28 -114.5 77q-48.5 49 -76 116q-27.5 67 -27.5 144q0 77 27.5 144q27.5 67 76 116q48.5 49 114.5 77q66 28 142 28q76 0 142 -28q66 -28 114.5 -77q48.5 -49 76 -116q27.5 -67 27.5 -144q0 -77 -27.5 -144q-27.5 -67 -76 -116q-48.5 -49 -114.5 -77q-66 -28 -142 -28zt0 0zM420 54q60 0 112 22.5q52 22.5 90 62.5q38 40 60 94q22 54 22 117q0 63 -22 117q-22 54 -60 94q-38 40 -90 62.5q-52 22.5 -112 22.5q-60 0 -112 -22.5q-52 -22.5 -90 -62.5q-38 -40 -60 -94q-22 -54 -22 -117q0 -63 22 -117q22 -54 60 -94q38 -40 90 -62.5q52 -22.5 112 -22.5zt0 0zM419 140q-78 0 -125.5 40q-47.5 40 -47.5 109v123q0 69 47.5 109q47.5 40 125.5 40q77 0 122.5 -39.5q45.5 -39.5 45.5 -111.5v-4h-102v4q0 27 -17 43.5q-17 16.5 -49 16.5q-38 0 -55 -15.5q-17 -15.5 -17 -41.5v-126q0 -26 17 -41.5q17 -15.5 55 -15.5q32 0 49 16.5q17 16.5 17 43.5v7h102v-5q0 -36 -12.5 -64q-12.5 -28 -35 -47.5q-22.5 -19.5 -53 -30t-67.5 -10.5z" horiz-adv-x="840" unicode="©"/><glyph d="M148 353q-52 0 -85 24.5q-33 24.5 -33 78.5q0 53 35.5 77.5q35.5 24.5 111.5 24.5h52v21q0 38 -43 38q-42 0 -42 -40l-98 0q0 28 7.5 51.5q7.5 23.5 24.5 40.5q17 17 44 26.5q27 9.5 66 9.5q39 0 66 -9q27 -9 44 -25.5q17 -16.5 25 -39q8 -22.5 8 -48.5v-225h-55l-24 31q-17 -16 -43 -26q-26 -10 -61 -10zt0 0zM169 430q17 0 33 7q16 7 27 21l0 37h-52q-27 0 -35.5 -10.5q-8.5 -10.5 -8.5 -21.5q0 -14 9.5 -23.5t26.5 -9.5z" horiz-adv-x="381" unicode="ª"/><glyph d="M36 314l128 210h112v-37l-104 -173l104 -174v-37h-112zM249 314l128 210h112v-37l-104 -173l104 -174v-37l-112 0z" horiz-adv-x="549" unicode="«"/><glyph d="M390 367h-332v108h448v-280l-116 0z" horiz-adv-x="564" unicode="¬"/><glyph d="M58 372h328v-118l-328 0z" horiz-adv-x="444" unicode="­"/><glyph d="M138 632h74q31 0 48.5 -14q17.5 -14 17.5 -40q0 -25 -10 -38q-10 -13 -27 -19l37 -51v-14h-42l-40 58h-16v-58h-42zM213 551q9 0 16 5q7 5 7 17q0 11 -7 15q-7 4 -16 4h-33v-41zM205 371q-35 0 -65.5 13q-30.5 13 -53 36q-22.5 23 -35.5 54.5q-13 31.5 -13 68.5q0 37 13 68.5q13 31.5 35.5 54.5q22.5 23 53 36q30.5 13 65.5 13q35 0 65.5 -13q30.5 -13 53 -36q22.5 -23 35.5 -54.5q13 -31.5 13 -68.5q0 -37 -13 -68.5q-13 -31.5 -35.5 -54.5q-22.5 -23 -53 -36q-30.5 -13 -65.5 -13zt0 0zM205 409q27 0 50 10q23 10 40 28q17 18 27 42.5q10 24.5 10 53.5q0 29 -10 53.5q-10 24.5 -27 42.5q-17 18 -40 28q-23 10 -50 10q-27 0 -50 -10q-23 -10 -40 -28q-17 -18 -27 -42.5q-10 -24.5 -10 -53.5q0 -29 10 -53.5q10 -24.5 27 -42.5q17 -18 40 -28t50 -10z" horiz-adv-x="410" unicode="®"/><glyph d="M50 700h322v-96l-322 0z" horiz-adv-x="422" unicode="¯"/><glyph d="M196 449q21 0 32.5 13q11.5 13 11.5 32v83q0 19 -11.5 32q-11.5 13 -32.5 13q-22 0 -33 -13.5q-11 -13.5 -11 -31.5v-83q0 -18 11 -31.5q11 -13.5 33 -13.5zt0 0zM196 356q-73 0 -115.5 39q-42.5 39 -42.5 117v47q0 78 42.5 117q42.5 39 115.5 39q73 0 115.5 -39q42.5 -39 42.5 -117v-47q0 -78 -42.5 -117t-115.5 -39z" horiz-adv-x="392" unicode="°"/><glyph d="M227 344h-165v108h165v155h118v-155h165v-108h-165v-154h-118zM62 109h448v-109l-448 0z" horiz-adv-x="572" unicode="±"/><glyph d="M25 437l109 84q25 20 34 32q9 12 9 25q0 11 -8 17.5q-8 6.5 -21 6.5q-12 0 -21.5 -7q-9.5 -7 -9.5 -19l-97 0q0 31 10.5 55q10.5 24 28.5 40.5q18 16.5 42 25q24 8.5 52 8.5q28 0 52 -8.5q24 -8.5 40.5 -23.5q16.5 -15 26 -35.5q9.5 -20.5 9.5 -43.5q0 -21 -5.5 -37q-5.5 -16 -14.5 -29.5q-9 -13.5 -21.5 -25.5q-12.5 -12 -26.5 -24l-45 -34h115v-86l-258 0z" horiz-adv-x="313" unicode="²"/><glyph d="M161 353q-64 0 -102.5 35.5q-38.5 35.5 -38.5 92.5l87 0q0 -17 13.5 -29q13.5 -12 36.5 -12q22 0 30.5 8q8.5 8 8.5 20q0 14 -10.5 19.5q-10.5 5.5 -27.5 5.5h-41v69h41q32 0 32 29q0 12 -9 20q-9 8 -26 8q-20 0 -31 -11.5q-11 -11.5 -11 -33.5l-87 0q0 63 36 97q36 34 96 34q61 0 94 -28.5q33 -28.5 33 -70.5q0 -23 -11 -40.5q-11 -17.5 -27 -26.5q20 -8 33.5 -28q13.5 -20 13.5 -46q0 -48 -35 -80t-98 -32z" horiz-adv-x="321" unicode="³"/><glyph d="M129 730h117v-45l-84 -95l-104 0z" horiz-adv-x="304" unicode="´"/><glyph d="M524 0h-75l-38 51q-25 -23 -61 -43q-36 -20 -87 -20q-15 0 -29.5 3q-14.5 3 -25.5 9l0 -160h-130v684h130v-332q0 -45 23.5 -65.5q23.5 -20.5 55.5 -20.5q19 0 35.5 6q16.5 6 30.5 14.5q14 8.5 24.5 17.5q10.5 9 16.5 16l0 364l130 0z" horiz-adv-x="602" unicode="µ"/><glyph d="M213 368q-81 0 -128 42q-47 42 -47 120v8q0 80 47 121q47 41 128 41h334v-787h-124v669h-86v-669l-124 0z" horiz-adv-x="635" unicode="¶"/><glyph d="M67 386h143v-143l-143 0z" horiz-adv-x="278" unicode="·"/><glyph d="M64 -115l80 115h104l-67 -160l-117 0z" horiz-adv-x="303" unicode="¸"/><glyph d="M94 552h-64v57l133 91h35v-342l-104 0z" horiz-adv-x="258" unicode="¹"/><glyph d="M196 449q25 0 39.5 16.5q14.5 16.5 14.5 39.5v48q0 23 -14.5 39.5q-14.5 16.5 -39.5 16.5q-26 0 -40.5 -16.5q-14.5 -16.5 -14.5 -39.5v-48q0 -23 14.5 -39.5q14.5 -16.5 40.5 -16.5zt0 0zM196 353q-157 0 -157 164v24q0 164 157 164q156 0 156 -164v-24q0 -164 -156 -164z" horiz-adv-x="391" unicode="º"/><glyph d="M300 314l-128 210h-112v-37l104 -173l-104 -174v-37h112zM513 314l-128 210h-112v-37l104 -173l-104 -174v-37l112 0z" horiz-adv-x="549" unicode="»"/><glyph d="M86 47l409 653h92v-47l-409 -653h-92zM94 552h-64v57l133 91h35v-342h-104zM607 342v-53l-97 -151h69v61h97v-61h41v-83h-41v-55h-97v55h-174v81l131 206z" horiz-adv-x="747" unicode="¼"/><glyph d="M86 47l409 653h92v-47l-409 -653h-92zM94 552h-64v57l133 91h35v-342h-104zM450 79l109 84q25 20 34 32q9 12 9 25q0 11 -8 17.5q-8 6.5 -21 6.5q-12 0 -21.5 -7q-9.5 -7 -9.5 -19l-97 0q0 31 10.5 55q10.5 24 28.5 40.5q18 16.5 42 25q24 8.5 52 8.5q28 0 52 -8.5q24 -8.5 40.5 -23.5q16.5 -15 26 -35.5q9.5 -20.5 9.5 -43.5q0 -21 -5.5 -37q-5.5 -16 -14.5 -29.5q-9 -13.5 -21.5 -25.5q-12.5 -12 -26.5 -24l-45 -34h115v-86l-258 0z" horiz-adv-x="738" unicode="½"/><glyph d="M161 353q-64 0 -102.5 35.5q-38.5 35.5 -38.5 92.5l87 0q0 -17 13.5 -29q13.5 -12 36.5 -12q22 0 30.5 8q8.5 8 8.5 20q0 14 -10.5 19.5q-10.5 5.5 -27.5 5.5h-41v69h41q32 0 32 29q0 12 -9 20q-9 8 -26 8q-20 0 -31 -11.5q-11 -11.5 -11 -33.5l-87 0q0 63 36 97q36 34 96 34q61 0 94 -28.5q33 -28.5 33 -70.5q0 -23 -11 -40.5q-11 -17.5 -27 -26.5q20 -8 33.5 -28q13.5 -20 13.5 -46q0 -48 -35 -80q-35 -32 -98 -32zt0 0zM647 342v-53l-97 -151h69v61h97v-61h41v-83h-41v-55h-97v55h-174v81l131 206zM126 47l409 653h92v-47l-409 -653l-92 0z" horiz-adv-x="787" unicode="¾"/><glyph d="M329 200l-100 -68q-34 -23 -53.5 -44.5q-19.5 -21.5 -19.5 -59.5q0 -35 24 -58.5q24 -23.5 70 -23.5q54 0 82.5 32.5q28.5 32.5 28.5 86.5l124 0q0 -57 -18 -101.5q-18 -44.5 -50 -74.5q-32 -30 -75 -45.5q-43 -15.5 -93 -15.5q-56 0 -98 16.5q-42 16.5 -70 44q-28 27.5 -41.5 63q-13.5 35.5 -13.5 74.5q0 42 13.5 72.5q13.5 30.5 34 54q20.5 23.5 45.5 40.5q25 17 49 32l31 19v60h130zM199 524h130v-130l-130 0z" horiz-adv-x="525" unicode="¿"/><glyph d="M18 47l242 653h139l243 -653v-47h-140l-56 164h-239l-58 -164h-131zM403 282l-76 228l-78 -228zM181 864v49h126l76 -151l-113 0z" horiz-adv-x="660" unicode="À"/><glyph d="M18 47l242 653h139l243 -653v-47h-140l-56 164h-239l-58 -164h-131zM403 282l-76 228l-78 -228zM358 913h126v-49l-90 -102l-112 0z" horiz-adv-x="660" unicode="Á"/><glyph d="M18 47l242 653h139l243 -653v-47h-140l-56 164h-239l-58 -164h-131zM403 282l-76 228l-78 -228zM173 806l101 107h110l102 -107v-44h-106l-51 58l-52 -58l-104 0z" horiz-adv-x="660" unicode="Â"/><glyph d="M18 47l242 653h139l243 -653v-47h-140l-56 164h-239l-58 -164h-131zM403 282l-76 228l-78 -228zM519 846q-20 -45 -49.5 -75q-29.5 -30 -73.5 -30q-17 0 -33.5 6.5q-16.5 6.5 -30.5 14.5l-25 16q-9 5 -17.5 9.5q-8.5 4.5 -19.5 4.5q-12 0 -22 -9q-10 -9 -25 -36l-80 47q20 45 49.5 75.5q29.5 30.5 73.5 30.5q17 0 33.5 -7q16.5 -7 31.5 -15l24 -15q9 -5 17.5 -10q8.5 -5 19.5 -5q12 0 22 9.5q10 9.5 25 36.5z" horiz-adv-x="660" unicode="Ã"/><glyph d="M18 47l242 653h139l243 -653v-47h-140l-56 164h-239l-58 -164h-131zM403 282l-76 228l-78 -228zM150 886h139v-118h-139zM367 886h140v-118l-140 0z" horiz-adv-x="660" unicode="Ä"/><glyph d="M18 47l242 653h139l243 -653v-47h-140l-56 164h-239l-58 -164h-131zM403 282l-76 228l-78 -228zM327 811q15 0 26 10.5q11 10.5 11 25.5q0 15 -11 25q-11 10 -26 10q-15 0 -25.5 -10q-10.5 -10 -10.5 -25q0 -15 10.5 -25.5q10.5 -10.5 25.5 -10.5zt0 0zM327 736q-25 0 -46 8.5q-21 8.5 -37.5 23.5q-16.5 15 -25.5 35.5q-9 20.5 -9 43.5q0 22 9 42.5q9 20.5 25.5 35.5q16.5 15 37.5 23.5q21 8.5 46 8.5q24 0 45.5 -8.5q21.5 -8.5 37.5 -23.5q16 -15 25.5 -35.5q9.5 -20.5 9.5 -42.5q0 -23 -9.5 -43.5q-9.5 -20.5 -25.5 -35.5q-16 -15 -37.5 -23.5t-45.5 -8.5z" horiz-adv-x="660" unicode="Å"/><glyph d="M8 47l412 653h536v-124h-315v-166h269v-118h-269v-168h317v-124h-459v164h-260l-103 -164h-128zM499 282v294l-185 -294z" horiz-adv-x="1006" unicode="Æ"/><glyph d="M208 -115l72 105q-104 14 -158 77.5q-54 63.5 -54 169.5v226q0 120 70.5 186q70.5 66 204.5 66q52 0 99 -14q47 -14 83 -43.5q36 -29.5 57 -76q21 -46.5 21 -111.5v-10h-142v10q0 31 -10.5 53q-10.5 22 -28.5 35.5q-18 13.5 -41 20q-23 6.5 -47 6.5q-63 0 -93.5 -30q-30.5 -30 -30.5 -82v-246q0 -52 30.5 -82q30.5 -30 93.5 -30q24 0 47 6q23 6 41 19.5q18 13.5 28.5 35.5q10.5 22 10.5 54v10h142v-10q0 -58 -17 -101.5q-17 -43.5 -46.5 -73q-29.5 -29.5 -69 -46q-39.5 -16.5 -84.5 -21.5l-61 -148l-117 0z" horiz-adv-x="661" unicode="Ç"/><glyph d="M88 700h456v-124h-314v-166h268v-118h-268v-168h316v-124h-458zM195 864v49h126l76 -151l-113 0z" horiz-adv-x="594" unicode="È"/><glyph d="M88 700h456v-124h-314v-166h268v-118h-268v-168h316v-124h-458zM306 913h126v-49l-90 -102l-112 0z" horiz-adv-x="594" unicode="É"/><glyph d="M88 700h456v-124h-314v-166h268v-118h-268v-168h316v-124h-458zM162 806l101 107h110l102 -107v-44h-106l-51 58l-52 -58l-104 0z" horiz-adv-x="594" unicode="Ê"/><glyph d="M88 700h456v-124h-314v-166h268v-118h-268v-168h316v-124h-458zM140 886h139v-118h-139zM357 886h139v-118l-139 0z" horiz-adv-x="594" unicode="Ë"/><glyph d="M88 700h142v-700h-142zM13 864v49h126l76 -151l-113 0z" horiz-adv-x="318" unicode="Ì"/><glyph d="M88 700h142v-700h-142zM183 913h126v-49l-90 -102l-112 0z" horiz-adv-x="318" unicode="Í"/><glyph d="M88 700h142v-700h-142zM3 806l101 107h110l102 -107v-44h-106l-51 58l-52 -58l-104 0z" horiz-adv-x="318" unicode="Î"/><glyph d="M88 700h142v-700h-142zM-18 887h139v-118h-139zM199 887h139v-118l-139 0z" horiz-adv-x="318" unicode="Ï"/><glyph d="M367 124q34 0 59.5 9q25.5 9 43 25q17.5 16 26 36q8.5 20 8.5 43v226q0 22 -8.5 42.5q-8.5 20.5 -26 36.5q-17.5 16 -43 25q-25.5 9 -59.5 9h-112v-166h119v-118h-119v-168zM113 292h-93v118h93v290h254q64 0 115.5 -16q51.5 -16 88 -46.5q36.5 -30.5 56 -75.5q19.5 -45 19.5 -103v-218q0 -58 -19.5 -103q-19.5 -45 -56 -75.5q-36.5 -30.5 -88 -46.5q-51.5 -16 -115.5 -16l-254 0z" horiz-adv-x="714" unicode="Ð"/><glyph d="M88 700h130l268 -436v436h142v-700h-130l-268 436v-436h-142zM548 846q-20 -45 -49.5 -75q-29.5 -30 -73.5 -30q-17 0 -33.5 6.5q-16.5 6.5 -30.5 14.5l-25 16q-9 5 -17.5 9.5q-8.5 4.5 -19.5 4.5q-12 0 -22 -9q-10 -9 -25 -36l-80 47q20 45 49.5 75.5q29.5 30.5 73.5 30.5q17 0 33.5 -7q16.5 -7 31.5 -15l24 -15q9 -5 17.5 -10q8.5 -5 19.5 -5q12 0 22 9.5q10 9.5 25 36.5z" horiz-adv-x="716" unicode="Ñ"/><glyph d="M347 115q36 0 61.5 9.5q25.5 9.5 42.5 26q17 16.5 25 37q8 20.5 8 43.5v238q0 22 -8 43q-8 21 -25 37.5q-17 16.5 -42.5 26q-25.5 9.5 -61.5 9.5q-36 0 -61.5 -9.5q-25.5 -9.5 -42.5 -26q-17 -16.5 -25 -37.5q-8 -21 -8 -43v-238q0 -23 8 -43.5q8 -20.5 25 -37q17 -16.5 42.5 -26q25.5 -9.5 61.5 -9.5zt0 0zM347 -15q-64 0 -115.5 17q-51.5 17 -88 49.5q-36.5 32.5 -56 79.5q-19.5 47 -19.5 107v224q0 60 19.5 107q19.5 47 56 79.5q36.5 32.5 88 49.5q51.5 17 115.5 17q64 0 115.5 -17q51.5 -17 88 -49.5q36.5 -32.5 56 -79.5q19.5 -47 19.5 -107v-224q0 -60 -19.5 -107q-19.5 -47 -56 -79.5q-36.5 -32.5 -88 -49.5q-51.5 -17 -115.5 -17zt0 0zM207 864v49h126l76 -151l-113 0z" horiz-adv-x="694" unicode="Ò"/><glyph d="M347 115q36 0 61.5 9.5q25.5 9.5 42.5 26q17 16.5 25 37q8 20.5 8 43.5v238q0 22 -8 43q-8 21 -25 37.5q-17 16.5 -42.5 26q-25.5 9.5 -61.5 9.5q-36 0 -61.5 -9.5q-25.5 -9.5 -42.5 -26q-17 -16.5 -25 -37.5q-8 -21 -8 -43v-238q0 -23 8 -43.5q8 -20.5 25 -37q17 -16.5 42.5 -26q25.5 -9.5 61.5 -9.5zt0 0zM347 -15q-64 0 -115.5 17q-51.5 17 -88 49.5q-36.5 32.5 -56 79.5q-19.5 47 -19.5 107v224q0 60 19.5 107q19.5 47 56 79.5q36.5 32.5 88 49.5q51.5 17 115.5 17q64 0 115.5 -17q51.5 -17 88 -49.5q36.5 -32.5 56 -79.5q19.5 -47 19.5 -107v-224q0 -60 -19.5 -107q-19.5 -47 -56 -79.5q-36.5 -32.5 -88 -49.5q-51.5 -17 -115.5 -17zt0 0zM367 913h126v-49l-90 -102l-112 0z" horiz-adv-x="694" unicode="Ó"/><glyph d="M347 115q36 0 61.5 9.5q25.5 9.5 42.5 26q17 16.5 25 37q8 20.5 8 43.5v238q0 22 -8 43q-8 21 -25 37.5q-17 16.5 -42.5 26q-25.5 9.5 -61.5 9.5q-36 0 -61.5 -9.5q-25.5 -9.5 -42.5 -26q-17 -16.5 -25 -37.5q-8 -21 -8 -43v-238q0 -23 8 -43.5q8 -20.5 25 -37q17 -16.5 42.5 -26q25.5 -9.5 61.5 -9.5zt0 0zM347 -15q-64 0 -115.5 17q-51.5 17 -88 49.5q-36.5 32.5 -56 79.5q-19.5 47 -19.5 107v224q0 60 19.5 107q19.5 47 56 79.5q36.5 32.5 88 49.5q51.5 17 115.5 17q64 0 115.5 -17q51.5 -17 88 -49.5q36.5 -32.5 56 -79.5q19.5 -47 19.5 -107v-224q0 -60 -19.5 -107q-19.5 -47 -56 -79.5q-36.5 -32.5 -88 -49.5q-51.5 -17 -115.5 -17zt0 0zM190 806l101 107h110l102 -107v-44h-106l-51 58l-52 -58l-104 0z" horiz-adv-x="694" unicode="Ô"/><glyph d="M347 115q36 0 61.5 9.5q25.5 9.5 42.5 26q17 16.5 25 37q8 20.5 8 43.5v238q0 22 -8 43q-8 21 -25 37.5q-17 16.5 -42.5 26q-25.5 9.5 -61.5 9.5q-36 0 -61.5 -9.5q-25.5 -9.5 -42.5 -26q-17 -16.5 -25 -37.5q-8 -21 -8 -43v-238q0 -23 8 -43.5q8 -20.5 25 -37q17 -16.5 42.5 -26q25.5 -9.5 61.5 -9.5zt0 0zM347 -15q-64 0 -115.5 17q-51.5 17 -88 49.5q-36.5 32.5 -56 79.5q-19.5 47 -19.5 107v224q0 60 19.5 107q19.5 47 56 79.5q36.5 32.5 88 49.5q51.5 17 115.5 17q64 0 115.5 -17q51.5 -17 88 -49.5q36.5 -32.5 56 -79.5q19.5 -47 19.5 -107v-224q0 -60 -19.5 -107q-19.5 -47 -56 -79.5q-36.5 -32.5 -88 -49.5q-51.5 -17 -115.5 -17zt0 0zM543 846q-20 -45 -49.5 -75q-29.5 -30 -73.5 -30q-17 0 -33.5 6.5q-16.5 6.5 -30.5 14.5l-25 16q-9 5 -17.5 9.5q-8.5 4.5 -19.5 4.5q-12 0 -22 -9q-10 -9 -25 -36l-80 47q20 45 49.5 75.5q29.5 30.5 73.5 30.5q17 0 33.5 -7q16.5 -7 31.5 -15l24 -15q9 -5 17.5 -10q8.5 -5 19.5 -5q12 0 22 9.5q10 9.5 25 36.5z" horiz-adv-x="694" unicode="Õ"/><glyph d="M347 115q36 0 61.5 9.5q25.5 9.5 42.5 26q17 16.5 25 37q8 20.5 8 43.5v238q0 22 -8 43q-8 21 -25 37.5q-17 16.5 -42.5 26q-25.5 9.5 -61.5 9.5q-36 0 -61.5 -9.5q-25.5 -9.5 -42.5 -26q-17 -16.5 -25 -37.5q-8 -21 -8 -43v-238q0 -23 8 -43.5q8 -20.5 25 -37q17 -16.5 42.5 -26q25.5 -9.5 61.5 -9.5zt0 0zM347 -15q-64 0 -115.5 17q-51.5 17 -88 49.5q-36.5 32.5 -56 79.5q-19.5 47 -19.5 107v224q0 60 19.5 107q19.5 47 56 79.5q36.5 32.5 88 49.5q51.5 17 115.5 17q64 0 115.5 -17q51.5 -17 88 -49.5q36.5 -32.5 56 -79.5q19.5 -47 19.5 -107v-224q0 -60 -19.5 -107q-19.5 -47 -56 -79.5q-36.5 -32.5 -88 -49.5q-51.5 -17 -115.5 -17zt0 0zM170 886h139v-118h-139zM387 886h140v-118l-140 0z" horiz-adv-x="694" unicode="Ö"/><glyph d="M62 161l147 148l-147 148l84 84l147 -148l148 148l83 -84l-148 -148l148 -148l-83 -83l-148 148l-147 -148z" horiz-adv-x="586" unicode="×"/><glyph d="M347 -15q-17 0 -32.5 1.5q-15.5 1.5 -30.5 3.5l-26 -90h-104v47l26 78q-54 32 -83 85.5q-29 53.5 -29 127.5v224q0 60 19.5 107q19.5 47 56 79.5q36.5 32.5 88 49.5q51.5 17 115.5 17q16 0 30.5 -1.5q14.5 -1.5 28.5 -3.5l27 90h104v-47l-26 -77q55 -31 85 -85q30 -54 30 -129v-224q0 -60 -19.5 -107q-19.5 -47 -56 -79.5q-36.5 -32.5 -88 -49.5q-51.5 -17 -115.5 -17zt0 0zM347 115q36 0 61.5 9.5q25.5 9.5 42.5 26q17 16.5 25 37q8 20.5 8 43.5v238q0 22 -7.5 42q-7.5 20 -23.5 36l-132 -431q6 -1 12.5 -1q6.5 0 13.5 0zt0 0zM210 231q0 -21 7 -41q7 -20 22 -36l130 430q-5 0 -10.5 0.5q-5.5 0.5 -11.5 0.5q-36 0 -61.5 -9.5q-25.5 -9.5 -42.5 -26q-17 -16.5 -25 -37.5q-8 -21 -8 -43z" horiz-adv-x="694" unicode="Ø"/><glyph d="M619 700v-470q0 -58 -19 -103.5q-19 -45.5 -54 -77q-35 -31.5 -85 -48q-50 -16.5 -112 -16.5q-62 0 -112 16.5q-50 16.5 -85.5 48q-35.5 31.5 -54.5 77q-19 45.5 -19 103.5v470h142v-476q0 -21 7.5 -40.5q7.5 -19.5 23 -35q15.5 -15.5 40 -24.5q24.5 -9 58.5 -9q33 0 57 9q24 9 39.5 24.5q15.5 15.5 23 35q7.5 19.5 7.5 40.5v476zM225 864v49h126l76 -151l-113 0z" horiz-adv-x="696" unicode="Ù"/><glyph d="M619 700v-470q0 -58 -19 -103.5q-19 -45.5 -54 -77q-35 -31.5 -85 -48q-50 -16.5 -112 -16.5q-62 0 -112 16.5q-50 16.5 -85.5 48q-35.5 31.5 -54.5 77q-19 45.5 -19 103.5v470h142v-476q0 -21 7.5 -40.5q7.5 -19.5 23 -35q15.5 -15.5 40 -24.5q24.5 -9 58.5 -9q33 0 57 9q24 9 39.5 24.5q15.5 15.5 23 35q7.5 19.5 7.5 40.5v476zM352 913h126v-49l-90 -102l-112 0z" horiz-adv-x="696" unicode="Ú"/><glyph d="M619 700v-470q0 -58 -19 -103.5q-19 -45.5 -54 -77q-35 -31.5 -85 -48q-50 -16.5 -112 -16.5q-62 0 -112 16.5q-50 16.5 -85.5 48q-35.5 31.5 -54.5 77q-19 45.5 -19 103.5v470h142v-476q0 -21 7.5 -40.5q7.5 -19.5 23 -35q15.5 -15.5 40 -24.5q24.5 -9 58.5 -9q33 0 57 9q24 9 39.5 24.5q15.5 15.5 23 35q7.5 19.5 7.5 40.5v476zM192 806l101 107h110l102 -107v-44h-106l-51 58l-52 -58l-104 0z" horiz-adv-x="696" unicode="Û"/><glyph d="M619 700v-470q0 -58 -19 -103.5q-19 -45.5 -54 -77q-35 -31.5 -85 -48q-50 -16.5 -112 -16.5q-62 0 -112 16.5q-50 16.5 -85.5 48q-35.5 31.5 -54.5 77q-19 45.5 -19 103.5v470h142v-476q0 -21 7.5 -40.5q7.5 -19.5 23 -35q15.5 -15.5 40 -24.5q24.5 -9 58.5 -9q33 0 57 9q24 9 39.5 24.5q15.5 15.5 23 35q7.5 19.5 7.5 40.5v476zM171 886h139v-118h-139zM388 886h140v-118l-140 0z" horiz-adv-x="696" unicode="Ü"/><glyph d="M238 277l-230 376v47h140l162 -290l169 290h131v-47l-230 -370v-283h-142zM318 913h126v-49l-90 -102l-112 0z" horiz-adv-x="618" unicode="Ý"/><glyph d="M88 700h142v-129h168q94 0 146.5 -59q52.5 -59 52.5 -159q0 -100 -52.5 -159q-52.5 -59 -146.5 -59h-168v-135h-142zM372 259q31 0 56 22.5q25 22.5 25 71.5q0 49 -25 71.5q-25 22.5 -56 22.5h-142l0 -188z" horiz-adv-x="640" unicode="Þ"/><glyph d="M78 464q0 117 59.5 180q59.5 63 164.5 63q52 0 93 -14q41 -14 69 -39q28 -25 42.5 -58q14.5 -33 14.5 -70q0 -50 -14 -83.5q-14 -33.5 -52 -56.5q43 -18 72 -64.5q29 -46.5 29 -107.5q0 -49 -16.5 -88.5q-16.5 -39.5 -47 -67.5q-30.5 -28 -73 -43q-42.5 -15 -94.5 -15q-20 0 -34.5 1.5q-14.5 1.5 -25.5 3.5l0 115q7 -1 16 -1q8 -1 16.5 -1q8.5 0 18.5 0q30 0 50.5 9q20.5 9 34 23.5q13.5 14.5 19.5 33q6 18.5 6 37.5q0 53 -29 79q-29 26 -81 26h-43v113h32q80 0 80 76q0 30 -19 52q-19 22 -63 22q-47 0 -71 -29q-24 -29 -24 -83v-477l-130 0z" horiz-adv-x="604" unicode="ß"/><glyph d="M219 -12q-35 0 -67 10q-32 10 -56 29.5q-24 19.5 -38.5 48.5q-14.5 29 -14.5 68q0 81 52.5 125.5q52.5 44.5 159.5 44.5h108v33q0 34 -20 52.5q-20 18.5 -64 18.5q-45 0 -64.5 -17q-19.5 -17 -19.5 -43l-127 0q0 39 12.5 71.5q12.5 32.5 39 56q26.5 23.5 66 37q39.5 13.5 93.5 13.5q54 0 94 -13.5q40 -13.5 67 -37.5q27 -24 40 -57q13 -33 13 -72v-356h-75l-38 51q-29 -26 -65.5 -44.5q-36.5 -18.5 -95.5 -18.5zt0 0zM246 106q38 0 66 12.5q28 12.5 51 38.5l0 58h-108q-26 0 -42 -5.5q-16 -5.5 -25 -13.5q-9 -8 -12 -17.5q-3 -9.5 -3 -17.5q0 -55 73 -55zt0 0zM166 685v45h117l71 -140l-105 0z" horiz-adv-x="566" unicode="à"/><glyph d="M219 -12q-35 0 -67 10q-32 10 -56 29.5q-24 19.5 -38.5 48.5q-14.5 29 -14.5 68q0 81 52.5 125.5q52.5 44.5 159.5 44.5h108v33q0 34 -20 52.5q-20 18.5 -64 18.5q-45 0 -64.5 -17q-19.5 -17 -19.5 -43l-127 0q0 39 12.5 71.5q12.5 32.5 39 56q26.5 23.5 66 37q39.5 13.5 93.5 13.5q54 0 94 -13.5q40 -13.5 67 -37.5q27 -24 40 -57q13 -33 13 -72v-356h-75l-38 51q-29 -26 -65.5 -44.5q-36.5 -18.5 -95.5 -18.5zt0 0zM246 106q38 0 66 12.5q28 12.5 51 38.5l0 58h-108q-26 0 -42 -5.5q-16 -5.5 -25 -13.5q-9 -8 -12 -17.5q-3 -9.5 -3 -17.5q0 -55 73 -55zt0 0zM284 730h117v-45l-84 -95l-104 0z" horiz-adv-x="566" unicode="á"/><glyph d="M219 -12q-35 0 -67 10q-32 10 -56 29.5q-24 19.5 -38.5 48.5q-14.5 29 -14.5 68q0 81 52.5 125.5q52.5 44.5 159.5 44.5h108v33q0 34 -20 52.5q-20 18.5 -64 18.5q-45 0 -64.5 -17q-19.5 -17 -19.5 -43l-127 0q0 39 12.5 71.5q12.5 32.5 39 56q26.5 23.5 66 37q39.5 13.5 93.5 13.5q54 0 94 -13.5q40 -13.5 67 -37.5q27 -24 40 -57q13 -33 13 -72v-356h-75l-38 51q-29 -26 -65.5 -44.5q-36.5 -18.5 -95.5 -18.5zt0 0zM246 106q38 0 66 12.5q28 12.5 51 38.5l0 58h-108q-26 0 -42 -5.5q-16 -5.5 -25 -13.5q-9 -8 -12 -17.5q-3 -9.5 -3 -17.5q0 -55 73 -55zt0 0zM142 631l94 99h103l95 -99v-41h-99l-48 54l-48 -54l-97 0z" horiz-adv-x="566" unicode="â"/><glyph d="M219 -12q-35 0 -67 10q-32 10 -56 29.5q-24 19.5 -38.5 48.5q-14.5 29 -14.5 68q0 81 52.5 125.5q52.5 44.5 159.5 44.5h108v33q0 34 -20 52.5q-20 18.5 -64 18.5q-45 0 -64.5 -17q-19.5 -17 -19.5 -43l-127 0q0 39 12.5 71.5q12.5 32.5 39 56q26.5 23.5 66 37q39.5 13.5 93.5 13.5q54 0 94 -13.5q40 -13.5 67 -37.5q27 -24 40 -57q13 -33 13 -72v-356h-75l-38 51q-29 -26 -65.5 -44.5q-36.5 -18.5 -95.5 -18.5zt0 0zM246 106q38 0 66 12.5q28 12.5 51 38.5l0 58h-108q-26 0 -42 -5.5q-16 -5.5 -25 -13.5q-9 -8 -12 -17.5q-3 -9.5 -3 -17.5q0 -55 73 -55zt0 0zM478 683q-20 -44 -48.5 -73.5q-28.5 -29.5 -71.5 -29.5q-17 0 -33 6.5q-16 6.5 -30 14.5l-24 15q-9 5 -17 9.5q-8 4.5 -19 4.5q-12 0 -21.5 -9q-9.5 -9 -24.5 -35l-78 46q20 44 48.5 73.5q28.5 29.5 71.5 29.5q17 0 33 -6.5q16 -6.5 30 -14.5l24 -15q9 -5 17 -9.5q8 -4.5 19 -4.5q12 0 21.5 9q9.5 9 24.5 35z" horiz-adv-x="566" unicode="ã"/><glyph d="M219 -12q-35 0 -67 10q-32 10 -56 29.5q-24 19.5 -38.5 48.5q-14.5 29 -14.5 68q0 81 52.5 125.5q52.5 44.5 159.5 44.5h108v33q0 34 -20 52.5q-20 18.5 -64 18.5q-45 0 -64.5 -17q-19.5 -17 -19.5 -43l-127 0q0 39 12.5 71.5q12.5 32.5 39 56q26.5 23.5 66 37q39.5 13.5 93.5 13.5q54 0 94 -13.5q40 -13.5 67 -37.5q27 -24 40 -57q13 -33 13 -72v-356h-75l-38 51q-29 -26 -65.5 -44.5q-36.5 -18.5 -95.5 -18.5zt0 0zM246 106q38 0 66 12.5q28 12.5 51 38.5l0 58h-108q-26 0 -42 -5.5q-16 -5.5 -25 -13.5q-9 -8 -12 -17.5q-3 -9.5 -3 -17.5q0 -55 73 -55zt0 0zM121 705h130v-110h-130zM324 705h130v-110l-130 0z" horiz-adv-x="566" unicode="ä"/><glyph d="M219 -12q-35 0 -67 10q-32 10 -56 29.5q-24 19.5 -38.5 48.5q-14.5 29 -14.5 68q0 81 52.5 125.5q52.5 44.5 159.5 44.5h108v33q0 34 -20 52.5q-20 18.5 -64 18.5q-45 0 -64.5 -17q-19.5 -17 -19.5 -43l-127 0q0 39 12.5 71.5q12.5 32.5 39 56q26.5 23.5 66 37q39.5 13.5 93.5 13.5q54 0 94 -13.5q40 -13.5 67 -37.5q27 -24 40 -57q13 -33 13 -72v-356h-75l-38 51q-29 -26 -65.5 -44.5q-36.5 -18.5 -95.5 -18.5zt0 0zM246 106q38 0 66 12.5q28 12.5 51 38.5l0 58h-108q-26 0 -42 -5.5q-16 -5.5 -25 -13.5q-9 -8 -12 -17.5q-3 -9.5 -3 -17.5q0 -55 73 -55zt0 0zM289 635q14 0 24 9.5q10 9.5 10 23.5q0 14 -10 23.5q-10 9.5 -24 9.5q-14 0 -24 -9.5q-10 -9.5 -10 -23.5q0 -14 10 -23.5q10 -9.5 24 -9.5zt0 0zM289 565q-23 0 -43 8q-20 8 -35 22q-15 14 -23.5 33q-8.5 19 -8.5 40q0 21 8.5 40q8.5 19 23.5 33q15 14 35 22q20 8 43 8q22 0 42 -8q20 -8 35 -22q15 -14 24 -33q9 -19 9 -40q0 -21 -9 -40q-9 -19 -24 -33q-15 -14 -35 -22t-42 -8z" horiz-adv-x="566" unicode="å"/><glyph d="M222 -12q-37 0 -69.5 10q-32.5 10 -57 29.5q-24.5 19.5 -38.5 48.5q-14 29 -14 68q0 82 53 126q53 44 163 44h104v33q0 34 -20 52.5q-20 18.5 -64 18.5q-45 0 -64.5 -17q-19.5 -17 -19.5 -43l-127 0q0 39 12.5 71.5q12.5 32.5 39 56q26.5 23.5 66 37q39.5 13.5 93.5 13.5q97 0 155 -45q31 23 71 34q40 11 86 11q49 0 89 -12.5q40 -12.5 68.5 -37q28.5 -24.5 44.5 -60.5q16 -36 16 -82v-125h-316v-36q0 -34 23.5 -55.5q23.5 -21.5 74.5 -21.5q38 0 59 14q21 14 28 39l131 0q-8 -81 -64.5 -126q-56.5 -45 -153.5 -45q-132 0 -195 81q-27 -33 -70 -57q-43 -24 -104 -24zt0 0zM246 106q35 0 63 11.5q28 11.5 54 39.5l0 58h-105q-27 0 -43.5 -5q-16.5 -5 -26 -13.5q-9.5 -8.5 -12.5 -18.5q-3 -10 -3 -19q0 -24 19 -38.5q19 -14.5 54 -14.5zt0 0zM679 318v26q0 34 -24 54q-24 20 -69 20q-46 0 -69.5 -20.5q-23.5 -20.5 -23.5 -53.5l0 -26z" horiz-adv-x="864" unicode="æ"/><glyph d="M132 -115l76 110q-71 16 -112 64.5q-41 48.5 -41 122.5v160q0 45 16 81q16 36 45 61q29 25 70 38.5q41 13.5 91 13.5q49 0 88.5 -13q39.5 -13 67.5 -38q28 -25 43.5 -61.5q15.5 -36.5 15.5 -83.5v-6h-130v6q0 35 -21.5 56.5q-21.5 21.5 -63.5 21.5q-48 0 -70 -20.5q-22 -20.5 -22 -53.5v-164q0 -33 22 -53.5q22 -20.5 70 -20.5q42 0 63.5 21q21.5 21 21.5 56v10h130v-7q0 -84 -49.5 -135q-49.5 -51 -130.5 -61l-63 -150l-117 0z" horiz-adv-x="543" unicode="ç"/><glyph d="M283 -12q-51 0 -93 12.5q-42 12.5 -72 37q-30 24.5 -46.5 60.5q-16.5 36 -16.5 82v162q0 45 16.5 81q16.5 36 46.5 61q30 25 72 38.5q42 13.5 93 13.5q48 0 88.5 -12.5q40.5 -12.5 69 -37q28.5 -24.5 44.5 -60.5q16 -36 16 -82v-125h-316v-37q0 -33 23.5 -54.5q23.5 -21.5 74.5 -21.5q38 0 59 14q21 14 28 39l130 0q-8 -81 -64 -126q-56 -45 -153 -45zt0 0zM371 318v26q0 34 -24 54q-24 20 -69 20q-47 0 -70 -20.5q-23 -20.5 -23 -53.5v-26zM177 685v45h117l71 -140l-105 0z" horiz-adv-x="556" unicode="è"/><glyph d="M283 -12q-51 0 -93 12.5q-42 12.5 -72 37q-30 24.5 -46.5 60.5q-16.5 36 -16.5 82v162q0 45 16.5 81q16.5 36 46.5 61q30 25 72 38.5q42 13.5 93 13.5q48 0 88.5 -12.5q40.5 -12.5 69 -37q28.5 -24.5 44.5 -60.5q16 -36 16 -82v-125h-316v-37q0 -33 23.5 -54.5q23.5 -21.5 74.5 -21.5q38 0 59 14q21 14 28 39l130 0q-8 -81 -64 -126q-56 -45 -153 -45zt0 0zM371 318v26q0 34 -24 54q-24 20 -69 20q-47 0 -70 -20.5q-23 -20.5 -23 -53.5v-26zM283 730h117v-45l-84 -95l-104 0z" horiz-adv-x="556" unicode="é"/><glyph d="M283 -12q-51 0 -93 12.5q-42 12.5 -72 37q-30 24.5 -46.5 60.5q-16.5 36 -16.5 82v162q0 45 16.5 81q16.5 36 46.5 61q30 25 72 38.5q42 13.5 93 13.5q48 0 88.5 -12.5q40.5 -12.5 69 -37q28.5 -24.5 44.5 -60.5q16 -36 16 -82v-125h-316v-37q0 -33 23.5 -54.5q23.5 -21.5 74.5 -21.5q38 0 59 14q21 14 28 39l130 0q-8 -81 -64 -126q-56 -45 -153 -45zt0 0zM371 318v26q0 34 -24 54q-24 20 -69 20q-47 0 -70 -20.5q-23 -20.5 -23 -53.5v-26zM134 631l94 99h103l95 -99v-41h-99l-48 54l-48 -54l-97 0z" horiz-adv-x="556" unicode="ê"/><glyph d="M283 -12q-51 0 -93 12.5q-42 12.5 -72 37q-30 24.5 -46.5 60.5q-16.5 36 -16.5 82v162q0 45 16.5 81q16.5 36 46.5 61q30 25 72 38.5q42 13.5 93 13.5q48 0 88.5 -12.5q40.5 -12.5 69 -37q28.5 -24.5 44.5 -60.5q16 -36 16 -82v-125h-316v-37q0 -33 23.5 -54.5q23.5 -21.5 74.5 -21.5q38 0 59 14q21 14 28 39l130 0q-8 -81 -64 -126q-56 -45 -153 -45zt0 0zM371 318v26q0 34 -24 54q-24 20 -69 20q-47 0 -70 -20.5q-23 -20.5 -23 -53.5v-26zM114 705h130v-110h-130zM317 705h130v-110l-130 0z" horiz-adv-x="556" unicode="ë"/><glyph d="M9 683v45h117l71 -140h-105zM78 524h130v-524l-130 0z" horiz-adv-x="286" unicode="ì"/><glyph d="M162 730h117v-45l-84 -95h-104zM78 524h130v-524l-130 0z" horiz-adv-x="286" unicode="í"/><glyph d="M78 524h130v-524h-130zM-3 631l94 99h103l95 -99v-41h-99l-48 54l-48 -54l-97 0z" horiz-adv-x="286" unicode="î"/><glyph d="M-23 705h130v-110h-130zM180 705h130v-110h-130zM78 524h130v-524l-130 0z" horiz-adv-x="286" unicode="ï"/><glyph d="M281 -12q-51 0 -93 13.5q-42 13.5 -72 38.5q-30 25 -46.5 61q-16.5 36 -16.5 81v109q0 51 15.5 87.5q15.5 36.5 41.5 59.5q26 23 60.5 34q34.5 11 73.5 11q43 0 65 -9q22 -9 41 -22q-6 11 -17.5 23q-11.5 12 -22.5 23q-13 12 -29 26l-143 0v75h78l-35 45v61h117l81 -106h112v-75h-55q22 -30 36 -56.5q14 -26.5 22 -54.5q8 -28 11.5 -61q3.5 -33 3.5 -76v-96q0 -46 -16.5 -82q-16.5 -36 -46.5 -60.5q-30 -24.5 -72 -37q-42 -12.5 -93 -12.5zt0 0zM281 106q50 0 74 24.5q24 24.5 24 57.5v125q-18 21 -42 36.5q-24 15.5 -59 15.5q-39 0 -67 -21q-28 -21 -28 -63v-93q0 -34 24.5 -58t73.5 -24z" horiz-adv-x="560" unicode="ð"/><glyph d="M78 524h75l38 -52q25 24 62.5 44q37.5 20 92.5 20q85 0 133.5 -53.5q48.5 -53.5 48.5 -149.5v-333h-130v325q0 48 -23.5 70.5q-23.5 22.5 -57.5 22.5q-19 0 -36 -6q-17 -6 -31.5 -14.5q-14.5 -8.5 -25 -18q-10.5 -9.5 -16.5 -16.5l0 -363h-130zM503 683q-20 -44 -48.5 -73.5q-28.5 -29.5 -71.5 -29.5q-17 0 -33 6.5q-16 6.5 -30 14.5l-24 15q-9 5 -17 9.5q-8 4.5 -19 4.5q-12 0 -21.5 -9q-9.5 -9 -24.5 -35l-78 46q20 44 48.5 73.5q28.5 29.5 71.5 29.5q17 0 33 -6.5q16 -6.5 30 -14.5l24 -15q9 -5 17 -9.5q8 -4.5 19 -4.5q12 0 21.5 9q9.5 9 24.5 35z" horiz-adv-x="601" unicode="ñ"/><glyph d="M283 106q49 0 73 24q24 24 24 58v148q0 34 -24 58q-24 24 -73 24q-51 0 -74.5 -24.5q-23.5 -24.5 -23.5 -57.5v-148q0 -33 23.5 -57.5q23.5 -24.5 74.5 -24.5zt0 0zM283 -12q-57 0 -100 15q-43 15 -71.5 41q-28.5 26 -42.5 61.5q-14 35.5 -14 76.5v160q0 41 14 76.5q14 35.5 42.5 61.5q28.5 26 71.5 41q43 15 100 15q57 0 99.5 -15q42.5 -15 71 -41q28.5 -26 42.5 -61.5q14 -35.5 14 -76.5v-160q0 -41 -14 -76.5q-14 -35.5 -42.5 -61.5q-28.5 -26 -71 -41q-42.5 -15 -99.5 -15zt0 0zM161 685v45h117l71 -140l-105 0z" horiz-adv-x="565" unicode="ò"/><glyph d="M283 106q49 0 73 24q24 24 24 58v148q0 34 -24 58q-24 24 -73 24q-51 0 -74.5 -24.5q-23.5 -24.5 -23.5 -57.5v-148q0 -33 23.5 -57.5q23.5 -24.5 74.5 -24.5zt0 0zM283 -12q-57 0 -100 15q-43 15 -71.5 41q-28.5 26 -42.5 61.5q-14 35.5 -14 76.5v160q0 41 14 76.5q14 35.5 42.5 61.5q28.5 26 71.5 41q43 15 100 15q57 0 99.5 -15q42.5 -15 71 -41q28.5 -26 42.5 -61.5q14 -35.5 14 -76.5v-160q0 -41 -14 -76.5q-14 -35.5 -42.5 -61.5q-28.5 -26 -71 -41q-42.5 -15 -99.5 -15zt0 0zM287 730h117v-45l-84 -95l-104 0z" horiz-adv-x="565" unicode="ó"/><glyph d="M283 106q49 0 73 24q24 24 24 58v148q0 34 -24 58q-24 24 -73 24q-51 0 -74.5 -24.5q-23.5 -24.5 -23.5 -57.5v-148q0 -33 23.5 -57.5q23.5 -24.5 74.5 -24.5zt0 0zM283 -12q-57 0 -100 15q-43 15 -71.5 41q-28.5 26 -42.5 61.5q-14 35.5 -14 76.5v160q0 41 14 76.5q14 35.5 42.5 61.5q28.5 26 71.5 41q43 15 100 15q57 0 99.5 -15q42.5 -15 71 -41q28.5 -26 42.5 -61.5q14 -35.5 14 -76.5v-160q0 -41 -14 -76.5q-14 -35.5 -42.5 -61.5q-28.5 -26 -71 -41q-42.5 -15 -99.5 -15zt0 0zM137 631l94 99h103l95 -99v-41h-99l-48 54l-48 -54l-97 0z" horiz-adv-x="565" unicode="ô"/><glyph d="M283 106q49 0 73 24q24 24 24 58v148q0 34 -24 58q-24 24 -73 24q-51 0 -74.5 -24.5q-23.5 -24.5 -23.5 -57.5v-148q0 -33 23.5 -57.5q23.5 -24.5 74.5 -24.5zt0 0zM283 -12q-57 0 -100 15q-43 15 -71.5 41q-28.5 26 -42.5 61.5q-14 35.5 -14 76.5v160q0 41 14 76.5q14 35.5 42.5 61.5q28.5 26 71.5 41q43 15 100 15q57 0 99.5 -15q42.5 -15 71 -41q28.5 -26 42.5 -61.5q14 -35.5 14 -76.5v-160q0 -41 -14 -76.5q-14 -35.5 -42.5 -61.5q-28.5 -26 -71 -41q-42.5 -15 -99.5 -15zt0 0zM466 683q-20 -44 -48.5 -73.5q-28.5 -29.5 -71.5 -29.5q-17 0 -33 6.5q-16 6.5 -30 14.5l-24 15q-9 5 -17 9.5q-8 4.5 -19 4.5q-12 0 -21.5 -9q-9.5 -9 -24.5 -35l-78 46q20 44 48.5 73.5q28.5 29.5 71.5 29.5q17 0 33 -6.5q16 -6.5 30 -14.5l24 -15q9 -5 17 -9.5q8 -4.5 19 -4.5q12 0 21.5 9q9.5 9 24.5 35z" horiz-adv-x="565" unicode="õ"/><glyph d="M283 106q49 0 73 24q24 24 24 58v148q0 34 -24 58q-24 24 -73 24q-51 0 -74.5 -24.5q-23.5 -24.5 -23.5 -57.5v-148q0 -33 23.5 -57.5q23.5 -24.5 74.5 -24.5zt0 0zM283 -12q-57 0 -100 15q-43 15 -71.5 41q-28.5 26 -42.5 61.5q-14 35.5 -14 76.5v160q0 41 14 76.5q14 35.5 42.5 61.5q28.5 26 71.5 41q43 15 100 15q57 0 99.5 -15q42.5 -15 71 -41q28.5 -26 42.5 -61.5q14 -35.5 14 -76.5v-160q0 -41 -14 -76.5q-14 -35.5 -42.5 -61.5q-28.5 -26 -71 -41q-42.5 -15 -99.5 -15zt0 0zM116 705h130v-110h-130zM319 705h130v-110l-130 0z" horiz-adv-x="565" unicode="ö"/><glyph d="M210 192h151v-127h-151zM62 367h448v-108h-448zM210 561h151v-127l-151 0z" horiz-adv-x="572" unicode="÷"/><glyph d="M283 -12q-27 0 -50.5 3.5q-23.5 3.5 -44.5 9.5l-70 -127h-63v61l59 107q-29 26 -44 62q-15 36 -15 78v160q0 41 14 76.5q14 35.5 42.5 61.5q28.5 26 71.5 41q43 15 100 15q27 0 50.5 -3.5q23.5 -3.5 44.5 -10.5l68 124h64v-61l-58 -105q58 -53 58 -138v-160q0 -41 -14 -76.5q-14 -35.5 -42.5 -61.5q-28.5 -26 -71 -41q-42.5 -15 -99.5 -15zt0 0zM185 188q0 -13 3 -23l135 247q-17 6 -40 6q-51 0 -74.5 -24.5q-23.5 -24.5 -23.5 -57.5zM283 106q49 0 73 24q24 24 24 58v148q0 11 -3 20l-135 -245q9 -2 19 -3.5t22 -1.5z" horiz-adv-x="572" unicode="ø"/><glyph d="M519 0h-75l-38 51q-25 -23 -62 -43q-37 -20 -91 -20q-85 0 -132.5 53q-47.5 53 -47.5 148v335h130v-327q0 -48 23 -69.5q23 -21.5 56 -21.5q19 0 35.5 6q16.5 6 30.5 14.5q14 8.5 24.5 17.5q10.5 9 16.5 16l0 364h130zM184 685v45h117l71 -140l-105 0z" horiz-adv-x="597" unicode="ù"/><glyph d="M519 0h-75l-38 51q-25 -23 -62 -43q-37 -20 -91 -20q-85 0 -132.5 53q-47.5 53 -47.5 148v335h130v-327q0 -48 23 -69.5q23 -21.5 56 -21.5q19 0 35.5 6q16.5 6 30.5 14.5q14 8.5 24.5 17.5q10.5 9 16.5 16l0 364h130zM293 730h117v-45l-84 -95l-104 0z" horiz-adv-x="597" unicode="ú"/><glyph d="M519 0h-75l-38 51q-25 -23 -62 -43q-37 -20 -91 -20q-85 0 -132.5 53q-47.5 53 -47.5 148v335h130v-327q0 -48 23 -69.5q23 -21.5 56 -21.5q19 0 35.5 6q16.5 6 30.5 14.5q14 8.5 24.5 17.5q10.5 9 16.5 16l0 364h130zM152 631l94 99h103l95 -99v-41h-99l-48 54l-48 -54l-97 0z" horiz-adv-x="597" unicode="û"/><glyph d="M519 0h-75l-38 51q-25 -23 -62 -43q-37 -20 -91 -20q-85 0 -132.5 53q-47.5 53 -47.5 148v335h130v-327q0 -48 23 -69.5q23 -21.5 56 -21.5q19 0 35.5 6q16.5 6 30.5 14.5q14 8.5 24.5 17.5q10.5 9 16.5 16l0 364h130zM133 705h130v-110h-130zM336 705h130v-110l-130 0z" horiz-adv-x="597" unicode="ü"/><glyph d="M149 -113l49 113l-180 463v61h120l124 -347l117 347h118v-61l-242 -623h-106zM264 730h117v-45l-84 -95l-104 0z" horiz-adv-x="515" unicode="ý"/><glyph d="M208 705v-218q8 7 20.5 15.5q12.5 8.5 30 16q17.5 7.5 39.5 12.5q22 5 49 5q38 0 72 -11.5q34 -11.5 59.5 -35.5q25.5 -24 40 -60q14.5 -36 14.5 -85v-164q0 -49 -14.5 -85q-14.5 -36 -40 -60q-25.5 -24 -59.5 -35.5q-34 -11.5 -72 -11.5q-27 0 -49 5q-22 5 -39.5 12.5q-17.5 7.5 -30 16q-12.5 8.5 -20.5 15.5l0 -197h-130v865zM208 161q20 -20 47 -37.5q27 -17.5 65 -17.5q15 0 30 5.5q15 5.5 26.5 16q11.5 10.5 19 26q7.5 15.5 7.5 36.5v144q0 21 -7.5 36.5q-7.5 15.5 -19 26q-11.5 10.5 -26.5 16q-15 5.5 -30 5.5q-38 0 -65 -17.5q-27 -17.5 -47 -37.5z" horiz-adv-x="596" unicode="þ"/><glyph d="M149 -113l49 113l-180 463v61h120l124 -347l117 347h118v-61l-242 -623h-106zM92 705h130v-110h-130zM295 705h130v-110l-130 0z" horiz-adv-x="515" unicode="ÿ"/><glyph d="M18 47l242 653h139l243 -653v-47h-140l-56 164h-239l-58 -164h-131zM403 282l-76 228l-78 -228zM159 881h345v-103l-345 0z" horiz-adv-x="660" unicode="Ā"/><glyph d="M219 -12q-35 0 -67 10q-32 10 -56 29.5q-24 19.5 -38.5 48.5q-14.5 29 -14.5 68q0 81 52.5 125.5q52.5 44.5 159.5 44.5h108v33q0 34 -20 52.5q-20 18.5 -64 18.5q-45 0 -64.5 -17q-19.5 -17 -19.5 -43l-127 0q0 39 12.5 71.5q12.5 32.5 39 56q26.5 23.5 66 37q39.5 13.5 93.5 13.5q54 0 94 -13.5q40 -13.5 67 -37.5q27 -24 40 -57q13 -33 13 -72v-356h-75l-38 51q-29 -26 -65.5 -44.5q-36.5 -18.5 -95.5 -18.5zt0 0zM246 106q38 0 66 12.5q28 12.5 51 38.5l0 58h-108q-26 0 -42 -5.5q-16 -5.5 -25 -13.5q-9 -8 -12 -17.5q-3 -9.5 -3 -17.5q0 -55 73 -55zt0 0zM128 700h322v-96l-322 0z" horiz-adv-x="566" unicode="ā"/><glyph d="M624 -160q-49 0 -77 19.5q-28 19.5 -28 53.5q0 18 12 40q12 22 38 47l-67 0l-56 164h-239l-58 -164h-131v47l242 653h139l243 -653v-47q-20 -17 -28.5 -30q-8.5 -13 -8.5 -26q0 -26 45 -26h31v-78zM403 282l-76 228l-78 -228z" horiz-adv-x="660" unicode="Ą"/><glyph d="M405 52q-27 -26 -63 -45q-36 -19 -93 -19q-38 0 -72 11.5q-34 11.5 -59.5 35.5q-25.5 24 -40 60q-14.5 36 -14.5 85v164q0 49 14.5 85q14.5 36 40 60q25.5 24 59.5 35.5q34 11.5 72 11.5q57 0 93 -19q36 -19 63 -45l38 52h75v-524q-20 -17 -28.5 -30q-8.5 -13 -8.5 -26q0 -26 45 -26h31v-78h-57q-49 0 -77 19.5q-28 19.5 -28 53.5q0 18 11 40q11 22 37 47zM388 363q-20 20 -47 37.5q-27 17.5 -65 17.5q-15 0 -30 -5.5q-15 -5.5 -26.5 -16q-11.5 -10.5 -19 -26q-7.5 -15.5 -7.5 -36.5v-144q0 -21 7.5 -36.5q7.5 -15.5 19 -26q11.5 -10.5 26.5 -16q15 -5.5 30 -5.5q38 0 65 17.5q27 17.5 47 37.5z" horiz-adv-x="596" unicode="ą"/><glyph d="M343 -15q-134 0 -204.5 66q-70.5 66 -70.5 186v226q0 120 70.5 186q70.5 66 204.5 66q52 0 99 -14q47 -14 83 -43.5q36 -29.5 57 -76q21 -46.5 21 -111.5v-10h-142v10q0 31 -10.5 53q-10.5 22 -28.5 35.5q-18 13.5 -41 20q-23 6.5 -47 6.5q-63 0 -93.5 -30q-30.5 -30 -30.5 -82v-246q0 -52 30.5 -82q30.5 -30 93.5 -30q24 0 47 6q23 6 41 19.5q18 13.5 28.5 35.5q10.5 22 10.5 54v10h142v-10q0 -65 -21 -111.5q-21 -46.5 -57 -76q-36 -29.5 -83 -43.5q-47 -14 -99 -14zt0 0zM335 913h126v-49l-90 -102l-112 0z" horiz-adv-x="661" unicode="Ć"/><glyph d="M277 -12q-50 0 -91 13.5q-41 13.5 -70 38.5q-29 25 -45 61q-16 36 -16 81v160q0 45 16 81q16 36 45 61q29 25 70 38.5q41 13.5 91 13.5q49 0 88.5 -13q39.5 -13 67.5 -38q28 -25 43.5 -61.5q15.5 -36.5 15.5 -83.5v-6h-130v6q0 35 -21.5 56.5q-21.5 21.5 -63.5 21.5q-48 0 -70 -20.5q-22 -20.5 -22 -53.5v-164q0 -33 22 -53.5q22 -20.5 70 -20.5q42 0 63.5 21q21.5 21 21.5 56v10h130v-7q0 -46 -16 -83q-16 -37 -44.5 -62.5q-28.5 -25.5 -68 -39q-39.5 -13.5 -86.5 -13.5zt0 0zM291 730h117v-45l-84 -95l-104 0z" horiz-adv-x="543" unicode="ć"/><glyph d="M343 -15q-134 0 -204.5 66q-70.5 66 -70.5 186v226q0 120 70.5 186q70.5 66 204.5 66q52 0 99 -14q47 -14 83 -43.5q36 -29.5 57 -76q21 -46.5 21 -111.5v-10h-142v10q0 31 -10.5 53q-10.5 22 -28.5 35.5q-18 13.5 -41 20q-23 6.5 -47 6.5q-63 0 -93.5 -30q-30.5 -30 -30.5 -82v-246q0 -52 30.5 -82q30.5 -30 93.5 -30q24 0 47 6q23 6 41 19.5q18 13.5 28.5 35.5q10.5 22 10.5 54v10h142v-10q0 -65 -21 -111.5q-21 -46.5 -57 -76q-36 -29.5 -83 -43.5q-47 -14 -99 -14zt0 0zM181 869v44h106l52 -71l51 71h104v-44l-102 -106l-110 0z" horiz-adv-x="661" unicode="Č"/><glyph d="M277 -12q-50 0 -91 13.5q-41 13.5 -70 38.5q-29 25 -45 61q-16 36 -16 81v160q0 45 16 81q16 36 45 61q29 25 70 38.5q41 13.5 91 13.5q49 0 88.5 -13q39.5 -13 67.5 -38q28 -25 43.5 -61.5q15.5 -36.5 15.5 -83.5v-6h-130v6q0 35 -21.5 56.5q-21.5 21.5 -63.5 21.5q-48 0 -70 -20.5q-22 -20.5 -22 -53.5v-164q0 -33 22 -53.5q22 -20.5 70 -20.5q42 0 63.5 21q21.5 21 21.5 56v10h130v-7q0 -46 -16 -83q-16 -37 -44.5 -62.5q-28.5 -25.5 -68 -39q-39.5 -13.5 -86.5 -13.5zt0 0zM129 689v41h99l48 -66l48 66h97v-41l-95 -99l-103 0z" horiz-adv-x="543" unicode="č"/><glyph d="M342 124q34 0 59.5 9q25.5 9 43 25q17.5 16 26 36q8.5 20 8.5 43v226q0 22 -8.5 42.5q-8.5 20.5 -26 36.5q-17.5 16 -43 25q-25.5 9 -59.5 9h-112v-452zM88 700h254q64 0 115.5 -16q51.5 -16 88 -46.5q36.5 -30.5 56 -75.5q19.5 -45 19.5 -103v-218q0 -58 -19.5 -103q-19.5 -45 -56 -75.5q-36.5 -30.5 -88 -46.5q-51.5 -16 -115.5 -16h-254zM160 869v44h106l52 -71l51 71h104v-44l-102 -106l-110 0z" horiz-adv-x="689" unicode="Ď"/><glyph d="M518 0h-75l-38 52q-27 -26 -63 -45q-36 -19 -93 -19q-38 0 -72 11.5q-34 11.5 -59.5 35.5q-25.5 24 -40 60q-14.5 36 -14.5 85v164q0 49 14.5 85q14.5 36 40 60q25.5 24 59.5 35.5q34 11.5 72 11.5q27 0 49 -5q22 -5 39.5 -12.5q17.5 -7.5 30 -16q12.5 -8.5 20.5 -15.5l0 218h130zM388 363q-20 20 -47 37.5q-27 17.5 -65 17.5q-15 0 -30 -5.5q-15 -5.5 -26.5 -16q-11.5 -10.5 -19 -26q-7.5 -15.5 -7.5 -36.5v-144q0 -21 7.5 -36.5q7.5 -15.5 19 -26q11.5 -10.5 26.5 -16q15 -5.5 30 -5.5q38 0 65 17.5q27 17.5 47 37.5zM623 705h128v-55l-72 -139l-92 0z" horiz-adv-x="723" unicode="ď"/><glyph d="M88 700h456v-124h-314v-166h268v-118h-268v-168h316v-124h-458zM144 881h345v-103l-345 0z" horiz-adv-x="594" unicode="Ē"/><glyph d="M283 -12q-51 0 -93 12.5q-42 12.5 -72 37q-30 24.5 -46.5 60.5q-16.5 36 -16.5 82v162q0 45 16.5 81q16.5 36 46.5 61q30 25 72 38.5q42 13.5 93 13.5q48 0 88.5 -12.5q40.5 -12.5 69 -37q28.5 -24.5 44.5 -60.5q16 -36 16 -82v-125h-316v-37q0 -33 23.5 -54.5q23.5 -21.5 74.5 -21.5q38 0 59 14q21 14 28 39l130 0q-8 -81 -64 -126q-56 -45 -153 -45zt0 0zM371 318v26q0 34 -24 54q-24 20 -69 20q-47 0 -70 -20.5q-23 -20.5 -23 -53.5v-26zM122 700h322v-96l-322 0z" horiz-adv-x="556" unicode="ē"/><glyph d="M88 700h456v-124h-314v-166h268v-118h-268v-168h316v-124h-458zM243 886h140v-118l-140 0z" horiz-adv-x="594" unicode="Ė"/><glyph d="M283 -12q-51 0 -93 12.5q-42 12.5 -72 37q-30 24.5 -46.5 60.5q-16.5 36 -16.5 82v162q0 45 16.5 81q16.5 36 46.5 61q30 25 72 38.5q42 13.5 93 13.5q48 0 88.5 -12.5q40.5 -12.5 69 -37q28.5 -24.5 44.5 -60.5q16 -36 16 -82v-125h-316v-37q0 -33 23.5 -54.5q23.5 -21.5 74.5 -21.5q38 0 59 14q21 14 28 39l130 0q-8 -81 -64 -126q-56 -45 -153 -45zt0 0zM371 318v26q0 34 -24 54q-24 20 -69 20q-47 0 -70 -20.5q-23 -20.5 -23 -53.5v-26zM220 705h130v-110l-130 0z" horiz-adv-x="556" unicode="ė"/><glyph d="M88 700h456v-124h-314v-166h268v-118h-268v-168h316v-124q-20 -17 -28.5 -30q-8.5 -13 -8.5 -26q0 -26 45 -26h31v-78h-57q-49 0 -77 19.5q-28 19.5 -28 53.5q0 18 12 40q12 22 38 47l-385 0z" horiz-adv-x="606" unicode="Ę"/><glyph d="M386 -160q-49 0 -77 19.5q-28 19.5 -28 53.5q0 17 9.5 36q9.5 19 30.5 41q-9 -1 -18.5 -1.5q-9.5 -0.5 -19.5 -0.5q-51 0 -93 12.5q-42 12.5 -72 37q-30 24.5 -46.5 60.5q-16.5 36 -16.5 82v162q0 45 16.5 81q16.5 36 46.5 61q30 25 72 38.5q42 13.5 93 13.5q48 0 88.5 -12.5q40.5 -12.5 69 -37q28.5 -24.5 44.5 -60.5q16 -36 16 -82v-125h-316v-37q0 -33 23.5 -54.5q23.5 -21.5 74.5 -21.5q38 0 59 14q21 14 28 39l130 0q-3 -30 -12.5 -54q-9.5 -24 -23 -42.5q-13.5 -18.5 -29 -33q-15.5 -14.5 -30.5 -25.5q-22 -16 -30 -29.5q-8 -13.5 -8 -26.5q0 -30 45 -30h31v-78zM371 318v26q0 34 -24 54q-24 20 -69 20q-47 0 -70 -20.5q-23 -20.5 -23 -53.5l0 -26z" horiz-adv-x="556" unicode="ę"/><glyph d="M88 700h456v-124h-314v-166h268v-118h-268v-168h316v-124h-458zM163 869v44h106l52 -71l51 71h104v-44l-102 -106l-110 0z" horiz-adv-x="594" unicode="Ě"/><glyph d="M283 -12q-51 0 -93 12.5q-42 12.5 -72 37q-30 24.5 -46.5 60.5q-16.5 36 -16.5 82v162q0 45 16.5 81q16.5 36 46.5 61q30 25 72 38.5q42 13.5 93 13.5q48 0 88.5 -12.5q40.5 -12.5 69 -37q28.5 -24.5 44.5 -60.5q16 -36 16 -82v-125h-316v-37q0 -33 23.5 -54.5q23.5 -21.5 74.5 -21.5q38 0 59 14q21 14 28 39l130 0q-8 -81 -64 -126q-56 -45 -153 -45zt0 0zM371 318v26q0 34 -24 54q-24 20 -69 20q-47 0 -70 -20.5q-23 -20.5 -23 -53.5v-26zM137 689v41h99l48 -66l48 66h97v-41l-95 -99l-103 0z" horiz-adv-x="556" unicode="ě"/><glyph d="M324 -15q-60 0 -107.5 17q-47.5 17 -80.5 49.5q-33 32.5 -50.5 78.5q-17.5 46 -17.5 104v229q0 120 73 186q73 66 206 66q57 0 105.5 -15.5q48.5 -15.5 84 -46q35.5 -30.5 56 -76q20.5 -45.5 20.5 -105.5l-142 0q0 54 -36.5 83.5q-36.5 29.5 -95.5 29.5q-66 0 -97.5 -31q-31.5 -31 -31.5 -85v-234q0 -57 32.5 -88.5q32.5 -31.5 94.5 -31.5q41 0 77.5 18.5q36.5 18.5 56.5 50.5l0 76h-124v118h266v-378h-76l-39 58q-32 -36 -76.5 -54.5q-44.5 -18.5 -97.5 -18.5zt0 0zM273 -67h128v-55l-72 -139l-92 0z" horiz-adv-x="697" unicode="Ģ"/><glyph d="M518 32q0 -51 -16.5 -89.5q-16.5 -38.5 -46 -64q-29.5 -25.5 -71 -38q-41.5 -12.5 -90.5 -12.5q-100 0 -159 45q-59 45 -59 126v4h130v-3q0 -9 4.5 -18.5q4.5 -9.5 14.5 -17.5q10 -8 26.5 -13q16.5 -5 41.5 -5q51 0 73 24q22 24 22 62v60q-8 -7 -20.5 -15.5q-12.5 -8.5 -30 -16q-17.5 -7.5 -39.5 -12.5q-22 -5 -49 -5q-38 0 -72 11.5q-34 11.5 -59.5 35.5q-25.5 24 -40 60q-14.5 36 -14.5 85v109q0 49 14.5 85q14.5 36 40 60q25.5 24 59.5 35.5q34 11.5 72 11.5q57 0 93 -19q36 -19 63 -45l38 52h75zM388 363q-20 20 -47 37.5q-27 17.5 -65 17.5q-15 0 -30 -5.5q-15 -5.5 -26.5 -16q-11.5 -10.5 -19 -26q-7.5 -15.5 -7.5 -36.5v-89q0 -21 7.5 -36.5q7.5 -15.5 19 -26q11.5 -10.5 26.5 -16q15 -5.5 30 -5.5q38 0 65 17.5q27 17.5 47 37.5zM365 586h-118v55l66 139l85 0z" horiz-adv-x="596" unicode="ģ"/><glyph d="M88 700h142v-700h-142zM-14 881h345v-103l-345 0z" horiz-adv-x="318" unicode="Ī"/><glyph d="M-18 700h322v-96h-322zM78 524h130v-524l-130 0z" horiz-adv-x="286" unicode="ī"/><glyph d="M88 700h142v-700q-20 -17 -28.5 -30q-8.5 -13 -8.5 -26q0 -26 45 -26h31v-78h-57q-49 0 -77 19.5q-28 19.5 -28 53.5q0 18 12 40q12 22 38 47l-69 0z" horiz-adv-x="318" unicode="Į"/><glyph d="M78 524h130v-524q-20 -17 -28.5 -30q-8.5 -13 -8.5 -26q0 -26 45 -26h31v-78h-57q-49 0 -77 19.5q-28 19.5 -28 53.5q0 18 12 40q12 22 38 47l-57 0zM78 705h130v-110l-130 0z" horiz-adv-x="286" unicode="į"/><glyph d="M78 524h130v-524l-130 0z" horiz-adv-x="286" unicode="ı"/><glyph d="M88 700h142v-288h74l169 288h132v-47l-177 -295l192 -311v-47h-141l-175 288h-74v-288h-142zM285 -67h128v-55l-72 -139l-92 0z" horiz-adv-x="637" unicode="Ķ"/><glyph d="M78 705h130v-380h55l127 199h112v-61l-122 -191l135 -211v-61h-116l-136 212h-55v-212h-130zM225 -67h118v-55l-66 -139l-85 0z" horiz-adv-x="552" unicode="ķ"/><glyph d="M88 700h142v-576h320v-124h-462zM182 913h126v-49l-90 -102l-112 0z" horiz-adv-x="568" unicode="Ĺ"/><glyph d="M78 705h130v-705h-130zM162 896h117v-45l-84 -95l-104 0z" horiz-adv-x="286" unicode="ĺ"/><glyph d="M88 700h142v-576h320v-124h-462zM257 -67h128v-55l-72 -139l-92 0z" horiz-adv-x="568" unicode="Ļ"/><glyph d="M78 705h130v-705h-130zM85 -67h118v-55l-66 -139l-85 0z" horiz-adv-x="286" unicode="ļ"/><glyph d="M88 700h142v-576h320v-124h-462zM414 700h128v-55l-72 -139l-92 0z" horiz-adv-x="568" unicode="Ľ"/><glyph d="M78 705h130v-705h-130zM312 705h128v-55l-72 -139l-92 0z" horiz-adv-x="412" unicode="ľ"/><glyph d="M125 226l-62 -45h-46v99l108 79v341h142v-233l97 70h46v-99l-143 -105v-209h320v-124l-462 0z" horiz-adv-x="605" unicode="Ł"/><glyph d="M141 208l-80 -83h-61v84l141 150v346h130v-206l82 85h60v-85l-142 -149v-350l-130 0z" horiz-adv-x="413" unicode="ł"/><glyph d="M88 700h130l268 -436v436h142v-700h-130l-268 436v-436h-142zM353 913h126v-49l-90 -102l-112 0z" horiz-adv-x="716" unicode="Ń"/><glyph d="M78 524h75l38 -52q25 24 62.5 44q37.5 20 92.5 20q85 0 133.5 -53.5q48.5 -53.5 48.5 -149.5v-333h-130v325q0 48 -23.5 70.5q-23.5 22.5 -57.5 22.5q-19 0 -36 -6q-17 -6 -31.5 -14.5q-14.5 -8.5 -25 -18q-10.5 -9.5 -16.5 -16.5l0 -363h-130zM323 730h117v-45l-84 -95l-104 0z" horiz-adv-x="601" unicode="ń"/><glyph d="M88 700h130l268 -436v436h142v-700h-130l-268 436v-436h-142zM298 -67h128v-55l-72 -139l-92 0z" horiz-adv-x="716" unicode="Ņ"/><glyph d="M78 524h75l38 -52q25 24 62.5 44q37.5 20 92.5 20q85 0 133.5 -53.5q48.5 -53.5 48.5 -149.5v-333h-130v325q0 48 -23.5 70.5q-23.5 22.5 -57.5 22.5q-19 0 -36 -6q-17 -6 -31.5 -14.5q-14.5 -8.5 -25 -18q-10.5 -9.5 -16.5 -16.5l0 -363h-130zM242 -67h118v-55l-66 -139l-85 0z" horiz-adv-x="601" unicode="ņ"/><glyph d="M88 700h130l268 -436v436h142v-700h-130l-268 436v-436h-142zM201 869v44h106l52 -71l51 71h104v-44l-102 -106l-110 0z" horiz-adv-x="716" unicode="Ň"/><glyph d="M78 524h75l38 -52q25 24 62.5 44q37.5 20 92.5 20q85 0 133.5 -53.5q48.5 -53.5 48.5 -149.5v-333h-130v325q0 48 -23.5 70.5q-23.5 22.5 -57.5 22.5q-19 0 -36 -6q-17 -6 -31.5 -14.5q-14.5 -8.5 -25 -18q-10.5 -9.5 -16.5 -16.5l0 -363h-130zM160 689v41h99l48 -66l48 66h97v-41l-95 -99l-103 0z" horiz-adv-x="601" unicode="ň"/><glyph d="M347 115q36 0 61.5 9.5q25.5 9.5 42.5 26q17 16.5 25 37q8 20.5 8 43.5v238q0 22 -8 43q-8 21 -25 37.5q-17 16.5 -42.5 26q-25.5 9.5 -61.5 9.5q-36 0 -61.5 -9.5q-25.5 -9.5 -42.5 -26q-17 -16.5 -25 -37.5q-8 -21 -8 -43v-238q0 -23 8 -43.5q8 -20.5 25 -37q17 -16.5 42.5 -26q25.5 -9.5 61.5 -9.5zt0 0zM347 -15q-64 0 -115.5 17q-51.5 17 -88 49.5q-36.5 32.5 -56 79.5q-19.5 47 -19.5 107v224q0 60 19.5 107q19.5 47 56 79.5q36.5 32.5 88 49.5q51.5 17 115.5 17q64 0 115.5 -17q51.5 -17 88 -49.5q36.5 -32.5 56 -79.5q19.5 -47 19.5 -107v-224q0 -60 -19.5 -107q-19.5 -47 -56 -79.5q-36.5 -32.5 -88 -49.5q-51.5 -17 -115.5 -17zt0 0zM175 881h345v-103l-345 0z" horiz-adv-x="694" unicode="Ō"/><glyph d="M283 106q49 0 73 24q24 24 24 58v148q0 34 -24 58q-24 24 -73 24q-51 0 -74.5 -24.5q-23.5 -24.5 -23.5 -57.5v-148q0 -33 23.5 -57.5q23.5 -24.5 74.5 -24.5zt0 0zM283 -12q-57 0 -100 15q-43 15 -71.5 41q-28.5 26 -42.5 61.5q-14 35.5 -14 76.5v160q0 41 14 76.5q14 35.5 42.5 61.5q28.5 26 71.5 41q43 15 100 15q57 0 99.5 -15q42.5 -15 71 -41q28.5 -26 42.5 -61.5q14 -35.5 14 -76.5v-160q0 -41 -14 -76.5q-14 -35.5 -42.5 -61.5q-28.5 -26 -71 -41q-42.5 -15 -99.5 -15zt0 0zM122 700h322v-96l-322 0z" horiz-adv-x="565" unicode="ō"/><glyph d="M283 106q49 0 73 24q24 24 24 58v148q0 34 -24 58q-24 24 -73 24q-51 0 -74.5 -24.5q-23.5 -24.5 -23.5 -57.5v-148q0 -33 23.5 -57.5q23.5 -24.5 74.5 -24.5zt0 0zM283 -12q-57 0 -100 15q-43 15 -71.5 41q-28.5 26 -42.5 61.5q-14 35.5 -14 76.5v160q0 41 14 76.5q14 35.5 42.5 61.5q28.5 26 71.5 41q43 15 100 15q57 0 99.5 -15q42.5 -15 71 -41q28.5 -26 42.5 -61.5q14 -35.5 14 -76.5v-160q0 -41 -14 -76.5q-14 -35.5 -42.5 -61.5q-28.5 -26 -71 -41q-42.5 -15 -99.5 -15zt0 0zM284 585q-73 0 -118.5 35.5q-45.5 35.5 -45.5 101.5v12h111v-11q0 -20 12 -32q12 -12 41 -12q30 0 42.5 12q12.5 12 12.5 32v11h109v-12q0 -66 -45.5 -101.5t-118.5 -35.5z" horiz-adv-x="565" unicode="ŏ"/><glyph d="M347 115q36 0 61.5 9.5q25.5 9.5 42.5 26q17 16.5 25 37q8 20.5 8 43.5v238q0 22 -8 43q-8 21 -25 37.5q-17 16.5 -42.5 26q-25.5 9.5 -61.5 9.5q-36 0 -61.5 -9.5q-25.5 -9.5 -42.5 -26q-17 -16.5 -25 -37.5q-8 -21 -8 -43v-238q0 -23 8 -43.5q8 -20.5 25 -37q17 -16.5 42.5 -26q25.5 -9.5 61.5 -9.5zt0 0zM347 -15q-64 0 -115.5 17q-51.5 17 -88 49.5q-36.5 32.5 -56 79.5q-19.5 47 -19.5 107v224q0 60 19.5 107q19.5 47 56 79.5q36.5 32.5 88 49.5q51.5 17 115.5 17q64 0 115.5 -17q51.5 -17 88 -49.5q36.5 -32.5 56 -79.5q19.5 -47 19.5 -107v-224q0 -60 -19.5 -107q-19.5 -47 -56 -79.5q-36.5 -32.5 -88 -49.5q-51.5 -17 -115.5 -17zt0 0zM256 913h126v-48l-90 -102h-112zM444 913h125v-48l-89 -102l-111 0z" horiz-adv-x="694" unicode="Ő"/><glyph d="M283 106q49 0 73 24q24 24 24 58v148q0 34 -24 58q-24 24 -73 24q-51 0 -74.5 -24.5q-23.5 -24.5 -23.5 -57.5v-148q0 -33 23.5 -57.5q23.5 -24.5 74.5 -24.5zt0 0zM283 -12q-57 0 -100 15q-43 15 -71.5 41q-28.5 26 -42.5 61.5q-14 35.5 -14 76.5v160q0 41 14 76.5q14 35.5 42.5 61.5q28.5 26 71.5 41q43 15 100 15q57 0 99.5 -15q42.5 -15 71 -41q28.5 -26 42.5 -61.5q14 -35.5 14 -76.5v-160q0 -41 -14 -76.5q-14 -35.5 -42.5 -61.5q-28.5 -26 -71 -41q-42.5 -15 -99.5 -15zt0 0zM201 730h117v-45l-84 -95h-104zM376 730h117v-45l-83 -95l-104 0z" horiz-adv-x="565" unicode="ő"/><glyph d="M347 -15q-64 0 -115.5 17q-51.5 17 -88 49.5q-36.5 32.5 -56 79.5q-19.5 47 -19.5 107v224q0 60 19.5 107q19.5 47 56 79.5q36.5 32.5 88 49.5q51.5 17 115.5 17q35 0 69 -8q34 -8 68 -22l0 15h456v-124h-314v-166h268v-118h-268v-168h316v-124h-458v14q-34 -13 -68 -21q-34 -8 -69 -8zt0 0zM347 115q34 0 60 9q26 9 43 24q17 15 25.5 35q8.5 20 8.5 42v243q0 23 -8 44.5q-8 21.5 -24.5 37.5q-16.5 16 -42.5 25.5q-26 9.5 -62 9.5q-36 0 -61.5 -9.5q-25.5 -9.5 -42.5 -26q-17 -16.5 -25 -37.5q-8 -21 -8 -43v-238q0 -23 8 -43.5q8 -20.5 25 -37q17 -16.5 42.5 -26t61.5 -9.5z" horiz-adv-x="990" unicode="Œ"/><glyph d="M608 -12q-102 0 -164 48q-28 -23 -68 -35.5q-40 -12.5 -93 -12.5q-57 0 -100 15q-43 15 -71.5 41q-28.5 26 -42.5 61.5q-14 35.5 -14 76.5v160q0 41 14 76.5q14 35.5 42.5 61.5q28.5 26 71.5 41q43 15 100 15q53 0 93.5 -13.5q40.5 -13.5 68.5 -36.5q62 50 163 50q48 0 88.5 -12.5q40.5 -12.5 69 -37q28.5 -24.5 44.5 -60.5q16 -36 16 -82v-125h-316v-39q0 -32 25 -53q25 -21 73 -21q38 0 59 14q21 14 28 39l130 0q-8 -81 -64 -126q-56 -45 -153 -45zt0 0zM696 318v26q0 34 -24 54q-24 20 -69 20q-47 0 -70 -20.5q-23 -20.5 -23 -53.5v-26zM283 106q49 0 73 24q24 24 24 58v148q0 34 -24 58q-24 24 -73 24q-51 0 -74.5 -24.5q-23.5 -24.5 -23.5 -57.5v-148q0 -33 23.5 -57.5t74.5 -24.5z" horiz-adv-x="881" unicode="œ"/><glyph d="M88 700h303q108 0 162.5 -57.5q54.5 -57.5 54.5 -160.5q0 -75 -31.5 -125.5q-31.5 -50.5 -83.5 -76.5l129 -233v-47h-138l-146 263h-108v-263h-142zM365 383q47 0 72.5 21.5q25.5 21.5 25.5 75.5q0 53 -25.5 74.5q-25.5 21.5 -72.5 21.5h-135v-193zM326 913h126v-49l-90 -102l-112 0z" horiz-adv-x="676" unicode="Ŕ"/><glyph d="M78 524h75l38 -52q19 22 51.5 43q32.5 21 84.5 21h27v-125h-27q-42 0 -69.5 -11q-27.5 -11 -49.5 -37l0 -363h-130zM215 730h117v-45l-84 -95l-104 0z" horiz-adv-x="382" unicode="ŕ"/><glyph d="M88 700h303q108 0 162.5 -57.5q54.5 -57.5 54.5 -160.5q0 -75 -31.5 -125.5q-31.5 -50.5 -83.5 -76.5l129 -233v-47h-138l-146 263h-108v-263h-142zM365 383q47 0 72.5 21.5q25.5 21.5 25.5 75.5q0 53 -25.5 74.5q-25.5 21.5 -72.5 21.5h-135v-193zM286 -67h128v-55l-72 -139l-92 0z" horiz-adv-x="666" unicode="Ŗ"/><glyph d="M78 524h75l38 -52q19 22 51.5 43q32.5 21 84.5 21h27v-125h-27q-42 0 -69.5 -11q-27.5 -11 -49.5 -37l0 -363h-130zM84 -67h118v-55l-66 -139l-85 0z" horiz-adv-x="382" unicode="ŗ"/><glyph d="M88 700h303q108 0 162.5 -57.5q54.5 -57.5 54.5 -160.5q0 -75 -31.5 -125.5q-31.5 -50.5 -83.5 -76.5l129 -233v-47h-138l-146 263h-108v-263h-142zM365 383q47 0 72.5 21.5q25.5 21.5 25.5 75.5q0 53 -25.5 74.5q-25.5 21.5 -72.5 21.5h-135v-193zM163 869v44h106l52 -71l51 71h104v-44l-102 -106l-110 0z" horiz-adv-x="676" unicode="Ř"/><glyph d="M78 524h75l38 -52q19 22 51.5 43q32.5 21 84.5 21h27v-125h-27q-42 0 -69.5 -11q-27.5 -11 -49.5 -37l0 -363h-130zM61 689v41h99l48 -66l48 66h97v-41l-95 -99l-103 0z" horiz-adv-x="382" unicode="ř"/><glyph d="M317 -15q-56 0 -106 15q-50 15 -87.5 45q-37.5 30 -59 75.5q-21.5 45.5 -21.5 106.5l142 0q0 -34 13.5 -56q13.5 -22 34.5 -34.5q21 -12.5 45.5 -17q24.5 -4.5 46.5 -4.5q57 0 86 21.5q29 21.5 29 54.5q0 19 -10.5 32q-10.5 13 -31 24q-20.5 11 -51 22q-30.5 11 -70.5 26l-29 11q-33 13 -66.5 28.5q-33.5 15.5 -60.5 38.5q-27 23 -43.5 54.5q-16.5 31.5 -16.5 76.5q0 48 18 86.5q18 38.5 51.5 66.5q33.5 28 81.5 43q48 15 108 15q57 0 105 -13q48 -13 83.5 -41.5q35.5 -28.5 55.5 -73.5q20 -45 20 -108l-142 0q0 30 -10.5 50.5q-10.5 20.5 -27.5 32.5q-17 12 -39.5 17.5q-22.5 5.5 -46.5 5.5q-53 0 -83.5 -19.5q-30.5 -19.5 -30.5 -53.5q0 -20 9 -32.5q9 -12.5 25 -22q16 -9.5 37.5 -17q21.5 -7.5 46.5 -16.5l28 -10q47 -17 90.5 -35q43.5 -18 76.5 -42q33 -24 53 -57.5q20 -33.5 20 -81.5q0 -46 -17 -85q-17 -39 -51.5 -67.5q-34.5 -28.5 -85.5 -44.5q-51 -16 -119 -16zt0 0zM320 913h126v-49l-90 -102l-112 0z" horiz-adv-x="648" unicode="Ś"/><glyph d="M284 -12q-52 0 -94.5 13.5q-42.5 13.5 -73.5 38.5q-31 25 -48.5 60.5q-17.5 35.5 -18.5 79.5l129 0q5 -35 37 -54.5q32 -19.5 85 -19.5q35 0 56 12q21 12 21 32q0 28 -35 36l-145 37q-25 6 -49.5 16.5q-24.5 10.5 -44 27q-19.5 16.5 -31.5 41.5q-12 25 -12 60q0 78 56 123q56 45 157 45q101 0 159.5 -46.5q58.5 -46.5 61.5 -133.5l-130 0q-2 31 -28.5 46.5q-26.5 15.5 -72.5 15.5q-43 0 -60 -13q-17 -13 -17 -29q0 -15 11.5 -23.5q11.5 -8.5 33.5 -13.5l149 -37q26 -6 48.5 -17q22.5 -11 39 -28q16.5 -17 26 -40.5q9.5 -23.5 9.5 -56.5q0 -40 -15.5 -72q-15.5 -32 -44.5 -54q-29 -22 -69.5 -34q-40.5 -12 -89.5 -12zt0 0zM272 730h117v-45l-84 -95l-104 0z" horiz-adv-x="559" unicode="ś"/><glyph d="M284 -12q-52 0 -94.5 13.5q-42.5 13.5 -73.5 38.5q-31 25 -48.5 60.5q-17.5 35.5 -18.5 79.5l129 0q5 -35 37 -54.5q32 -19.5 85 -19.5q35 0 56 12q21 12 21 32q0 28 -35 36l-145 37q-25 6 -49.5 16.5q-24.5 10.5 -44 27q-19.5 16.5 -31.5 41.5q-12 25 -12 60q0 78 56 123q56 45 157 45q101 0 159.5 -46.5q58.5 -46.5 61.5 -133.5l-130 0q-2 31 -28.5 46.5q-26.5 15.5 -72.5 15.5q-43 0 -60 -13q-17 -13 -17 -29q0 -15 11.5 -23.5q11.5 -8.5 33.5 -13.5l149 -37q26 -6 48.5 -17q22.5 -11 39 -28q16.5 -17 26 -40.5q9.5 -23.5 9.5 -56.5q0 -40 -15.5 -72q-15.5 -32 -44.5 -54q-29 -22 -69.5 -34q-40.5 -12 -89.5 -12zt0 0zM128 631l94 99h103l95 -99v-41h-99l-48 54l-48 -54l-97 0z" horiz-adv-x="559" unicode="ŝ"/><glyph d="M317 -15q-56 0 -106 15q-50 15 -87.5 45q-37.5 30 -59 75.5q-21.5 45.5 -21.5 106.5l142 0q0 -34 13.5 -56q13.5 -22 34.5 -34.5q21 -12.5 45.5 -17q24.5 -4.5 46.5 -4.5q57 0 86 21.5q29 21.5 29 54.5q0 19 -10.5 32q-10.5 13 -31 24q-20.5 11 -51 22q-30.5 11 -70.5 26l-29 11q-33 13 -66.5 28.5q-33.5 15.5 -60.5 38.5q-27 23 -43.5 54.5q-16.5 31.5 -16.5 76.5q0 48 18 86.5q18 38.5 51.5 66.5q33.5 28 81.5 43q48 15 108 15q57 0 105 -13q48 -13 83.5 -41.5q35.5 -28.5 55.5 -73.5q20 -45 20 -108l-142 0q0 30 -10.5 50.5q-10.5 20.5 -27.5 32.5q-17 12 -39.5 17.5q-22.5 5.5 -46.5 5.5q-53 0 -83.5 -19.5q-30.5 -19.5 -30.5 -53.5q0 -20 9 -32.5q9 -12.5 25 -22q16 -9.5 37.5 -17q21.5 -7.5 46.5 -16.5l28 -10q47 -17 90.5 -35q43.5 -18 76.5 -42q33 -24 53 -57.5q20 -33.5 20 -81.5q0 -46 -17 -85q-17 -39 -51.5 -67.5q-34.5 -28.5 -85.5 -44.5q-51 -16 -119 -16zt0 0zM165 869v44h106l52 -71l51 71h104v-44l-102 -106l-110 0z" horiz-adv-x="648" unicode="Š"/><glyph d="M284 -12q-52 0 -94.5 13.5q-42.5 13.5 -73.5 38.5q-31 25 -48.5 60.5q-17.5 35.5 -18.5 79.5l129 0q5 -35 37 -54.5q32 -19.5 85 -19.5q35 0 56 12q21 12 21 32q0 28 -35 36l-145 37q-25 6 -49.5 16.5q-24.5 10.5 -44 27q-19.5 16.5 -31.5 41.5q-12 25 -12 60q0 78 56 123q56 45 157 45q101 0 159.5 -46.5q58.5 -46.5 61.5 -133.5l-130 0q-2 31 -28.5 46.5q-26.5 15.5 -72.5 15.5q-43 0 -60 -13q-17 -13 -17 -29q0 -15 11.5 -23.5q11.5 -8.5 33.5 -13.5l149 -37q26 -6 48.5 -17q22.5 -11 39 -28q16.5 -17 26 -40.5q9.5 -23.5 9.5 -56.5q0 -40 -15.5 -72q-15.5 -32 -44.5 -54q-29 -22 -69.5 -34q-40.5 -12 -89.5 -12zt0 0zM130 689v41h99l48 -66l48 66h97v-41l-95 -99l-103 0z" horiz-adv-x="559" unicode="š"/><glyph d="M215 576h-197v124h535v-124h-196v-576h-142zM130 869v44h106l52 -71l51 71h104v-44l-102 -106l-110 0z" horiz-adv-x="571" unicode="Ť"/><glyph d="M287 0q-58 0 -95.5 17q-37.5 17 -59 45q-21.5 28 -29.5 63.5q-8 35.5 -8 73.5v212h-77v113h77v109h130v-109h119v-113h-119v-212q0 -51 20.5 -68.5q20.5 -17.5 55.5 -17.5h43v-113h-57zM425 705h128v-55l-72 -139l-92 0z" horiz-adv-x="553" unicode="ť"/><glyph d="M619 700v-470q0 -58 -19 -103.5q-19 -45.5 -54 -77q-35 -31.5 -85 -48q-50 -16.5 -112 -16.5q-62 0 -112 16.5q-50 16.5 -85.5 48q-35.5 31.5 -54.5 77q-19 45.5 -19 103.5v470h142v-476q0 -21 7.5 -40.5q7.5 -19.5 23 -35q15.5 -15.5 40 -24.5q24.5 -9 58.5 -9q33 0 57 9q24 9 39.5 24.5q15.5 15.5 23 35q7.5 19.5 7.5 40.5v476zM175 881h345v-103l-345 0z" horiz-adv-x="696" unicode="Ū"/><glyph d="M519 0h-75l-38 51q-25 -23 -62 -43q-37 -20 -91 -20q-85 0 -132.5 53q-47.5 53 -47.5 148v335h130v-327q0 -48 23 -69.5q23 -21.5 56 -21.5q19 0 35.5 6q16.5 6 30.5 14.5q14 8.5 24.5 17.5q10.5 9 16.5 16l0 364h130zM136 700h322v-96l-322 0z" horiz-adv-x="597" unicode="ū"/><glyph d="M619 700v-470q0 -58 -19 -103.5q-19 -45.5 -54 -77q-35 -31.5 -85 -48q-50 -16.5 -112 -16.5q-62 0 -112 16.5q-50 16.5 -85.5 48q-35.5 31.5 -54.5 77q-19 45.5 -19 103.5v470h142v-476q0 -21 7.5 -40.5q7.5 -19.5 23 -35q15.5 -15.5 40 -24.5q24.5 -9 58.5 -9q33 0 57 9q24 9 39.5 24.5q15.5 15.5 23 35q7.5 19.5 7.5 40.5v476zM349 811q15 0 26 10.5q11 10.5 11 25.5q0 15 -11 25q-11 10 -26 10q-15 0 -25.5 -10q-10.5 -10 -10.5 -25q0 -15 10.5 -25.5q10.5 -10.5 25.5 -10.5zt0 0zM349 736q-25 0 -46 8.5q-21 8.5 -37.5 23.5q-16.5 15 -25.5 35.5q-9 20.5 -9 43.5q0 22 9 42.5q9 20.5 25.5 35.5q16.5 15 37.5 23.5q21 8.5 46 8.5q24 0 45.5 -8.5q21.5 -8.5 37.5 -23.5q16 -15 25.5 -35.5q9.5 -20.5 9.5 -42.5q0 -23 -9.5 -43.5q-9.5 -20.5 -25.5 -35.5q-16 -15 -37.5 -23.5t-45.5 -8.5z" horiz-adv-x="696" unicode="Ů"/><glyph d="M519 0h-75l-38 51q-25 -23 -62 -43q-37 -20 -91 -20q-85 0 -132.5 53q-47.5 53 -47.5 148v335h130v-327q0 -48 23 -69.5q23 -21.5 56 -21.5q19 0 35.5 6q16.5 6 30.5 14.5q14 8.5 24.5 17.5q10.5 9 16.5 16l0 364h130zM296 635q14 0 24 9.5q10 9.5 10 23.5q0 14 -10 23.5q-10 9.5 -24 9.5q-14 0 -24 -9.5q-10 -9.5 -10 -23.5q0 -14 10 -23.5q10 -9.5 24 -9.5zt0 0zM296 565q-23 0 -43 8q-20 8 -35 22q-15 14 -23.5 33q-8.5 19 -8.5 40q0 21 8.5 40q8.5 19 23.5 33q15 14 35 22q20 8 43 8q22 0 42 -8q20 -8 35 -22q15 -14 24 -33q9 -19 9 -40q0 -21 -9 -40q-9 -19 -24 -33q-15 -14 -35 -22t-42 -8z" horiz-adv-x="597" unicode="ů"/><glyph d="M619 700v-470q0 -58 -19 -103.5q-19 -45.5 -54 -77q-35 -31.5 -85 -48q-50 -16.5 -112 -16.5q-62 0 -112 16.5q-50 16.5 -85.5 48q-35.5 31.5 -54.5 77q-19 45.5 -19 103.5v470h142v-476q0 -21 7.5 -40.5q7.5 -19.5 23 -35q15.5 -15.5 40 -24.5q24.5 -9 58.5 -9q33 0 57 9q24 9 39.5 24.5q15.5 15.5 23 35q7.5 19.5 7.5 40.5v476zM255 913h126v-48l-90 -102h-112zM443 913h125v-48l-89 -102l-111 0z" horiz-adv-x="696" unicode="Ű"/><glyph d="M519 0h-75l-38 51q-25 -23 -62 -43q-37 -20 -91 -20q-85 0 -132.5 53q-47.5 53 -47.5 148v335h130v-327q0 -48 23 -69.5q23 -21.5 56 -21.5q19 0 35.5 6q16.5 6 30.5 14.5q14 8.5 24.5 17.5q10.5 9 16.5 16l0 364h130zM213 730h117v-45l-84 -95h-104zM388 730h117v-45l-83 -95l-104 0z" horiz-adv-x="597" unicode="ű"/><glyph d="M481 -160q-49 0 -77 19.5q-28 19.5 -28 53.5q0 17 9.5 36.5q9.5 19.5 30.5 41.5q-32 -6 -67 -6q-62 0 -112 16.5q-50 16.5 -85.5 48q-35.5 31.5 -54.5 77q-19 45.5 -19 103.5v470h142v-476q0 -21 7.5 -40.5q7.5 -19.5 23 -35q15.5 -15.5 40 -24.5q24.5 -9 58.5 -9q33 0 57 9q24 9 39.5 24.5q15.5 15.5 23 35q7.5 19.5 7.5 40.5v476h143v-470q0 -48 -12.5 -84.5q-12.5 -36.5 -30.5 -64.5q-18 -28 -39 -47.5q-21 -19.5 -38 -33.5q-22 -18 -29.5 -30.5q-7.5 -12.5 -7.5 -25.5q0 -26 45 -26h31v-78l-57 0z" horiz-adv-x="696" unicode="Ų"/><glyph d="M501 -160q-49 0 -77 19.5q-28 19.5 -28 53.5q0 18 11 40q11 22 37 47l-38 51q-25 -23 -62 -43q-37 -20 -91 -20q-85 0 -132.5 53q-47.5 53 -47.5 148v335h130v-327q0 -48 23 -69.5q23 -21.5 56 -21.5q19 0 35.5 6q16.5 6 30.5 14.5q14 8.5 24.5 17.5q10.5 9 16.5 16l0 364h130v-524q-20 -17 -28.5 -30q-8.5 -13 -8.5 -26q0 -26 45 -26h31v-78l-57 0z" horiz-adv-x="597" unicode="ų"/><glyph d="M238 277l-230 376v47h140l162 -290l169 290h131v-47l-230 -370v-283h-142zM133 889h139v-118h-139zM350 889h139v-118l-139 0z" horiz-adv-x="618" unicode="Ÿ"/><glyph d="M38 123l342 453h-327v124h490v-122l-343 -454h354v-124h-516zM287 913h126v-49l-90 -102l-112 0z" horiz-adv-x="592" unicode="Ź"/><glyph d="M48 113l256 298h-249v113h405v-113l-259 -298h273v-113h-426zM249 730h117v-45l-84 -95l-104 0z" horiz-adv-x="533" unicode="ź"/><glyph d="M38 123l342 453h-327v124h490v-122l-343 -454h354v-124h-516zM226 886h140v-118l-140 0z" horiz-adv-x="592" unicode="Ż"/><glyph d="M48 113l256 298h-249v113h405v-113l-259 -298h273v-113h-426zM195 705h130v-110l-130 0z" horiz-adv-x="533" unicode="ż"/><glyph d="M38 123l342 453h-327v124h490v-122l-343 -454h354v-124h-516zM145 869v44h106l52 -71l51 71h104v-44l-102 -106l-110 0z" horiz-adv-x="592" unicode="Ž"/><glyph d="M48 113l256 298h-249v113h405v-113l-259 -298h273v-113h-426zM117 689v41h99l48 -66l48 66h97v-41l-95 -99l-103 0z" horiz-adv-x="533" unicode="ž"/><glyph d="M103 411h-68v113h77q3 37 14.5 70.5q11.5 33.5 35 58.5q23.5 25 61.5 39.5q38 14.5 95 14.5q8 0 18.5 -0.5q10.5 -0.5 19.5 -1.5l0 -116h-21q-48 0 -69 -14.5q-21 -14.5 -24 -50.5l114 0v-113h-123l-32 -400q-3 -38 -14.5 -71q-11.5 -33 -35 -58q-23.5 -25 -61.5 -39.5q-38 -14.5 -95 -14.5q-8 0 -18.5 0.5q-10.5 0.5 -19.5 1.5l0 116h21q48 0 69 14.5q21 14.5 24 50.5z" horiz-adv-x="374" unicode="ƒ"/><glyph d="M284 -12q-52 0 -94.5 13.5q-42.5 13.5 -73.5 38.5q-31 25 -48.5 60.5q-17.5 35.5 -18.5 79.5l129 0q5 -35 37 -54.5q32 -19.5 85 -19.5q35 0 56 12q21 12 21 32q0 28 -35 36l-145 37q-25 6 -49.5 16.5q-24.5 10.5 -44 27q-19.5 16.5 -31.5 41.5q-12 25 -12 60q0 78 56 123q56 45 157 45q101 0 159.5 -46.5q58.5 -46.5 61.5 -133.5l-130 0q-2 31 -28.5 46.5q-26.5 15.5 -72.5 15.5q-43 0 -60 -13q-17 -13 -17 -29q0 -15 11.5 -23.5q11.5 -8.5 33.5 -13.5l149 -37q26 -6 48.5 -17q22.5 -11 39 -28q16.5 -17 26 -40.5q9.5 -23.5 9.5 -56.5q0 -40 -15.5 -72q-15.5 -32 -44.5 -54q-29 -22 -69.5 -34q-40.5 -12 -89.5 -12zt0 0zM220 -67h118v-55l-66 -139l-85 0z" horiz-adv-x="559" unicode="ș"/><glyph d="M58 631l94 99h103l95 -99v-41h-99l-48 54l-48 -54l-97 0z" horiz-adv-x="408" unicode="ˆ"/><glyph d="M58 689v41h99l48 -66l48 66h97v-41l-95 -99l-103 0z" horiz-adv-x="408" unicode="ˇ"/><glyph d="M204 571q-73 0 -118.5 35.5q-45.5 35.5 -45.5 101.5v12h111v-11q0 -20 12 -32q12 -12 41 -12q30 0 42.5 12q12.5 12 12.5 32v11h109v-12q0 -66 -45.5 -101.5t-118.5 -35.5z" horiz-adv-x="408" unicode="˘"/><glyph d="M58 705h130v-110l-130 0z" horiz-adv-x="246" unicode="˙"/><glyph d="M168 635q14 0 24 9.5q10 9.5 10 23.5q0 14 -10 23.5q-10 9.5 -24 9.5q-14 0 -24 -9.5q-10 -9.5 -10 -23.5q0 -14 10 -23.5q10 -9.5 24 -9.5zt0 0zM168 565q-23 0 -43 8q-20 8 -35 22q-15 14 -23.5 33q-8.5 19 -8.5 40q0 21 8.5 40q8.5 19 23.5 33q15 14 35 22q20 8 43 8q22 0 42 -8q20 -8 35 -22q15 -14 24 -33q9 -19 9 -40q0 -21 -9 -40q-9 -19 -24 -33q-15 -14 -35 -22t-42 -8z" horiz-adv-x="336" unicode="˚"/><glyph d="M153 -160q-49 0 -77 19.5q-28 19.5 -28 53.5q0 18 12 40q12 22 38 47l73 0q-20 -17 -28.5 -30q-8.5 -13 -8.5 -26q0 -26 45 -26h31v-78l-57 0z" horiz-adv-x="284" unicode="˛"/><glyph d="M425 683q-20 -44 -48.5 -73.5q-28.5 -29.5 -71.5 -29.5q-17 0 -33 6.5q-16 6.5 -30 14.5l-24 15q-9 5 -17 9.5q-8 4.5 -19 4.5q-12 0 -21.5 -9q-9.5 -9 -24.5 -35l-78 46q20 44 48.5 73.5q28.5 29.5 71.5 29.5q17 0 33 -6.5q16 -6.5 30 -14.5l24 -15q9 -5 17 -9.5q8 -4.5 19 -4.5q12 0 21.5 9q9.5 9 24.5 35z" horiz-adv-x="483" unicode="˜"/><glyph d="M129 730h117v-45l-84 -95h-104zM304 730h117v-45l-83 -95l-104 0z" horiz-adv-x="479" unicode="˝"/><glyph d="M67 124h81q-23 17 -35.5 36q-12.5 19 -19.5 39q-7 20 -8.5 41.5q-1.5 21.5 -1.5 44.5v177q0 60 19.5 107q19.5 47 56 79.5q36.5 32.5 88 49.5q51.5 17 115.5 17q64 0 116 -17q52 -17 88.5 -49.5q36.5 -32.5 56 -79.5q19.5 -47 19.5 -107v-177q0 -23 -1.5 -44.5q-1.5 -21.5 -8.5 -41.5q-7 -20 -20 -39q-13 -19 -36 -36l82 0v-124h-242v124q24 7 40.5 23.5q16.5 16.5 26 38q9.5 21.5 13.5 45.5q4 24 4 45v193q0 22 -8 43q-8 21 -25 37.5q-17 16.5 -43 26q-26 9.5 -62 9.5q-36 0 -61.5 -9.5q-25.5 -9.5 -42.5 -26q-17 -16.5 -25 -37.5q-8 -21 -8 -43v-193q0 -21 4 -45q4 -24 13.5 -45.5q9.5 -21.5 26 -38q16.5 -16.5 40.5 -23.5l0 -124l-242 0z" horiz-adv-x="725" unicode="Ω"/><glyph d="M127 411h-99v113h652v-113h-99v-411h-130v411h-194v-411l-130 0z" horiz-adv-x="708" unicode="π"/><glyph d="M88 700h456v-124h-314v-166h268v-118h-268v-168h316v-124h-458zM138 886h139v-118h-139zM355 886h139v-118l-139 0z" horiz-adv-x="594" unicode="Ё"/><glyph d="M190 576h-172v124h539v-124h-225v-152q33 5 60.5 7q27.5 2 59.5 2q125 0 191 -58.5q66 -58.5 66 -158.5q0 -49 -13.5 -89q-13.5 -40 -39.5 -68q-26 -28 -64.5 -43.5q-38.5 -15.5 -89.5 -15.5h-73v124h54q38 0 60 22q22 22 22 64q0 47 -34 70q-34 23 -93 23q-32 0 -55.5 -1.5q-23.5 -1.5 -50.5 -5.5l0 -296l-142 0z" horiz-adv-x="752" unicode="Ђ"/><glyph d="M307 913h126v-49l-90 -102h-112zM88 700h440v-124h-298v-576l-142 0z" horiz-adv-x="566" unicode="Ѓ"/><glyph d="M349 -15q47 0 92.5 13.5q45.5 13.5 81.5 43q36 29.5 58 75.5q22 46 22 111l-130 0q-1 -31 -12.5 -52.5q-11.5 -21.5 -30 -35q-18.5 -13.5 -42 -19.5q-23.5 -6 -48.5 -6q-66 0 -98 31.5q-32 31.5 -32 85.5v59h222v118h-222v59q0 54 32 85.5q32 31.5 98 31.5q53 0 92 -27.5q39 -27.5 41 -85.5l130 0q0 65 -22 111q-22 46 -58 75.5q-36 29.5 -81.5 43q-45.5 13.5 -92.5 13.5q-134 0 -207.5 -66q-73.5 -66 -73.5 -186v-226q0 -120 73.5 -186t207.5 -66z" horiz-adv-x="661" unicode="Є"/><glyph d="M317 -15q-56 0 -106 15q-50 15 -87.5 45q-37.5 30 -59 75.5q-21.5 45.5 -21.5 106.5l142 0q0 -34 13.5 -56q13.5 -22 34.5 -34.5q21 -12.5 45.5 -17q24.5 -4.5 46.5 -4.5q57 0 86 21.5q29 21.5 29 54.5q0 19 -10.5 32q-10.5 13 -31 24q-20.5 11 -51 22q-30.5 11 -70.5 26l-29 11q-33 13 -66.5 28.5q-33.5 15.5 -60.5 38.5q-27 23 -43.5 54.5q-16.5 31.5 -16.5 76.5q0 48 18 86.5q18 38.5 51.5 66.5q33.5 28 81.5 43q48 15 108 15q57 0 105 -13q48 -13 83.5 -41.5q35.5 -28.5 55.5 -73.5q20 -45 20 -108l-142 0q0 30 -10.5 50.5q-10.5 20.5 -27.5 32.5q-17 12 -39.5 17.5q-22.5 5.5 -46.5 5.5q-53 0 -83.5 -19.5q-30.5 -19.5 -30.5 -53.5q0 -20 9 -32.5q9 -12.5 25 -22q16 -9.5 37.5 -17q21.5 -7.5 46.5 -16.5l28 -10q47 -17 90.5 -35q43.5 -18 76.5 -42q33 -24 53 -57.5q20 -33.5 20 -81.5q0 -46 -17 -85q-17 -39 -51.5 -67.5q-34.5 -28.5 -85.5 -44.5t-119 -16z" horiz-adv-x="648" unicode="Ѕ"/><glyph d="M88 700h142v-700l-142 0z" horiz-adv-x="318" unicode="І"/><glyph d="M88 700h142v-700h-142zM-18 886h139v-118h-139zM199 886h140v-118l-140 0z" horiz-adv-x="318" unicode="Ї"/><glyph d="M263 -15q-52 0 -96.5 11q-44.5 11 -77.5 37q-33 26 -52 69q-19 43 -19 107v31h142v-31q0 -51 27.5 -72.5q27.5 -21.5 75.5 -21.5q19 0 37.5 5q18.5 5 33 16.5q14.5 11.5 23 30.5q8.5 19 8.5 47v486h142v-491q0 -62 -19.5 -104.5q-19.5 -42.5 -52.5 -69q-33 -26.5 -77.5 -38.5t-94.5 -12z" horiz-adv-x="584" unicode="Ј"/><glyph d="M743 124q15 0 30 5.5q15 5.5 26 17q11 11.5 18 29q7 17.5 7 42.5q0 49 -25 71.5q-25 22.5 -56 22.5h-142v-188zM146 700h455v-264h168q94 0 146.5 -59q52.5 -59 52.5 -159q0 -100 -52.5 -159q-52.5 -59 -146.5 -59h-310v576h-183v-234q0 -95 -15.5 -160q-15.5 -65 -47.5 -105.5q-32 -40.5 -80 -58.5q-48 -18 -113 -18l0 130q37 0 61.5 9.5q24.5 9.5 38.5 35.5q14 26 20 72q6 46 6 119z" horiz-adv-x="1011" unicode="Љ"/><glyph d="M486 312h-256v-312h-142v700h142v-264h256v264h142v-264h168q94 0 146.5 -59q52.5 -59 52.5 -159q0 -100 -52.5 -159q-52.5 -59 -146.5 -59h-310zM770 124q15 0 30 5.5q15 5.5 26 17q11 11.5 18 29q7 17.5 7 42.5q0 49 -25 71.5q-25 22.5 -56 22.5h-142l0 -188z" horiz-adv-x="1038" unicode="Њ"/><glyph d="M190 576h-172v124h539v-124h-225v-152q55 9 115 9q48 0 94.5 -8.5q46.5 -8.5 83 -32q36.5 -23.5 59.5 -64.5q23 -41 23 -106v-222h-142v206q0 47 -30 72q-30 25 -99 25q-32 0 -55.5 -2q-23.5 -2 -48.5 -7l0 -294l-142 0z" horiz-adv-x="765" unicode="Ћ"/><glyph d="M88 700h142v-288h74l169 288h132v-47l-177 -295l192 -311v-47h-141l-175 288h-74v-288h-142zM343 913h126v-49l-90 -102l-112 0z" horiz-adv-x="637" unicode="Ќ"/><glyph d="M241 206l-233 447v47h131l174 -342l152 342h124v-47l-291 -653h-136v47zM304 742q-73 0 -119 33.5q-46 33.5 -46 99.5v13h111v-12q0 -19 12.5 -31.5q12.5 -12.5 41.5 -12.5q29 0 41.5 12.5q12.5 12.5 12.5 31.5v12h110v-13q0 -66 -45.5 -99.5t-118.5 -33.5z" horiz-adv-x="597" unicode="Ў"/><glyph d="M290 0h-202v700h142v-576h251v576h142v-700h-203v-138l-130 0z" horiz-adv-x="711" unicode="Џ"/><glyph d="M18 47l242 653h139l243 -653v-47h-140l-56 164h-239l-58 -164h-131zM403 282l-76 228l-78 -228z" horiz-adv-x="660" unicode="А"/><glyph d="M88 700h489v-124h-347v-140h190q95 0 147.5 -59q52.5 -59 52.5 -159q0 -100 -52.5 -159q-52.5 -59 -147.5 -59h-332zM395 124q15 0 29.5 5.5q14.5 5.5 26 17q11.5 11.5 18.5 29q7 17.5 7 42.5q0 49 -25.5 71.5q-25.5 22.5 -55.5 22.5h-165l0 -188z" horiz-adv-x="668" unicode="Б"/><glyph d="M88 700h296q96 0 151.5 -48q55.5 -48 55.5 -145q0 -101 -78 -144q22 -9 41 -22.5q19 -13.5 33.5 -33.5q14.5 -20 23 -47q8.5 -27 8.5 -63q0 -99 -55.5 -148q-55.5 -49 -151.5 -49h-324zM376 409q28 0 50 19.5q22 19.5 22 64.5q0 44 -22 63.5q-22 19.5 -50 19.5h-146v-167zM405 124q28 0 50 19.5q22 19.5 22 64.5q0 44 -22 63.5q-22 19.5 -50 19.5h-175l0 -167z" horiz-adv-x="667" unicode="В"/><glyph d="M88 700h440v-124h-298v-576l-142 0z" horiz-adv-x="566" unicode="Г"/><glyph d="M23 124h55q13 18 26 39.5q13 21.5 23.5 51.5q10.5 30 16.5 71.5q6 41.5 6 98.5v315h459v-576h79v-262h-130v138h-405v-138h-130zM467 124v452h-187v-191q0 -56 -4.5 -96q-4.5 -40 -11.5 -70q-7 -30 -16 -52.5q-9 -22.5 -18 -42.5z" horiz-adv-x="721" unicode="Д"/><glyph d="M88 700h456v-124h-314v-166h268v-118h-268v-168h316v-124l-458 0z" horiz-adv-x="594" unicode="Е"/><glyph d="M403 288h-85l-146 -288h-143v47l168 313l-154 293v47h130l148 -288h82v288h142v-288h82l148 288h130v-47l-154 -293l168 -313v-47h-143l-146 288h-85v-288l-142 0z" horiz-adv-x="947" unicode="Ж"/><glyph d="M325 -15q-55 0 -105 14q-50 14 -88.5 43.5q-38.5 29.5 -61 76q-22.5 46.5 -22.5 111.5l142 0q0 -32 11 -54q11 -22 30 -35.5q19 -13.5 43 -19.5q24 -6 51 -6q54 0 84 21.5q30 21.5 30 66.5q0 45 -29.5 66q-29.5 21 -81.5 21h-90v118h90q46 0 71 21.5q25 21.5 25 62.5q0 39 -26 66q-26 27 -77 27q-22 0 -42.5 -6q-20.5 -6 -36 -19.5q-15.5 -13.5 -25 -35.5q-9.5 -22 -9.5 -54l-142 0q0 65 20.5 111.5q20.5 46.5 56 76q35.5 29.5 81.5 43.5q46 14 97 14q60 0 106 -15.5q46 -15.5 77.5 -43q31.5 -27.5 47.5 -65.5q16 -38 16 -84q0 -54 -25.5 -91.5q-25.5 -37.5 -61.5 -61.5q42 -19 71.5 -55q29.5 -36 29.5 -96q0 -49 -17 -89.5q-17 -40.5 -50 -69q-33 -28.5 -81 -44t-109 -15.5z" horiz-adv-x="630" unicode="З"/><glyph d="M88 700h142v-446l273 446h130v-700h-142v446l-273 -446l-130 0z" horiz-adv-x="721" unicode="И"/><glyph d="M88 700h142v-446l273 446h130v-700h-142v446l-273 -446h-130zM361 742q-73 0 -119 33.5q-46 33.5 -46 99.5v13h111v-12q0 -19 12.5 -31.5q12.5 -12.5 41.5 -12.5q29 0 41.5 12.5q12.5 12.5 12.5 31.5v12h110v-13q0 -66 -45.5 -99.5t-118.5 -33.5z" horiz-adv-x="721" unicode="Й"/><glyph d="M88 700h142v-288h74l169 288h132v-47l-177 -295l192 -311v-47h-141l-175 288h-74v-288l-142 0z" horiz-adv-x="637" unicode="К"/><glyph d="M20 130q37 0 61.5 9.5q24.5 9.5 38.5 35.5q14 26 20 72q6 46 6 119v334h455v-700h-142v576h-183v-234q0 -95 -15.5 -160q-15.5 -65 -47.5 -105.5q-32 -40.5 -80 -58.5q-48 -18 -113 -18z" horiz-adv-x="689" unicode="Л"/><glyph d="M363 218l-138 230v-448h-137v700h137l184 -309l184 309h133v-700h-137v448l-138 -230z" horiz-adv-x="814" unicode="М"/><glyph d="M88 700h142v-288h256v288h142v-700h-142v288h-256v-288l-142 0z" horiz-adv-x="716" unicode="Н"/><glyph d="M347 115q36 0 61.5 9.5q25.5 9.5 42.5 26q17 16.5 25 37q8 20.5 8 43.5v238q0 22 -8 43q-8 21 -25 37.5q-17 16.5 -42.5 26q-25.5 9.5 -61.5 9.5q-36 0 -61.5 -9.5q-25.5 -9.5 -42.5 -26q-17 -16.5 -25 -37.5q-8 -21 -8 -43v-238q0 -23 8 -43.5q8 -20.5 25 -37q17 -16.5 42.5 -26q25.5 -9.5 61.5 -9.5zt0 0zM347 -15q-64 0 -115.5 17q-51.5 17 -88 49.5q-36.5 32.5 -56 79.5q-19.5 47 -19.5 107v224q0 60 19.5 107q19.5 47 56 79.5q36.5 32.5 88 49.5q51.5 17 115.5 17q64 0 115.5 -17q51.5 -17 88 -49.5q36.5 -32.5 56 -79.5q19.5 -47 19.5 -107v-224q0 -60 -19.5 -107q-19.5 -47 -56 -79.5q-36.5 -32.5 -88 -49.5t-115.5 -17z" horiz-adv-x="694" unicode="О"/><glyph d="M88 700h534v-700h-142v576h-250v-576l-142 0z" horiz-adv-x="710" unicode="П"/><glyph d="M88 700h313q95 0 148 -59.5q53 -59.5 53 -161.5q0 -101 -53 -160.5q-53 -59.5 -148 -59.5h-171v-259h-142zM375 383q32 0 57.5 23q25.5 23 25.5 74q0 25 -7 43q-7 18 -18.5 30q-11.5 12 -26.5 17.5q-15 5.5 -31 5.5h-145l0 -193z" horiz-adv-x="645" unicode="Р"/><glyph d="M343 -15q-134 0 -204.5 66q-70.5 66 -70.5 186v226q0 120 70.5 186q70.5 66 204.5 66q52 0 99 -14q47 -14 83 -43.5q36 -29.5 57 -76q21 -46.5 21 -111.5v-10h-142v10q0 31 -10.5 53q-10.5 22 -28.5 35.5q-18 13.5 -41 20q-23 6.5 -47 6.5q-63 0 -93.5 -30q-30.5 -30 -30.5 -82v-246q0 -52 30.5 -82q30.5 -30 93.5 -30q24 0 47 6q23 6 41 19.5q18 13.5 28.5 35.5q10.5 22 10.5 54v10h142v-10q0 -65 -21 -111.5q-21 -46.5 -57 -76q-36 -29.5 -83 -43.5t-99 -14z" horiz-adv-x="661" unicode="С"/><glyph d="M215 576h-197v124h535v-124h-196v-576l-142 0z" horiz-adv-x="571" unicode="Т"/><glyph d="M241 206l-233 447v47h131l174 -342l152 342h124v-47l-291 -653h-136l0 47z" horiz-adv-x="597" unicode="У"/><glyph d="M371 77h-39q-56 0 -107 16q-51 16 -90.5 47.5q-39.5 31.5 -63 78q-23.5 46.5 -23.5 107.5v72q0 61 23.5 107.5q23.5 46.5 63 78q39.5 31.5 90.5 47.5q51 16 107 16h39v77h142v-77h40q55 0 106.5 -16q51.5 -16 91 -47.5q39.5 -31.5 63 -78q23.5 -46.5 23.5 -107.5v-72q0 -61 -23.5 -107.5q-23.5 -46.5 -63 -78q-39.5 -31.5 -91 -47.5q-51.5 -16 -106.5 -16h-40v-89h-142zM371 201v322h-45q-32 0 -57 -10.5q-25 -10.5 -42.5 -28q-17.5 -17.5 -27 -40.5q-9.5 -23 -9.5 -48v-67q0 -25 9.5 -48q9.5 -23 27 -41q17.5 -18 42.5 -28.5q25 -10.5 57 -10.5zM559 201q31 0 56.5 10.5q25.5 10.5 43 28.5q17.5 18 27 41q9.5 23 9.5 48v67q0 25 -9.5 48q-9.5 23 -27 40.5q-17.5 17.5 -43 28q-25.5 10.5 -56.5 10.5h-46l0 -322z" horiz-adv-x="885" unicode="Ф"/><glyph d="M28 47l214 317l-194 289v47h145l137 -225l146 225h136v-47l-196 -288l216 -318v-47h-144l-161 250l-163 -250l-136 0z" horiz-adv-x="660" unicode="Х"/><glyph d="M565 0h-477v700h142v-576h244v576h142v-576h79v-262l-130 0z" horiz-adv-x="728" unicode="Ц"/><glyph d="M433 254q-28 -5 -56.5 -8q-28.5 -3 -58.5 -3q-48 0 -94.5 8.5q-46.5 8.5 -83 32q-36.5 23.5 -59.5 64.5q-23 41 -23 106v246h142v-230q0 -47 30 -72q30 -25 99 -25q32 0 55 2.5q23 2.5 49 8.5l0 316h142v-700l-142 0z" horiz-adv-x="663" unicode="Ч"/><glyph d="M88 700h142v-576h202v576h142v-576h201v576h142v-700l-829 0z" horiz-adv-x="1005" unicode="Ш"/><glyph d="M866 0h-778v700h142v-576h202v576h142v-576h201v576h142v-576h79v-262l-130 0z" horiz-adv-x="1029" unicode="Щ"/><glyph d="M163 576h-155v124h297v-264h168q94 0 146.5 -59q52.5 -59 52.5 -159q0 -100 -52.5 -159q-52.5 -59 -146.5 -59h-310zM447 124q15 0 30 5.5q15 5.5 26 17q11 11.5 18 29q7 17.5 7 42.5q0 49 -25 71.5q-25 22.5 -56 22.5h-142l0 -188z" horiz-adv-x="715" unicode="Ъ"/><glyph d="M670 700h142v-700h-142zM88 700h142v-264h168q94 0 146.5 -59q52.5 -59 52.5 -159q0 -100 -52.5 -159q-52.5 -59 -146.5 -59h-310zM372 124q15 0 30 5.5q15 5.5 26 17q11 11.5 18 29q7 17.5 7 42.5q0 49 -25 71.5q-25 22.5 -56 22.5h-142l0 -188z" horiz-adv-x="900" unicode="Ы"/><glyph d="M88 700h142v-264h168q94 0 146.5 -59q52.5 -59 52.5 -159q0 -100 -52.5 -159q-52.5 -59 -146.5 -59h-310zM372 124q15 0 30 5.5q15 5.5 26 17q11 11.5 18 29q7 17.5 7 42.5q0 49 -25 71.5q-25 22.5 -56 22.5h-142l0 -188z" horiz-adv-x="640" unicode="Ь"/><glyph d="M313 -15q-47 0 -92.5 13.5q-45.5 13.5 -81.5 43q-36 29.5 -58 75.5q-22 46 -22 111l130 0q1 -31 12.5 -52.5q11.5 -21.5 30 -35q18.5 -13.5 42 -19.5q23.5 -6 48.5 -6q66 0 98 31.5q32 31.5 32 85.5v59h-222v118h222v59q0 54 -32 85.5q-32 31.5 -98 31.5q-53 0 -92 -27.5q-39 -27.5 -41 -85.5l-130 0q0 65 22 111q22 46 58 75.5q36 29.5 81.5 43q45.5 13.5 92.5 13.5q134 0 207.5 -66q73.5 -66 73.5 -186v-226q0 -120 -73.5 -186t-207.5 -66z" horiz-adv-x="662" unicode="Э"/><glyph d="M88 700h142v-288h114v59q0 58 19 103q19 45 54 76.5q35 31.5 84.5 48q49.5 16.5 111.5 16.5q62 0 111.5 -16.5q49.5 -16.5 84.5 -48q35 -31.5 54 -76.5q19 -45 19 -103v-242q0 -58 -19 -103q-19 -45 -54 -76.5q-35 -31.5 -84.5 -48q-49.5 -16.5 -111.5 -16.5q-62 0 -111.5 16.5q-49.5 16.5 -84.5 48q-35 31.5 -54 76.5q-19 45 -19 103v59h-114v-288h-142zM613 115q33 0 57 9q24 9 39.5 24q15.5 15 23 34.5q7.5 19.5 7.5 40.5v254q0 21 -7.5 40.5q-7.5 19.5 -23 34.5q-15.5 15 -39.5 24q-24 9 -57 9q-33 0 -57 -9q-24 -9 -39.5 -24q-15.5 -15 -23 -34.5q-7.5 -19.5 -7.5 -40.5v-254q0 -21 7.5 -40.5q7.5 -19.5 23 -34.5q15.5 -15 39.5 -24t57 -9z" horiz-adv-x="950" unicode="Ю"/><glyph d="M39 47l132 222q-54 26 -85.5 78q-31.5 52 -31.5 124q0 106 55 167.5q55 61.5 163 61.5h292v-700h-142v250h-113l-138 -250h-132zM422 370v206h-119q-50 0 -77 -23q-27 -23 -27 -79q0 -57 29.5 -80.5q29.5 -23.5 79.5 -23.5z" horiz-adv-x="652" unicode="Я"/><glyph d="M219 -12q-35 0 -67 10q-32 10 -56 29.5q-24 19.5 -38.5 48.5q-14.5 29 -14.5 68q0 81 52.5 125.5q52.5 44.5 159.5 44.5h108v33q0 34 -20 52.5q-20 18.5 -64 18.5q-45 0 -64.5 -17q-19.5 -17 -19.5 -43l-127 0q0 39 12.5 71.5q12.5 32.5 39 56q26.5 23.5 66 37q39.5 13.5 93.5 13.5q54 0 94 -13.5q40 -13.5 67 -37.5q27 -24 40 -57q13 -33 13 -72v-356h-75l-38 51q-29 -26 -65.5 -44.5q-36.5 -18.5 -95.5 -18.5zt0 0zM246 106q38 0 66 12.5q28 12.5 51 38.5l0 58h-108q-26 0 -42 -5.5q-16 -5.5 -25 -13.5q-9 -8 -12 -17.5q-3 -9.5 -3 -17.5q0 -55 73 -55z" horiz-adv-x="566" unicode="а"/><glyph d="M291 -12q-51 0 -93 12.5q-42 12.5 -72 37q-30 24.5 -46.5 60.5q-16.5 36 -16.5 82v183q0 108 33.5 172q33.5 64 113.5 87l127 38q23 8 26.5 21.5q3.5 13.5 3.5 18.5v5h130v-5q0 -42 -9.5 -68q-9.5 -26 -27.5 -42.5q-18 -16.5 -43.5 -26.5q-25.5 -10 -57.5 -19l-93 -26q-41 -11 -62.5 -34.5q-21.5 -23.5 -21.5 -76.5v-15q9 13 22.5 26.5q13.5 13.5 32.5 24.5q19 11 42.5 18q23.5 7 51.5 7q38 0 72 -11q34 -11 59.5 -34q25.5 -23 40.5 -59.5q15 -36.5 15 -87.5v-94q0 -45 -16.5 -81q-16.5 -36 -46.5 -61q-30 -25 -71.5 -38.5q-41.5 -13.5 -92.5 -13.5zt0 0zM291 106q49 0 73 24q24 24 24 58v79q0 41 -27 62q-27 21 -65 21q-35 0 -60 -15q-25 -15 -43 -36l0 -111q0 -33 23.5 -57.5t74.5 -24.5z" horiz-adv-x="573" unicode="б"/><glyph d="M78 524h242q83 0 132.5 -32.5q49.5 -32.5 49.5 -107.5q0 -39 -14 -67q-14 -28 -38 -47q37 -17 56.5 -45q19.5 -28 19.5 -71q0 -47 -14 -76.5q-14 -29.5 -40 -47q-26 -17.5 -62.5 -24q-36.5 -6.5 -81.5 -6.5h-250zM315 312q27 0 38.5 14.5q11.5 14.5 11.5 34.5q0 23 -11.5 36.5q-11.5 13.5 -38.5 13.5h-107v-99zM336 113q28 0 39.5 15q11.5 15 11.5 35q0 23 -11.5 36.5q-11.5 13.5 -39.5 13.5h-128l0 -100z" horiz-adv-x="576" unicode="в"/><glyph d="M78 524h358v-113h-228v-411l-130 0z" horiz-adv-x="474" unicode="г"/><glyph d="M26 113h49q28 25 39 73q11 48 11 108v230h408v-411h76v-237h-127v124h-328v-124h-128zM403 113v298h-155v-138q0 -18 -2 -38.5q-2 -20.5 -6 -42q-4 -21.5 -10 -42q-6 -20.5 -14 -37.5z" horiz-adv-x="642" unicode="д"/><glyph d="M283 -12q-51 0 -93 12.5q-42 12.5 -72 37q-30 24.5 -46.5 60.5q-16.5 36 -16.5 82v162q0 45 16.5 81q16.5 36 46.5 61q30 25 72 38.5q42 13.5 93 13.5q48 0 88.5 -12.5q40.5 -12.5 69 -37q28.5 -24.5 44.5 -60.5q16 -36 16 -82v-125h-316v-37q0 -33 23.5 -54.5q23.5 -21.5 74.5 -21.5q38 0 59 14q21 14 28 39l130 0q-8 -81 -64 -126q-56 -45 -153 -45zt0 0zM371 318v26q0 34 -24 54q-24 20 -69 20q-47 0 -70 -20.5q-23 -20.5 -23 -53.5l0 -26z" horiz-adv-x="556" unicode="е"/><glyph d="M38 61l131 205l-123 197v61h107l128 -206h52v206h130v-206h53l127 206h107v-61l-123 -197l131 -205v-61h-115l-124 205h-56v-205h-130v205h-55l-124 -205l-116 0z" horiz-adv-x="795" unicode="ж"/><glyph d="M280 -12q-55 0 -98 14.5q-43 14.5 -72.5 41.5q-29.5 27 -45.5 64.5q-16 37.5 -16 84.5l126 0q0 -38 22 -62.5q22 -24.5 80 -24.5q40 0 61.5 15.5q21.5 15.5 21.5 41.5q0 23 -14.5 36.5q-14.5 13.5 -42.5 13.5h-79v104h78q25 0 37 14q12 14 12 34q0 26 -20 39.5q-20 13.5 -55 13.5q-26 0 -43.5 -6.5q-17.5 -6.5 -28 -17.5q-10.5 -11 -14.5 -26.5q-4 -15.5 -4 -33.5l-127 0q1 96 56 149q55 53 165 53q47 0 85.5 -11q38.5 -11 66 -31.5q27.5 -20.5 42.5 -49.5q15 -29 15 -66q0 -36 -15.5 -63q-15.5 -27 -39.5 -44q64 -36 64 -112q0 -83 -56 -127t-161 -44z" horiz-adv-x="551" unicode="з"/><glyph d="M78 524h130v-323l201 323h130v-524h-130v323l-201 -323l-130 0z" horiz-adv-x="617" unicode="и"/><glyph d="M308 571q-73 0 -118.5 35.5q-45.5 35.5 -45.5 101.5v12h111v-11q0 -20 12 -32q12 -12 41 -12q30 0 42.5 12q12.5 12 12.5 32v11h109v-12q0 -66 -45.5 -101.5q-45.5 -35.5 -118.5 -35.5zt0 0zM78 524h130v-323l201 323h130v-524h-130v323l-201 -323l-130 0z" horiz-adv-x="617" unicode="й"/><glyph d="M78 524h130v-206h55l142 206h111v-61l-136 -197l143 -205v-61h-119l-142 205h-54v-205l-130 0z" horiz-adv-x="560" unicode="к"/><glyph d="M32 118h13q45 0 63.5 25.5q18.5 25.5 18.5 72.5v308h404v-524h-130v411h-152v-194q0 -56 -15.5 -97q-15.5 -41 -41 -67.5q-25.5 -26.5 -59 -39.5q-33.5 -13 -69.5 -13l-32 0z" horiz-adv-x="609" unicode="л"/><glyph d="M623 0h-130v323l-113 -186h-60l-112 186v-323h-130v524h130l145 -231l140 231l130 0z" horiz-adv-x="701" unicode="м"/><glyph d="M78 524h130v-205h190v205h130v-524h-130v206h-190v-206l-130 0z" horiz-adv-x="606" unicode="н"/><glyph d="M283 106q49 0 73 24q24 24 24 58v148q0 34 -24 58q-24 24 -73 24q-51 0 -74.5 -24.5q-23.5 -24.5 -23.5 -57.5v-148q0 -33 23.5 -57.5q23.5 -24.5 74.5 -24.5zt0 0zM283 -12q-57 0 -100 15q-43 15 -71.5 41q-28.5 26 -42.5 61.5q-14 35.5 -14 76.5v160q0 41 14 76.5q14 35.5 42.5 61.5q28.5 26 71.5 41q43 15 100 15q57 0 99.5 -15q42.5 -15 71 -41q28.5 -26 42.5 -61.5q14 -35.5 14 -76.5v-160q0 -41 -14 -76.5q-14 -35.5 -42.5 -61.5q-28.5 -26 -71 -41t-99.5 -15z" horiz-adv-x="565" unicode="о"/><glyph d="M78 524h445v-524h-130v411h-185v-411l-130 0z" horiz-adv-x="601" unicode="п"/><glyph d="M78 524h75l38 -52q27 26 63 45q36 19 93 19q38 0 72 -11.5q34 -11.5 59.5 -35.5q25.5 -24 40 -60q14.5 -36 14.5 -85v-164q0 -49 -14.5 -85q-14.5 -36 -40 -60q-25.5 -24 -59.5 -35.5q-34 -11.5 -72 -11.5q-27 0 -49 5q-22 5 -39.5 12.5q-17.5 7.5 -30 16q-12.5 8.5 -20.5 15.5l0 -197h-130zM208 161q20 -20 47 -37.5q27 -17.5 65 -17.5q15 0 30 5.5q15 5.5 26.5 16q11.5 10.5 19 26q7.5 15.5 7.5 36.5v144q0 21 -7.5 36.5q-7.5 15.5 -19 26q-11.5 10.5 -26.5 16q-15 5.5 -30 5.5q-38 0 -65 -17.5q-27 -17.5 -47 -37.5z" horiz-adv-x="596" unicode="р"/><glyph d="M277 -12q-50 0 -91 13.5q-41 13.5 -70 38.5q-29 25 -45 61q-16 36 -16 81v160q0 45 16 81q16 36 45 61q29 25 70 38.5q41 13.5 91 13.5q49 0 88.5 -13q39.5 -13 67.5 -38q28 -25 43.5 -61.5q15.5 -36.5 15.5 -83.5v-6h-130v6q0 35 -21.5 56.5q-21.5 21.5 -63.5 21.5q-48 0 -70 -20.5q-22 -20.5 -22 -53.5v-164q0 -33 22 -53.5q22 -20.5 70 -20.5q42 0 63.5 21q21.5 21 21.5 56v10h130v-7q0 -46 -16 -83q-16 -37 -44.5 -62.5q-28.5 -25.5 -68 -39t-86.5 -13.5z" horiz-adv-x="543" unicode="с"/><glyph d="M183 411h-165v113h459v-113h-164v-411l-130 0z" horiz-adv-x="495" unicode="т"/><glyph d="M149 -113l49 113l-180 463v61h120l124 -347l117 347h118v-61l-242 -623l-106 0z" horiz-adv-x="515" unicode="у"/><glyph d="M345 39q-16 -18 -46.5 -34.5q-30.5 -16.5 -75.5 -16.5q-32 0 -61 11q-29 11 -51 33.5q-22 22.5 -35 56q-13 33.5 -13 78.5v190q0 45 13 78.5q13 33.5 35 56q22 22.5 51 33.5q29 11 61 11q45 0 75.5 -16.5q30.5 -16.5 46.5 -34.5l0 220h130v-220q17 18 47 34.5q30 16.5 76 16.5q32 0 61 -11q29 -11 51 -33.5q22 -22.5 35 -56q13 -33.5 13 -78.5v-190q0 -45 -13 -78.5q-13 -33.5 -35 -56q-22 -22.5 -51 -33.5q-29 -11 -61 -11q-46 0 -76 16.5q-30 16.5 -47 34.5l0 -199h-130zM266 106q28 0 46.5 9q18.5 9 32.5 22l0 250q-14 13 -32.5 22q-18.5 9 -46.5 9q-29 0 -51 -21.5q-22 -21.5 -22 -57.5v-154q0 -36 22 -57.5q22 -21.5 51 -21.5zt0 0zM555 106q29 0 51 21.5q22 21.5 22 57.5v154q0 36 -22 57.5q-22 21.5 -51 21.5q-28 0 -47 -9q-19 -9 -33 -22l0 -250q14 -13 33 -22t47 -9z" horiz-adv-x="821" unicode="ф"/><glyph d="M38 61l145 201l-143 201v61h117l107 -163l109 163h110v-61l-139 -196l148 -206v-61h-116l-114 174l-113 -174l-111 0z" horiz-adv-x="529" unicode="х"/><glyph d="M466 0h-388v524h130v-411h179v411h130v-411h77v-237l-128 0z" horiz-adv-x="627" unicode="ц"/><glyph d="M365 178q-19 -4 -45 -8q-26 -4 -60 -4q-48 0 -87 10q-39 10 -67 31q-28 21 -43 54q-15 33 -15 80v183h130v-169q0 -40 28 -55.5q28 -15.5 76 -15.5q29 0 48.5 3.5q19.5 3.5 34.5 5.5l0 231h130v-524l-130 0z" horiz-adv-x="573" unicode="ч"/><glyph d="M78 524h130v-411h136v411h130v-411h136v411h130v-524l-662 0z" horiz-adv-x="818" unicode="ш"/><glyph d="M689 0h-611v524h130v-411h136v411h130v-411h136v411h130v-411h77v-237l-128 0z" horiz-adv-x="850" unicode="щ"/><glyph d="M397 362q78 0 122 -49q44 -49 44 -132q0 -83 -44 -132q-44 -49 -122 -49h-263v411h-136v113h266v-162zM364 113q38 0 53.5 20q15.5 20 15.5 48q0 32 -15.5 50q-15.5 18 -53.5 18h-100l0 -136z" horiz-adv-x="591" unicode="ъ"/><glyph d="M563 524h130v-524h-130zM331 362q78 0 122 -49q44 -49 44 -132q0 -83 -44 -132q-44 -49 -122 -49h-253v524h130v-162zM298 113q38 0 53.5 20q15.5 20 15.5 48q0 32 -15.5 50q-15.5 18 -53.5 18h-90l0 -136z" horiz-adv-x="771" unicode="ы"/><glyph d="M341 362q78 0 122 -49q44 -49 44 -132q0 -83 -44 -132q-44 -49 -122 -49h-263v524h130v-162zM308 113q38 0 53.5 20q15.5 20 15.5 48q0 32 -15.5 50q-15.5 18 -53.5 18h-100l0 -136z" horiz-adv-x="535" unicode="ь"/><glyph d="M181 187q0 -37 24.5 -59q24.5 -22 67.5 -22q51 0 71.5 22q20.5 22 20.5 57v24h-140v104h140v26q0 35 -20.5 57q-20.5 22 -71.5 22q-43 0 -67.5 -22q-24.5 -22 -24.5 -59v-3h-130v3q0 48 16 85q16 37 44.5 62.5q28.5 25.5 69 38.5q40.5 13 90.5 13q103 0 163.5 -52.5q60.5 -52.5 60.5 -144.5v-154q0 -92 -60.5 -144.5q-60.5 -52.5 -163.5 -52.5q-49 0 -89.5 14q-40.5 14 -69.5 40q-29 26 -45 63q-16 37 -16 84v4l130 0z" horiz-adv-x="550" unicode="э"/><glyph d="M291 346q0 40 14 75q14 35 41.5 60.5q27.5 25.5 69.5 40q42 14.5 98 14.5q55 0 97 -14.5q42 -14.5 69.5 -40q27.5 -25.5 41.5 -60.5q14 -35 14 -75v-168q0 -40 -14 -75q-14 -35 -41.5 -60.5q-27.5 -25.5 -69.5 -40q-42 -14.5 -97 -14.5q-56 0 -98 14.5q-42 14.5 -69.5 40q-27.5 25.5 -41.5 60.5q-14 35 -14 75v27h-83v-205h-130v524h130v-205h83zM514 106q47 0 69.5 23q22.5 23 22.5 55v156q0 32 -22.5 55q-22.5 23 -69.5 23q-48 0 -70.5 -23q-22.5 -23 -22.5 -55v-156q0 -32 22.5 -55t70.5 -23z" horiz-adv-x="791" unicode="ю"/><glyph d="M48 61l95 132q-45 17 -71.5 54.5q-26.5 37.5 -26.5 106.5q0 42 12 74q12 32 33 53q21 21 49 32q28 11 60 11h282v-524h-130v186h-62l-120 -186h-121zM351 290v121h-115q-34 0 -47.5 -16.5q-13.5 -16.5 -13.5 -44.5q0 -24 13.5 -42q13.5 -18 47.5 -18z" horiz-adv-x="559" unicode="я"/><glyph d="M283 -12q-51 0 -93 12.5q-42 12.5 -72 37q-30 24.5 -46.5 60.5q-16.5 36 -16.5 82v162q0 45 16.5 81q16.5 36 46.5 61q30 25 72 38.5q42 13.5 93 13.5q48 0 88.5 -12.5q40.5 -12.5 69 -37q28.5 -24.5 44.5 -60.5q16 -36 16 -82v-125h-316v-37q0 -33 23.5 -54.5q23.5 -21.5 74.5 -21.5q38 0 59 14q21 14 28 39l130 0q-8 -81 -64 -126q-56 -45 -153 -45zt0 0zM371 318v26q0 34 -24 54q-24 20 -69 20q-47 0 -70 -20.5q-23 -20.5 -23 -53.5v-26zM117 705h130v-110h-130zM320 705h130v-110l-130 0z" horiz-adv-x="556" unicode="ё"/><glyph d="M410 231q0 48 -23.5 70.5q-23.5 22.5 -57.5 22.5q-19 0 -36 -6q-17 -6 -31.5 -14.5q-14.5 -8.5 -25 -18q-10.5 -9.5 -16.5 -16.5l0 -269h-130v531h-78v92h78v82h130v-82h189v-92h-189v-138q24 20 57.5 34.5q33.5 14.5 80.5 14.5q85 0 133.5 -53.5q48.5 -53.5 48.5 -149.5v-219q0 -33 -9 -67q-9 -34 -30 -62q-21 -28 -55.5 -45.5q-34.5 -17.5 -84.5 -17.5q-9 0 -17.5 0q-8.5 0 -19.5 2l0 116h22q13 0 24.5 3.5q11.5 3.5 20.5 12q9 8.5 14 23q5 14.5 5 37.5z" horiz-adv-x="599" unicode="ђ"/><glyph d="M254 730h117v-45l-84 -95h-104zM78 524h358v-113h-228v-411l-130 0z" horiz-adv-x="474" unicode="ѓ"/><glyph d="M369 187q0 -37 -24.5 -59q-24.5 -22 -67.5 -22q-51 0 -71.5 22q-20.5 22 -20.5 57v24h140v104h-140v26q0 35 20.5 57q20.5 22 71.5 22q43 0 67.5 -22q24.5 -22 24.5 -59v-3h130v3q0 48 -16 85q-16 37 -44.5 62.5q-28.5 25.5 -69 38.5q-40.5 13 -90.5 13q-103 0 -163.5 -52.5q-60.5 -52.5 -60.5 -144.5v-154q0 -92 60.5 -144.5q60.5 -52.5 163.5 -52.5q49 0 89.5 14q40.5 14 69.5 40q29 26 45 63q16 37 16 84v4l-130 0z" horiz-adv-x="550" unicode="є"/><glyph d="M284 -12q-52 0 -94.5 13.5q-42.5 13.5 -73.5 38.5q-31 25 -48.5 60.5q-17.5 35.5 -18.5 79.5l129 0q5 -35 37 -54.5q32 -19.5 85 -19.5q35 0 56 12q21 12 21 32q0 28 -35 36l-145 37q-25 6 -49.5 16.5q-24.5 10.5 -44 27q-19.5 16.5 -31.5 41.5q-12 25 -12 60q0 78 56 123q56 45 157 45q101 0 159.5 -46.5q58.5 -46.5 61.5 -133.5l-130 0q-2 31 -28.5 46.5q-26.5 15.5 -72.5 15.5q-43 0 -60 -13q-17 -13 -17 -29q0 -15 11.5 -23.5q11.5 -8.5 33.5 -13.5l149 -37q26 -6 48.5 -17q22.5 -11 39 -28q16.5 -17 26 -40.5q9.5 -23.5 9.5 -56.5q0 -40 -15.5 -72q-15.5 -32 -44.5 -54q-29 -22 -69.5 -34t-89.5 -12z" horiz-adv-x="559" unicode="ѕ"/><glyph d="M78 524h130v-524h-130zM78 705h130v-110l-130 0z" horiz-adv-x="286" unicode="і"/><glyph d="M-23 705h130v-110h-130zM180 705h130v-110h-130zM78 524h130v-524l-130 0z" horiz-adv-x="286" unicode="ї"/><glyph d="M209 524v-504q0 -33 -9 -67q-9 -34 -30 -62q-21 -28 -55.5 -45.5q-34.5 -17.5 -84.5 -17.5q-9 0 -17.5 0q-8.5 0 -19.5 2l0 116h22q13 0 24.5 3.5q11.5 3.5 20.5 12q9 8.5 14 23q5 14.5 5 37.5v502zM79 705h130v-110l-130 0z" horiz-adv-x="287" unicode="ј"/><glyph d="M32 118h13q45 0 63.5 25.5q18.5 25.5 18.5 72.5v308h404v-162h133q78 0 122 -49q44 -49 44 -132q0 -83 -44 -132q-44 -49 -122 -49h-263v411h-152v-194q0 -56 -15.5 -97q-15.5 -41 -41 -67.5q-25.5 -26.5 -59 -39.5q-33.5 -13 -69.5 -13h-32zM631 113q38 0 53.5 20q15.5 20 15.5 48q0 32 -15.5 50q-15.5 18 -53.5 18h-100l0 -136z" horiz-adv-x="858" unicode="љ"/><glyph d="M661 362q78 0 122 -49q44 -49 44 -132q0 -83 -44 -132q-44 -49 -122 -49h-263v206h-190v-206h-130v524h130v-205h190v205h130v-162zM628 113q38 0 53.5 20q15.5 20 15.5 48q0 32 -15.5 50q-15.5 18 -53.5 18h-100l0 -136z" horiz-adv-x="855" unicode="њ"/><glyph d="M220 0h-130v531h-78v92h78v82h130v-82h189v-92h-189v-138q24 20 57.5 34.5q33.5 14.5 80.5 14.5q85 0 133.5 -53.5q48.5 -53.5 48.5 -149.5v-239h-130v231q0 48 -23.5 70.5q-23.5 22.5 -57.5 22.5q-19 0 -36 -6q-17 -6 -31.5 -14.5q-14.5 -8.5 -25 -18q-10.5 -9.5 -16.5 -16.5z" horiz-adv-x="602" unicode="ћ"/><glyph d="M289 730h117v-45l-84 -95h-104zM78 524h130v-206h55l142 206h111v-61l-136 -197l143 -205v-61h-119l-142 205h-54v-205l-130 0z" horiz-adv-x="560" unicode="ќ"/><glyph d="M149 -113l49 113l-180 463v61h120l124 -347l117 347h118v-61l-242 -623h-106zM260 571q-73 0 -118.5 35.5q-45.5 35.5 -45.5 101.5v12h111v-11q0 -20 12 -32q12 -12 41 -12q30 0 42.5 12q12.5 12 12.5 32v11h109v-12q0 -66 -45.5 -101.5t-118.5 -35.5z" horiz-adv-x="515" unicode="ў"/><glyph d="M237 0h-159v524h130v-411h185v411h130v-524h-159v-124l-127 0z" horiz-adv-x="601" unicode="џ"/><glyph d="M88 700h300v130h130v-254h-288v-576l-142 0z" horiz-adv-x="556" unicode="Ґ"/><glyph d="M78 524h225v127h128v-240h-223v-411l-130 0z" horiz-adv-x="469" unicode="ґ"/><glyph d="M284 -12q-52 0 -94.5 13.5q-42.5 13.5 -73.5 38.5q-31 25 -48.5 60.5q-17.5 35.5 -18.5 79.5l129 0q5 -35 37 -54.5q32 -19.5 85 -19.5q35 0 56 12q21 12 21 32q0 28 -35 36l-145 37q-25 6 -49.5 16.5q-24.5 10.5 -44 27q-19.5 16.5 -31.5 41.5q-12 25 -12 60q0 78 56 123q56 45 157 45q101 0 159.5 -46.5q58.5 -46.5 61.5 -133.5l-130 0q-2 31 -28.5 46.5q-26.5 15.5 -72.5 15.5q-43 0 -60 -13q-17 -13 -17 -29q0 -15 11.5 -23.5q11.5 -8.5 33.5 -13.5l149 -37q26 -6 48.5 -17q22.5 -11 39 -28q16.5 -17 26 -40.5q9.5 -23.5 9.5 -56.5q0 -40 -15.5 -72q-15.5 -32 -44.5 -54q-29 -22 -69.5 -34q-40.5 -12 -89.5 -12zt0 0zM214 705h130v-110l-130 0z" horiz-adv-x="559" unicode="ṡ"/><glyph d="M284 -12q-52 0 -94.5 13.5q-42.5 13.5 -73.5 38.5q-31 25 -48.5 60.5q-17.5 35.5 -18.5 79.5l129 0q5 -35 37 -54.5q32 -19.5 85 -19.5q35 0 56 12q21 12 21 32q0 28 -35 36l-145 37q-25 6 -49.5 16.5q-24.5 10.5 -44 27q-19.5 16.5 -31.5 41.5q-12 25 -12 60q0 78 56 123q56 45 157 45q101 0 159.5 -46.5q58.5 -46.5 61.5 -133.5l-130 0q-2 31 -28.5 46.5q-26.5 15.5 -72.5 15.5q-43 0 -60 -13q-17 -13 -17 -29q0 -15 11.5 -23.5q11.5 -8.5 33.5 -13.5l149 -37q26 -6 48.5 -17q22.5 -11 39 -28q16.5 -17 26 -40.5q9.5 -23.5 9.5 -56.5q0 -40 -15.5 -72q-15.5 -32 -44.5 -54q-29 -22 -69.5 -34q-40.5 -12 -89.5 -12zt0 0zM206 -72h130v-110l-130 0z" horiz-adv-x="559" unicode="ṣ"/><glyph d="M58 367h489v-108l-489 0z" horiz-adv-x="605" unicode="–"/><glyph d="M58 367h740v-108l-740 0z" horiz-adv-x="856" unicode="—"/><glyph d="M178 443h-128v55l86 207l92 0z" horiz-adv-x="260" unicode="‘"/><glyph d="M82 705h128v-55l-86 -207l-92 0z" horiz-adv-x="260" unicode="’"/><glyph d="M82 143h128v-55l-86 -207l-92 0z" horiz-adv-x="260" unicode="‚"/><glyph d="M178 443h-128v55l86 207h92zM382 443h-128v55l86 207l92 0z" horiz-adv-x="464" unicode="“"/><glyph d="M82 705h128v-55l-86 -207h-92zM286 705h128v-55l-86 -207l-92 0z" horiz-adv-x="464" unicode="”"/><glyph d="M286 143h128v-55l-86 -207h-92zM82 143h128v-55l-86 -207l-92 0z" horiz-adv-x="464" unicode="„"/><glyph d="M209 411h-181v113h181v181h130v-181h180v-113h-180v-571l-130 0z" horiz-adv-x="547" unicode="†"/><glyph d="M209 124h-181v113h181v174h-181v113h181v181h130v-181h180v-113h-180v-174h180v-113h-180v-284l-130 0z" horiz-adv-x="547" unicode="‡"/><glyph d="M227 150q-79 0 -124 42.5q-45 42.5 -45 123.5v8q0 81 45 123.5q45 42.5 124 42.5q79 0 124 -42.5q45 -42.5 45 -123.5v-8q0 -81 -45 -123.5t-124 -42.5z" horiz-adv-x="454" unicode="•"/><glyph d="M68 143h143v-143h-143zM311 143h143v-143h-143zM554 143h143v-143l-143 0z" horiz-adv-x="765" unicode="…"/><glyph d="M196 449q21 0 32.5 13q11.5 13 11.5 32v83q0 19 -11.5 32q-11.5 13 -32.5 13q-22 0 -33 -13.5q-11 -13.5 -11 -31.5v-83q0 -18 11 -31.5q11 -13.5 33 -13.5zt0 0zM196 356q-73 0 -115.5 39q-42.5 39 -42.5 117v47q0 78 42.5 117q42.5 39 115.5 39q73 0 115.5 -39q42.5 -39 42.5 -117v-47q0 -78 -42.5 -117q-42.5 -39 -115.5 -39zt0 0zM596 78q21 0 32.5 13q11.5 13 11.5 32v83q0 18 -11.5 31.5q-11.5 13.5 -32.5 13.5q-22 0 -33 -13.5q-11 -13.5 -11 -31.5v-83q0 -18 11 -31.5q11 -13.5 33 -13.5zt0 0zM596 -15q-73 0 -115.5 39q-42.5 39 -42.5 117v47q0 78 42.5 117q42.5 39 115.5 39q73 0 115.5 -39q42.5 -39 42.5 -117v-47q0 -78 -42.5 -117q-42.5 -39 -115.5 -39zt0 0zM956 78q21 0 32.5 13q11.5 13 11.5 32v83q0 18 -11.5 31.5q-11.5 13.5 -32.5 13.5q-22 0 -32.5 -13.5q-10.5 -13.5 -10.5 -31.5v-83q0 -18 10.5 -31.5q10.5 -13.5 32.5 -13.5zt0 0zM956 -15q-72 0 -115 39q-43 39 -43 117v47q0 78 43 117q43 39 115 39q73 0 115.5 -39q42.5 -39 42.5 -117v-47q0 -78 -42.5 -117q-42.5 -39 -115.5 -39zt0 0zM146 47l409 653h92v-47l-409 -653l-92 0z" horiz-adv-x="1152" unicode="‰"/><glyph d="M36 314l128 210h112v-37l-104 -173l104 -174v-37l-112 0z" horiz-adv-x="336" unicode="‹"/><glyph d="M300 314l-128 210h-112v-37l104 -173l-104 -174v-37l112 0z" horiz-adv-x="336" unicode="›"/><glyph d="M-52 47l409 653h92v-47l-409 -653l-92 0z" horiz-adv-x="397" unicode="⁄"/><glyph d="M222 700v-53l-97 -151h69v61h97v-61h41v-83h-41v-55h-97v55h-174v81l131 206z" horiz-adv-x="362" unicode="₄"/><glyph d="M371 -15q-110 0 -178.5 54.5q-68.5 54.5 -79.5 166.5l-83 0v103h84v81h-84v103h85v5q8 99 73 158q65 59 183 59q49 0 94 -14q45 -14 79 -43.5q34 -29.5 54 -76q20 -46.5 20 -111.5v-10h-122v10q0 35 -10.5 59q-10.5 24 -28 39q-17.5 15 -40.5 22q-23 7 -47 7q-51 0 -84.5 -24q-33.5 -24 -40.5 -75l0 -5h156v-103h-157v-81h157v-103h-157q6 -46 35 -74.5q29 -28.5 91 -28.5q28 0 51 7q23 7 39.5 22q16.5 15 26 39q9.5 24 9.5 59v10h122v-10q0 -65 -18.5 -111.5q-18.5 -46.5 -51.5 -76q-33 -29.5 -78 -43.5t-99 -14z" horiz-adv-x="676" unicode="€"/><glyph d="M351 -15q-56 0 -101 14q-45 14 -76.5 40q-31.5 26 -48 62.5q-16.5 36.5 -16.5 80.5q0 12 1 23q1 11 3 25l-73 0v93h615v-93h-413q-3 -21 -3 -37q0 -43 29 -66.5q29 -23.5 83 -23.5q54 0 85.5 24.5q31.5 24.5 31.5 64.5l130 0q0 -49 -18.5 -87.5q-18.5 -38.5 -51 -65q-32.5 -26.5 -78 -40.5q-45.5 -14 -99.5 -14zt0 0zM454 470q3 21 3 37q0 43 -28 66.5q-28 23.5 -82 23.5q-54 0 -84.5 -24.5q-30.5 -24.5 -30.5 -64.5l-130 0q0 49 18 87.5q18 38.5 50.5 65q32.5 26.5 77.5 40.5q45 14 99 14q56 0 100.5 -14q44.5 -14 75.5 -40q31 -26 47.5 -62.5q16.5 -36.5 16.5 -80.5q0 -12 -1 -23q-1 -11 -3 -25l72 0v-93h-615l0 93z" horiz-adv-x="695" unicode="₴"/><glyph d="M111 103h-83v103h83v75h-83v113h83v306h286q95 0 147.5 -56.5q52.5 -56.5 52.5 -153.5q0 -97 -52.5 -153q-52.5 -56 -147.5 -56h-156v-75h170v-103h-170v-103h-130zM381 394q16 0 31.5 5.5q15.5 5.5 27.5 17q12 11.5 19.5 29.5q7.5 18 7.5 44q0 25 -7.5 43.5q-7.5 18.5 -19.5 30.5q-12 12 -27.5 17.5q-15.5 5.5 -31.5 5.5h-140l0 -193z" horiz-adv-x="640" unicode="₽"/><glyph d="M88 700h119l245 -435v435h130v-700h-120l-244 435v-435h-130zM826 449q21 0 32.5 13q11.5 13 11.5 32v83q0 19 -11.5 32q-11.5 13 -32.5 13q-22 0 -33 -13.5q-11 -13.5 -11 -31.5v-83q0 -18 11 -31.5q11 -13.5 33 -13.5zt0 0zM826 356q-73 0 -115.5 39q-42.5 39 -42.5 117v47q0 78 42.5 117q42.5 39 115.5 39q73 0 115.5 -39q42.5 -39 42.5 -117v-47q0 -78 -42.5 -117q-42.5 -39 -115.5 -39zt0 0zM668 295h316v-99l-316 0z" horiz-adv-x="1024" unicode="№"/><glyph d="M317 700h73l85 -138l88 138h71v-323h-74v201l-62 -102h-47l-59 100v-199h-75zM99 634h-91v66h257v-66h-91v-257l-75 0z" horiz-adv-x="684" unicode="™"/><glyph d="M67 124h81q-23 17 -35.5 36q-12.5 19 -19.5 39q-7 20 -8.5 41.5q-1.5 21.5 -1.5 44.5v177q0 60 19.5 107q19.5 47 56 79.5q36.5 32.5 88 49.5q51.5 17 115.5 17q64 0 116 -17q52 -17 88.5 -49.5q36.5 -32.5 56 -79.5q19.5 -47 19.5 -107v-177q0 -23 -1.5 -44.5q-1.5 -21.5 -8.5 -41.5q-7 -20 -20 -39q-13 -19 -36 -36l82 0v-124h-242v124q24 7 40.5 23.5q16.5 16.5 26 38q9.5 21.5 13.5 45.5q4 24 4 45v193q0 22 -8 43q-8 21 -25 37.5q-17 16.5 -43 26q-26 9.5 -62 9.5q-36 0 -61.5 -9.5q-25.5 -9.5 -42.5 -26q-17 -16.5 -25 -37.5q-8 -21 -8 -43v-193q0 -21 4 -45q4 -24 13.5 -45.5q9.5 -21.5 26 -38q16.5 -16.5 40.5 -23.5l0 -124l-242 0z" horiz-adv-x="725" unicode="Ω"/><glyph d="M255 -12q-47 0 -86 11.5q-39 11.5 -66.5 32.5q-27.5 21 -43 52q-15.5 31 -15.5 70q0 7 0.5 15.5q0.5 8.5 1 22q0.5 13.5 2.5 34q2 20.5 5 52.5q5 51 24 87q19 36 47 59.5q28 23.5 63 34.5q35 11 74 11q28 0 50 -7q22 -7 39.5 -18q17.5 -11 29.5 -24.5q12 -13.5 20 -26.5q1 14 1 28.5q0 14.5 0 13.5q-1 45 -14 75q-13 30 -34.5 47q-21.5 17 -50 24q-28.5 7 -60.5 7q-37 0 -63.5 -4q-26.5 -4 -45.5 -8l8 116q26 7 61 10.5q35 3.5 73 3.5q58 0 103.5 -18.5q45.5 -18.5 77 -52q31.5 -33.5 47.5 -80q16 -46.5 16 -102.5q0 -32 -5 -102.5q-5 -70.5 -14 -171.5q-4 -46 -23.5 -82q-19.5 -36 -52 -60.5q-32.5 -24.5 -75.5 -37q-43 -12.5 -94 -12.5zt0 0zM265 106q51 0 76.5 24.5q25.5 24.5 28.5 57.5l9 113q-16 21 -38 36q-22 15 -57 15q-38 0 -67.5 -21q-29.5 -21 -34.5 -62q-5 -39 -6 -59q-1 -20 -1 -31q0 -31 22 -52t68 -21z" horiz-adv-x="571" unicode="∂"/><glyph d="M18 48l242 652h139l243 -652v-48h-624zM457 124l-130 386l-132 -386z" horiz-adv-x="660" unicode="∆"/><glyph d="M88 700h504v-775h-130v657h-244v-657l-130 0z" horiz-adv-x="680" unicode="∏"/><glyph d="M48 43l151 271l-151 268v118h462v-118h-317l151 -268l-151 -271h330v-118l-475 0z" horiz-adv-x="571" unicode="∑"/><glyph d="M62 367h448v-108l-448 0z" horiz-adv-x="572" unicode="−"/><glyph d="M89 334h-90v98h169l117 -347l162 712h98v-46l-192 -826l-111 0z" horiz-adv-x="550" unicode="√"/><glyph d="M260 126q-48 0 -85.5 15.5q-37.5 15.5 -63.5 42.5q-26 27 -39.5 63q-13.5 36 -13.5 76q0 40 13.5 75.5q13.5 35.5 39.5 62.5q26 27 63.5 42.5q37.5 15.5 85.5 15.5q53 0 98.5 -25q45.5 -25 89.5 -69l6 -6l6 6q43 43 87 68.5q44 25.5 100 25.5q47 0 84.5 -15.5q37.5 -15.5 63.5 -42.5q26 -27 39.5 -62.5q13.5 -35.5 13.5 -75.5q0 -40 -13.5 -75.5q-13.5 -35.5 -39.5 -62.5q-26 -27 -63.5 -42.5q-37.5 -15.5 -84.5 -15.5q-55 0 -100 26q-45 26 -89 70l-4 4l-4 -4q-45 -45 -90.5 -71q-45.5 -26 -99.5 -26zt0 0zM263 249q18 0 33.5 7q15.5 7 29 18q13.5 11 25 24q11.5 13 22.5 25q-10 11 -22 24q-12 13 -25.5 24q-13.5 11 -29 18q-15.5 7 -33.5 7q-30 0 -52.5 -19.5q-22.5 -19.5 -22.5 -53.5q0 -34 22.5 -54q22.5 -20 52.5 -20zt0 0zM644 249q31 0 53.5 20q22.5 20 22.5 54q0 34 -22.5 53.5q-22.5 19.5 -53.5 19.5q-32 0 -56.5 -21.5q-24.5 -21.5 -52.5 -51.5q27 -29 52 -51.5t57 -22.5z" horiz-adv-x="906" unicode="∞"/><glyph d="M2 -47h33q58 0 58 58v527q0 76 45.5 119q45.5 43 122.5 43h51v-113h-33q-59 0 -59 -58v-527q0 -76 -45 -119q-45 -43 -122 -43l-51 0z" horiz-adv-x="314" unicode="∫"/><glyph d="M474 224q-23 -49 -55 -82.5q-32 -33.5 -80 -33.5q-18 0 -36.5 7q-18.5 7 -33.5 17l-27 17q-11 7 -19.5 11q-8.5 4 -19.5 4q-14 0 -25 -10q-11 -10 -28 -39l-88 51q23 49 55 82.5q32 33.5 80 33.5q18 0 36.5 -7q18.5 -7 33.5 -17l27 -17q11 -7 19 -11q8 -4 20 -4q14 0 25 10q11 10 28 39zM474 478q-23 -49 -55 -82.5q-32 -33.5 -80 -33.5q-18 0 -36.5 7q-18.5 7 -33.5 17l-27 17q-11 7 -19.5 11q-8.5 4 -19.5 4q-14 0 -25 -10q-11 -10 -28 -39l-88 51q23 49 55 82.5q32 33.5 80 33.5q18 0 36.5 -7q18.5 -7 33.5 -17l27 -17q11 -7 19 -11q8 -4 20 -4q14 0 25 10q11 10 28 39z" horiz-adv-x="536" unicode="≈"/><glyph d="M198 259l68 108h-204v108h273l90 141h86v-47l-60 -94h60v-108h-129l-68 -108h197v-108h-267l-96 -151h-86v47l66 104h-66l0 108z" horiz-adv-x="573" unicode="≠"/><glyph d="M62 345v106l346 156h62v-90l-266 -119l266 -118v-90h-62zM62 109h408v-109l-408 0z" horiz-adv-x="532" unicode="≤"/><glyph d="M62 280l266 118l-266 119v90h62l346 -156v-106l-346 -155h-62zM62 109h408v-109l-408 0z" horiz-adv-x="532" unicode="≥"/><glyph d="M48 350l183 350h99l182 -350l-183 -350h-98zM375 350l-95 197l-94 -196l94 -198z" horiz-adv-x="560" unicode="◊"/><glyph d="M320 -12q-96 0 -153.5 46.5q-57.5 46.5 -66.5 124.5l-69 0v82h67v42h-67v82h68q10 81 67.5 126q57.5 45 153.5 45q96 0 150.5 -45.5q54.5 -45.5 63.5 -132.5l-119 0q-5 32 -31.5 49.5q-26.5 17.5 -64.5 17.5q-41 0 -66.5 -17q-25.5 -17 -31.5 -43l140 0v-82h-143v-42h143v-82h-137q7 -26 30.5 -43q23.5 -17 64.5 -17q38 0 64.5 18.5q26.5 18.5 31.5 51.5l120 0q-9 -85 -65 -133t-150 -48z" horiz-adv-x="586" unicode=""/><glyph d="M344 529q69 -15 108.5 -59q39.5 -44 41.5 -114l-130 0q-2 31 -28.5 46.5q-26.5 15.5 -72.5 15.5q-43 0 -60 -13q-17 -13 -17 -28q0 -28 45 -38l149 -37q26 -6 48.5 -17q22.5 -11 39 -28q16.5 -17 26 -40.5q9.5 -23.5 9.5 -56.5q0 -68 -43 -111q-43 -43 -116 -56l0 -82h-113v81q-82 13 -131 62.5q-49 49.5 -51 126.5l129 0q5 -35 37 -55q32 -20 85 -20q35 0 56 11.5q21 11.5 21 31.5q0 29 -35 37l-145 37q-25 6 -49.5 16.5q-24.5 10.5 -44 27q-19.5 16.5 -31.5 41.5q-12 25 -12 60q0 69 44.5 112.5q44.5 43.5 126.5 52.5l0 83l113 0z" horiz-adv-x="559" unicode=""/><glyph d="M344 -67h128v-55l-72 -139l-92 0z" horiz-adv-x="827" unicode=""/><glyph d="M294 -12q-94 0 -145.5 36.5q-51.5 36.5 -51.5 102.5q0 28 4 44l-63 0v72h506v-72h-322q-1 -6 -1.5 -12q-0.5 -6 -0.5 -14q0 -20 16 -34.5q16 -14.5 61 -14.5q42 0 62 15.5q20 15.5 18 32.5l126 0q1 -35 -15 -63.5q-16 -28.5 -44 -49q-28 -20.5 -66.5 -32q-38.5 -11.5 -83.5 -11.5zt0 0zM38 354h332q1 5 1.5 11q0.5 6 0.5 14q0 7 -3.5 16q-3.5 9 -12.5 16q-9 7 -23.5 12q-14.5 5 -35.5 5q-44 0 -62.5 -16q-18.5 -16 -16.5 -32l-127 0q-1 35 14.5 63.5q15.5 28.5 43 49q27.5 20.5 65.5 32q38 11.5 83 11.5q94 0 146 -38q52 -38 52 -104q0 -13 -1 -22.5q-1 -9.5 -4 -17.5l54 0v-72l-506 0z" horiz-adv-x="582" unicode=""/><glyph d="M118 64h-87v87h87v42h-87v98h87v233h278q31 0 59 -10q28 -10 48 -31q20 -21 32 -52q12 -31 12 -73q0 -42 -12 -73q-12 -31 -32 -51.5q-20 -20.5 -48 -30.5q-28 -10 -59 -10h-148v-42h115v-87h-115v-64h-130zM248 411v-120h108q33 0 47 16q14 16 14 44q0 25 -14 42.5q-14 17.5 -47 17.5z" horiz-adv-x="576" unicode=""/><glyph d="M43 113h69v89h-69v101h69v39q0 45 15 81q15 36 43 61q28 25 67 38.5q39 13.5 86 13.5q94 0 150.5 -51q56.5 -51 56.5 -145v-6h-130v6q0 35 -19.5 56.5q-19.5 21.5 -57.5 21.5q-43 0 -62 -20.5q-19 -20.5 -19 -53.5v-41h122v-101h-122v-89h288v-113l-487 0z" horiz-adv-x="584" unicode=""/><glyph d="M209 64h-129v87h129v42h-129v87h79l-120 183v61h117l117 -194h4l116 194h110v-61l-119 -183h80v-87h-125v-42h125v-87h-125v-64l-130 0z" horiz-adv-x="542" unicode=""/><glyph d="M430 411h-210v-411h-130v411h-77v113h77q0 35 11 68q11 33 35.5 58.5q24.5 25.5 63.5 41q39 15.5 96 15.5q8 0 18.5 -0.5q10.5 -0.5 19.5 -1.5l0 -116h-21q-48 0 -69 -14.5q-21 -14.5 -24 -50.5l340 0v-524h-130zM430 705h130v-110l-130 0z" horiz-adv-x="638" unicode="ﬁ"/><glyph d="M90 411h-77v113h77q0 35 11 68q11 33 35.5 58.5q24.5 25.5 63.5 41q39 15.5 96 15.5q8 0 18.5 -0.5q10.5 -0.5 19.5 -1.5l0 -116h-21q-48 0 -69 -14.5q-21 -14.5 -24 -50.5l106 0v-113h-106v-411h-130zM430 705h130v-705l-130 0z" horiz-adv-x="638" unicode="ﬂ"/><glyph horiz-adv-x="0"/></font>
</defs>
</svg>
