<svg xmlns="http://www.w3.org/2000/svg"><metadata>Generated by SVGconv. Copyright : Copyright (c) 2013 by Gayane Bagdasaryan, Dmitry Rastvortsev. All rights reserved. Designer : Gayane Bagdasaryan, Dmitry Rastvortsev Foundry : Gayane Bagdasaryan, Dmitry Rastvortsev Foundry URL : http://www.brownfox.org</metadata><defs><font id="BrutalType-Medium" horiz-adv-x="568"><font-face ascent="955" descent="277" units-per-em="1000"/><glyph horiz-adv-x="240"/><glyph horiz-adv-x="240"/><glyph d="M90 123h116v-123h-116zM93 700h110v-480l-110 0z" horiz-adv-x="296" unicode="!"/><glyph d="M50 660v45h120v-45l-20 -204h-80zM231 660v45h120v-45l-20 -204l-80 0z" horiz-adv-x="401" unicode="&quot;"/><glyph d="M100 40l26 128h-86v100h107l34 164h-96v100h117l35 168h98v-40l-27 -128h144l35 168h98v-40l-27 -128h87v-100h-108l-34 -164h97v-100h-117l-35 -168h-98v40l26 128h-143l-35 -168h-98zM397 268l34 164h-144l-34 -164z" horiz-adv-x="685" unicode="#"/><glyph d="M155 227q0 -41 12.5 -68q12.5 -27 33.5 -43.5q21 -16.5 48 -23.5q27 -7 55 -7q60 0 91 28q31 28 31 70q0 21 -8 36q-8 15 -22 26q-14 11 -32.5 20.5q-18.5 9.5 -40.5 18.5l-56 24q-50 21 -88 40q-38 19 -63.5 42q-25.5 23 -38.5 53.5q-13 30.5 -13 74.5q0 39 13.5 72q13.5 33 37.5 58.5q24 25.5 58 42q34 16.5 75 21.5l0 91h110v-94q34 -8 66 -25q32 -17 57 -45.5q25 -28.5 40 -68q15 -39.5 15 -91.5l-110 0q0 38 -10.5 64q-10.5 26 -28.5 42q-18 16 -42.5 23q-24.5 7 -51.5 7q-53 0 -84.5 -25q-31.5 -25 -31.5 -67q0 -24 8.5 -40q8.5 -16 24.5 -28q16 -12 40 -23q24 -11 56 -24l57 -24q39 -16 71.5 -33q32.5 -17 56.5 -39q24 -22 37.5 -51q13.5 -29 13.5 -69q0 -38 -11 -72q-11 -34 -33.5 -61q-22.5 -27 -57 -45q-34.5 -18 -82.5 -25l0 -106h-110v105q-42 5 -78.5 22q-36.5 17 -64.5 46.5q-28 29.5 -44 72q-16 42.5 -16 98.5z" horiz-adv-x="602" unicode="$"/><glyph d="M195 434q29 0 43.5 17q14.5 17 14.5 41v86q0 24 -14.5 41q-14.5 17 -43.5 17q-29 0 -43.5 -17q-14.5 -17 -14.5 -41v-86q0 -24 14.5 -41q14.5 -17 43.5 -17zt0 0zM195 355q-72 0 -113.5 38.5q-41.5 38.5 -41.5 113.5v56q0 75 41.5 113.5q41.5 38.5 113.5 38.5q72 0 113.5 -38.5q41.5 -38.5 41.5 -113.5v-56q0 -75 -41.5 -113.5q-41.5 -38.5 -113.5 -38.5zt0 0zM597 64q29 0 43.5 17q14.5 17 14.5 41v86q0 24 -14.5 41q-14.5 17 -43.5 17q-29 0 -43.5 -17q-14.5 -17 -14.5 -41v-86q0 -24 14.5 -41q14.5 -17 43.5 -17zt0 0zM597 -15q-72 0 -113.5 38.5q-41.5 38.5 -41.5 113.5v56q0 75 41.5 113.5q41.5 38.5 113.5 38.5q72 0 113.5 -38.5q41.5 -38.5 41.5 -113.5v-56q0 -75 -41.5 -113.5q-41.5 -38.5 -113.5 -38.5zt0 0zM150 40l405 660h85v-40l-405 -660l-85 0z" horiz-adv-x="792" unicode="%"/><glyph d="M482 66q-38 -36 -88.5 -57q-50.5 -21 -114.5 -21q-53 0 -95.5 14q-42.5 14 -72 38.5q-29.5 24.5 -45.5 59.5q-16 35 -16 77q0 28 5.5 51.5q5.5 23.5 18.5 46q13 22.5 34 45q21 22.5 52 47.5l15 12l-14 14q-12 14 -25 29q-13 15 -24 33q-11 18 -18 40q-7 22 -7 49q0 36 13.5 66q13.5 30 38 51.5q24.5 21.5 57.5 33.5q33 12 72 12q37 0 69 -11q32 -11 54.5 -32q22.5 -21 35.5 -51q13 -30 13 -69q0 -46 -23.5 -82q-23.5 -36 -55.5 -62l-32 -26l142 -145q24 60 24 136l104 0q0 -57 -13 -111.5q-13 -54.5 -39 -102.5l98 -99v-52h-97zM282 87q40 0 72.5 13.5q32.5 13.5 57.5 36.5l-166 170l-36 -29q-29 -23 -39.5 -44.5q-10.5 -21.5 -10.5 -45.5q0 -45 33.5 -73q33.5 -28 88.5 -28zt0 0zM197 543q0 -21 8.5 -36q8.5 -15 31.5 -38l22 -23l34 27q20 16 30.5 33q10.5 17 10.5 42q0 29 -20.5 45q-20.5 16 -46.5 16q-32 0 -51 -18.5t-19 -47.5z" horiz-adv-x="685" unicode="&amp;"/><glyph d="M50 660v45h120v-45l-20 -204l-80 0z" horiz-adv-x="220" unicode="'"/><glyph d="M275 -160q-86 0 -135.5 49.5q-49.5 49.5 -49.5 142.5v542q0 93 49.5 142.5q49.5 49.5 135.5 49.5l0 -100q-37 0 -56 -25.5q-19 -25.5 -19 -60.5v-554q0 -35 19 -60.5q19 -25.5 56 -25.5l0 -100z" horiz-adv-x="315" unicode="("/><glyph d="M40 -160q86 0 135.5 49.5q49.5 49.5 49.5 142.5v542q0 93 -49.5 142.5q-49.5 49.5 -135.5 49.5l0 -100q37 0 56 -25.5q19 -25.5 19 -60.5v-554q0 -35 -19 -60.5q-19 -25.5 -56 -25.5l0 -100z" horiz-adv-x="315" unicode=")"/><glyph d="M186 457l-103 -69l-43 76l111 55l-111 55l43 76l103 -69l-7 124h87l-8 -124l104 69l43 -76l-112 -55l112 -55l-43 -76l-104 69l8 -124l-87 0z" horiz-adv-x="445" unicode="*"/><glyph d="M230 267h-170v92h170v171h100v-171h170v-92h-170v-171l-100 0z" horiz-adv-x="560" unicode="+"/><glyph d="M83 136h122v-52l-82 -197l-87 0z" horiz-adv-x="266" unicode=","/><glyph d="M60 363h322v-100l-322 0z" horiz-adv-x="442" unicode="-"/><glyph d="M70 136h135v-136l-135 0z" horiz-adv-x="275" unicode="."/><glyph d="M40 -60l287 826h98v-40l-287 -826l-98 0z" horiz-adv-x="465" unicode="/"/><glyph d="M305 85q31 0 54.5 11q23.5 11 39 29.5q15.5 18.5 23.5 43q8 24.5 8 52.5v258q0 28 -8 52.5q-8 24.5 -23.5 43q-15.5 18.5 -39 29.5q-23.5 11 -54.5 11q-31 0 -54.5 -11q-23.5 -11 -39 -29.5q-15.5 -18.5 -23.5 -43q-8 -24.5 -8 -52.5v-258q0 -28 8 -52.5q8 -24.5 23.5 -43q15.5 -18.5 39 -29.5q23.5 -11 54.5 -11zt0 0zM305 -15q-54 0 -97.5 16.5q-43.5 16.5 -74 47.5q-30.5 31 -47 76q-16.5 45 -16.5 102v246q0 57 16.5 102q16.5 45 47 76q30.5 31 74 47.5q43.5 16.5 97.5 16.5q54 0 97.5 -16.5q43.5 -16.5 74 -47.5q30.5 -31 47 -76q16.5 -45 16.5 -102v-246q0 -57 -16.5 -102q-16.5 -45 -47 -76q-30.5 -31 -74 -47.5t-97.5 -16.5z" horiz-adv-x="610" unicode="0"/><glyph d="M113 551h-73v58l139 91h44v-700l-110 0z" horiz-adv-x="313" unicode="1"/><glyph d="M50 90l211 214q33 33 56.5 58.5q23.5 25.5 39 47.5q15.5 22 22.5 43q7 21 7 46q0 23 -6.5 44q-6.5 21 -20 37q-13.5 16 -35 25.5q-21.5 9.5 -50.5 9.5q-32 0 -54 -10.5q-22 -10.5 -36.5 -29q-14.5 -18.5 -21.5 -43.5q-7 -25 -7 -54l-105 0q1 56 17.5 100q16.5 44 46.5 74.5q30 30.5 70.5 46.5q40.5 16 89.5 16q55 0 96.5 -17q41.5 -17 69.5 -46.5q28 -29.5 42 -68q14 -38.5 14 -80.5q0 -40 -11 -73.5q-11 -33.5 -31 -64q-20 -30.5 -48 -60.5q-28 -30 -62 -63l-145 -142h300v-100l-449 0z" horiz-adv-x="561" unicode="2"/><glyph d="M287 -15q-109 0 -173 62q-64 62 -66 175l106 0q2 -60 36 -98.5q34 -38.5 100 -38.5q66 0 95.5 35q29.5 35 29.5 88q0 51 -32.5 78q-32.5 27 -90.5 27h-49v100h42q51 0 81.5 24q30.5 24 30.5 75q0 18 -5.5 36.5q-5.5 18.5 -18.5 33q-13 14.5 -33.5 24q-20.5 9.5 -51.5 9.5q-62 0 -90.5 -37.5q-28.5 -37.5 -29.5 -96.5l-105 0q2 114 61.5 174q59.5 60 162.5 60q53 0 93.5 -15q40.5 -15 68.5 -41q28 -26 42 -61q14 -35 14 -75q0 -58 -25 -95q-25 -37 -65 -60q45 -17 77.5 -61q32.5 -44 32.5 -108q0 -100 -62 -157t-176 -57z" horiz-adv-x="585" unicode="3"/><glyph d="M340 138h-310v85l244 477h97v-40l-216 -422h185v173h110v-173h83v-100h-83v-138l-110 0z" horiz-adv-x="553" unicode="4"/><glyph d="M299 -15q-98 0 -162 54q-64 54 -75 153l108 0q7 -48 41.5 -77.5q34.5 -29.5 89.5 -29.5q64 0 94 41q30 41 30 110q0 67 -33 105.5q-33 38.5 -88 38.5q-44 0 -70.5 -18.5q-26.5 -18.5 -40.5 -38.5l-109 0l35 377h377v-100h-287l-16 -168q28 18 57 28q29 10 74 10q41 0 79 -12.5q38 -12.5 67.5 -40.5q29.5 -28 47 -72.5q17.5 -44.5 17.5 -108.5q0 -61 -17 -107.5q-17 -46.5 -48 -78.5q-31 -32 -74.5 -48.5t-96.5 -16.5z" horiz-adv-x="595" unicode="5"/><glyph d="M300 -15q-55 0 -99.5 16.5q-44.5 16.5 -75.5 47.5q-31 31 -48 76q-17 45 -17 102q0 41 16.5 84.5q16.5 43.5 51.5 99.5l181 289h101v-40l-149 -230q16 6 36 10q20 4 46 4q40 0 76 -14q36 -14 63 -41.5q27 -27.5 42.5 -68q15.5 -40.5 15.5 -93.5q0 -57 -17 -102q-17 -45 -48 -76q-31 -31 -75.5 -47.5q-44.5 -16.5 -99.5 -16.5zt0 0zM300 85q65 0 97.5 37.5q32.5 37.5 32.5 98.5q0 61 -31.5 97.5q-31.5 36.5 -98.5 36.5q-67 0 -98.5 -37q-31.5 -37 -31.5 -97q0 -61 32.5 -98.5t97.5 -37.5z" horiz-adv-x="590" unicode="6"/><glyph d="M161 40l214 560h-233v-100h-102v200h449v-93l-229 -607l-99 0z" horiz-adv-x="539" unicode="7"/><glyph d="M307 -15q-118 0 -182.5 56.5q-64.5 56.5 -64.5 154.5q0 31 9.5 59q9.5 28 25 50q15.5 22 36 38q20.5 16 43.5 24q-20 12 -37.5 26q-17.5 14 -30 32.5q-12.5 18.5 -20 42.5q-7.5 24 -7.5 54q0 39 15 74.5q15 35.5 43.5 61.5q28.5 26 71 41.5q42.5 15.5 98.5 15.5q55 0 98 -15.5q43 -15.5 71.5 -41.5q28.5 -26 43.5 -61.5q15 -35.5 15 -74.5q0 -30 -7 -54q-7 -24 -20 -42.5q-13 -18.5 -30 -32.5q-17 -14 -37 -26q22 -8 42.5 -24q20.5 -16 36.5 -38q16 -22 25 -50q9 -28 9 -59q0 -98 -64.5 -154.5q-64.5 -56.5 -182.5 -56.5zt0 0zM307 83q35 0 61 9.5q26 9.5 42.5 26q16.5 16.5 24.5 38.5q8 22 8 47q0 23 -9 44.5q-9 21.5 -26.5 38q-17.5 16.5 -43 26.5q-25.5 10 -57.5 10q-32 0 -57.5 -10q-25.5 -10 -43 -26.5q-17.5 -16.5 -26.5 -38q-9 -21.5 -9 -44.5q0 -25 8 -47q8 -22 24.5 -38.5q16.5 -16.5 42.5 -26q26 -9.5 61 -9.5zt0 0zM307 407q53 0 86 29.5q33 29.5 33 77.5q0 45 -28.5 75q-28.5 30 -90.5 30q-61 0 -90 -30q-29 -30 -29 -75q0 -48 33 -77.5t86 -29.5z" horiz-adv-x="614" unicode="8"/><glyph d="M290 715q55 0 99.5 -16.5q44.5 -16.5 75.5 -47.5q31 -31 48 -76q17 -45 17 -102q0 -41 -16.5 -84.5q-16.5 -43.5 -51.5 -99.5l-181 -289h-101v40l149 230q-16 -6 -36 -10q-20 -4 -46 -4q-40 0 -76 14q-36 14 -63 41.5q-27 27.5 -42.5 68q-15.5 40.5 -15.5 93.5q0 57 17 102q17 45 48 76q31 31 75.5 47.5q44.5 16.5 99.5 16.5zt0 0zM290 615q-65 0 -97.5 -37.5q-32.5 -37.5 -32.5 -98.5q0 -61 31.5 -97.5q31.5 -36.5 98.5 -36.5q67 0 98.5 37q31.5 37 31.5 97q0 61 -32.5 98.5t-97.5 37.5z" horiz-adv-x="590" unicode="9"/><glyph d="M70 136h135v-136h-135zM70 520h135v-136l-135 0z" horiz-adv-x="275" unicode=":"/><glyph d="M83 136h122v-52l-82 -197h-87zM75 520h135v-136l-135 0z" horiz-adv-x="271" unicode=";"/><glyph d="M60 272v90l347 182h53v-78l-291 -149l291 -149v-78l-53 0z" horiz-adv-x="520" unicode="&lt;"/><glyph d="M60 251h440v-92h-440zM60 467h440v-92l-440 0z" horiz-adv-x="560" unicode="="/><glyph d="M60 168l291 149l-291 149v78h53l347 -182v-90l-347 -182l-53 0z" horiz-adv-x="520" unicode="&gt;"/><glyph d="M194 332l93 66q19 14 34.5 25.5q15.5 11.5 26.5 24.5q11 13 16.5 29.5q5.5 16.5 5.5 39.5q0 18 -6.5 35.5q-6.5 17.5 -19.5 31.5q-13 14 -33.5 22.5q-20.5 8.5 -48.5 8.5q-60 0 -93.5 -35.5q-33.5 -35.5 -33.5 -97.5l-105 0q0 57 18 100.5q18 43.5 49 73q31 29.5 73.5 44.5q42.5 15 91.5 15q55 0 96 -16.5q41 -16.5 68 -43.5q27 -27 40.5 -62.5q13.5 -35.5 13.5 -73.5q0 -41 -13.5 -72q-13.5 -31 -34.5 -55q-21 -24 -46 -41.5q-25 -17.5 -47 -32.5l-35 -24v-74h-110zM191 123h116v-123l-116 0z" horiz-adv-x="520" unicode="?"/><glyph d="M507 -151q-97 0 -177.5 32q-80.5 32 -138 89.5q-57.5 57.5 -89.5 137q-32 79.5 -32 174.5q0 97 32 177q32 80 89.5 137q57.5 57 138 88q80.5 31 177.5 31q88 0 164.5 -27.5q76.5 -27.5 133 -78.5q56.5 -51 89 -123.5q32.5 -72.5 32.5 -163.5q0 -60 -13.5 -108q-13.5 -48 -39 -81.5q-25.5 -33.5 -61.5 -52q-36 -18.5 -80 -18.5q-41 0 -74 14q-33 14 -55 56q-21 -29 -55 -49.5q-34 -20.5 -83 -20.5q-33 0 -62.5 10.5q-29.5 10.5 -51.5 31q-22 20.5 -35 51q-13 30.5 -13 71.5v112q0 40 13 71q13 31 35 51.5q22 20.5 51.5 31q29.5 10.5 62.5 10.5q49 0 82.5 -21q33.5 -21 50.5 -44l40 55h47v-281q0 -25 13 -42.5q13 -17.5 43 -17.5q19 0 36 8.5q17 8.5 29.5 28.5q12.5 20 19.5 52.5q7 32.5 7 81.5q0 73 -26 130.5q-26 57.5 -70.5 97.5q-44.5 40 -104 61.5q-59.5 21.5 -125.5 21.5q-75 0 -138 -24.5q-63 -24.5 -108.5 -70.5q-45.5 -46 -71 -110.5q-25.5 -64.5 -25.5 -144.5q0 -80 25.5 -144.5q25.5 -64.5 71 -110.5q45.5 -46 108.5 -70.5q63 -24.5 138 -24.5h25v-84zM485 151q38 0 62.5 15q24.5 15 42.5 36l0 155q-18 23 -40.5 39.5q-22.5 16.5 -64.5 16.5q-36 0 -61.5 -25.5q-25.5 -25.5 -25.5 -65.5v-80q0 -40 25.5 -65.5t61.5 -25.5z" horiz-adv-x="996" unicode="@"/><glyph d="M20 40l250 660h118l250 -660v-40h-118l-62 173h-264l-63 -173h-111zM422 273l-95 267l-97 -267z" horiz-adv-x="658" unicode="A"/><glyph d="M90 700h295q93 0 146.5 -46.5q53.5 -46.5 53.5 -141.5q0 -59 -22 -94q-22 -35 -62 -55q23 -8 43 -21q20 -13 35 -33.5q15 -20.5 24 -48.5q9 -28 9 -66q0 -97 -53 -145.5q-53 -48.5 -147 -48.5h-322zM392 105q100 0 100 96q0 48 -24.5 73.5q-24.5 25.5 -75.5 25.5h-182v-195zM365 400q50 0 74.5 25q24.5 25 24.5 73q0 97 -99 97h-155l0 -195z" horiz-adv-x="662" unicode="B"/><glyph d="M342 -15q-131 0 -201.5 66q-70.5 66 -70.5 186v226q0 120 70.5 186q70.5 66 201.5 66q51 0 98 -14q47 -14 82.5 -43.5q35.5 -29.5 56.5 -75.5q21 -46 21 -109v-10h-120v10q0 35 -13 60q-13 25 -33.5 41q-20.5 16 -45 23.5q-24.5 7.5 -47.5 7.5q-78 0 -114.5 -35.5q-36.5 -35.5 -36.5 -98.5v-242q0 -63 36.5 -98.5q36.5 -35.5 114.5 -35.5q23 0 47.5 7.5q24.5 7.5 45 23.5q20.5 16 33.5 41q13 25 13 60v10h120v-10q0 -63 -21 -109q-21 -46 -56.5 -75.5q-35.5 -29.5 -82.5 -43.5t-98 -14z" horiz-adv-x="660" unicode="C"/><glyph d="M340 105q38 0 67 10.5q29 10.5 48.5 28.5q19.5 18 29.5 42.5q10 24.5 10 52.5v222q0 28 -10 52.5q-10 24.5 -29.5 42.5q-19.5 18 -48.5 28.5q-29 10.5 -67 10.5h-130v-490zM90 700h250q63 0 114 -16q51 -16 86.5 -47q35.5 -31 55 -76q19.5 -45 19.5 -103v-216q0 -58 -19.5 -103q-19.5 -45 -55 -76q-35.5 -31 -86.5 -47q-51 -16 -114 -16l-250 0z" horiz-adv-x="685" unicode="D"/><glyph d="M90 700h449v-105h-329v-194h282v-100h-282v-196h330v-105l-450 0z" horiz-adv-x="590" unicode="E"/><glyph d="M90 700h455v-105h-335v-201h287v-100h-287v-294l-120 0z" horiz-adv-x="585" unicode="F"/><glyph d="M331 -15q-121 0 -191 65q-70 65 -70 184v229q0 120 73 186q73 66 204 66q51 0 98.5 -14q47.5 -14 84 -43.5q36.5 -29.5 58.5 -74.5q22 -45 22 -106v-4h-120v4q0 58 -39 93q-39 35 -109 35q-70 0 -111 -35.5q-41 -35.5 -41 -98.5v-237q0 -66 38.5 -102.5q38.5 -36.5 109.5 -36.5q49 0 89 22q40 22 63 63l0 90h-138v100h258v-370h-65l-36 66q-66 -81 -178 -81z" horiz-adv-x="690" unicode="G"/><glyph d="M90 700h120v-297h290v297h120v-700h-120v298h-290v-298l-120 0z" horiz-adv-x="710" unicode="H"/><glyph d="M90 700h120v-700l-120 0z" horiz-adv-x="300" unicode="I"/><glyph d="M260 -15q-51 0 -95 11.5q-44 11.5 -76.5 38q-32.5 26.5 -50.5 68.5q-18 42 -18 104v30h120v-30q0 -60 32.5 -86q32.5 -26 87.5 -26q24 0 45.5 6.5q21.5 6.5 38 20.5q16.5 14 26.5 36q10 22 10 53v489h120v-493q0 -60 -19 -102q-19 -42 -51.5 -68.5q-32.5 -26.5 -76 -39t-93.5 -12.5z" horiz-adv-x="580" unicode="J"/><glyph d="M90 700h120v-297h89l183 297h111v-40l-189 -303l203 -317v-40h-118l-190 298h-89v-298l-120 0z" horiz-adv-x="627" unicode="K"/><glyph d="M90 700h120v-595h335v-105l-455 0z" horiz-adv-x="565" unicode="L"/><glyph d="M367 226l-161 261v-487h-116v700h116l201 -327l201 327h112v-700h-116v487l-160 -261z" horiz-adv-x="810" unicode="M"/><glyph d="M90 700h110l300 -477v477h120v-700h-110l-300 477v-477l-120 0z" horiz-adv-x="710" unicode="N"/><glyph d="M345 95q39 0 68 10.5q29 10.5 48.5 29q19.5 18.5 29 43.5q9.5 25 9.5 53v238q0 28 -9.5 53q-9.5 25 -29 43.5q-19.5 18.5 -48.5 29q-29 10.5 -68 10.5q-39 0 -68 -10.5q-29 -10.5 -48.5 -29q-19.5 -18.5 -29 -43.5q-9.5 -25 -9.5 -53v-238q0 -28 9.5 -53q9.5 -25 29 -43.5q19.5 -18.5 48.5 -29q29 -10.5 68 -10.5zt0 0zM345 -15q-63 0 -114 17q-51 17 -86.5 49.5q-35.5 32.5 -55 79q-19.5 46.5 -19.5 106.5v226q0 60 19.5 106.5q19.5 46.5 55 79q35.5 32.5 86.5 49.5q51 17 114 17q63 0 114 -17q51 -17 86.5 -49.5q35.5 -32.5 55 -79q19.5 -46.5 19.5 -106.5v-226q0 -60 -19.5 -106.5q-19.5 -46.5 -55 -79q-35.5 -32.5 -86.5 -49.5t-114 -17z" horiz-adv-x="690" unicode="O"/><glyph d="M90 700h303q94 0 145.5 -58q51.5 -58 51.5 -157q0 -99 -51.5 -157q-51.5 -58 -145.5 -58h-183v-270h-120zM372 375q39 0 67.5 27q28.5 27 28.5 83q0 56 -28.5 83q-28.5 27 -67.5 27h-162l0 -220z" horiz-adv-x="635" unicode="P"/><glyph d="M345 -15q-63 0 -114 17q-51 17 -86.5 49.5q-35.5 32.5 -55 79q-19.5 46.5 -19.5 106.5v226q0 60 19.5 106.5q19.5 46.5 55 79q35.5 32.5 86.5 49.5q51 17 114 17q63 0 114 -17q51 -17 86.5 -49.5q35.5 -32.5 55 -79q19.5 -46.5 19.5 -106.5v-226q0 -67 -22 -113.5q-22 -46.5 -60 -78.5l82 -123v-41h-116l-75 113q-17 -4 -39 -6.5q-22 -2.5 -45 -2.5zt0 0zM345 95q39 0 68 10.5q29 10.5 48.5 29q19.5 18.5 29 43.5q9.5 25 9.5 53v238q0 28 -9.5 53q-9.5 25 -29 43.5q-19.5 18.5 -48.5 29q-29 10.5 -68 10.5q-39 0 -68 -10.5q-29 -10.5 -48.5 -29q-19.5 -18.5 -29 -43.5q-9.5 -25 -9.5 -53v-238q0 -28 9.5 -53q9.5 -25 29 -43.5q19.5 -18.5 48.5 -29t68 -10.5z" horiz-adv-x="690" unicode="Q"/><glyph d="M90 700h301q104 0 157.5 -57q53.5 -57 53.5 -158q0 -69 -30 -122.5q-30 -53.5 -93 -79.5l131 -243v-40h-118l-144 269h-138v-269h-120zM369 371q53 0 82 26.5q29 26.5 29 85.5q0 59 -29 85.5q-29 26.5 -82 26.5h-159l0 -224z" horiz-adv-x="660" unicode="R"/><glyph d="M317 -15q-55 0 -104 14.5q-49 14.5 -86.5 44.5q-37.5 30 -59.5 75.5q-22 45.5 -22 107.5l120 0q0 -39 15 -64.5q15 -25.5 38.5 -40.5q23.5 -15 51.5 -21q28 -6 54 -6q65 0 98 26q33 26 33 65q0 21 -10.5 35.5q-10.5 14.5 -30.5 27q-20 12.5 -50.5 24.5q-30.5 12 -70.5 27l-16 6q-50 19 -89 37q-39 18 -67 41.5q-28 23.5 -42.5 53.5q-14.5 30 -14.5 73q0 46 17.5 83.5q17.5 37.5 50 64.5q32.5 27 79 41.5q46.5 14.5 105.5 14.5q55 0 103 -13q48 -13 82.5 -41.5q34.5 -28.5 54.5 -73.5q20 -45 20 -108l-120 0q0 35 -12 59q-12 24 -31.5 39q-19.5 15 -45 21.5q-25.5 6.5 -52.5 6.5q-60 0 -95 -24q-35 -24 -35 -61q0 -22 9 -37.5q9 -15.5 28 -27.5q19 -12 47.5 -23q28.5 -11 66.5 -24l14 -5q46 -17 88.5 -34.5q42.5 -17.5 74 -41.5q31.5 -24 50.5 -56.5q19 -32.5 19 -78.5q0 -44 -16.5 -82q-16.5 -38 -50 -66q-33.5 -28 -83 -43.5t-115.5 -15.5z" horiz-adv-x="642" unicode="S"/><glyph d="M223 595h-203v105h526v-105h-203v-595l-120 0z" horiz-adv-x="566" unicode="T"/><glyph d="M610 700v-472q0 -57 -18.5 -102.5q-18.5 -45.5 -53 -76.5q-34.5 -31 -83.5 -47.5q-49 -16.5 -110 -16.5q-61 0 -110 16.5q-49 16.5 -83.5 47.5q-34.5 31 -53 76.5q-18.5 45.5 -18.5 102.5v472h120v-478q0 -26 9 -49.5q9 -23.5 27 -40.5q18 -17 45.5 -27q27.5 -10 63.5 -10q36 0 63.5 10q27.5 10 45.5 27q18 17 27 40.5q9 23.5 9 49.5l0 478z" horiz-adv-x="690" unicode="U"/><glyph d="M20 660v40h115l197 -540l193 540h114v-40l-250 -660l-118 0z" horiz-adv-x="659" unicode="V"/><glyph d="M40 660v40h118l103 -508l120 328h76l122 -331l101 511h112v-40l-140 -660h-112l-124 336l-124 -336l-112 0z" horiz-adv-x="832" unicode="W"/><glyph d="M30 40l219 322l-202 298v40h122l155 -244l162 244h115v-40l-204 -297l221 -323v-40h-122l-175 266l-176 -266l-115 0z" horiz-adv-x="648" unicode="X"/><glyph d="M247 277l-237 383v40h118l180 -310l186 310h110v-40l-237 -378v-282l-120 0z" horiz-adv-x="614" unicode="Y"/><glyph d="M40 104l358 491h-343v105h481v-103l-359 -492h369v-105l-506 0z" horiz-adv-x="586" unicode="Z"/><glyph d="M90 766h205v-100h-95v-726h95v-100l-205 0z" horiz-adv-x="335" unicode="["/><glyph d="M425 -60l-287 826h-98v-40l287 -826l98 0z" horiz-adv-x="465" unicode="\"/><glyph d="M245 766h-205v-100h95v-726h-95v-100l205 0z" horiz-adv-x="335" unicode="]"/><glyph d="M60 427l155 278h93l157 -278v-40h-94l-110 194l-107 -194l-94 0z" horiz-adv-x="525" unicode="^"/><glyph d="M-1 -38h559v-92l-559 0z" horiz-adv-x="557" unicode="_"/><glyph d="M60 692v38h99l80 -140l-89 0z" horiz-adv-x="299" unicode="`"/><glyph d="M219 -12q-35 0 -66.5 9.5q-31.5 9.5 -55.5 28.5q-24 19 -38 48q-14 29 -14 67q0 81 53 124q53 43 162 43h114v41q0 38 -23.5 60.5q-23.5 22.5 -74.5 22.5q-51 0 -74.5 -21q-23.5 -21 -23.5 -53l-107 0q0 37 12.5 69q12.5 32 37.5 55.5q25 23.5 63.5 36.5q38.5 13 91.5 13q52 0 91.5 -13q39.5 -13 65 -36.5q25.5 -23.5 38.5 -56q13 -32.5 13 -70.5v-356h-64l-42 58q-23 -27 -63 -48.5q-40 -21.5 -96 -21.5zt0 0zM241 88q43 0 76 16.5q33 16.5 57 42.5l0 77h-114q-30 0 -50.5 -6q-20.5 -6 -32.5 -16q-12 -10 -17 -23q-5 -13 -5 -26q0 -33 23.5 -49t62.5 -16z" horiz-adv-x="559" unicode="a"/><glyph d="M340 -12q-56 0 -94 21.5q-38 21.5 -61 48.5l-41 -58h-64v705h110v-236q19 23 55.5 43q36.5 20 90.5 20q39 0 73 -11.5q34 -11.5 59.5 -35q25.5 -23.5 40.5 -59.5q15 -36 15 -85v-162q0 -49 -15 -85q-15 -36 -40 -59.5q-25 -23.5 -58.5 -35q-33.5 -11.5 -70.5 -11.5zt0 0zM316 88q40 0 69 26q29 26 29 73v146q0 47 -29 73q-29 26 -68 26q-42 0 -73 -21.5q-31 -21.5 -54 -45.5l0 -210q23 -24 53.5 -45.5t72.5 -21.5z" horiz-adv-x="589" unicode="b"/><glyph d="M274 -12q-50 0 -90 13.5q-40 13.5 -68.5 38.5q-28.5 25 -43.5 61q-15 36 -15 80v158q0 44 15 80q15 36 43.5 61q28.5 25 68.5 38.5q40 13.5 90 13.5q97 0 154.5 -50q57.5 -50 57.5 -141v-6h-110v6q0 41 -26 66q-26 25 -76 25q-55 0 -81 -25q-26 -25 -26 -66v-162q0 -41 26 -66q26 -25 81 -25q50 0 76 25q26 25 26 66v9h110v-7q0 -44 -15.5 -80q-15.5 -36 -43.5 -61q-28 -25 -67 -38.5t-86 -13.5z" horiz-adv-x="539" unicode="c"/><glyph d="M249 -12q-37 0 -70.5 11.5q-33.5 11.5 -58.5 35q-25 23.5 -40 59.5q-15 36 -15 85v162q0 49 14.5 85q14.5 36 40 59.5q25.5 23.5 60 35q34.5 11.5 73.5 11.5q54 0 90.5 -20q36.5 -20 55.5 -43l0 236h110v-705h-64l-41 58q-23 -27 -61 -48.5q-38 -21.5 -94 -21.5zt0 0zM273 88q42 0 72.5 21.5q30.5 21.5 53.5 45.5l0 210q-23 24 -54 45.5q-31 21.5 -73 21.5q-39 0 -68 -26q-29 -26 -29 -73v-146q0 -47 29 -73t69 -26z" horiz-adv-x="589" unicode="d"/><glyph d="M279 -12q-102 0 -162 50q-60 50 -60 141v160q0 44 15.5 80q15.5 36 44.5 61q29 25 70 38.5q41 13.5 92 13.5q98 0 156 -50q58 -50 58 -141v-117h-326v-43q0 -41 27.5 -67q27.5 -26 84.5 -26q46 0 71 18.5q25 18.5 32 50.5l110 0q-8 -79 -62.5 -124q-54.5 -45 -150.5 -45zt0 0zM383 308v33q0 41 -27 66q-27 25 -81 25q-54 0 -81 -25q-27 -25 -27 -66l0 -33z" horiz-adv-x="550" unicode="e"/><glyph d="M95 424h-80v96h80q0 38 10 72q10 34 32.5 59.5q22.5 25.5 59.5 40.5q37 15 91 15q9 0 19 -0.5q10 -0.5 18 -1.5l0 -96h-23q-52 0 -74.5 -20.5q-22.5 -20.5 -22.5 -68.5l113 0v-96h-113v-424l-110 0z" horiz-adv-x="345" unicode="f"/><glyph d="M294 -172q-49 0 -88.5 12q-39.5 12 -68 34q-28.5 22 -44 54q-15.5 32 -15.5 72l110 0q0 -12 6 -25q6 -13 18.5 -23.5q12.5 -10.5 32.5 -17q20 -6.5 49 -6.5q57 0 81 26.5q24 26.5 24 71.5v78q-19 -23 -55.5 -43q-36.5 -20 -90.5 -20q-39 0 -73.5 11.5q-34.5 11.5 -60 35q-25.5 23.5 -40 59.5q-14.5 36 -14.5 85v109q0 49 15 85q15 36 40 59.5q25 23.5 58.5 35q33.5 11.5 70.5 11.5q56 0 94 -21.5q38 -21.5 61 -48.5l41 58h64v-491q0 -51 -15.5 -89q-15.5 -38 -43.5 -62.5q-28 -24.5 -67.5 -37q-39.5 -12.5 -88.5 -12.5zt0 0zM277 141q41 0 71 20.5q30 20.5 51 44.5l0 161q-21 24 -51 44.5q-30 20.5 -71 20.5q-44 0 -73 -25q-29 -25 -29 -72v-97q0 -47 29 -72t73 -25z" horiz-adv-x="589" unicode="g"/><glyph d="M80 705h110v-236q22 24 58.5 43.5q36.5 19.5 90.5 19.5q39 0 72 -13q33 -13 57 -38q24 -25 37.5 -62q13.5 -37 13.5 -84v-335h-110v325q0 56 -28 81.5q-28 25.5 -67 25.5q-22 0 -41 -7q-19 -7 -35 -17q-16 -10 -28 -22q-12 -12 -20 -21l0 -365l-110 0z" horiz-adv-x="594" unicode="h"/><glyph d="M80 520h110v-520h-110zM80 705h110v-110l-110 0z" horiz-adv-x="270" unicode="i"/><glyph d="M191 520v-505q0 -33 -8.5 -66.5q-8.5 -33.5 -28 -60.5q-19.5 -27 -51.5 -43.5q-32 -16.5 -80 -16.5q-10 0 -19.5 0.5q-9.5 0.5 -16.5 1.5l0 96h23q32 0 51.5 19q19.5 19 19.5 70v505zM81 705h110v-110l-110 0z" horiz-adv-x="271" unicode="j"/><glyph d="M80 705h110v-391h69l137 206h91v-52l-130 -196l145 -220v-52h-99l-145 218h-68v-218l-110 0z" horiz-adv-x="542" unicode="k"/><glyph d="M80 705h110v-705l-110 0z" horiz-adv-x="270" unicode="l"/><glyph d="M80 520h64l41 -58q23 27 58.5 48.5q35.5 21.5 89.5 21.5q100 0 141 -81q24 30 66.5 55.5q42.5 25.5 99.5 25.5q79 0 122.5 -48q43.5 -48 43.5 -137v-347h-110v335q0 51 -24 74q-24 23 -59 23q-35 0 -63.5 -19q-28.5 -19 -51.5 -48l0 -365h-110v335q0 51 -24 74q-24 23 -59 23q-23 0 -41 -7q-18 -7 -32 -17q-14 -10 -24.5 -22q-10.5 -12 -17.5 -21l0 -365l-110 0z" horiz-adv-x="881" unicode="m"/><glyph d="M80 520h64l41 -58q23 27 60.5 48.5q37.5 21.5 93.5 21.5q40 0 73 -13q33 -13 57 -38q24 -25 37 -62q13 -37 13 -84v-335h-110v325q0 56 -28 81.5q-28 25.5 -67 25.5q-22 0 -41 -7q-19 -7 -35 -17q-16 -10 -28 -22q-12 -12 -20 -21l0 -365l-110 0z" horiz-adv-x="594" unicode="n"/><glyph d="M279 88q57 0 84.5 28.5q27.5 28.5 27.5 69.5v148q0 41 -27.5 69.5q-27.5 28.5 -84.5 28.5q-57 0 -84.5 -28.5q-27.5 -28.5 -27.5 -69.5v-148q0 -41 27.5 -69.5q27.5 -28.5 84.5 -28.5zt0 0zM279 -12q-56 0 -97.5 15q-41.5 15 -69 41q-27.5 26 -41.5 61q-14 35 -14 76v158q0 41 14 76q14 35 41.5 61q27.5 26 69 41q41.5 15 97.5 15q55 0 97 -15q42 -15 69.5 -41q27.5 -26 41.5 -61q14 -35 14 -76v-158q0 -41 -14 -76q-14 -35 -41.5 -61q-27.5 -26 -69.5 -41t-97 -15z" horiz-adv-x="558" unicode="o"/><glyph d="M80 520h64l41 -58q23 27 61 48.5q38 21.5 94 21.5q37 0 70.5 -11.5q33.5 -11.5 58.5 -35q25 -23.5 40 -59.5q15 -36 15 -85v-162q0 -49 -15 -85q-15 -36 -40.5 -59.5q-25.5 -23.5 -59.5 -35q-34 -11.5 -73 -11.5q-54 0 -90.5 20q-36.5 20 -55.5 43l0 -211h-110zM316 88q40 0 69 26q29 26 29 73v146q0 47 -29 73q-29 26 -68 26q-42 0 -73 -21.5q-31 -21.5 -54 -45.5l0 -210q23 -24 53.5 -45.5t72.5 -21.5z" horiz-adv-x="589" unicode="p"/><glyph d="M399 51q-19 -23 -55.5 -43q-36.5 -20 -90.5 -20q-39 0 -73.5 11.5q-34.5 11.5 -60 35q-25.5 23.5 -40 59.5q-14.5 36 -14.5 85v162q0 49 15 85q15 36 40 59.5q25 23.5 58.5 35q33.5 11.5 70.5 11.5q56 0 94 -21.5q38 -21.5 61 -48.5l41 58h64v-680h-110zM273 88q42 0 72.5 21.5q30.5 21.5 53.5 45.5l0 210q-23 24 -54 45.5q-31 21.5 -73 21.5q-39 0 -68 -26q-29 -26 -29 -73v-146q0 -47 29 -73t69 -26z" horiz-adv-x="589" unicode="q"/><glyph d="M80 520h55l42 -58q22 25 58 47.5q36 22.5 85 22.5h20v-105h-15q-45 0 -77 -13q-32 -13 -58 -43l0 -371l-110 0z" horiz-adv-x="370" unicode="r"/><glyph d="M278 -12q-52 0 -94 12.5q-42 12.5 -72 37q-30 24.5 -46 60q-16 35.5 -16 81.5l110 0q0 -45 35 -68q35 -23 92 -23q45 0 70.5 15.5q25.5 15.5 25.5 41.5q0 19 -12.5 32.5q-12.5 13.5 -44.5 21.5l-135 35q-24 6 -46.5 16q-22.5 10 -40 26q-17.5 16 -28 39.5q-10.5 23.5 -10.5 56.5q0 72 54 116q54 44 152 44q48 0 87 -12q39 -12 66.5 -35.5q27.5 -23.5 43 -58q15.5 -34.5 15.5 -80.5l-110 0q0 44 -30.5 65q-30.5 21 -78.5 21q-48 0 -68.5 -16.5q-20.5 -16.5 -20.5 -38.5q0 -35 57 -50l134 -33q27 -7 50.5 -17.5q23.5 -10.5 40 -27q16.5 -16.5 26 -40q9.5 -23.5 9.5 -55.5q0 -37 -15.5 -67.5q-15.5 -30.5 -43.5 -52.5q-28 -22 -67.5 -34t-88.5 -12z" horiz-adv-x="553" unicode="s"/><glyph d="M281 0q-54 0 -89.5 16q-35.5 16 -55.5 42q-20 26 -28 59.5q-8 33.5 -8 68.5v238h-80v96h80v108h110v-108h124v-96h-124v-239q0 -51 19.5 -70q19.5 -19 51.5 -19h53v-96l-53 0z" horiz-adv-x="379" unicode="t"/><glyph d="M253 -12q-79 0 -128.5 51q-49.5 51 -49.5 146v335h110v-325q0 -56 27.5 -81.5q27.5 -25.5 66.5 -25.5q21 0 40 7q19 7 34.5 17q15.5 10 27.5 22q12 12 20 21l0 365h110v-520h-64l-42 58q-23 -27 -60 -48.5t-92 -21.5z" horiz-adv-x="591" unicode="u"/><glyph d="M20 468v52h102l137 -370l131 370h100v-52l-185 -468l-100 0z" horiz-adv-x="510" unicode="v"/><glyph d="M45 468v52h100l83 -370l94 276h75l94 -276l83 370h99v-52l-114 -468h-104l-95 254l-96 -254l-106 0z" horiz-adv-x="718" unicode="w"/><glyph d="M40 52l153 208l-151 208v52h99l121 -176l122 176h93v-52l-148 -204l156 -212v-52h-98l-127 185l-126 -185l-94 0z" horiz-adv-x="525" unicode="x"/><glyph d="M153 -120l52 120l-185 468v52h102l137 -370l131 370h101v-52l-248 -628l-90 0z" horiz-adv-x="511" unicode="y"/><glyph d="M50 96l274 328h-265v96h397v-96l-276 -328h288v-96l-418 0z" horiz-adv-x="528" unicode="z"/><glyph d="M298 -160q-86 0 -135.5 49.5q-49.5 49.5 -49.5 142.5v148q0 42 -14 60.5q-14 18.5 -43 18.5h-26v100h26q31 0 44 20.5q13 20.5 13 58.5v136q0 93 49.5 142.5q49.5 49.5 135.5 49.5l0 -100q-37 0 -56 -25.5q-19 -25.5 -19 -60.5v-171q0 -22 -5.5 -38.5q-5.5 -16.5 -14.5 -28.5q-9 -12 -20 -20q-11 -8 -21 -13q10 -5 21 -13q11 -8 20 -20q9 -12 14.5 -28.5q5.5 -16.5 5.5 -38.5v-183q0 -35 19 -60.5q19 -25.5 56 -25.5l0 -100z" horiz-adv-x="338" unicode="{"/><glyph d="M90 766h110v-866l-110 0z" horiz-adv-x="290" unicode="|"/><glyph d="M40 -160q86 0 135.5 49.5q49.5 49.5 49.5 142.5v148q0 42 14 60.5q14 18.5 43 18.5h26v100h-26q-31 0 -44 20.5q-13 20.5 -13 58.5v136q0 93 -49.5 142.5q-49.5 49.5 -135.5 49.5l0 -100q37 0 56 -25.5q19 -25.5 19 -60.5v-171q0 -22 5.5 -38.5q5.5 -16.5 14.5 -28.5q9 -12 20 -20q11 -8 21 -13q-10 -5 -21 -13q-11 -8 -20 -20q-9 -12 -14.5 -28.5q-5.5 -16.5 -5.5 -38.5v-183q0 -35 -19 -60.5q-19 -25.5 -56 -25.5l0 -100z" horiz-adv-x="338" unicode="}"/><glyph d="M40 282q26 50 55.5 80q29.5 30 67.5 30q24 0 43.5 -7q19.5 -7 35.5 -18l18 -12q14 -10 27 -17q13 -7 26 -7q16 0 29.5 12q13.5 12 33.5 44l75 -45q-26 -49 -55.5 -79.5q-29.5 -30.5 -67.5 -30.5q-37 0 -66 18l-22 13q-18 11 -33 20.5q-15 9.5 -29 9.5q-16 0 -29.5 -12q-13.5 -12 -33.5 -44z" horiz-adv-x="491" unicode="~"/><glyph horiz-adv-x="240"/><glyph d="M93 306h110v-466h-110zM90 520h116v-123l-116 0z" horiz-adv-x="296" unicode="¡"/><glyph d="M233 77q-81 11 -128.5 61q-47.5 50 -47.5 129v158q0 78 47.5 128.5q47.5 50.5 128.5 61.5l0 85h80v-84q82 -9 130.5 -58.5q48.5 -49.5 48.5 -130.5v-6h-110v6q0 33 -18.5 56q-18.5 23 -53.5 31l0 -337q35 8 53.5 31q18.5 23 18.5 57v9h110v-7q0 -81 -49.5 -131q-49.5 -50 -129.5 -60l0 -76h-80zM236 513q-35 -9 -52 -31.5q-17 -22.5 -17 -54.5v-162q0 -32 17 -55q17 -23 52 -31z" horiz-adv-x="545" unicode="¢"/><glyph d="M40 100h70v203h-70v100h70v119q0 44 15 80q15 36 43.5 61q28.5 25 68.5 38.5q40 13.5 90 13.5q97 0 154.5 -51.5q57.5 -51.5 57.5 -149.5v-36h-110v36q0 48 -26 74.5q-26 26.5 -76 26.5q-55 0 -81 -25q-26 -25 -26 -66v-121h144v-100h-144v-203h319v-100l-499 0z" horiz-adv-x="579" unicode="£"/><glyph d="M235 106h-172v96h172v82h-172v96h114l-167 280v40h101l180 -315l180 315h99v-40l-167 -280h114v-96h-172v-82h172v-96h-172v-106l-110 0z" horiz-adv-x="580" unicode="¥"/><glyph d="M90 247h110v-347h-110zM90 766h110v-327l-110 0z" horiz-adv-x="290" unicode="¦"/><glyph d="M156 28q0 -31 13.5 -51q13.5 -20 34.5 -32q21 -12 46 -16.5q25 -4.5 48 -4.5q57 0 84 20q27 20 27 52q0 16 -7.5 28q-7.5 12 -22 21q-14.5 9 -34.5 16.5q-20 7.5 -44 16.5l-46 16q-45 16 -80 33q-35 17 -59 38.5q-24 21.5 -36.5 48.5q-12.5 27 -12.5 62q0 46 20 82q20 36 47 65q-33 26 -47.5 52q-14.5 26 -14.5 71q0 35 14.5 64.5q14.5 29.5 42.5 51q28 21.5 68 33.5q40 12 90 12q49 0 92 -11q43 -11 74 -34q31 -23 49 -60.5q18 -37.5 18 -89.5l-105 0q0 28 -12.5 47q-12.5 19 -31.5 30.5q-19 11.5 -42.5 16.5q-23.5 5 -45.5 5q-57 0 -81.5 -20.5q-24.5 -20.5 -24.5 -48.5q0 -33 31.5 -49.5q31.5 -16.5 81.5 -33.5l47 -16q45 -15 80 -32.5q35 -17.5 59 -39q24 -21.5 36.5 -48.5q12.5 -27 12.5 -62q0 -46 -20 -82q-20 -36 -47 -65q33 -26 47.5 -51.5q14.5 -25.5 14.5 -70.5q0 -34 -15 -63.5q-15 -29.5 -44 -52q-29 -22.5 -72 -35.5q-43 -13 -98 -13q-49 0 -92.5 12q-43.5 12 -76.5 37q-33 25 -52.5 62.5q-19.5 37.5 -19.5 88.5zM380 155q39 48 39 92q0 19 -9.5 34.5q-9.5 15.5 -25.5 28q-16 12.5 -36.5 22.5q-20.5 10 -42.5 18l-90 33q-39 -48 -39 -92q0 -19 9.5 -35q9.5 -16 25.5 -28.5q16 -12.5 36.5 -22.5q20.5 -10 42.5 -18z" horiz-adv-x="585" unicode="§"/><glyph d="M60 705h110v-110h-110zM257 705h110v-110l-110 0z" horiz-adv-x="427" unicode="¨"/><glyph d="M431 140q-85 0 -130 42.5q-45 42.5 -45 119.5v97q0 77 45 119.5q45 42.5 130 42.5q33 0 63 -9q30 -9 52.5 -27.5q22.5 -18.5 36 -48q13.5 -29.5 13.5 -70.5v-3h-87v3q0 21 -7.5 36q-7.5 15 -19 24q-11.5 9 -25.5 13.5q-14 4.5 -27 4.5q-45 0 -66 -21q-21 -21 -21 -58v-108q0 -37 21 -58.5q21 -21.5 66 -21.5q13 0 27 4.5q14 4.5 25.5 14q11.5 9.5 19 24.5q7.5 15 7.5 36v2h87v-2q0 -41 -13.5 -70.5q-13.5 -29.5 -36 -48.5q-22.5 -19 -52.5 -28q-30 -9 -63 -9zt0 0zM430 -15q-76 0 -142 28q-66 28 -114.5 77q-48.5 49 -76 116q-27.5 67 -27.5 144q0 77 27.5 144q27.5 67 76 116q48.5 49 114.5 77q66 28 142 28q76 0 142 -28q66 -28 114.5 -77q48.5 -49 76 -116q27.5 -67 27.5 -144q0 -77 -27.5 -144q-27.5 -67 -76 -116q-48.5 -49 -114.5 -77q-66 -28 -142 -28zt0 0zM430 60q59 0 110.5 22q51.5 22 89 61q37.5 39 59 92q21.5 53 21.5 115q0 61 -21.5 114q-21.5 53 -59 92q-37.5 39 -89 61.5q-51.5 22.5 -110.5 22.5q-59 0 -110.5 -22.5q-51.5 -22.5 -89 -61.5q-37.5 -39 -59 -92q-21.5 -53 -21.5 -114q0 -62 21.5 -115q21.5 -53 59 -92q37.5 -39 89 -61t110.5 -22z" horiz-adv-x="860" unicode="©"/><glyph d="M178 353q-26 0 -49 6q-23 6 -40.5 18.5q-17.5 12.5 -28 32q-10.5 19.5 -10.5 45.5q0 55 38.5 80.5q38.5 25.5 117.5 25.5h59v22q0 40 -47 40q-24 0 -35.5 -12q-11.5 -12 -11.5 -32l-104 0q0 55 36 90.5q36 35.5 114 35.5q77 0 114 -32.5q37 -32.5 37 -84.5v-230h-60l-24 32q-17 -16 -43.5 -26.5q-26.5 -10.5 -62.5 -10.5zt0 0zM196 432q20 0 38.5 8.5q18.5 8.5 30.5 22.5l0 35h-58q-31 0 -42 -9.5q-11 -9.5 -11 -23.5q0 -17 11.5 -25t30.5 -8z" horiz-adv-x="438" unicode="ª"/><glyph d="M40 275l140 210h95v-32l-119 -178l119 -179v-32h-95zM250 275l140 210h95v-32l-119 -178l119 -179v-32l-95 0z" horiz-adv-x="545" unicode="«"/><glyph d="M401 375h-341v92h440v-270l-99 0z" horiz-adv-x="560" unicode="¬"/><glyph d="M60 363h322v-100l-322 0z" horiz-adv-x="442" unicode="­"/><glyph d="M140 632h76q30 0 47 -14q17 -14 17 -40q0 -23 -11.5 -36q-11.5 -13 -29.5 -20l41 -53v-13h-35l-44 60h-24v-60h-37zM216 549q11 0 19 6q8 6 8 19q0 13 -8 18q-8 5 -19 5h-39v-48zM207 371q-35 0 -65.5 13q-30.5 13 -53 36q-22.5 23 -35.5 54.5q-13 31.5 -13 68.5q0 37 13 68.5q13 31.5 35.5 54.5q22.5 23 53 36q30.5 13 65.5 13q35 0 65.5 -13q30.5 -13 53 -36q22.5 -23 35.5 -54.5q13 -31.5 13 -68.5q0 -37 -13 -68.5q-13 -31.5 -35.5 -54.5q-22.5 -23 -53 -36q-30.5 -13 -65.5 -13zt0 0zM207 409q27 0 50 10q23 10 40 28q17 18 27 42.5q10 24.5 10 53.5q0 28 -10 52.5q-10 24.5 -27 42.5q-17 18 -40 28.5q-23 10.5 -50 10.5q-27 0 -50 -10.5q-23 -10.5 -40 -28.5q-17 -18 -27 -42.5q-10 -24.5 -10 -52.5q0 -29 10 -53.5q10 -24.5 27 -42.5q17 -18 40 -28t50 -10z" horiz-adv-x="414" unicode="®"/><glyph d="M60 695h307v-90l-307 0z" horiz-adv-x="427" unicode="¯"/><glyph d="M195 434q29 0 43.5 17q14.5 17 14.5 41v86q0 24 -14.5 41q-14.5 17 -43.5 17q-29 0 -43.5 -17q-14.5 -17 -14.5 -41v-86q0 -24 14.5 -41q14.5 -17 43.5 -17zt0 0zM195 355q-72 0 -113.5 38.5q-41.5 38.5 -41.5 113.5v56q0 75 41.5 113.5q41.5 38.5 113.5 38.5q72 0 113.5 -38.5q41.5 -38.5 41.5 -113.5v-56q0 -75 -41.5 -113.5t-113.5 -38.5z" horiz-adv-x="390" unicode="°"/><glyph d="M230 333h-170v92h170v161h100v-161h170v-92h-170v-161h-100zM60 92h440v-92l-440 0z" horiz-adv-x="560" unicode="±"/><glyph d="M35 440l99 83q26 21 35.5 32q9.5 11 9.5 25q0 29 -29 29q-14 0 -22.5 -8.5q-8.5 -8.5 -8.5 -24.5l-89 0q0 63 36 96q36 33 90 33q55 0 87 -31.5q32 -31.5 32 -79.5q0 -22 -4.5 -39q-4.5 -17 -13.5 -31q-9 -14 -21 -26q-12 -12 -27 -24l-42 -34h110v-82l-242 0z" horiz-adv-x="317" unicode="²"/><glyph d="M165 353q-61 0 -98 35q-37 35 -37 90l80 0q0 -20 13.5 -31.5q13.5 -11.5 37.5 -11.5q24 0 33 9.5q9 9.5 9 22.5q0 16 -11.5 23q-11.5 7 -30.5 7h-38v63h38q17 0 26 10q9 10 9 23q0 11 -8.5 21q-8.5 10 -28.5 10q-43 0 -43 -47l-81 0q0 62 34.5 95q34.5 33 92.5 33q59 0 90 -28.5q31 -28.5 31 -69.5q0 -24 -10.5 -41.5q-10.5 -17.5 -27.5 -26.5q20 -8 34 -28.5q14 -20.5 14 -46.5q0 -48 -33.5 -79.5t-94.5 -31.5z" horiz-adv-x="329" unicode="³"/><glyph d="M140 730h99v-38l-90 -102l-89 0z" horiz-adv-x="299" unicode="´"/><glyph d="M80 520h110v-312q0 -23 8 -44q8 -21 22.5 -37.5q14.5 -16.5 33.5 -26.5q19 -10 41 -10q21 0 38 6.5q17 6.5 30.5 16.5q13.5 10 24 21.5q10.5 11.5 18.5 20.5l0 365h110v-520h-64l-42 58q-11 -14 -23 -26.5q-12 -12.5 -27 -22q-15 -9.5 -34.5 -15.5q-19.5 -6 -45.5 -6q-31 0 -55 16q-24 16 -35 30l0 -194l-110 0z" horiz-adv-x="596" unicode="µ"/><glyph d="M215 368q-81 0 -128 42q-47 42 -47 120v8q0 80 47 121q47 41 128 41h315v-787h-105v687h-105v-687l-105 0z" horiz-adv-x="620" unicode="¶"/><glyph d="M70 382h135v-136l-135 0z" horiz-adv-x="275" unicode="·"/><glyph d="M66 -122l87 122h89l-77 -160l-99 0z" horiz-adv-x="299" unicode="¸"/><glyph d="M96 564h-66v53l128 83h41v-342l-103 0z" horiz-adv-x="269" unicode="¹"/><glyph d="M205 441q29 0 45.5 18.5q16.5 18.5 16.5 44.5v50q0 26 -16.5 44.5q-16.5 18.5 -45.5 18.5q-29 0 -45.5 -18.5q-16.5 -18.5 -16.5 -44.5v-50q0 -26 16.5 -44.5q16.5 -18.5 45.5 -18.5zt0 0zM205 353q-77 0 -121 41q-44 41 -44 121v28q0 80 44 121q44 41 121 41q78 0 121.5 -41q43.5 -41 43.5 -121v-28q0 -80 -43.5 -121t-121.5 -41z" horiz-adv-x="410" unicode="º"/><glyph d="M295 275l-140 210h-95v-32l119 -178l-119 -179v-32h95zM505 275l-140 210h-95v-32l119 -178l-119 -179v-32l95 0z" horiz-adv-x="545" unicode="»"/><glyph d="M96 564h-66v53l128 83h41v-342h-103zM96 40l405 660h85v-40l-405 -660h-85zM605 342v-49l-95 -159h76v65h103v-65h44v-76h-44v-58h-103v58h-182v68l131 216z" horiz-adv-x="743" unicode="¼"/><glyph d="M96 564h-66v53l128 83h41v-342h-103zM96 40l405 660h85v-40l-405 -660h-85zM464 82l99 83q26 21 35.5 32q9.5 11 9.5 25q0 29 -29 29q-14 0 -22.5 -8.5q-8.5 -8.5 -8.5 -24.5l-89 0q0 63 36 96q36 33 90 33q55 0 87 -31.5q32 -31.5 32 -79.5q0 -22 -4.5 -39q-4.5 -17 -13.5 -31q-9 -14 -21 -26q-12 -12 -27 -24l-42 -34h110v-82l-242 0z" horiz-adv-x="746" unicode="½"/><glyph d="M650 342v-49l-95 -159h76v65h103v-65h44v-76h-44v-58h-103v58h-182v68l131 216zM141 40l405 660h85v-40l-405 -660h-85zM165 353q-61 0 -98 35q-37 35 -37 90l80 0q0 -20 13.5 -31.5q13.5 -11.5 37.5 -11.5q24 0 33 9.5q9 9.5 9 22.5q0 16 -11.5 23q-11.5 7 -30.5 7h-38v63h38q17 0 26 10q9 10 9 23q0 11 -8.5 21q-8.5 10 -28.5 10q-43 0 -43 -47l-81 0q0 62 34.5 95q34.5 33 92.5 33q59 0 90 -28.5q31 -28.5 31 -69.5q0 -24 -10.5 -41.5q-10.5 -17.5 -27.5 -26.5q20 -8 34 -28.5q14 -20.5 14 -46.5q0 -48 -33.5 -79.5t-94.5 -31.5z" horiz-adv-x="788" unicode="¾"/><glyph d="M248 -172q-55 0 -96 15.5q-41 15.5 -68 41.5q-27 26 -40.5 60.5q-13.5 34.5 -13.5 72.5q0 40 13.5 70.5q13.5 30.5 33.5 54q20 23.5 44.5 41q24.5 17.5 46.5 31.5l38 24v67h110v-106l-84 -51q-23 -14 -40 -26.5q-17 -12.5 -28.5 -27q-11.5 -14.5 -17.5 -32.5q-6 -18 -6 -43q0 -36 26 -64q26 -28 82 -28q60 0 93.5 32.5q33.5 32.5 33.5 94.5l105 0q0 -57 -18 -99.5q-18 -42.5 -49 -71q-31 -28.5 -73.5 -42.5q-42.5 -14 -91.5 -14zt0 0zM203 520h116v-123l-116 0z" horiz-adv-x="520" unicode="¿"/><glyph d="M20 40l250 660h118l250 -660v-40h-118l-62 173h-264l-63 -173h-111zM422 273l-95 267l-97 -267zM183 872v41h106l86 -151l-95 0z" horiz-adv-x="658" unicode="À"/><glyph d="M20 40l250 660h118l250 -660v-40h-118l-62 173h-264l-63 -173h-111zM422 273l-95 267l-97 -267zM375 913h106v-41l-96 -110l-96 0z" horiz-adv-x="658" unicode="Á"/><glyph d="M20 40l250 660h118l250 -660v-40h-118l-62 173h-264l-63 -173h-111zM422 273l-95 267l-97 -267zM175 800l106 113h95l106 -113v-38h-90l-64 72l-65 -72l-88 0z" horiz-adv-x="658" unicode="Â"/><glyph d="M20 40l250 660h118l250 -660v-40h-118l-62 173h-264l-63 -173h-111zM422 273l-95 267l-97 -267zM143 796q23 45 50.5 73q27.5 28 61.5 28q22 0 40.5 -7q18.5 -7 33.5 -17l16 -11q13 -9 25.5 -15q12.5 -6 25.5 -6q12 0 23 10.5q11 10.5 30 40.5l67 -41q-23 -46 -50.5 -73.5q-27.5 -27.5 -60.5 -27.5q-20 0 -37 5.5q-17 5.5 -29 13.5l-18 11q-16 9 -30 17q-14 8 -28 8q-12 0 -23 -10q-11 -10 -30 -40z" horiz-adv-x="658" unicode="Ã"/><glyph d="M20 40l250 660h118l250 -660v-40h-118l-62 173h-264l-63 -173h-111zM422 273l-95 267l-97 -267zM163 886h118v-118h-118zM375 886h117v-118l-117 0z" horiz-adv-x="658" unicode="Ä"/><glyph d="M20 40l250 660h118l250 -660v-40h-118l-62 173h-264l-63 -173h-111zM422 273l-95 267l-97 -267zM327 803q18 0 32 13q14 13 14 31q0 18 -14 31q-14 13 -32 13q-18 0 -32 -13q-14 -13 -14 -31q0 -18 14 -31q14 -13 32 -13zt0 0zM327 738q-23 0 -44 9q-21 9 -37 23.5q-16 14.5 -25.5 34q-9.5 19.5 -9.5 42.5q0 22 9.5 42q9.5 20 25.5 34.5q16 14.5 37 23q21 8.5 44 8.5q24 0 44.5 -8.5q20.5 -8.5 37 -23q16.5 -14.5 25.5 -34.5q9 -20 9 -42q0 -23 -9 -42.5q-9 -19.5 -25.5 -34q-16.5 -14.5 -37 -23.5t-44.5 -9z" horiz-adv-x="658" unicode="Å"/><glyph d="M10 40l416 660h515v-105h-329v-194h282v-100h-282v-196h330v-105h-450v173h-265l-109 -173h-108zM492 273v320l-202 -320z" horiz-adv-x="992" unicode="Æ"/><glyph d="M205 -122l79 111q-104 14 -159 78q-55 64 -55 170v226q0 120 70.5 186q70.5 66 201.5 66q51 0 98 -14q47 -14 82.5 -43.5q35.5 -29.5 56.5 -75.5q21 -46 21 -109v-10h-120v10q0 35 -13 60q-13 25 -33.5 41q-20.5 16 -45 23.5q-24.5 7.5 -47.5 7.5q-78 0 -114.5 -35.5q-36.5 -35.5 -36.5 -98.5v-242q0 -63 36.5 -98.5q36.5 -35.5 114.5 -35.5q23 0 47.5 7.5q24.5 7.5 45 23.5q20.5 16 33.5 41q13 25 13 60v10h120v-10q0 -59 -18 -102q-18 -43 -49 -72.5q-31 -29.5 -72 -46q-41 -16.5 -87 -20.5l-70 -146l-99 0z" horiz-adv-x="660" unicode="Ç"/><glyph d="M90 700h449v-105h-329v-194h282v-100h-282v-196h330v-105h-450zM193 872v41h106l86 -151l-95 0z" horiz-adv-x="590" unicode="È"/><glyph d="M90 700h449v-105h-329v-194h282v-100h-282v-196h330v-105h-450zM323 913h106v-41l-96 -110l-96 0z" horiz-adv-x="590" unicode="É"/><glyph d="M90 700h449v-105h-329v-194h282v-100h-282v-196h330v-105h-450zM163 800l106 113h95l106 -113v-38h-90l-64 72l-65 -72l-88 0z" horiz-adv-x="590" unicode="Ê"/><glyph d="M90 700h449v-105h-329v-194h282v-100h-282v-196h330v-105h-450zM150 886h118v-118h-118zM361 886h118v-118l-118 0z" horiz-adv-x="590" unicode="Ë"/><glyph d="M90 700h120v-700h-120zM12 872v41h106l86 -151l-95 0z" horiz-adv-x="300" unicode="Ì"/><glyph d="M90 700h120v-700h-120zM191 913h106v-41l-96 -110l-96 0z" horiz-adv-x="300" unicode="Í"/><glyph d="M90 700h120v-700h-120zM-3 800l106 113h95l106 -113v-38h-90l-64 72l-65 -72l-88 0z" horiz-adv-x="300" unicode="Î"/><glyph d="M90 700h120v-700h-120zM-14 886h118v-118h-118zM198 886h117v-118l-117 0z" horiz-adv-x="300" unicode="Ï"/><glyph d="M364 105q38 0 67 10.5q29 10.5 48.5 28.5q19.5 18 29.5 42.5q10 24.5 10 52.5v222q0 28 -10 52.5q-10 24.5 -29.5 42.5q-19.5 18 -48.5 28.5q-29 10.5 -67 10.5h-130v-194h141v-100h-141v-196zM114 301h-94v100h94v299h250q63 0 114 -16q51 -16 86.5 -47q35.5 -31 55 -76q19.5 -45 19.5 -103v-216q0 -58 -19.5 -103q-19.5 -45 -55 -76q-35.5 -31 -86.5 -47q-51 -16 -114 -16l-250 0z" horiz-adv-x="709" unicode="Ð"/><glyph d="M90 700h110l300 -477v477h120v-700h-110l-300 477v-477h-120zM171 796q23 45 50.5 73q27.5 28 61.5 28q22 0 40.5 -7q18.5 -7 33.5 -17l16 -11q13 -9 25.5 -15q12.5 -6 25.5 -6q12 0 23 10.5q11 10.5 30 40.5l67 -41q-23 -46 -50.5 -73.5q-27.5 -27.5 -60.5 -27.5q-20 0 -37 5.5q-17 5.5 -29 13.5l-18 11q-16 9 -30 17q-14 8 -28 8q-12 0 -23 -10q-11 -10 -30 -40z" horiz-adv-x="710" unicode="Ñ"/><glyph d="M345 95q39 0 68 10.5q29 10.5 48.5 29q19.5 18.5 29 43.5q9.5 25 9.5 53v238q0 28 -9.5 53q-9.5 25 -29 43.5q-19.5 18.5 -48.5 29q-29 10.5 -68 10.5q-39 0 -68 -10.5q-29 -10.5 -48.5 -29q-19.5 -18.5 -29 -43.5q-9.5 -25 -9.5 -53v-238q0 -28 9.5 -53q9.5 -25 29 -43.5q19.5 -18.5 48.5 -29q29 -10.5 68 -10.5zt0 0zM345 -15q-63 0 -114 17q-51 17 -86.5 49.5q-35.5 32.5 -55 79q-19.5 46.5 -19.5 106.5v226q0 60 19.5 106.5q19.5 46.5 55 79q35.5 32.5 86.5 49.5q51 17 114 17q63 0 114 -17q51 -17 86.5 -49.5q35.5 -32.5 55 -79q19.5 -46.5 19.5 -106.5v-226q0 -60 -19.5 -106.5q-19.5 -46.5 -55 -79q-35.5 -32.5 -86.5 -49.5q-51 -17 -114 -17zt0 0zM211 872v41h106l86 -151l-95 0z" horiz-adv-x="690" unicode="Ò"/><glyph d="M345 95q39 0 68 10.5q29 10.5 48.5 29q19.5 18.5 29 43.5q9.5 25 9.5 53v238q0 28 -9.5 53q-9.5 25 -29 43.5q-19.5 18.5 -48.5 29q-29 10.5 -68 10.5q-39 0 -68 -10.5q-29 -10.5 -48.5 -29q-19.5 -18.5 -29 -43.5q-9.5 -25 -9.5 -53v-238q0 -28 9.5 -53q9.5 -25 29 -43.5q19.5 -18.5 48.5 -29q29 -10.5 68 -10.5zt0 0zM345 -15q-63 0 -114 17q-51 17 -86.5 49.5q-35.5 32.5 -55 79q-19.5 46.5 -19.5 106.5v226q0 60 19.5 106.5q19.5 46.5 55 79q35.5 32.5 86.5 49.5q51 17 114 17q63 0 114 -17q51 -17 86.5 -49.5q35.5 -32.5 55 -79q19.5 -46.5 19.5 -106.5v-226q0 -60 -19.5 -106.5q-19.5 -46.5 -55 -79q-35.5 -32.5 -86.5 -49.5q-51 -17 -114 -17zt0 0zM383 913h106v-41l-96 -110l-96 0z" horiz-adv-x="690" unicode="Ó"/><glyph d="M345 95q39 0 68 10.5q29 10.5 48.5 29q19.5 18.5 29 43.5q9.5 25 9.5 53v238q0 28 -9.5 53q-9.5 25 -29 43.5q-19.5 18.5 -48.5 29q-29 10.5 -68 10.5q-39 0 -68 -10.5q-29 -10.5 -48.5 -29q-19.5 -18.5 -29 -43.5q-9.5 -25 -9.5 -53v-238q0 -28 9.5 -53q9.5 -25 29 -43.5q19.5 -18.5 48.5 -29q29 -10.5 68 -10.5zt0 0zM345 -15q-63 0 -114 17q-51 17 -86.5 49.5q-35.5 32.5 -55 79q-19.5 46.5 -19.5 106.5v226q0 60 19.5 106.5q19.5 46.5 55 79q35.5 32.5 86.5 49.5q51 17 114 17q63 0 114 -17q51 -17 86.5 -49.5q35.5 -32.5 55 -79q19.5 -46.5 19.5 -106.5v-226q0 -60 -19.5 -106.5q-19.5 -46.5 -55 -79q-35.5 -32.5 -86.5 -49.5q-51 -17 -114 -17zt0 0zM193 800l106 113h95l106 -113v-38h-90l-64 72l-65 -72l-88 0z" horiz-adv-x="690" unicode="Ô"/><glyph d="M345 95q39 0 68 10.5q29 10.5 48.5 29q19.5 18.5 29 43.5q9.5 25 9.5 53v238q0 28 -9.5 53q-9.5 25 -29 43.5q-19.5 18.5 -48.5 29q-29 10.5 -68 10.5q-39 0 -68 -10.5q-29 -10.5 -48.5 -29q-19.5 -18.5 -29 -43.5q-9.5 -25 -9.5 -53v-238q0 -28 9.5 -53q9.5 -25 29 -43.5q19.5 -18.5 48.5 -29q29 -10.5 68 -10.5zt0 0zM345 -15q-63 0 -114 17q-51 17 -86.5 49.5q-35.5 32.5 -55 79q-19.5 46.5 -19.5 106.5v226q0 60 19.5 106.5q19.5 46.5 55 79q35.5 32.5 86.5 49.5q51 17 114 17q63 0 114 -17q51 -17 86.5 -49.5q35.5 -32.5 55 -79q19.5 -46.5 19.5 -106.5v-226q0 -60 -19.5 -106.5q-19.5 -46.5 -55 -79q-35.5 -32.5 -86.5 -49.5q-51 -17 -114 -17zt0 0zM165 796q23 45 50.5 73q27.5 28 61.5 28q22 0 40.5 -7q18.5 -7 33.5 -17l16 -11q13 -9 25.5 -15q12.5 -6 25.5 -6q12 0 23 10.5q11 10.5 30 40.5l67 -41q-23 -46 -50.5 -73.5q-27.5 -27.5 -60.5 -27.5q-20 0 -37 5.5q-17 5.5 -29 13.5l-18 11q-16 9 -30 17q-14 8 -28 8q-12 0 -23 -10q-11 -10 -30 -40z" horiz-adv-x="690" unicode="Õ"/><glyph d="M345 95q39 0 68 10.5q29 10.5 48.5 29q19.5 18.5 29 43.5q9.5 25 9.5 53v238q0 28 -9.5 53q-9.5 25 -29 43.5q-19.5 18.5 -48.5 29q-29 10.5 -68 10.5q-39 0 -68 -10.5q-29 -10.5 -48.5 -29q-19.5 -18.5 -29 -43.5q-9.5 -25 -9.5 -53v-238q0 -28 9.5 -53q9.5 -25 29 -43.5q19.5 -18.5 48.5 -29q29 -10.5 68 -10.5zt0 0zM345 -15q-63 0 -114 17q-51 17 -86.5 49.5q-35.5 32.5 -55 79q-19.5 46.5 -19.5 106.5v226q0 60 19.5 106.5q19.5 46.5 55 79q35.5 32.5 86.5 49.5q51 17 114 17q63 0 114 -17q51 -17 86.5 -49.5q35.5 -32.5 55 -79q19.5 -46.5 19.5 -106.5v-226q0 -60 -19.5 -106.5q-19.5 -46.5 -55 -79q-35.5 -32.5 -86.5 -49.5q-51 -17 -114 -17zt0 0zM181 886h118v-118h-118zM393 886h117v-118l-117 0z" horiz-adv-x="690" unicode="Ö"/><glyph d="M60 161l148 149l-148 149l71 71l148 -149l149 149l71 -71l-149 -149l149 -149l-71 -71l-149 149l-148 -149z" horiz-adv-x="559" unicode="×"/><glyph d="M158 -60l28 82q-56 31 -86 85.5q-30 54.5 -30 129.5v226q0 60 19.5 106.5q19.5 46.5 55 79q35.5 32.5 86.5 49.5q51 17 114 17q37 0 72 -6l30 91h88v-40l-28 -84q54 -32 83.5 -85.5q29.5 -53.5 29.5 -127.5v-226q0 -60 -19.5 -106.5q-19.5 -46.5 -55 -79q-35.5 -32.5 -86.5 -49.5q-51 -17 -114 -17q-37 0 -68 6l-31 -91h-88zM384 601q-9 2 -18.5 3q-9.5 1 -20.5 1q-39 0 -68 -10.5q-29 -10.5 -48.5 -29q-19.5 -18.5 -29 -43.5q-9.5 -25 -9.5 -53v-238q0 -59 38 -96zM345 95q39 0 68 10.5q29 10.5 48.5 29q19.5 18.5 29 43.5q9.5 25 9.5 53v238q0 55 -36 93l-154 -464q16 -3 35 -3z" horiz-adv-x="690" unicode="Ø"/><glyph d="M610 700v-472q0 -57 -18.5 -102.5q-18.5 -45.5 -53 -76.5q-34.5 -31 -83.5 -47.5q-49 -16.5 -110 -16.5q-61 0 -110 16.5q-49 16.5 -83.5 47.5q-34.5 31 -53 76.5q-18.5 45.5 -18.5 102.5v472h120v-478q0 -26 9 -49.5q9 -23.5 27 -40.5q18 -17 45.5 -27q27.5 -10 63.5 -10q36 0 63.5 10q27.5 10 45.5 27q18 17 27 40.5q9 23.5 9 49.5v478zM221 872v41h106l86 -151l-95 0z" horiz-adv-x="690" unicode="Ù"/><glyph d="M610 700v-472q0 -57 -18.5 -102.5q-18.5 -45.5 -53 -76.5q-34.5 -31 -83.5 -47.5q-49 -16.5 -110 -16.5q-61 0 -110 16.5q-49 16.5 -83.5 47.5q-34.5 31 -53 76.5q-18.5 45.5 -18.5 102.5v472h120v-478q0 -26 9 -49.5q9 -23.5 27 -40.5q18 -17 45.5 -27q27.5 -10 63.5 -10q36 0 63.5 10q27.5 10 45.5 27q18 17 27 40.5q9 23.5 9 49.5v478zM370 913h106v-41l-96 -110l-96 0z" horiz-adv-x="690" unicode="Ú"/><glyph d="M610 700v-472q0 -57 -18.5 -102.5q-18.5 -45.5 -53 -76.5q-34.5 -31 -83.5 -47.5q-49 -16.5 -110 -16.5q-61 0 -110 16.5q-49 16.5 -83.5 47.5q-34.5 31 -53 76.5q-18.5 45.5 -18.5 102.5v472h120v-478q0 -26 9 -49.5q9 -23.5 27 -40.5q18 -17 45.5 -27q27.5 -10 63.5 -10q36 0 63.5 10q27.5 10 45.5 27q18 17 27 40.5q9 23.5 9 49.5v478zM192 800l106 113h95l106 -113v-38h-90l-64 72l-65 -72l-88 0z" horiz-adv-x="690" unicode="Û"/><glyph d="M610 700v-472q0 -57 -18.5 -102.5q-18.5 -45.5 -53 -76.5q-34.5 -31 -83.5 -47.5q-49 -16.5 -110 -16.5q-61 0 -110 16.5q-49 16.5 -83.5 47.5q-34.5 31 -53 76.5q-18.5 45.5 -18.5 102.5v472h120v-478q0 -26 9 -49.5q9 -23.5 27 -40.5q18 -17 45.5 -27q27.5 -10 63.5 -10q36 0 63.5 10q27.5 10 45.5 27q18 17 27 40.5q9 23.5 9 49.5v478zM181 886h118v-118h-118zM393 886h117v-118l-117 0z" horiz-adv-x="690" unicode="Ü"/><glyph d="M247 277l-237 383v40h118l180 -310l186 310h110v-40l-237 -378v-282h-120zM335 913h106v-41l-96 -110l-96 0z" horiz-adv-x="614" unicode="Ý"/><glyph d="M90 700h120v-132h183q94 0 145.5 -58q51.5 -58 51.5 -157q0 -99 -51.5 -157q-51.5 -58 -145.5 -58h-183v-138h-120zM372 243q39 0 67.5 27q28.5 27 28.5 83q0 56 -28.5 83q-28.5 27 -67.5 27h-162l0 -220z" horiz-adv-x="635" unicode="Þ"/><glyph d="M80 465q0 116 58.5 179q58.5 63 162.5 63q51 0 90.5 -14q39.5 -14 67 -38.5q27.5 -24.5 41.5 -57q14 -32.5 14 -69.5q0 -53 -17.5 -87.5q-17.5 -34.5 -57.5 -54.5q22 -8 42 -24.5q20 -16.5 35 -39q15 -22.5 24 -50.5q9 -28 9 -60q0 -50 -16 -89q-16 -39 -46 -66.5q-30 -27.5 -72 -42q-42 -14.5 -94 -14.5q-21 0 -37 1.5q-16 1.5 -26 3.5l0 98q8 -1 17 -2q8 -1 17.5 -1q9.5 0 20.5 0q33 0 57 9.5q24 9.5 39 26q15 16.5 22.5 38q7.5 21.5 7.5 45.5q0 57 -33 87q-33 30 -92 30h-47v94h38q49 0 71.5 23q22.5 23 22.5 67q0 36 -23 61.5q-23 25.5 -74 25.5q-55 0 -83.5 -34q-28.5 -34 -28.5 -97v-476l-110 0z" horiz-adv-x="599" unicode="ß"/><glyph d="M219 -12q-35 0 -66.5 9.5q-31.5 9.5 -55.5 28.5q-24 19 -38 48q-14 29 -14 67q0 81 53 124q53 43 162 43h114v41q0 38 -23.5 60.5q-23.5 22.5 -74.5 22.5q-51 0 -74.5 -21q-23.5 -21 -23.5 -53l-107 0q0 37 12.5 69q12.5 32 37.5 55.5q25 23.5 63.5 36.5q38.5 13 91.5 13q52 0 91.5 -13q39.5 -13 65 -36.5q25.5 -23.5 38.5 -56q13 -32.5 13 -70.5v-356h-64l-42 58q-23 -27 -63 -48.5q-40 -21.5 -96 -21.5zt0 0zM241 88q43 0 76 16.5q33 16.5 57 42.5l0 77h-114q-30 0 -50.5 -6q-20.5 -6 -32.5 -16q-12 -10 -17 -23q-5 -13 -5 -26q0 -33 23.5 -49q23.5 -16 62.5 -16zt0 0zM171 692v38h99l80 -140l-89 0z" horiz-adv-x="559" unicode="à"/><glyph d="M219 -12q-35 0 -66.5 9.5q-31.5 9.5 -55.5 28.5q-24 19 -38 48q-14 29 -14 67q0 81 53 124q53 43 162 43h114v41q0 38 -23.5 60.5q-23.5 22.5 -74.5 22.5q-51 0 -74.5 -21q-23.5 -21 -23.5 -53l-107 0q0 37 12.5 69q12.5 32 37.5 55.5q25 23.5 63.5 36.5q38.5 13 91.5 13q52 0 91.5 -13q39.5 -13 65 -36.5q25.5 -23.5 38.5 -56q13 -32.5 13 -70.5v-356h-64l-42 58q-23 -27 -63 -48.5q-40 -21.5 -96 -21.5zt0 0zM241 88q43 0 76 16.5q33 16.5 57 42.5l0 77h-114q-30 0 -50.5 -6q-20.5 -6 -32.5 -16q-12 -10 -17 -23q-5 -13 -5 -26q0 -33 23.5 -49q23.5 -16 62.5 -16zt0 0zM299 730h99v-38l-90 -102l-89 0z" horiz-adv-x="559" unicode="á"/><glyph d="M219 -12q-35 0 -66.5 9.5q-31.5 9.5 -55.5 28.5q-24 19 -38 48q-14 29 -14 67q0 81 53 124q53 43 162 43h114v41q0 38 -23.5 60.5q-23.5 22.5 -74.5 22.5q-51 0 -74.5 -21q-23.5 -21 -23.5 -53l-107 0q0 37 12.5 69q12.5 32 37.5 55.5q25 23.5 63.5 36.5q38.5 13 91.5 13q52 0 91.5 -13q39.5 -13 65 -36.5q25.5 -23.5 38.5 -56q13 -32.5 13 -70.5v-356h-64l-42 58q-23 -27 -63 -48.5q-40 -21.5 -96 -21.5zt0 0zM241 88q43 0 76 16.5q33 16.5 57 42.5l0 77h-114q-30 0 -50.5 -6q-20.5 -6 -32.5 -16q-12 -10 -17 -23q-5 -13 -5 -26q0 -33 23.5 -49q23.5 -16 62.5 -16zt0 0zM131 625l99 105h88l99 -105v-35h-84l-60 67l-60 -67l-82 0z" horiz-adv-x="559" unicode="â"/><glyph d="M219 -12q-35 0 -66.5 9.5q-31.5 9.5 -55.5 28.5q-24 19 -38 48q-14 29 -14 67q0 81 53 124q53 43 162 43h114v41q0 38 -23.5 60.5q-23.5 22.5 -74.5 22.5q-51 0 -74.5 -21q-23.5 -21 -23.5 -53l-107 0q0 37 12.5 69q12.5 32 37.5 55.5q25 23.5 63.5 36.5q38.5 13 91.5 13q52 0 91.5 -13q39.5 -13 65 -36.5q25.5 -23.5 38.5 -56q13 -32.5 13 -70.5v-356h-64l-42 58q-23 -27 -63 -48.5q-40 -21.5 -96 -21.5zt0 0zM241 88q43 0 76 16.5q33 16.5 57 42.5l0 77h-114q-30 0 -50.5 -6q-20.5 -6 -32.5 -16q-12 -10 -17 -23q-5 -13 -5 -26q0 -33 23.5 -49q23.5 -16 62.5 -16zt0 0zM109 634q23 44 49.5 71q26.5 27 59.5 27q22 0 40 -6.5q18 -6.5 32 -16.5l16 -11q13 -9 25 -14.5q12 -5.5 25 -5.5q11 0 22 10q11 10 29 39l66 -40q-23 -44 -49.5 -71q-26.5 -27 -59.5 -27q-19 0 -35.5 5.5q-16.5 5.5 -28.5 13.5l-17 10q-16 9 -29.5 17q-13.5 8 -27.5 8q-11 0 -22 -10q-11 -10 -29 -39z" horiz-adv-x="559" unicode="ã"/><glyph d="M219 -12q-35 0 -66.5 9.5q-31.5 9.5 -55.5 28.5q-24 19 -38 48q-14 29 -14 67q0 81 53 124q53 43 162 43h114v41q0 38 -23.5 60.5q-23.5 22.5 -74.5 22.5q-51 0 -74.5 -21q-23.5 -21 -23.5 -53l-107 0q0 37 12.5 69q12.5 32 37.5 55.5q25 23.5 63.5 36.5q38.5 13 91.5 13q52 0 91.5 -13q39.5 -13 65 -36.5q25.5 -23.5 38.5 -56q13 -32.5 13 -70.5v-356h-64l-42 58q-23 -27 -63 -48.5q-40 -21.5 -96 -21.5zt0 0zM241 88q43 0 76 16.5q33 16.5 57 42.5l0 77h-114q-30 0 -50.5 -6q-20.5 -6 -32.5 -16q-12 -10 -17 -23q-5 -13 -5 -26q0 -33 23.5 -49q23.5 -16 62.5 -16zt0 0zM121 705h110v-110h-110zM318 705h110v-110l-110 0z" horiz-adv-x="559" unicode="ä"/><glyph d="M219 -12q-35 0 -66.5 9.5q-31.5 9.5 -55.5 28.5q-24 19 -38 48q-14 29 -14 67q0 81 53 124q53 43 162 43h114v41q0 38 -23.5 60.5q-23.5 22.5 -74.5 22.5q-51 0 -74.5 -21q-23.5 -21 -23.5 -53l-107 0q0 37 12.5 69q12.5 32 37.5 55.5q25 23.5 63.5 36.5q38.5 13 91.5 13q52 0 91.5 -13q39.5 -13 65 -36.5q25.5 -23.5 38.5 -56q13 -32.5 13 -70.5v-356h-64l-42 58q-23 -27 -63 -48.5q-40 -21.5 -96 -21.5zt0 0zM241 88q43 0 76 16.5q33 16.5 57 42.5l0 77h-114q-30 0 -50.5 -6q-20.5 -6 -32.5 -16q-12 -10 -17 -23q-5 -13 -5 -26q0 -33 23.5 -49q23.5 -16 62.5 -16zt0 0zM277 627q17 0 30 12q13 12 13 29q0 17 -13 29q-13 12 -30 12q-17 0 -30 -12q-13 -12 -13 -29q0 -17 13 -29q13 -12 30 -12zt0 0zM277 567q-22 0 -41.5 8q-19.5 8 -34.5 21.5q-15 13.5 -23.5 32q-8.5 18.5 -8.5 39.5q0 21 8.5 39.5q8.5 18.5 23.5 32q15 13.5 34.5 21.5q19.5 8 41.5 8q22 0 41.5 -8q19.5 -8 34.5 -21.5q15 -13.5 23.5 -32q8.5 -18.5 8.5 -39.5q0 -21 -8.5 -39.5q-8.5 -18.5 -23.5 -32q-15 -13.5 -34.5 -21.5t-41.5 -8z" horiz-adv-x="559" unicode="å"/><glyph d="M219 -12q-36 0 -67.5 9.5q-31.5 9.5 -55.5 28.5q-24 19 -37.5 48q-13.5 29 -13.5 67q0 81 53 124q53 43 162 43h114v41q0 38 -23.5 60.5q-23.5 22.5 -74.5 22.5q-51 0 -74.5 -21q-23.5 -21 -23.5 -53l-107 0q0 37 12.5 69q12.5 32 37.5 55.5q25 23.5 63.5 36.5q38.5 13 91.5 13q54 0 93.5 -14q39.5 -14 65.5 -38q29 25 69.5 38.5q40.5 13.5 91.5 13.5q98 0 156 -50q58 -50 58 -141v-117h-326v-43q0 -41 27.5 -67q27.5 -26 84.5 -26q46 0 71 18.5q25 18.5 32 50.5l110 0q-8 -79 -62.5 -124q-54.5 -45 -150.5 -45q-70 0 -121 24q-51 24 -77 69q-26 -36 -71 -64.5q-45 -28.5 -108 -28.5zt0 0zM241 88q43 0 76 16.5q33 16.5 57 42.5l0 77h-114q-30 0 -50.5 -6q-20.5 -6 -32.5 -16q-12 -10 -17 -23q-5 -13 -5 -26q0 -33 23.5 -49q23.5 -16 62.5 -16zt0 0zM700 308v33q0 41 -27 66q-27 25 -81 25q-54 0 -81 -25q-27 -25 -27 -66l0 -33z" horiz-adv-x="867" unicode="æ"/><glyph d="M138 -122l81 115q-76 13 -119 62.5q-43 49.5 -43 125.5v158q0 44 15 80q15 36 43.5 61q28.5 25 68.5 38.5q40 13.5 90 13.5q97 0 154.5 -50q57.5 -50 57.5 -141v-6h-110v6q0 41 -26 66q-26 25 -76 25q-55 0 -81 -25q-26 -25 -26 -66v-162q0 -41 26 -66q26 -25 81 -25q50 0 76 25q26 25 26 66v9h110v-7q0 -81 -48.5 -131.5q-48.5 -50.5 -128.5 -59.5l-72 -150l-99 0z" horiz-adv-x="539" unicode="ç"/><glyph d="M279 -12q-102 0 -162 50q-60 50 -60 141v160q0 44 15.5 80q15.5 36 44.5 61q29 25 70 38.5q41 13.5 92 13.5q98 0 156 -50q58 -50 58 -141v-117h-326v-43q0 -41 27.5 -67q27.5 -26 84.5 -26q46 0 71 18.5q25 18.5 32 50.5l110 0q-8 -79 -62.5 -124q-54.5 -45 -150.5 -45zt0 0zM383 308v33q0 41 -27 66q-27 25 -81 25q-54 0 -81 -25q-27 -25 -27 -66v-33zM174 692v38h99l80 -140l-89 0z" horiz-adv-x="550" unicode="è"/><glyph d="M279 -12q-102 0 -162 50q-60 50 -60 141v160q0 44 15.5 80q15.5 36 44.5 61q29 25 70 38.5q41 13.5 92 13.5q98 0 156 -50q58 -50 58 -141v-117h-326v-43q0 -41 27.5 -67q27.5 -26 84.5 -26q46 0 71 18.5q25 18.5 32 50.5l110 0q-8 -79 -62.5 -124q-54.5 -45 -150.5 -45zt0 0zM383 308v33q0 41 -27 66q-27 25 -81 25q-54 0 -81 -25q-27 -25 -27 -66v-33zM285 730h99v-38l-90 -102l-89 0z" horiz-adv-x="550" unicode="é"/><glyph d="M279 -12q-102 0 -162 50q-60 50 -60 141v160q0 44 15.5 80q15.5 36 44.5 61q29 25 70 38.5q41 13.5 92 13.5q98 0 156 -50q58 -50 58 -141v-117h-326v-43q0 -41 27.5 -67q27.5 -26 84.5 -26q46 0 71 18.5q25 18.5 32 50.5l110 0q-8 -79 -62.5 -124q-54.5 -45 -150.5 -45zt0 0zM383 308v33q0 41 -27 66q-27 25 -81 25q-54 0 -81 -25q-27 -25 -27 -66v-33zM135 625l99 105h88l99 -105v-35h-84l-60 67l-60 -67l-82 0z" horiz-adv-x="550" unicode="ê"/><glyph d="M279 -12q-102 0 -162 50q-60 50 -60 141v160q0 44 15.5 80q15.5 36 44.5 61q29 25 70 38.5q41 13.5 92 13.5q98 0 156 -50q58 -50 58 -141v-117h-326v-43q0 -41 27.5 -67q27.5 -26 84.5 -26q46 0 71 18.5q25 18.5 32 50.5l110 0q-8 -79 -62.5 -124q-54.5 -45 -150.5 -45zt0 0zM383 308v33q0 41 -27 66q-27 25 -81 25q-54 0 -81 -25q-27 -25 -27 -66v-33zM124 705h110v-110h-110zM321 705h110v-110l-110 0z" horiz-adv-x="550" unicode="ë"/><glyph d="M80 520h110v-520h-110zM3 690v38h99l80 -140l-89 0z" horiz-adv-x="270" unicode="ì"/><glyph d="M80 520h110v-520h-110zM170 730h99v-38l-90 -102l-89 0z" horiz-adv-x="270" unicode="í"/><glyph d="M80 520h110v-520h-110zM-8 625l99 105h88l99 -105v-35h-84l-60 67l-60 -67l-82 0z" horiz-adv-x="270" unicode="î"/><glyph d="M-18 705h110v-110h-110zM179 705h110v-110h-110zM80 520h110v-520l-110 0z" horiz-adv-x="270" unicode="ï"/><glyph d="M279 -12q-51 0 -92 13.5q-41 13.5 -70 38.5q-29 25 -44.5 61q-15.5 36 -15.5 80v105q0 49 14.5 85q14.5 36 40 59.5q25.5 23.5 60 35q34.5 11.5 73.5 11.5q48 0 74.5 -13.5q26.5 -13.5 47.5 -30.5l-78 96h-149v65h96l-47 59v52h99l86 -111h112v-65h-63q21 -30 36 -56q15 -26 24.5 -53.5q9.5 -27.5 13.5 -60q4 -32.5 4 -74.5v-106q0 -91 -60 -141q-60 -50 -162 -50zt0 0zM279 88q57 0 84.5 28.5q27.5 28.5 27.5 69.5v130q-21 24 -49.5 42.5q-28.5 18.5 -68.5 18.5q-46 0 -76 -26q-30 -26 -30 -73v-92q0 -41 27.5 -69.5t84.5 -28.5z" horiz-adv-x="558" unicode="ð"/><glyph d="M80 520h64l41 -58q23 27 60.5 48.5q37.5 21.5 93.5 21.5q40 0 73 -13q33 -13 57 -38q24 -25 37 -62q13 -37 13 -84v-335h-110v325q0 56 -28 81.5q-28 25.5 -67 25.5q-22 0 -41 -7q-19 -7 -35 -17q-16 -10 -28 -22q-12 -12 -20 -21l0 -365h-110zM131 634q23 44 49.5 71q26.5 27 59.5 27q22 0 40 -6.5q18 -6.5 32 -16.5l16 -11q13 -9 25 -14.5q12 -5.5 25 -5.5q11 0 22 10q11 10 29 39l66 -40q-23 -44 -49.5 -71q-26.5 -27 -59.5 -27q-19 0 -35.5 5.5q-16.5 5.5 -28.5 13.5l-17 10q-16 9 -29.5 17q-13.5 8 -27.5 8q-11 0 -22 -10q-11 -10 -29 -39z" horiz-adv-x="594" unicode="ñ"/><glyph d="M279 88q57 0 84.5 28.5q27.5 28.5 27.5 69.5v148q0 41 -27.5 69.5q-27.5 28.5 -84.5 28.5q-57 0 -84.5 -28.5q-27.5 -28.5 -27.5 -69.5v-148q0 -41 27.5 -69.5q27.5 -28.5 84.5 -28.5zt0 0zM279 -12q-56 0 -97.5 15q-41.5 15 -69 41q-27.5 26 -41.5 61q-14 35 -14 76v158q0 41 14 76q14 35 41.5 61q27.5 26 69 41q41.5 15 97.5 15q55 0 97 -15q42 -15 69.5 -41q27.5 -26 41.5 -61q14 -35 14 -76v-158q0 -41 -14 -76q-14 -35 -41.5 -61q-27.5 -26 -69.5 -41q-42 -15 -97 -15zt0 0zM159 692v38h99l80 -140l-89 0z" horiz-adv-x="558" unicode="ò"/><glyph d="M279 88q57 0 84.5 28.5q27.5 28.5 27.5 69.5v148q0 41 -27.5 69.5q-27.5 28.5 -84.5 28.5q-57 0 -84.5 -28.5q-27.5 -28.5 -27.5 -69.5v-148q0 -41 27.5 -69.5q27.5 -28.5 84.5 -28.5zt0 0zM279 -12q-56 0 -97.5 15q-41.5 15 -69 41q-27.5 26 -41.5 61q-14 35 -14 76v158q0 41 14 76q14 35 41.5 61q27.5 26 69 41q41.5 15 97.5 15q55 0 97 -15q42 -15 69.5 -41q27.5 -26 41.5 -61q14 -35 14 -76v-158q0 -41 -14 -76q-14 -35 -41.5 -61q-27.5 -26 -69.5 -41q-42 -15 -97 -15zt0 0zM297 730h99v-38l-90 -102l-89 0z" horiz-adv-x="558" unicode="ó"/><glyph d="M279 88q57 0 84.5 28.5q27.5 28.5 27.5 69.5v148q0 41 -27.5 69.5q-27.5 28.5 -84.5 28.5q-57 0 -84.5 -28.5q-27.5 -28.5 -27.5 -69.5v-148q0 -41 27.5 -69.5q27.5 -28.5 84.5 -28.5zt0 0zM279 -12q-56 0 -97.5 15q-41.5 15 -69 41q-27.5 26 -41.5 61q-14 35 -14 76v158q0 41 14 76q14 35 41.5 61q27.5 26 69 41q41.5 15 97.5 15q55 0 97 -15q42 -15 69.5 -41q27.5 -26 41.5 -61q14 -35 14 -76v-158q0 -41 -14 -76q-14 -35 -41.5 -61q-27.5 -26 -69.5 -41q-42 -15 -97 -15zt0 0zM136 625l99 105h88l99 -105v-35h-84l-60 67l-60 -67l-82 0z" horiz-adv-x="558" unicode="ô"/><glyph d="M279 88q57 0 84.5 28.5q27.5 28.5 27.5 69.5v148q0 41 -27.5 69.5q-27.5 28.5 -84.5 28.5q-57 0 -84.5 -28.5q-27.5 -28.5 -27.5 -69.5v-148q0 -41 27.5 -69.5q27.5 -28.5 84.5 -28.5zt0 0zM279 -12q-56 0 -97.5 15q-41.5 15 -69 41q-27.5 26 -41.5 61q-14 35 -14 76v158q0 41 14 76q14 35 41.5 61q27.5 26 69 41q41.5 15 97.5 15q55 0 97 -15q42 -15 69.5 -41q27.5 -26 41.5 -61q14 -35 14 -76v-158q0 -41 -14 -76q-14 -35 -41.5 -61q-27.5 -26 -69.5 -41q-42 -15 -97 -15zt0 0zM97 634q23 44 49.5 71q26.5 27 59.5 27q22 0 40 -6.5q18 -6.5 32 -16.5l16 -11q13 -9 25 -14.5q12 -5.5 25 -5.5q11 0 22 10q11 10 29 39l66 -40q-23 -44 -49.5 -71q-26.5 -27 -59.5 -27q-19 0 -35.5 5.5q-16.5 5.5 -28.5 13.5l-17 10q-16 9 -29.5 17q-13.5 8 -27.5 8q-11 0 -22 -10q-11 -10 -29 -39z" horiz-adv-x="558" unicode="õ"/><glyph d="M279 88q57 0 84.5 28.5q27.5 28.5 27.5 69.5v148q0 41 -27.5 69.5q-27.5 28.5 -84.5 28.5q-57 0 -84.5 -28.5q-27.5 -28.5 -27.5 -69.5v-148q0 -41 27.5 -69.5q27.5 -28.5 84.5 -28.5zt0 0zM279 -12q-56 0 -97.5 15q-41.5 15 -69 41q-27.5 26 -41.5 61q-14 35 -14 76v158q0 41 14 76q14 35 41.5 61q27.5 26 69 41q41.5 15 97.5 15q55 0 97 -15q42 -15 69.5 -41q27.5 -26 41.5 -61q14 -35 14 -76v-158q0 -41 -14 -76q-14 -35 -41.5 -61q-27.5 -26 -69.5 -41q-42 -15 -97 -15zt0 0zM125 705h110v-110h-110zM322 705h110v-110l-110 0z" horiz-adv-x="558" unicode="ö"/><glyph d="M216 197h127v-124h-127zM60 359h440v-92h-440zM216 553h127v-124l-127 0z" horiz-adv-x="560" unicode="÷"/><glyph d="M60 -74l57 116q-29 26 -43 61.5q-14 35.5 -14 77.5v158q0 41 14 76q14 35 41.5 61q27.5 26 69 41q41.5 15 97.5 15q38 0 73 -8l61 122h88v-52l-58 -116q29 -26 43.5 -61.5q14.5 -35.5 14.5 -77.5v-158q0 -41 -14 -76q-14 -35 -41.5 -61q-27.5 -26 -69.5 -41q-42 -15 -97 -15q-39 0 -74 8l-60 -122h-88zM317 428q-8 2 -16.5 3q-8.5 1 -18.5 1q-57 0 -84.5 -28.5q-27.5 -28.5 -27.5 -69.5v-148q0 -21 8 -40zM282 88q57 0 84.5 28.5q27.5 28.5 27.5 69.5v148q0 21 -9 41l-140 -283q15 -4 37 -4z" horiz-adv-x="564" unicode="ø"/><glyph d="M253 -12q-79 0 -128.5 51q-49.5 51 -49.5 146v335h110v-325q0 -56 27.5 -81.5q27.5 -25.5 66.5 -25.5q21 0 40 7q19 7 34.5 17q15.5 10 27.5 22q12 12 20 21l0 365h110v-520h-64l-42 58q-23 -27 -60 -48.5q-37 -21.5 -92 -21.5zt0 0zM191 692v38h99l80 -140l-89 0z" horiz-adv-x="591" unicode="ù"/><glyph d="M253 -12q-79 0 -128.5 51q-49.5 51 -49.5 146v335h110v-325q0 -56 27.5 -81.5q27.5 -25.5 66.5 -25.5q21 0 40 7q19 7 34.5 17q15.5 10 27.5 22q12 12 20 21l0 365h110v-520h-64l-42 58q-23 -27 -60 -48.5q-37 -21.5 -92 -21.5zt0 0zM298 730h99v-38l-90 -102l-89 0z" horiz-adv-x="591" unicode="ú"/><glyph d="M253 -12q-79 0 -128.5 51q-49.5 51 -49.5 146v335h110v-325q0 -56 27.5 -81.5q27.5 -25.5 66.5 -25.5q21 0 40 7q19 7 34.5 17q15.5 10 27.5 22q12 12 20 21l0 365h110v-520h-64l-42 58q-23 -27 -60 -48.5q-37 -21.5 -92 -21.5zt0 0zM152 625l99 105h88l99 -105v-35h-84l-60 67l-60 -67l-82 0z" horiz-adv-x="591" unicode="û"/><glyph d="M253 -12q-79 0 -128.5 51q-49.5 51 -49.5 146v335h110v-325q0 -56 27.5 -81.5q27.5 -25.5 66.5 -25.5q21 0 40 7q19 7 34.5 17q15.5 10 27.5 22q12 12 20 21l0 365h110v-520h-64l-42 58q-23 -27 -60 -48.5q-37 -21.5 -92 -21.5zt0 0zM142 705h110v-110h-110zM339 705h110v-110l-110 0z" horiz-adv-x="591" unicode="ü"/><glyph d="M153 -120l52 120l-185 468v52h102l137 -370l131 370h101v-52l-248 -628h-90zM277 730h99v-38l-90 -102l-89 0z" horiz-adv-x="511" unicode="ý"/><glyph d="M80 705h110v-236q19 23 55.5 43q36.5 20 90.5 20q39 0 73 -11.5q34 -11.5 59.5 -35q25.5 -23.5 40.5 -59.5q15 -36 15 -85v-162q0 -49 -15 -85q-15 -36 -40.5 -59.5q-25.5 -23.5 -59.5 -35q-34 -11.5 -73 -11.5q-54 0 -90.5 20q-36.5 20 -55.5 43l0 -211h-110zM316 88q40 0 69 26q29 26 29 73v146q0 47 -29 73q-29 26 -68 26q-42 0 -73 -21.5q-31 -21.5 -54 -45.5l0 -210q23 -24 53.5 -45.5t72.5 -21.5z" horiz-adv-x="589" unicode="þ"/><glyph d="M153 -120l52 120l-185 468v52h102l137 -370l131 370h101v-52l-248 -628h-90zM102 705h110v-110h-110zM299 705h110v-110l-110 0z" horiz-adv-x="511" unicode="ÿ"/><glyph d="M20 40l250 660h118l250 -660v-40h-118l-62 173h-264l-63 -173h-111zM422 273l-95 267l-97 -267zM165 876h329v-97l-329 0z" horiz-adv-x="658" unicode="Ā"/><glyph d="M219 -12q-35 0 -66.5 9.5q-31.5 9.5 -55.5 28.5q-24 19 -38 48q-14 29 -14 67q0 81 53 124q53 43 162 43h114v41q0 38 -23.5 60.5q-23.5 22.5 -74.5 22.5q-51 0 -74.5 -21q-23.5 -21 -23.5 -53l-107 0q0 37 12.5 69q12.5 32 37.5 55.5q25 23.5 63.5 36.5q38.5 13 91.5 13q52 0 91.5 -13q39.5 -13 65 -36.5q25.5 -23.5 38.5 -56q13 -32.5 13 -70.5v-356h-64l-42 58q-23 -27 -63 -48.5q-40 -21.5 -96 -21.5zt0 0zM241 88q43 0 76 16.5q33 16.5 57 42.5l0 77h-114q-30 0 -50.5 -6q-20.5 -6 -32.5 -16q-12 -10 -17 -23q-5 -13 -5 -26q0 -33 23.5 -49q23.5 -16 62.5 -16zt0 0zM127 695h307v-90l-307 0z" horiz-adv-x="559" unicode="ā"/><glyph d="M626 -160q-48 0 -75.5 19.5q-27.5 19.5 -27.5 53.5q0 18 12 40q12 22 39 47l-54 0l-62 173h-264l-63 -173h-111v40l250 660h118l250 -660v-40q-23 -18 -32.5 -32.5q-9.5 -14.5 -9.5 -28.5q0 -32 52 -32h34v-67zM422 273l-95 267l-97 -267z" horiz-adv-x="658" unicode="Ą"/><glyph d="M472 -160q-48 0 -75.5 19.5q-27.5 19.5 -27.5 53.5q0 18 12 40q12 22 39 47l-42 58q-23 -27 -63 -48.5q-40 -21.5 -96 -21.5q-35 0 -66.5 9.5q-31.5 9.5 -55.5 28.5q-24 19 -38 48q-14 29 -14 67q0 81 53 124q53 43 162 43h114v41q0 38 -23.5 60.5q-23.5 22.5 -74.5 22.5q-51 0 -74.5 -21q-23.5 -21 -23.5 -53l-107 0q0 37 12.5 69q12.5 32 37.5 55.5q25 23.5 63.5 36.5q38.5 13 91.5 13q52 0 91.5 -13q39.5 -13 65 -36.5q25.5 -23.5 38.5 -56q13 -32.5 13 -70.5v-356q-23 -18 -32.5 -32.5q-9.5 -14.5 -9.5 -28.5q0 -32 52 -32h34v-67zM241 88q43 0 76 16.5q33 16.5 57 42.5l0 77h-114q-30 0 -50.5 -6q-20.5 -6 -32.5 -16q-12 -10 -17 -23q-5 -13 -5 -26q0 -33 23.5 -49t62.5 -16z" horiz-adv-x="559" unicode="ą"/><glyph d="M342 -15q-131 0 -201.5 66q-70.5 66 -70.5 186v226q0 120 70.5 186q70.5 66 201.5 66q51 0 98 -14q47 -14 82.5 -43.5q35.5 -29.5 56.5 -75.5q21 -46 21 -109v-10h-120v10q0 35 -13 60q-13 25 -33.5 41q-20.5 16 -45 23.5q-24.5 7.5 -47.5 7.5q-78 0 -114.5 -35.5q-36.5 -35.5 -36.5 -98.5v-242q0 -63 36.5 -98.5q36.5 -35.5 114.5 -35.5q23 0 47.5 7.5q24.5 7.5 45 23.5q20.5 16 33.5 41q13 25 13 60v10h120v-10q0 -63 -21 -109q-21 -46 -56.5 -75.5q-35.5 -29.5 -82.5 -43.5q-47 -14 -98 -14zt0 0zM356 913h106v-41l-96 -110l-96 0z" horiz-adv-x="660" unicode="Ć"/><glyph d="M274 -12q-50 0 -90 13.5q-40 13.5 -68.5 38.5q-28.5 25 -43.5 61q-15 36 -15 80v158q0 44 15 80q15 36 43.5 61q28.5 25 68.5 38.5q40 13.5 90 13.5q97 0 154.5 -50q57.5 -50 57.5 -141v-6h-110v6q0 41 -26 66q-26 25 -76 25q-55 0 -81 -25q-26 -25 -26 -66v-162q0 -41 26 -66q26 -25 81 -25q50 0 76 25q26 25 26 66v9h110v-7q0 -44 -15.5 -80q-15.5 -36 -43.5 -61q-28 -25 -67 -38.5q-39 -13.5 -86 -13.5zt0 0zM309 730h99v-38l-90 -102l-89 0z" horiz-adv-x="539" unicode="ć"/><glyph d="M342 -15q-131 0 -201.5 66q-70.5 66 -70.5 186v226q0 120 70.5 186q70.5 66 201.5 66q51 0 98 -14q47 -14 82.5 -43.5q35.5 -29.5 56.5 -75.5q21 -46 21 -109v-10h-120v10q0 35 -13 60q-13 25 -33.5 41q-20.5 16 -45 23.5q-24.5 7.5 -47.5 7.5q-78 0 -114.5 -35.5q-36.5 -35.5 -36.5 -98.5v-242q0 -63 36.5 -98.5q36.5 -35.5 114.5 -35.5q23 0 47.5 7.5q24.5 7.5 45 23.5q20.5 16 33.5 41q13 25 13 60v10h120v-10q0 -63 -21 -109q-21 -46 -56.5 -75.5q-35.5 -29.5 -82.5 -43.5q-47 -14 -98 -14zt0 0zM184 876v37h90l65 -82l64 82h88v-37l-106 -113l-95 0z" horiz-adv-x="660" unicode="Č"/><glyph d="M274 -12q-50 0 -90 13.5q-40 13.5 -68.5 38.5q-28.5 25 -43.5 61q-15 36 -15 80v158q0 44 15 80q15 36 43.5 61q28.5 25 68.5 38.5q40 13.5 90 13.5q97 0 154.5 -50q57.5 -50 57.5 -141v-6h-110v6q0 41 -26 66q-26 25 -76 25q-55 0 -81 -25q-26 -25 -26 -66v-162q0 -41 26 -66q26 -25 81 -25q50 0 76 25q26 25 26 66v9h110v-7q0 -44 -15.5 -80q-15.5 -36 -43.5 -61q-28 -25 -67 -38.5q-39 -13.5 -86 -13.5zt0 0zM138 695v35h84l60 -77l60 77h82v-35l-99 -105l-88 0z" horiz-adv-x="539" unicode="č"/><glyph d="M340 105q38 0 67 10.5q29 10.5 48.5 28.5q19.5 18 29.5 42.5q10 24.5 10 52.5v222q0 28 -10 52.5q-10 24.5 -29.5 42.5q-19.5 18 -48.5 28.5q-29 10.5 -67 10.5h-130v-490zM90 700h250q63 0 114 -16q51 -16 86.5 -47q35.5 -31 55 -76q19.5 -45 19.5 -103v-216q0 -58 -19.5 -103q-19.5 -45 -55 -76q-35.5 -31 -86.5 -47q-51 -16 -114 -16h-250zM164 876v37h90l65 -82l64 82h88v-37l-106 -113l-95 0z" horiz-adv-x="685" unicode="Ď"/><glyph d="M249 -12q-37 0 -70.5 11.5q-33.5 11.5 -58.5 35q-25 23.5 -40 59.5q-15 36 -15 85v162q0 49 14.5 85q14.5 36 40 59.5q25.5 23.5 60 35q34.5 11.5 73.5 11.5q54 0 90.5 -20q36.5 -20 55.5 -43l0 236h110v-705h-64l-41 58q-23 -27 -61 -48.5q-38 -21.5 -94 -21.5zt0 0zM273 88q42 0 72.5 21.5q30.5 21.5 53.5 45.5l0 210q-23 24 -54 45.5q-31 21.5 -73 21.5q-39 0 -68 -26q-29 -26 -29 -73v-146q0 -47 29 -73q29 -26 69 -26zt0 0zM619 705h120v-50l-73 -160l-85 0z" horiz-adv-x="714" unicode="ď"/><glyph d="M90 700h449v-105h-329v-194h282v-100h-282v-196h330v-105h-450zM148 876h329v-97l-329 0z" horiz-adv-x="590" unicode="Ē"/><glyph d="M279 -12q-102 0 -162 50q-60 50 -60 141v160q0 44 15.5 80q15.5 36 44.5 61q29 25 70 38.5q41 13.5 92 13.5q98 0 156 -50q58 -50 58 -141v-117h-326v-43q0 -41 27.5 -67q27.5 -26 84.5 -26q46 0 71 18.5q25 18.5 32 50.5l110 0q-8 -79 -62.5 -124q-54.5 -45 -150.5 -45zt0 0zM383 308v33q0 41 -27 66q-27 25 -81 25q-54 0 -81 -25q-27 -25 -27 -66v-33zM126 695h307v-90l-307 0z" horiz-adv-x="550" unicode="ē"/><glyph d="M90 700h449v-105h-329v-194h282v-100h-282v-196h330v-105h-450zM252 886h118v-118l-118 0z" horiz-adv-x="590" unicode="Ė"/><glyph d="M279 -12q-102 0 -162 50q-60 50 -60 141v160q0 44 15.5 80q15.5 36 44.5 61q29 25 70 38.5q41 13.5 92 13.5q98 0 156 -50q58 -50 58 -141v-117h-326v-43q0 -41 27.5 -67q27.5 -26 84.5 -26q46 0 71 18.5q25 18.5 32 50.5l110 0q-8 -79 -62.5 -124q-54.5 -45 -150.5 -45zt0 0zM383 308v33q0 41 -27 66q-27 25 -81 25q-54 0 -81 -25q-27 -25 -27 -66v-33zM226 705h110v-110l-110 0z" horiz-adv-x="550" unicode="ė"/><glyph d="M528 -160q-48 0 -75.5 19.5q-27.5 19.5 -27.5 53.5q0 18 12 40q12 22 39 47l-386 0v700h450v-105h-330v-195h282v-100h-282v-195h330v-105q-23 -18 -32.5 -32.5q-9.5 -14.5 -9.5 -28.5q0 -32 52 -32h34v-67l-56 0z" horiz-adv-x="600" unicode="Ę"/><glyph d="M381 -160q-48 0 -75.5 19.5q-27.5 19.5 -27.5 53.5q0 17 10 37q10 20 33 42q-8 -2 -20.5 -3q-12.5 -1 -21.5 -1q-102 0 -162 50q-60 50 -60 141v160q0 44 15.5 80q15.5 36 44.5 61q29 25 70 38.5q41 13.5 92 13.5q98 0 156 -50q58 -50 58 -141v-117h-326v-43q0 -41 27.5 -67q27.5 -26 84.5 -26q46 0 71 18.5q25 18.5 32 50.5l110 0q-3 -29 -13 -53q-10 -24 -24 -43q-14 -19 -30.5 -34q-16.5 -15 -31.5 -27q-42 -32 -42 -61q0 -32 52 -32h34v-67zM383 308v33q0 41 -27 66q-27 25 -81 25q-54 0 -81 -25q-27 -25 -27 -66l0 -33z" horiz-adv-x="550" unicode="ę"/><glyph d="M90 700h449v-105h-329v-194h282v-100h-282v-196h330v-105h-450zM164 876v37h90l65 -82l64 82h88v-37l-106 -113l-95 0z" horiz-adv-x="590" unicode="Ě"/><glyph d="M279 -12q-102 0 -162 50q-60 50 -60 141v160q0 44 15.5 80q15.5 36 44.5 61q29 25 70 38.5q41 13.5 92 13.5q98 0 156 -50q58 -50 58 -141v-117h-326v-43q0 -41 27.5 -67q27.5 -26 84.5 -26q46 0 71 18.5q25 18.5 32 50.5l110 0q-8 -79 -62.5 -124q-54.5 -45 -150.5 -45zt0 0zM383 308v33q0 41 -27 66q-27 25 -81 25q-54 0 -81 -25q-27 -25 -27 -66v-33zM136 695v35h84l60 -77l60 77h82v-35l-99 -105l-88 0z" horiz-adv-x="550" unicode="ě"/><glyph d="M283 -67h120v-50l-73 -160h-85zM331 -15q-121 0 -191 65q-70 65 -70 184v229q0 120 73 186q73 66 204 66q51 0 98.5 -14q47.5 -14 84 -43.5q36.5 -29.5 58.5 -74.5q22 -45 22 -106v-4h-120v4q0 58 -39 93q-39 35 -109 35q-70 0 -111 -35.5q-41 -35.5 -41 -98.5v-237q0 -66 38.5 -102.5q38.5 -36.5 109.5 -36.5q49 0 89 22q40 22 63 63l0 90h-138v100h258v-370h-65l-36 66q-66 -81 -178 -81z" horiz-adv-x="695" unicode="Ģ"/><glyph d="M294 -172q-49 0 -88.5 12q-39.5 12 -68 34q-28.5 22 -44 54q-15.5 32 -15.5 72l110 0q0 -12 6 -25q6 -13 18.5 -23.5q12.5 -10.5 32.5 -17q20 -6.5 49 -6.5q57 0 81 26.5q24 26.5 24 71.5v78q-19 -23 -55.5 -43q-36.5 -20 -90.5 -20q-39 0 -73.5 11.5q-34.5 11.5 -60 35q-25.5 23.5 -40 59.5q-14.5 36 -14.5 85v109q0 49 15 85q15 36 40 59.5q25 23.5 58.5 35q33.5 11.5 70.5 11.5q56 0 94 -21.5q38 -21.5 61 -48.5l41 58h64v-491q0 -51 -15.5 -89q-15.5 -38 -43.5 -62.5q-28 -24.5 -67.5 -37q-39.5 -12.5 -88.5 -12.5zt0 0zM277 141q41 0 71 20.5q30 20.5 51 44.5l0 161q-21 24 -51 44.5q-30 20.5 -71 20.5q-44 0 -73 -25q-29 -25 -29 -72v-97q0 -47 29 -72q29 -25 73 -25zt0 0zM356 586h-110v50l67 160l77 0z" horiz-adv-x="589" unicode="ģ"/><glyph d="M90 700h120v-700h-120zM-14 876h329v-97l-329 0z" horiz-adv-x="300" unicode="Ī"/><glyph d="M80 520h110v-520h-110zM-18 695h307v-90l-307 0z" horiz-adv-x="270" unicode="ī"/><glyph d="M198 -160q-48 0 -75.5 19.5q-27.5 19.5 -27.5 53.5q0 18 12 40q12 22 39 47l-56 0v700h120v-700q-23 -18 -32.5 -32.5q-9.5 -14.5 -9.5 -28.5q0 -32 52 -32h34v-67l-56 0z" horiz-adv-x="300" unicode="Į"/><glyph d="M178 -160q-48 0 -75.5 19.5q-27.5 19.5 -27.5 53.5q0 18 12 40q12 22 39 47l-46 0v520h110v-520q-23 -18 -32.5 -32.5q-9.5 -14.5 -9.5 -28.5q0 -32 52 -32h34v-67zM80 705h110v-110l-110 0z" horiz-adv-x="270" unicode="į"/><glyph d="M80 520h110v-520l-110 0z" horiz-adv-x="270" unicode="ı"/><glyph d="M90 700h120v-297h89l183 297h111v-40l-189 -303l203 -317v-40h-118l-190 298h-89v-298h-120zM281 -67h120v-50l-73 -160l-85 0z" horiz-adv-x="627" unicode="Ķ"/><glyph d="M80 705h110v-391h69l137 206h91v-52l-130 -196l145 -220v-52h-99l-145 218h-68v-218h-110zM226 -67h110v-50l-67 -160l-77 0z" horiz-adv-x="542" unicode="ķ"/><glyph d="M90 700h120v-595h335v-105h-455zM191 913h106v-41l-96 -110l-96 0z" horiz-adv-x="565" unicode="Ĺ"/><glyph d="M80 705h110v-705h-110zM171 896h99v-38l-90 -102l-89 0z" horiz-adv-x="270" unicode="ĺ"/><glyph d="M262 -67h120v-50l-73 -160h-85zM90 700h120v-595h335v-105l-455 0z" horiz-adv-x="565" unicode="Ļ"/><glyph d="M80 705h110v-705h-110zM80 -67h110v-50l-67 -160l-77 0z" horiz-adv-x="270" unicode="ļ"/><glyph d="M90 700h120v-595h335v-105h-455zM425 700h120v-50l-73 -160l-85 0z" horiz-adv-x="565" unicode="Ľ"/><glyph d="M80 705h110v-705h-110zM300 705h120v-50l-73 -160l-85 0z" horiz-adv-x="395" unicode="ľ"/><glyph d="M128 229l-68 -51h-40v100l108 81v341h120v-250l119 90h40v-100l-159 -120v-215h335v-105l-455 0z" horiz-adv-x="603" unicode="Ł"/><glyph d="M147 226l-95 -103h-52v84l147 160v338h110v-219l96 105h52v-84l-148 -161v-346l-110 0z" horiz-adv-x="405" unicode="ł"/><glyph d="M90 700h110l300 -477v477h120v-700h-110l-300 477v-477h-120zM360 913h106v-41l-96 -110l-96 0z" horiz-adv-x="710" unicode="Ń"/><glyph d="M80 520h64l41 -58q23 27 60.5 48.5q37.5 21.5 93.5 21.5q40 0 73 -13q33 -13 57 -38q24 -25 37 -62q13 -37 13 -84v-335h-110v325q0 56 -28 81.5q-28 25.5 -67 25.5q-22 0 -41 -7q-19 -7 -35 -17q-16 -10 -28 -22q-12 -12 -20 -21l0 -365h-110zM327 730h99v-38l-90 -102l-89 0z" horiz-adv-x="594" unicode="ń"/><glyph d="M90 700h110l300 -477v477h120v-700h-110l-300 477v-477h-120zM299 -67h120v-50l-73 -160l-85 0z" horiz-adv-x="710" unicode="Ņ"/><glyph d="M246 -67h110v-50l-67 -160h-77zM80 520h64l41 -58q23 27 60.5 48.5q37.5 21.5 93.5 21.5q40 0 73 -13q33 -13 57 -38q24 -25 37 -62q13 -37 13 -84v-335h-110v325q0 56 -28 81.5q-28 25.5 -67 25.5q-22 0 -41 -7q-19 -7 -35 -17q-16 -10 -28 -22q-12 -12 -20 -21l0 -365l-110 0z" horiz-adv-x="594" unicode="ņ"/><glyph d="M90 700h110l300 -477v477h120v-700h-110l-300 477v-477h-120zM200 876v37h90l65 -82l64 82h88v-37l-106 -113l-95 0z" horiz-adv-x="710" unicode="Ň"/><glyph d="M80 520h64l41 -58q23 27 60.5 48.5q37.5 21.5 93.5 21.5q40 0 73 -13q33 -13 57 -38q24 -25 37 -62q13 -37 13 -84v-335h-110v325q0 56 -28 81.5q-28 25.5 -67 25.5q-22 0 -41 -7q-19 -7 -35 -17q-16 -10 -28 -22q-12 -12 -20 -21l0 -365h-110zM159 695v35h84l60 -77l60 77h82v-35l-99 -105l-88 0z" horiz-adv-x="594" unicode="ň"/><glyph d="M345 95q39 0 68 10.5q29 10.5 48.5 29q19.5 18.5 29 43.5q9.5 25 9.5 53v238q0 28 -9.5 53q-9.5 25 -29 43.5q-19.5 18.5 -48.5 29q-29 10.5 -68 10.5q-39 0 -68 -10.5q-29 -10.5 -48.5 -29q-19.5 -18.5 -29 -43.5q-9.5 -25 -9.5 -53v-238q0 -28 9.5 -53q9.5 -25 29 -43.5q19.5 -18.5 48.5 -29q29 -10.5 68 -10.5zt0 0zM345 -15q-63 0 -114 17q-51 17 -86.5 49.5q-35.5 32.5 -55 79q-19.5 46.5 -19.5 106.5v226q0 60 19.5 106.5q19.5 46.5 55 79q35.5 32.5 86.5 49.5q51 17 114 17q63 0 114 -17q51 -17 86.5 -49.5q35.5 -32.5 55 -79q19.5 -46.5 19.5 -106.5v-226q0 -60 -19.5 -106.5q-19.5 -46.5 -55 -79q-35.5 -32.5 -86.5 -49.5q-51 -17 -114 -17zt0 0zM180 876h329v-97l-329 0z" horiz-adv-x="690" unicode="Ō"/><glyph d="M279 88q57 0 84.5 28.5q27.5 28.5 27.5 69.5v148q0 41 -27.5 69.5q-27.5 28.5 -84.5 28.5q-57 0 -84.5 -28.5q-27.5 -28.5 -27.5 -69.5v-148q0 -41 27.5 -69.5q27.5 -28.5 84.5 -28.5zt0 0zM279 -12q-56 0 -97.5 15q-41.5 15 -69 41q-27.5 26 -41.5 61q-14 35 -14 76v158q0 41 14 76q14 35 41.5 61q27.5 26 69 41q41.5 15 97.5 15q55 0 97 -15q42 -15 69.5 -41q27.5 -26 41.5 -61q14 -35 14 -76v-158q0 -41 -14 -76q-14 -35 -41.5 -61q-27.5 -26 -69.5 -41q-42 -15 -97 -15zt0 0zM126 695h307v-90l-307 0z" horiz-adv-x="558" unicode="ō"/><glyph d="M279 88q57 0 84.5 28.5q27.5 28.5 27.5 69.5v148q0 41 -27.5 69.5q-27.5 28.5 -84.5 28.5q-57 0 -84.5 -28.5q-27.5 -28.5 -27.5 -69.5v-148q0 -41 27.5 -69.5q27.5 -28.5 84.5 -28.5zt0 0zM279 -12q-56 0 -97.5 15q-41.5 15 -69 41q-27.5 26 -41.5 61q-14 35 -14 76v158q0 41 14 76q14 35 41.5 61q27.5 26 69 41q41.5 15 97.5 15q55 0 97 -15q42 -15 69.5 -41q27.5 -26 41.5 -61q14 -35 14 -76v-158q0 -41 -14 -76q-14 -35 -41.5 -61q-27.5 -26 -69.5 -41q-42 -15 -97 -15zt0 0zM281 585q-72 0 -116.5 35.5q-44.5 35.5 -44.5 101.5v12h94v-11q0 -26 16.5 -42q16.5 -16 50.5 -16q35 0 51.5 16q16.5 16 16.5 42v11h93v-12q0 -66 -44.5 -101.5t-116.5 -35.5z" horiz-adv-x="558" unicode="ŏ"/><glyph d="M345 95q39 0 68 10.5q29 10.5 48.5 29q19.5 18.5 29 43.5q9.5 25 9.5 53v238q0 28 -9.5 53q-9.5 25 -29 43.5q-19.5 18.5 -48.5 29q-29 10.5 -68 10.5q-39 0 -68 -10.5q-29 -10.5 -48.5 -29q-19.5 -18.5 -29 -43.5q-9.5 -25 -9.5 -53v-238q0 -28 9.5 -53q9.5 -25 29 -43.5q19.5 -18.5 48.5 -29q29 -10.5 68 -10.5zt0 0zM345 -15q-63 0 -114 17q-51 17 -86.5 49.5q-35.5 32.5 -55 79q-19.5 46.5 -19.5 106.5v226q0 60 19.5 106.5q19.5 46.5 55 79q35.5 32.5 86.5 49.5q51 17 114 17q63 0 114 -17q51 -17 86.5 -49.5q35.5 -32.5 55 -79q19.5 -46.5 19.5 -106.5v-226q0 -60 -19.5 -106.5q-19.5 -46.5 -55 -79q-35.5 -32.5 -86.5 -49.5q-51 -17 -114 -17zt0 0zM275 913h106v-40l-96 -110h-96zM462 913h106v-40l-97 -110l-95 0z" horiz-adv-x="690" unicode="Ő"/><glyph d="M279 88q57 0 84.5 28.5q27.5 28.5 27.5 69.5v148q0 41 -27.5 69.5q-27.5 28.5 -84.5 28.5q-57 0 -84.5 -28.5q-27.5 -28.5 -27.5 -69.5v-148q0 -41 27.5 -69.5q27.5 -28.5 84.5 -28.5zt0 0zM279 -12q-56 0 -97.5 15q-41.5 15 -69 41q-27.5 26 -41.5 61q-14 35 -14 76v158q0 41 14 76q14 35 41.5 61q27.5 26 69 41q41.5 15 97.5 15q55 0 97 -15q42 -15 69.5 -41q27.5 -26 41.5 -61q14 -35 14 -76v-158q0 -41 -14 -76q-14 -35 -41.5 -61q-27.5 -26 -69.5 -41q-42 -15 -97 -15zt0 0zM216 730h99v-38l-90 -102h-89zM390 730h99v-38l-90 -102l-89 0z" horiz-adv-x="558" unicode="ő"/><glyph d="M345 -15q-63 0 -114 17q-51 17 -86.5 49.5q-35.5 32.5 -55 79q-19.5 46.5 -19.5 106.5v226q0 60 19.5 106.5q19.5 46.5 55 79q35.5 32.5 86.5 49.5q51 17 114 17q45 0 84 -14q39 -14 71 -39l0 38h449v-105h-329v-194h282v-100h-282v-196h330v-105h-450v37q-32 -24 -71 -38q-39 -14 -84 -14zt0 0zM345 95q76 0 115.5 38q39.5 38 39.5 92v244q0 28 -9.5 53q-9.5 25 -29 43.5q-19.5 18.5 -48.5 29q-29 10.5 -68 10.5q-39 0 -68 -10.5q-29 -10.5 -48.5 -29q-19.5 -18.5 -29 -43.5q-9.5 -25 -9.5 -53v-238q0 -28 9.5 -53q9.5 -25 29 -43.5q19.5 -18.5 48.5 -29t68 -10.5z" horiz-adv-x="1000" unicode="Œ"/><glyph d="M279 -12q-56 0 -97.5 15q-41.5 15 -69 41q-27.5 26 -41.5 61q-14 35 -14 76v158q0 41 14 76q14 35 41.5 61q27.5 26 69 41q41.5 15 97.5 15q56 0 97.5 -15.5q41.5 -15.5 69.5 -41.5q29 27 71 42q42 15 96 15q98 0 156 -50q58 -50 58 -141v-117h-326v-47q0 -39 28.5 -64q28.5 -25 83.5 -25q46 0 71 18.5q25 18.5 32 50.5l110 0q-8 -79 -62.5 -124q-54.5 -45 -150.5 -45q-108 0 -168 55q-28 -26 -69 -40.5q-41 -14.5 -97 -14.5zt0 0zM279 88q57 0 84.5 28.5q27.5 28.5 27.5 69.5v148q0 41 -27.5 69.5q-27.5 28.5 -84.5 28.5q-57 0 -84.5 -28.5q-27.5 -28.5 -27.5 -69.5v-148q0 -41 27.5 -69.5q27.5 -28.5 84.5 -28.5zt0 0zM717 308v33q0 41 -27 66q-27 25 -81 25q-54 0 -81 -25q-27 -25 -27 -66l0 -33z" horiz-adv-x="884" unicode="œ"/><glyph d="M343 913h106v-41l-96 -110h-96zM90 700h301q104 0 157.5 -57q53.5 -57 53.5 -158q0 -69 -30 -122.5q-30 -53.5 -93 -79.5l131 -243v-40h-118l-144 269h-138v-269h-120zM369 371q53 0 82 26.5q29 26.5 29 85.5q0 59 -29 85.5q-29 26.5 -82 26.5h-159l0 -224z" horiz-adv-x="660" unicode="Ŕ"/><glyph d="M80 520h55l42 -58q22 25 58 47.5q36 22.5 85 22.5h20v-105h-15q-45 0 -77 -13q-32 -13 -58 -43l0 -371h-110zM228 730h99v-38l-90 -102l-89 0z" horiz-adv-x="370" unicode="ŕ"/><glyph d="M287 -67h120v-50l-73 -160h-85zM90 700h301q104 0 157.5 -57q53.5 -57 53.5 -158q0 -69 -30 -122.5q-30 -53.5 -93 -79.5l131 -243v-40h-118l-144 269h-138v-269h-120zM369 371q53 0 82 26.5q29 26.5 29 85.5q0 59 -29 85.5q-29 26.5 -82 26.5h-159l0 -224z" horiz-adv-x="660" unicode="Ŗ"/><glyph d="M80 -67h110v-50l-67 -160h-77zM80 520h55l42 -58q22 25 58 47.5q36 22.5 85 22.5h20v-105h-15q-45 0 -77 -13q-32 -13 -58 -43l0 -371l-110 0z" horiz-adv-x="370" unicode="ŗ"/><glyph d="M164 876v37h90l65 -82l64 82h88v-37l-106 -113h-95zM90 700h301q104 0 157.5 -57q53.5 -57 53.5 -158q0 -69 -30 -122.5q-30 -53.5 -93 -79.5l131 -243v-40h-118l-144 269h-138v-269h-120zM369 371q53 0 82 26.5q29 26.5 29 85.5q0 59 -29 85.5q-29 26.5 -82 26.5h-159l0 -224z" horiz-adv-x="660" unicode="Ř"/><glyph d="M80 520h55l42 -58q22 25 58 47.5q36 22.5 85 22.5h20v-105h-15q-45 0 -77 -13q-32 -13 -58 -43l0 -371h-110zM63 695v35h84l60 -77l60 77h82v-35l-99 -105l-88 0z" horiz-adv-x="370" unicode="ř"/><glyph d="M317 -15q-55 0 -104 14.5q-49 14.5 -86.5 44.5q-37.5 30 -59.5 75.5q-22 45.5 -22 107.5l120 0q0 -39 15 -64.5q15 -25.5 38.5 -40.5q23.5 -15 51.5 -21q28 -6 54 -6q65 0 98 26q33 26 33 65q0 21 -10.5 35.5q-10.5 14.5 -30.5 27q-20 12.5 -50.5 24.5q-30.5 12 -70.5 27l-16 6q-50 19 -89 37q-39 18 -67 41.5q-28 23.5 -42.5 53.5q-14.5 30 -14.5 73q0 46 17.5 83.5q17.5 37.5 50 64.5q32.5 27 79 41.5q46.5 14.5 105.5 14.5q55 0 103 -13q48 -13 82.5 -41.5q34.5 -28.5 54.5 -73.5q20 -45 20 -108l-120 0q0 35 -12 59q-12 24 -31.5 39q-19.5 15 -45 21.5q-25.5 6.5 -52.5 6.5q-60 0 -95 -24q-35 -24 -35 -61q0 -22 9 -37.5q9 -15.5 28 -27.5q19 -12 47.5 -23q28.5 -11 66.5 -24l14 -5q46 -17 88.5 -34.5q42.5 -17.5 74 -41.5q31.5 -24 50.5 -56.5q19 -32.5 19 -78.5q0 -44 -16.5 -82q-16.5 -38 -50 -66q-33.5 -28 -83 -43.5q-49.5 -15.5 -115.5 -15.5zt0 0zM337 913h106v-41l-96 -110l-96 0z" horiz-adv-x="642" unicode="Ś"/><glyph d="M278 -12q-52 0 -94 12.5q-42 12.5 -72 37q-30 24.5 -46 60q-16 35.5 -16 81.5l110 0q0 -45 35 -68q35 -23 92 -23q45 0 70.5 15.5q25.5 15.5 25.5 41.5q0 19 -12.5 32.5q-12.5 13.5 -44.5 21.5l-135 35q-24 6 -46.5 16q-22.5 10 -40 26q-17.5 16 -28 39.5q-10.5 23.5 -10.5 56.5q0 72 54 116q54 44 152 44q48 0 87 -12q39 -12 66.5 -35.5q27.5 -23.5 43 -58q15.5 -34.5 15.5 -80.5l-110 0q0 44 -30.5 65q-30.5 21 -78.5 21q-48 0 -68.5 -16.5q-20.5 -16.5 -20.5 -38.5q0 -35 57 -50l134 -33q27 -7 50.5 -17.5q23.5 -10.5 40 -27q16.5 -16.5 26 -40q9.5 -23.5 9.5 -55.5q0 -37 -15.5 -67.5q-15.5 -30.5 -43.5 -52.5q-28 -22 -67.5 -34q-39.5 -12 -88.5 -12zt0 0zM286 730h99v-38l-90 -102l-89 0z" horiz-adv-x="553" unicode="ś"/><glyph d="M278 -12q-52 0 -94 12.5q-42 12.5 -72 37q-30 24.5 -46 60q-16 35.5 -16 81.5l110 0q0 -45 35 -68q35 -23 92 -23q45 0 70.5 15.5q25.5 15.5 25.5 41.5q0 19 -12.5 32.5q-12.5 13.5 -44.5 21.5l-135 35q-24 6 -46.5 16q-22.5 10 -40 26q-17.5 16 -28 39.5q-10.5 23.5 -10.5 56.5q0 72 54 116q54 44 152 44q48 0 87 -12q39 -12 66.5 -35.5q27.5 -23.5 43 -58q15.5 -34.5 15.5 -80.5l-110 0q0 44 -30.5 65q-30.5 21 -78.5 21q-48 0 -68.5 -16.5q-20.5 -16.5 -20.5 -38.5q0 -35 57 -50l134 -33q27 -7 50.5 -17.5q23.5 -10.5 40 -27q16.5 -16.5 26 -40q9.5 -23.5 9.5 -55.5q0 -37 -15.5 -67.5q-15.5 -30.5 -43.5 -52.5q-28 -22 -67.5 -34q-39.5 -12 -88.5 -12zt0 0zM131 625l99 105h88l99 -105v-35h-84l-60 67l-60 -67l-82 0z" horiz-adv-x="553" unicode="ŝ"/><glyph d="M317 -15q-55 0 -104 14.5q-49 14.5 -86.5 44.5q-37.5 30 -59.5 75.5q-22 45.5 -22 107.5l120 0q0 -39 15 -64.5q15 -25.5 38.5 -40.5q23.5 -15 51.5 -21q28 -6 54 -6q65 0 98 26q33 26 33 65q0 21 -10.5 35.5q-10.5 14.5 -30.5 27q-20 12.5 -50.5 24.5q-30.5 12 -70.5 27l-16 6q-50 19 -89 37q-39 18 -67 41.5q-28 23.5 -42.5 53.5q-14.5 30 -14.5 73q0 46 17.5 83.5q17.5 37.5 50 64.5q32.5 27 79 41.5q46.5 14.5 105.5 14.5q55 0 103 -13q48 -13 82.5 -41.5q34.5 -28.5 54.5 -73.5q20 -45 20 -108l-120 0q0 35 -12 59q-12 24 -31.5 39q-19.5 15 -45 21.5q-25.5 6.5 -52.5 6.5q-60 0 -95 -24q-35 -24 -35 -61q0 -22 9 -37.5q9 -15.5 28 -27.5q19 -12 47.5 -23q28.5 -11 66.5 -24l14 -5q46 -17 88.5 -34.5q42.5 -17.5 74 -41.5q31.5 -24 50.5 -56.5q19 -32.5 19 -78.5q0 -44 -16.5 -82q-16.5 -38 -50 -66q-33.5 -28 -83 -43.5q-49.5 -15.5 -115.5 -15.5zt0 0zM167 876v37h90l65 -82l64 82h88v-37l-106 -113l-95 0z" horiz-adv-x="642" unicode="Š"/><glyph d="M278 -12q-52 0 -94 12.5q-42 12.5 -72 37q-30 24.5 -46 60q-16 35.5 -16 81.5l110 0q0 -45 35 -68q35 -23 92 -23q45 0 70.5 15.5q25.5 15.5 25.5 41.5q0 19 -12.5 32.5q-12.5 13.5 -44.5 21.5l-135 35q-24 6 -46.5 16q-22.5 10 -40 26q-17.5 16 -28 39.5q-10.5 23.5 -10.5 56.5q0 72 54 116q54 44 152 44q48 0 87 -12q39 -12 66.5 -35.5q27.5 -23.5 43 -58q15.5 -34.5 15.5 -80.5l-110 0q0 44 -30.5 65q-30.5 21 -78.5 21q-48 0 -68.5 -16.5q-20.5 -16.5 -20.5 -38.5q0 -35 57 -50l134 -33q27 -7 50.5 -17.5q23.5 -10.5 40 -27q16.5 -16.5 26 -40q9.5 -23.5 9.5 -55.5q0 -37 -15.5 -67.5q-15.5 -30.5 -43.5 -52.5q-28 -22 -67.5 -34q-39.5 -12 -88.5 -12zt0 0zM131 695v35h84l60 -77l60 77h82v-35l-99 -105l-88 0z" horiz-adv-x="553" unicode="š"/><glyph d="M223 595h-203v105h526v-105h-203v-595h-120zM130 876v37h90l65 -82l64 82h88v-37l-106 -113l-95 0z" horiz-adv-x="566" unicode="Ť"/><glyph d="M281 0q-54 0 -89.5 16q-35.5 16 -55.5 42q-20 26 -28 59.5q-8 33.5 -8 68.5v238h-80v96h80v108h110v-108h124v-96h-124v-239q0 -51 19.5 -70q19.5 -19 51.5 -19h53v-96h-53zM403 705h120v-50l-73 -160l-85 0z" horiz-adv-x="523" unicode="ť"/><glyph d="M610 700v-472q0 -57 -18.5 -102.5q-18.5 -45.5 -53 -76.5q-34.5 -31 -83.5 -47.5q-49 -16.5 -110 -16.5q-61 0 -110 16.5q-49 16.5 -83.5 47.5q-34.5 31 -53 76.5q-18.5 45.5 -18.5 102.5v472h120v-478q0 -26 9 -49.5q9 -23.5 27 -40.5q18 -17 45.5 -27q27.5 -10 63.5 -10q36 0 63.5 10q27.5 10 45.5 27q18 17 27 40.5q9 23.5 9 49.5v478zM181 876h329v-97l-329 0z" horiz-adv-x="690" unicode="Ū"/><glyph d="M253 -12q-79 0 -128.5 51q-49.5 51 -49.5 146v335h110v-325q0 -56 27.5 -81.5q27.5 -25.5 66.5 -25.5q21 0 40 7q19 7 34.5 17q15.5 10 27.5 22q12 12 20 21l0 365h110v-520h-64l-42 58q-23 -27 -60 -48.5q-37 -21.5 -92 -21.5zt0 0zM140 695h307v-90l-307 0z" horiz-adv-x="591" unicode="ū"/><glyph d="M610 700v-472q0 -57 -18.5 -102.5q-18.5 -45.5 -53 -76.5q-34.5 -31 -83.5 -47.5q-49 -16.5 -110 -16.5q-61 0 -110 16.5q-49 16.5 -83.5 47.5q-34.5 31 -53 76.5q-18.5 45.5 -18.5 102.5v472h120v-478q0 -26 9 -49.5q9 -23.5 27 -40.5q18 -17 45.5 -27q27.5 -10 63.5 -10q36 0 63.5 10q27.5 10 45.5 27q18 17 27 40.5q9 23.5 9 49.5v478zM346 803q18 0 32 13q14 13 14 31q0 18 -14 31q-14 13 -32 13q-18 0 -32 -13q-14 -13 -14 -31q0 -18 14 -31q14 -13 32 -13zt0 0zM346 738q-23 0 -44 9q-21 9 -37 23.5q-16 14.5 -25.5 34q-9.5 19.5 -9.5 42.5q0 22 9.5 42q9.5 20 25.5 34.5q16 14.5 37 23q21 8.5 44 8.5q24 0 44.5 -8.5q20.5 -8.5 37 -23q16.5 -14.5 25.5 -34.5q9 -20 9 -42q0 -23 -9 -42.5q-9 -19.5 -25.5 -34q-16.5 -14.5 -37 -23.5t-44.5 -9z" horiz-adv-x="690" unicode="Ů"/><glyph d="M253 -12q-79 0 -128.5 51q-49.5 51 -49.5 146v335h110v-325q0 -56 27.5 -81.5q27.5 -25.5 66.5 -25.5q21 0 40 7q19 7 34.5 17q15.5 10 27.5 22q12 12 20 21l0 365h110v-520h-64l-42 58q-23 -27 -60 -48.5q-37 -21.5 -92 -21.5zt0 0zM293 627q17 0 30 12q13 12 13 29q0 17 -13 29q-13 12 -30 12q-17 0 -30 -12q-13 -12 -13 -29q0 -17 13 -29q13 -12 30 -12zt0 0zM293 567q-22 0 -41.5 8q-19.5 8 -34.5 21.5q-15 13.5 -23.5 32q-8.5 18.5 -8.5 39.5q0 21 8.5 39.5q8.5 18.5 23.5 32q15 13.5 34.5 21.5q19.5 8 41.5 8q22 0 41.5 -8q19.5 -8 34.5 -21.5q15 -13.5 23.5 -32q8.5 -18.5 8.5 -39.5q0 -21 -8.5 -39.5q-8.5 -18.5 -23.5 -32q-15 -13.5 -34.5 -21.5t-41.5 -8z" horiz-adv-x="591" unicode="ů"/><glyph d="M610 700v-472q0 -57 -18.5 -102.5q-18.5 -45.5 -53 -76.5q-34.5 -31 -83.5 -47.5q-49 -16.5 -110 -16.5q-61 0 -110 16.5q-49 16.5 -83.5 47.5q-34.5 31 -53 76.5q-18.5 45.5 -18.5 102.5v472h120v-478q0 -26 9 -49.5q9 -23.5 27 -40.5q18 -17 45.5 -27q27.5 -10 63.5 -10q36 0 63.5 10q27.5 10 45.5 27q18 17 27 40.5q9 23.5 9 49.5v478zM270 913h106v-40l-96 -110h-96zM457 913h106v-40l-97 -110l-95 0z" horiz-adv-x="690" unicode="Ű"/><glyph d="M253 -12q-79 0 -128.5 51q-49.5 51 -49.5 146v335h110v-325q0 -56 27.5 -81.5q27.5 -25.5 66.5 -25.5q21 0 40 7q19 7 34.5 17q15.5 10 27.5 22q12 12 20 21l0 365h110v-520h-64l-42 58q-23 -27 -60 -48.5q-37 -21.5 -92 -21.5zt0 0zM226 730h99v-38l-90 -102h-89zM400 730h99v-38l-90 -102l-89 0z" horiz-adv-x="591" unicode="ű"/><glyph d="M482 -160q-48 0 -75.5 19.5q-27.5 19.5 -27.5 53.5q0 17 10.5 37.5q10.5 20.5 33.5 43.5q-38 -9 -78 -9q-50 0 -98 13q-48 13 -85 41.5q-37 28.5 -59.5 72q-22.5 43.5 -22.5 105.5v483h120v-483q0 -60 40 -91q40 -31 105 -31q66 0 105.5 29.5q39.5 29.5 39.5 92.5v483h120v-483q0 -44 -12.5 -79q-12.5 -35 -30.5 -61q-18 -26 -38 -45q-20 -19 -35 -32q-42 -34 -42 -61q0 -32 52 -32h34v-67l-56 0z" horiz-adv-x="690" unicode="Ų"/><glyph d="M499 -160q-48 0 -75.5 19.5q-27.5 19.5 -27.5 53.5q0 18 12 40q12 22 39 47l-42 58q-23 -27 -60 -48.5q-37 -21.5 -92 -21.5q-79 0 -128.5 51q-49.5 51 -49.5 146v335h110v-325q0 -56 27.5 -81.5q27.5 -25.5 66.5 -25.5q21 0 40 7q19 7 34.5 17q15.5 10 27.5 22q12 12 20 21l0 365h110v-520q-23 -18 -32.5 -32.5q-9.5 -14.5 -9.5 -28.5q0 -32 52 -32h34v-67l-56 0z" horiz-adv-x="591" unicode="ų"/><glyph d="M247 277l-237 383v40h118l180 -310l186 310h110v-40l-237 -378v-282h-120zM144 889h118v-118h-118zM355 889h118v-118l-118 0z" horiz-adv-x="614" unicode="Ÿ"/><glyph d="M40 104l358 491h-343v105h481v-103l-359 -492h369v-105h-506zM303 913h106v-41l-96 -110l-96 0z" horiz-adv-x="586" unicode="Ź"/><glyph d="M50 96l274 328h-265v96h397v-96l-276 -328h288v-96h-418zM263 730h99v-38l-90 -102l-89 0z" horiz-adv-x="528" unicode="ź"/><glyph d="M40 104l358 491h-343v105h481v-103l-359 -492h369v-105h-506zM232 886h118v-118l-118 0z" horiz-adv-x="586" unicode="Ż"/><glyph d="M50 96l274 328h-265v96h397v-96l-276 -328h288v-96h-418zM195 705h110v-110l-110 0z" horiz-adv-x="528" unicode="ż"/><glyph d="M40 104l358 491h-343v105h481v-103l-359 -492h369v-105h-506zM144 876v37h90l65 -82l64 82h88v-37l-106 -113l-95 0z" horiz-adv-x="586" unicode="Ž"/><glyph d="M50 96l274 328h-265v96h397v-96l-276 -328h288v-96h-418zM109 695v35h84l60 -77l60 77h82v-35l-99 -105l-88 0z" horiz-adv-x="528" unicode="ž"/><glyph d="M122 520l1 9q4 38 14.5 70.5q10.5 32.5 32 56.5q21.5 24 56.5 37.5q35 13.5 89 13.5q9 0 19 -0.5q10 -0.5 18 -1.5l0 -96h-23q-51 0 -71 -19q-20 -19 -25 -61l-1 -9h120v-96h-128l-32 -409q-3 -38 -12.5 -72q-9.5 -34 -29.5 -59.5q-20 -25.5 -52 -40.5q-32 -15 -80 -15q-9 0 -18.5 0q-9.5 0 -19.5 2l0 96h5q53 0 73 20.5q20 20.5 24 68.5l32 409h-72l0 96z" horiz-adv-x="372" unicode="ƒ"/><glyph d="M278 -12q-52 0 -94 12.5q-42 12.5 -72 37q-30 24.5 -46 60q-16 35.5 -16 81.5l110 0q0 -45 35 -68q35 -23 92 -23q45 0 70.5 15.5q25.5 15.5 25.5 41.5q0 19 -12.5 32.5q-12.5 13.5 -44.5 21.5l-135 35q-24 6 -46.5 16q-22.5 10 -40 26q-17.5 16 -28 39.5q-10.5 23.5 -10.5 56.5q0 72 54 116q54 44 152 44q48 0 87 -12q39 -12 66.5 -35.5q27.5 -23.5 43 -58q15.5 -34.5 15.5 -80.5l-110 0q0 44 -30.5 65q-30.5 21 -78.5 21q-48 0 -68.5 -16.5q-20.5 -16.5 -20.5 -38.5q0 -35 57 -50l134 -33q27 -7 50.5 -17.5q23.5 -10.5 40 -27q16.5 -16.5 26 -40q9.5 -23.5 9.5 -55.5q0 -37 -15.5 -67.5q-15.5 -30.5 -43.5 -52.5q-28 -22 -67.5 -34q-39.5 -12 -88.5 -12zt0 0zM223 -67h110v-50l-67 -160l-77 0z" horiz-adv-x="553" unicode="ș"/><glyph d="M60 625l99 105h88l99 -105v-35h-84l-60 67l-60 -67l-82 0z" horiz-adv-x="406" unicode="ˆ"/><glyph d="M60 695v35h84l60 -77l60 77h82v-35l-99 -105l-88 0z" horiz-adv-x="406" unicode="ˇ"/><glyph d="M203 571q-72 0 -116.5 35.5q-44.5 35.5 -44.5 101.5v12h94v-11q0 -26 16.5 -42q16.5 -16 50.5 -16q35 0 51.5 16q16.5 16 16.5 42v11h93v-12q0 -66 -44.5 -101.5t-116.5 -35.5z" horiz-adv-x="406" unicode="˘"/><glyph d="M60 705h110v-110l-110 0z" horiz-adv-x="230" unicode="˙"/><glyph d="M168 627q17 0 30 12q13 12 13 29q0 17 -13 29q-13 12 -30 12q-17 0 -30 -12q-13 -12 -13 -29q0 -17 13 -29q13 -12 30 -12zt0 0zM168 567q-22 0 -41.5 8q-19.5 8 -34.5 21.5q-15 13.5 -23.5 32q-8.5 18.5 -8.5 39.5q0 21 8.5 39.5q8.5 18.5 23.5 32q15 13.5 34.5 21.5q19.5 8 41.5 8q22 0 41.5 -8q19.5 -8 34.5 -21.5q15 -13.5 23.5 -32q8.5 -18.5 8.5 -39.5q0 -21 -8.5 -39.5q-8.5 -18.5 -23.5 -32q-15 -13.5 -34.5 -21.5t-41.5 -8z" horiz-adv-x="336" unicode="˚"/><glyph d="M153 -160q-48 0 -75.5 19.5q-27.5 19.5 -27.5 53.5q0 18 12 40q12 22 39 47l64 0q-23 -18 -32.5 -32.5q-9.5 -14.5 -9.5 -28.5q0 -32 52 -32h34v-67l-56 0z" horiz-adv-x="281" unicode="˛"/><glyph d="M60 634q23 44 49.5 71q26.5 27 59.5 27q22 0 40 -6.5q18 -6.5 32 -16.5l16 -11q13 -9 25 -14.5q12 -5.5 25 -5.5q11 0 22 10q11 10 29 39l66 -40q-23 -44 -49.5 -71q-26.5 -27 -59.5 -27q-19 0 -35.5 5.5q-16.5 5.5 -28.5 13.5l-17 10q-16 9 -29.5 17q-13.5 8 -27.5 8q-11 0 -22 -10q-11 -10 -29 -39z" horiz-adv-x="484" unicode="˜"/><glyph d="M140 730h99v-38l-90 -102h-89zM314 730h99v-38l-90 -102l-89 0z" horiz-adv-x="473" unicode="˝"/><glyph d="M70 105h97q-50 32 -65.5 76q-15.5 44 -15.5 97v185q0 60 19.5 106.5q19.5 46.5 55 79q35.5 32.5 86.5 49.5q51 17 114 17q63 0 114 -17q51 -17 86.5 -49.5q35.5 -32.5 55 -79q19.5 -46.5 19.5 -106.5v-185q0 -53 -15.5 -97q-15.5 -44 -65.5 -76l97 0v-105h-238v110q28 7 47.5 24q19.5 17 31.5 40q12 23 17.5 49.5q5.5 26.5 5.5 52.5v193q0 28 -9.5 53q-9.5 25 -29 43.5q-19.5 18.5 -48.5 29q-29 10.5 -68 10.5q-39 0 -68 -10.5q-29 -10.5 -48.5 -29q-19.5 -18.5 -29 -43.5q-9.5 -25 -9.5 -53v-193q0 -26 5.5 -52.5q5.5 -26.5 17.5 -49.5q12 -23 31.5 -40q19.5 -17 47.5 -24l0 -110l-238 0z" horiz-adv-x="722" unicode="Ω"/><glyph d="M130 424h-100v96h634v-96h-100v-424h-110v424h-214v-424l-110 0z" horiz-adv-x="694" unicode="π"/><glyph d="M90 700h449v-105h-329v-194h282v-100h-282v-196h330v-105h-450zM149 886h118v-118h-118zM361 886h117v-118l-117 0z" horiz-adv-x="590" unicode="Ё"/><glyph d="M194 595h-174v105h526v-105h-232v-174q37 7 69.5 9.5q32.5 2.5 63.5 2.5q63 0 111 -16q48 -16 80.5 -44.5q32.5 -28.5 48.5 -68.5q16 -40 16 -88q0 -49 -13.5 -89q-13.5 -40 -39.5 -68q-26 -28 -65 -43.5q-39 -15.5 -90 -15.5h-66v105h50q53 0 77.5 29.5q24.5 29.5 24.5 79.5q0 54 -38.5 81.5q-38.5 27.5 -104.5 27.5q-37 0 -64.5 -3q-27.5 -3 -59.5 -8l0 -312l-120 0z" horiz-adv-x="748" unicode="Ђ"/><glyph d="M90 700h435v-105h-315v-595h-120zM323 913h106v-41l-96 -110l-96 0z" horiz-adv-x="565" unicode="Ѓ"/><glyph d="M347 -15q53 0 99 16q46 16 80.5 46.5q34.5 30.5 54.5 75.5q20 45 20 104l-111 0q0 -35 -14 -60q-14 -25 -35 -41q-21 -16 -46.5 -23.5q-25.5 -7.5 -48.5 -7.5q-78 0 -117 35.5q-39 35.5 -39 98.5v71h243v100h-243v71q0 63 39 98.5q39 35.5 117 35.5q28 0 54 -9q26 -9 46 -26q20 -17 32 -41.5q12 -24.5 12 -55.5l111 0q0 63 -21.5 109q-21.5 46 -57.5 75.5q-36 29.5 -81.5 43.5q-45.5 14 -93.5 14q-131 0 -204 -66q-73 -66 -73 -186v-226q0 -120 73 -186t204 -66z" horiz-adv-x="661" unicode="Є"/><glyph d="M317 -15q-55 0 -104 14.5q-49 14.5 -86.5 44.5q-37.5 30 -59.5 75.5q-22 45.5 -22 107.5l120 0q0 -39 15 -64.5q15 -25.5 38.5 -40.5q23.5 -15 51.5 -21q28 -6 54 -6q65 0 98 26q33 26 33 65q0 21 -10.5 35.5q-10.5 14.5 -30.5 27q-20 12.5 -50.5 24.5q-30.5 12 -70.5 27l-16 6q-50 19 -89 37q-39 18 -67 41.5q-28 23.5 -42.5 53.5q-14.5 30 -14.5 73q0 46 17.5 83.5q17.5 37.5 50 64.5q32.5 27 79 41.5q46.5 14.5 105.5 14.5q55 0 103 -13q48 -13 82.5 -41.5q34.5 -28.5 54.5 -73.5q20 -45 20 -108l-120 0q0 35 -12 59q-12 24 -31.5 39q-19.5 15 -45 21.5q-25.5 6.5 -52.5 6.5q-60 0 -95 -24q-35 -24 -35 -61q0 -22 9 -37.5q9 -15.5 28 -27.5q19 -12 47.5 -23q28.5 -11 66.5 -24l14 -5q46 -17 88.5 -34.5q42.5 -17.5 74 -41.5q31.5 -24 50.5 -56.5q19 -32.5 19 -78.5q0 -44 -16.5 -82q-16.5 -38 -50 -66q-33.5 -28 -83 -43.5t-115.5 -15.5z" horiz-adv-x="642" unicode="Ѕ"/><glyph d="M90 700h120v-700l-120 0z" horiz-adv-x="300" unicode="І"/><glyph d="M90 700h120v-700h-120zM-14 886h118v-118h-118zM198 886h117v-118l-117 0z" horiz-adv-x="300" unicode="Ї"/><glyph d="M260 -15q-51 0 -95 11.5q-44 11.5 -76.5 38q-32.5 26.5 -50.5 68.5q-18 42 -18 104v30h120v-30q0 -60 32.5 -86q32.5 -26 87.5 -26q24 0 45.5 6.5q21.5 6.5 38 20.5q16.5 14 26.5 36q10 22 10 53v489h120v-493q0 -60 -19 -102q-19 -42 -51.5 -68.5q-32.5 -26.5 -76 -39t-93.5 -12.5z" horiz-adv-x="580" unicode="Ј"/><glyph d="M259 326q0 -168 -56.5 -247q-56.5 -79 -161.5 -79h-23v110h19q32 0 53.5 13q21.5 13 34.5 42q13 29 18.5 77q5.5 48 5.5 119v339h437v-270h169q104 0 157.5 -58.5q53.5 -58.5 53.5 -156.5q0 -98 -53.5 -156.5q-53.5 -58.5 -157.5 -58.5h-289v595h-207zM753 105q45 0 68 29.5q23 29.5 23 80.5q0 51 -23 80.5q-23 29.5 -68 29.5h-167l0 -220z" horiz-adv-x="1011" unicode="Љ"/><glyph d="M90 700h120v-270h290v270h120v-270h169q104 0 157.5 -58.5q53.5 -58.5 53.5 -156.5q0 -98 -53.5 -156.5q-53.5 -58.5 -157.5 -58.5h-289v325h-290v-325h-120zM787 105q45 0 68 29.5q23 29.5 23 80.5q0 51 -23 80.5q-23 29.5 -68 29.5h-167l0 -220z" horiz-adv-x="1045" unicode="Њ"/><glyph d="M194 595h-174v105h526v-105h-232v-174q31 6 64 9q33 3 66 3q47 0 93 -8.5q46 -8.5 82.5 -32q36.5 -23.5 59 -64.5q22.5 -41 22.5 -105v-223h-120v209q0 55 -34 84.5q-34 29.5 -112 29.5q-35 0 -63.5 -3q-28.5 -3 -57.5 -9l0 -311l-120 0z" horiz-adv-x="761" unicode="Ћ"/><glyph d="M90 700h120v-297h89l183 297h111v-40l-189 -303l203 -317v-40h-118l-190 298h-89v-298h-120zM354 913h106v-41l-96 -110l-96 0z" horiz-adv-x="627" unicode="Ќ"/><glyph d="M164 40l75 165l-229 455v40h119l172 -360l156 360h112v-40l-296 -660h-109zM291 742q-72 0 -116.5 34q-44.5 34 -44.5 100v12h94v-11q0 -26 16.5 -42q16.5 -16 50.5 -16q35 0 51.5 16q16.5 16 16.5 42v11h93v-12q0 -66 -44.5 -100t-116.5 -34z" horiz-adv-x="579" unicode="Ў"/><glyph d="M297 0h-207v700h120v-595h284v595h120v-700h-207v-140l-110 0z" horiz-adv-x="704" unicode="Џ"/><glyph d="M20 40l250 660h118l250 -660v-40h-118l-62 173h-264l-63 -173h-111zM422 273l-95 267l-97 -267z" horiz-adv-x="658" unicode="А"/><glyph d="M90 700h480v-105h-360v-165h205q94 0 145.5 -58q51.5 -58 51.5 -157q0 -99 -51.5 -157q-51.5 -58 -145.5 -58h-325zM394 105q39 0 67.5 27q28.5 27 28.5 83q0 56 -28.5 83q-28.5 27 -67.5 27h-184l0 -220z" horiz-adv-x="662" unicode="Б"/><glyph d="M90 700h295q93 0 146.5 -46.5q53.5 -46.5 53.5 -141.5q0 -59 -22 -94q-22 -35 -62 -55q23 -8 43 -21q20 -13 35 -33.5q15 -20.5 24 -48.5q9 -28 9 -66q0 -97 -53 -145.5q-53 -48.5 -147 -48.5h-322zM392 105q100 0 100 96q0 48 -24.5 73.5q-24.5 25.5 -75.5 25.5h-182v-195zM365 400q50 0 74.5 25q24.5 25 24.5 73q0 97 -99 97h-155l0 -195z" horiz-adv-x="662" unicode="В"/><glyph d="M90 700h435v-105h-315v-595l-120 0z" horiz-adv-x="565" unicode="Г"/><glyph d="M25 105h54q15 19 29.5 42.5q14.5 23.5 25.5 56.5q11 33 18 78.5q7 45.5 7 108.5v309h431v-595h82v-245h-110v140h-427v-140h-110zM470 105v490h-201v-204q0 -61 -5.5 -105.5q-5.5 -44.5 -14 -77.5q-8.5 -33 -19.5 -57.5q-11 -24.5 -22 -45.5z" horiz-adv-x="707" unicode="Д"/><glyph d="M90 700h449v-105h-329v-194h282v-100h-282v-196h330v-105l-450 0z" horiz-adv-x="590" unicode="Е"/><glyph d="M404 298h-96l-156 -298h-121v40l173 316l-159 304v40h110l156 -297h93v297h120v-297h93l156 297h110v-40l-159 -304l173 -316v-40h-121l-156 298h-96v-298l-120 0z" horiz-adv-x="927" unicode="Ж"/><glyph d="M321 -15q-54 0 -103.5 14q-49.5 14 -86.5 43.5q-37 29.5 -59 75.5q-22 46 -22 109l120 0q0 -35 12.5 -60q12.5 -25 34 -41q21.5 -16 49.5 -23.5q28 -7.5 59 -7.5q62 0 95 27q33 27 33 79q0 50 -33 75.5q-33 25.5 -92 25.5h-93v100h93q51 0 80 24.5q29 24.5 29 71.5q0 45 -30 76q-30 31 -90 31q-26 0 -49.5 -7.5q-23.5 -7.5 -41.5 -23.5q-18 -16 -28.5 -41q-10.5 -25 -10.5 -60l-120 0q0 63 20 109q20 46 54 75.5q34 29.5 79.5 43.5q45.5 14 96.5 14q58 0 103 -15q45 -15 75.5 -42q30.5 -27 46.5 -64.5q16 -37.5 16 -82.5q0 -58 -27.5 -95.5q-27.5 -37.5 -67.5 -59.5q46 -17 78.5 -54.5q32.5 -37.5 32.5 -100.5q0 -49 -17 -88.5q-17 -39.5 -49 -68q-32 -28.5 -79.5 -44t-107.5 -15.5z" horiz-adv-x="624" unicode="З"/><glyph d="M90 700h120v-485l304 485h110v-700h-120v485l-304 -485l-110 0z" horiz-adv-x="714" unicode="И"/><glyph d="M90 700h120v-485l304 485h110v-700h-120v485l-304 -485h-110zM357 742q-72 0 -116.5 34q-44.5 34 -44.5 100v12h94v-11q0 -26 16.5 -42q16.5 -16 50.5 -16q35 0 51.5 16q16.5 16 16.5 42v11h93v-12q0 -66 -44.5 -100t-116.5 -34z" horiz-adv-x="714" unicode="Й"/><glyph d="M90 700h120v-297h89l183 297h111v-40l-189 -303l203 -317v-40h-118l-190 298h-89v-298l-120 0z" horiz-adv-x="627" unicode="К"/><glyph d="M10 110h19q32 0 53.5 13q21.5 13 34.5 42q13 29 18.5 77q5.5 48 5.5 119v339h437v-700h-120v595h-207v-269q0 -168 -56.5 -247q-56.5 -79 -161.5 -79l-23 0z" horiz-adv-x="668" unicode="Л"/><glyph d="M367 226l-161 261v-487h-116v700h116l201 -327l201 327h112v-700h-116v487l-160 -261z" horiz-adv-x="810" unicode="М"/><glyph d="M90 700h120v-297h290v297h120v-700h-120v298h-290v-298l-120 0z" horiz-adv-x="710" unicode="Н"/><glyph d="M345 95q39 0 68 10.5q29 10.5 48.5 29q19.5 18.5 29 43.5q9.5 25 9.5 53v238q0 28 -9.5 53q-9.5 25 -29 43.5q-19.5 18.5 -48.5 29q-29 10.5 -68 10.5q-39 0 -68 -10.5q-29 -10.5 -48.5 -29q-19.5 -18.5 -29 -43.5q-9.5 -25 -9.5 -53v-238q0 -28 9.5 -53q9.5 -25 29 -43.5q19.5 -18.5 48.5 -29q29 -10.5 68 -10.5zt0 0zM345 -15q-63 0 -114 17q-51 17 -86.5 49.5q-35.5 32.5 -55 79q-19.5 46.5 -19.5 106.5v226q0 60 19.5 106.5q19.5 46.5 55 79q35.5 32.5 86.5 49.5q51 17 114 17q63 0 114 -17q51 -17 86.5 -49.5q35.5 -32.5 55 -79q19.5 -46.5 19.5 -106.5v-226q0 -60 -19.5 -106.5q-19.5 -46.5 -55 -79q-35.5 -32.5 -86.5 -49.5t-114 -17z" horiz-adv-x="690" unicode="О"/><glyph d="M90 700h524v-700h-120v595h-284v-595l-120 0z" horiz-adv-x="704" unicode="П"/><glyph d="M90 700h303q94 0 145.5 -58q51.5 -58 51.5 -157q0 -99 -51.5 -157q-51.5 -58 -145.5 -58h-183v-270h-120zM372 375q39 0 67.5 27q28.5 27 28.5 83q0 56 -28.5 83q-28.5 27 -67.5 27h-162l0 -220z" horiz-adv-x="635" unicode="Р"/><glyph d="M342 -15q-131 0 -201.5 66q-70.5 66 -70.5 186v226q0 120 70.5 186q70.5 66 201.5 66q51 0 98 -14q47 -14 82.5 -43.5q35.5 -29.5 56.5 -75.5q21 -46 21 -109v-10h-120v10q0 35 -13 60q-13 25 -33.5 41q-20.5 16 -45 23.5q-24.5 7.5 -47.5 7.5q-78 0 -114.5 -35.5q-36.5 -35.5 -36.5 -98.5v-242q0 -63 36.5 -98.5q36.5 -35.5 114.5 -35.5q23 0 47.5 7.5q24.5 7.5 45 23.5q20.5 16 33.5 41q13 25 13 60v10h120v-10q0 -63 -21 -109q-21 -46 -56.5 -75.5q-35.5 -29.5 -82.5 -43.5t-98 -14z" horiz-adv-x="660" unicode="С"/><glyph d="M223 595h-203v105h526v-105h-203v-595l-120 0z" horiz-adv-x="566" unicode="Т"/><glyph d="M164 40l75 165l-229 455v40h119l172 -360l156 360h112v-40l-296 -660l-109 0z" horiz-adv-x="579" unicode="У"/><glyph d="M373 80h-45q-56 0 -106 16q-50 16 -88.5 46.5q-38.5 30.5 -61 76q-22.5 45.5 -22.5 105.5v72q0 60 22.5 105.5q22.5 45.5 61 76q38.5 30.5 88.5 46.5q50 16 106 16h45v80h120v-80h45q55 0 105.5 -16q50.5 -16 89 -46.5q38.5 -30.5 61 -76q22.5 -45.5 22.5 -105.5v-72q0 -60 -22.5 -105.5q-22.5 -45.5 -61 -76q-38.5 -30.5 -89 -46.5q-50.5 -16 -105.5 -16h-45v-92h-120zM373 185v350h-50q-35 0 -63.5 -11q-28.5 -11 -48.5 -30q-20 -19 -30.5 -45q-10.5 -26 -10.5 -55v-68q0 -29 10.5 -55q10.5 -26 30.5 -45q20 -19 48.5 -30q28.5 -11 63.5 -11zM543 185q35 0 63.5 11q28.5 11 48.5 30q20 19 30.5 45q10.5 26 10.5 55v68q0 29 -10.5 55q-10.5 26 -30.5 45q-20 19 -48.5 30q-28.5 11 -63.5 11h-50l0 -350z" horiz-adv-x="866" unicode="Ф"/><glyph d="M30 40l219 322l-202 298v40h122l155 -244l162 244h115v-40l-204 -297l221 -323v-40h-122l-175 266l-176 -266l-115 0z" horiz-adv-x="648" unicode="Х"/><glyph d="M580 0h-490v700h120v-595h278v595h120v-595h82v-245l-110 0z" horiz-adv-x="725" unicode="Ц"/><glyph d="M447 268q-64 -14 -130 -14q-47 0 -93 8.5q-46 8.5 -82.5 32q-36.5 23.5 -59 64q-22.5 40.5 -22.5 105.5v236h120v-222q0 -55 34 -84.5q34 -29.5 112 -29.5q35 0 63.5 3q28.5 3 57.5 11l0 322h120v-700l-120 0z" horiz-adv-x="657" unicode="Ч"/><glyph d="M90 700h120v-595h227v595h120v-595h227v595h120v-700l-814 0z" horiz-adv-x="994" unicode="Ш"/><glyph d="M876 0h-786v700h120v-595h227v595h120v-595h227v595h120v-595h82v-245l-110 0z" horiz-adv-x="1021" unicode="Щ"/><glyph d="M170 595h-160v105h280v-270h183q94 0 145.5 -58q51.5 -58 51.5 -157q0 -99 -51.5 -157q-51.5 -58 -145.5 -58h-303zM290 325v-220h162q39 0 67.5 27q28.5 27 28.5 83q0 56 -28.5 83q-28.5 27 -67.5 27z" horiz-adv-x="715" unicode="Ъ"/><glyph d="M90 700h120v-270h183q94 0 145.5 -58q51.5 -58 51.5 -157q0 -99 -51.5 -157q-51.5 -58 -145.5 -58h-303zM210 325v-220h162q39 0 67.5 27q28.5 27 28.5 83q0 56 -28.5 83q-28.5 27 -67.5 27zM678 700h120v-700l-120 0z" horiz-adv-x="888" unicode="Ы"/><glyph d="M90 700h120v-270h183q94 0 145.5 -58q51.5 -58 51.5 -157q0 -99 -51.5 -157q-51.5 -58 -145.5 -58h-303zM210 325v-220h162q39 0 67.5 27q28.5 27 28.5 83q0 56 -28.5 83q-28.5 27 -67.5 27z" horiz-adv-x="635" unicode="Ь"/><glyph d="M314 -15q-53 0 -99 16q-46 16 -80.5 46.5q-34.5 30.5 -54.5 75.5q-20 45 -20 104l111 0q0 -35 14 -60q14 -25 35 -41q21 -16 46.5 -23.5q25.5 -7.5 48.5 -7.5q78 0 117 35.5q39 35.5 39 98.5v71h-243v100h243v71q0 63 -39 98.5q-39 35.5 -117 35.5q-28 0 -54 -9q-26 -9 -46 -26q-20 -17 -32 -41.5q-12 -24.5 -12 -55.5l-111 0q0 63 21.5 109q21.5 46 57.5 75.5q36 29.5 81.5 43.5q45.5 14 93.5 14q131 0 204 -66q73 -66 73 -186v-226q0 -120 -73 -186t-204 -66z" horiz-adv-x="661" unicode="Э"/><glyph d="M342 297h-132v-297h-120v700h120v-298h132zM607 95q37 0 64 10q27 10 45 27q18 17 27 40.5q9 23.5 9 49.5v256q0 26 -9 49q-9 23 -27 40.5q-18 17.5 -45 27.5q-27 10 -64 10q-36 0 -63.5 -10q-27.5 -10 -45.5 -27.5q-18 -17.5 -27 -40.5q-9 -23 -9 -49v-256q0 -26 9 -49.5q9 -23.5 27 -40.5q18 -17 45.5 -27q27.5 -10 63.5 -10zt0 0zM607 -15q-61 0 -110 16.5q-49 16.5 -83.5 47.5q-34.5 31 -53 76.5q-18.5 45.5 -18.5 102.5v244q0 57 18.5 102.5q18.5 45.5 53 76.5q34.5 31 83.5 47.5q49 16.5 110 16.5q61 0 110 -16.5q49 -16.5 83.5 -47.5q34.5 -31 53 -76.5q18.5 -45.5 18.5 -102.5v-244q0 -57 -18.5 -102.5q-18.5 -45.5 -53 -76.5q-34.5 -31 -83.5 -47.5t-110 -16.5z" horiz-adv-x="942" unicode="Ю"/><glyph d="M42 40q53 87 81.5 134q28.5 47 41.5 69q15 26 16 29q-58 22 -91.5 76q-33.5 54 -33.5 132q0 103 53.5 161.5q53.5 58.5 157.5 58.5h289v-700h-120v260h-132l-152 -260h-110zM436 362v233h-145q-54 0 -83.5 -28q-29.5 -28 -29.5 -90q0 -62 29.5 -88.5q29.5 -26.5 83.5 -26.5z" horiz-adv-x="646" unicode="Я"/><glyph d="M219 -12q-35 0 -66.5 9.5q-31.5 9.5 -55.5 28.5q-24 19 -38 48q-14 29 -14 67q0 81 53 124q53 43 162 43h114v41q0 38 -23.5 60.5q-23.5 22.5 -74.5 22.5q-51 0 -74.5 -21q-23.5 -21 -23.5 -53l-107 0q0 37 12.5 69q12.5 32 37.5 55.5q25 23.5 63.5 36.5q38.5 13 91.5 13q52 0 91.5 -13q39.5 -13 65 -36.5q25.5 -23.5 38.5 -56q13 -32.5 13 -70.5v-356h-64l-42 58q-23 -27 -63 -48.5q-40 -21.5 -96 -21.5zt0 0zM241 88q43 0 76 16.5q33 16.5 57 42.5l0 77h-114q-30 0 -50.5 -6q-20.5 -6 -32.5 -16q-12 -10 -17 -23q-5 -13 -5 -26q0 -33 23.5 -49t62.5 -16z" horiz-adv-x="559" unicode="а"/><glyph d="M287 -12q-102 0 -162 50q-60 50 -60 141v184q0 105 34 168q34 63 116 87l124 37q27 8 32.5 22.5q5.5 14.5 5.5 22.5v5h110v-5q0 -37 -8.5 -61q-8.5 -24 -24.5 -39.5q-16 -15.5 -40.5 -25q-24.5 -9.5 -55.5 -18.5l-96 -27q-24 -7 -42 -17q-18 -10 -30 -25q-12 -15 -18 -36.5q-6 -21.5 -6 -51.5v-16q10 14 25 28.5q15 14.5 34.5 26q19.5 11.5 43 19q23.5 7.5 52.5 7.5q39 0 73.5 -11.5q34.5 -11.5 60 -35q25.5 -23.5 40 -59.5q14.5 -36 14.5 -85v-92q0 -44 -15.5 -80q-15.5 -36 -44.5 -61q-29 -25 -70 -38.5q-41 -13.5 -92 -13.5zt0 0zM287 88q57 0 84.5 28.5q27.5 28.5 27.5 69.5v79q0 47 -30 73q-30 26 -76 26q-40 0 -68.5 -18.5q-28.5 -18.5 -49.5 -42.5l0 -117q0 -41 27.5 -69.5t84.5 -28.5z" horiz-adv-x="566" unicode="б"/><glyph d="M80 520h237q80 0 127 -32.5q47 -32.5 47 -105.5q0 -42 -16 -70q-16 -28 -42 -45q38 -15 59.5 -43.5q21.5 -28.5 21.5 -73.5q0 -44 -13.5 -73q-13.5 -29 -38 -46q-24.5 -17 -59 -24q-34.5 -7 -76.5 -7h-247zM313 303q34 0 48 18q14 18 14 43q0 26 -14 43q-14 17 -48 17h-123v-121zM334 96q35 0 49 18q14 18 14 44q0 27 -14 44q-14 17 -49 17h-144l0 -123z" horiz-adv-x="566" unicode="в"/><glyph d="M80 520h349v-96h-239v-424l-110 0z" horiz-adv-x="469" unicode="г"/><glyph d="M28 96h48q29 27 42.5 77q13.5 50 13.5 122v225h393v-424h77v-222h-108v126h-358v-126h-108zM415 96v328h-179v-146q0 -52 -11 -99.5q-11 -47.5 -29 -82.5z" horiz-adv-x="637" unicode="д"/><glyph d="M279 -12q-102 0 -162 50q-60 50 -60 141v160q0 44 15.5 80q15.5 36 44.5 61q29 25 70 38.5q41 13.5 92 13.5q98 0 156 -50q58 -50 58 -141v-117h-326v-43q0 -41 27.5 -67q27.5 -26 84.5 -26q46 0 71 18.5q25 18.5 32 50.5l110 0q-8 -79 -62.5 -124q-54.5 -45 -150.5 -45zt0 0zM383 308v33q0 41 -27 66q-27 25 -81 25q-54 0 -81 -25q-27 -25 -27 -66l0 -33z" horiz-adv-x="550" unicode="е"/><glyph d="M340 212h-71l-132 -212h-97v52l138 214l-129 202v52h89l134 -212h68v212h110v-212h68l134 212h89v-52l-129 -202l138 -214v-52h-97l-132 212h-71v-212l-110 0z" horiz-adv-x="790" unicode="ж"/><glyph d="M278 -12q-52 0 -94 13.5q-42 13.5 -71 38.5q-29 25 -45 61q-16 36 -16 80v7h107v-9q0 -41 29.5 -66q29.5 -25 86.5 -25q48 0 72.5 18.5q24.5 18.5 24.5 49.5q0 26 -18.5 44.5q-18.5 18.5 -53.5 18.5h-78v88h77q31 0 46.5 18.5q15.5 18.5 15.5 42.5q0 30 -23.5 47q-23.5 17 -68.5 17q-53 0 -77 -25q-24 -25 -24 -66v-6h-107v6q0 91 56 141q56 50 159 50q46 0 83.5 -11q37.5 -11 63.5 -31q26 -20 40.5 -48q14.5 -28 14.5 -63q0 -39 -18 -67q-18 -28 -46 -44q35 -14 55 -43q20 -29 20 -72q0 -78 -55 -121.5t-156 -43.5z" horiz-adv-x="544" unicode="з"/><glyph d="M80 520h110v-350l230 350h110v-520h-110v350l-230 -350l-110 0z" horiz-adv-x="610" unicode="и"/><glyph d="M80 520h110v-350l230 350h110v-520h-110v350l-230 -350h-110zM305 571q-72 0 -116.5 35.5q-44.5 35.5 -44.5 101.5v12h94v-11q0 -26 16.5 -42q16.5 -16 50.5 -16q35 0 51.5 16q16.5 16 16.5 42v11h93v-12q0 -66 -44.5 -101.5t-116.5 -35.5z" horiz-adv-x="610" unicode="й"/><glyph d="M80 520h110v-212h69l151 212h91v-52l-144 -202l153 -214v-52h-99l-153 212h-68v-212l-110 0z" horiz-adv-x="550" unicode="к"/><glyph d="M30 100h11q49 0 68.5 33q19.5 33 19.5 96v291h390v-520h-110v424h-176v-194q0 -59 -14 -102.5q-14 -43.5 -38 -72q-24 -28.5 -56 -42q-32 -13.5 -68 -13.5l-27 0z" horiz-adv-x="599" unicode="л"/><glyph d="M614 0h-110v350l-131 -201h-52l-131 201v-350h-110v520h110l159 -239l155 239l110 0z" horiz-adv-x="694" unicode="м"/><glyph d="M80 520h110v-212h219v212h110v-520h-110v212h-219v-212l-110 0z" horiz-adv-x="599" unicode="н"/><glyph d="M279 88q57 0 84.5 28.5q27.5 28.5 27.5 69.5v148q0 41 -27.5 69.5q-27.5 28.5 -84.5 28.5q-57 0 -84.5 -28.5q-27.5 -28.5 -27.5 -69.5v-148q0 -41 27.5 -69.5q27.5 -28.5 84.5 -28.5zt0 0zM279 -12q-56 0 -97.5 15q-41.5 15 -69 41q-27.5 26 -41.5 61q-14 35 -14 76v158q0 41 14 76q14 35 41.5 61q27.5 26 69 41q41.5 15 97.5 15q55 0 97 -15q42 -15 69.5 -41q27.5 -26 41.5 -61q14 -35 14 -76v-158q0 -41 -14 -76q-14 -35 -41.5 -61q-27.5 -26 -69.5 -41t-97 -15z" horiz-adv-x="558" unicode="о"/><glyph d="M80 520h434v-520h-110v424h-214v-424l-110 0z" horiz-adv-x="594" unicode="п"/><glyph d="M80 520h64l41 -58q23 27 61 48.5q38 21.5 94 21.5q37 0 70.5 -11.5q33.5 -11.5 58.5 -35q25 -23.5 40 -59.5q15 -36 15 -85v-162q0 -49 -15 -85q-15 -36 -40.5 -59.5q-25.5 -23.5 -59.5 -35q-34 -11.5 -73 -11.5q-54 0 -90.5 20q-36.5 20 -55.5 43l0 -211h-110zM316 88q40 0 69 26q29 26 29 73v146q0 47 -29 73q-29 26 -68 26q-42 0 -73 -21.5q-31 -21.5 -54 -45.5l0 -210q23 -24 53.5 -45.5t72.5 -21.5z" horiz-adv-x="589" unicode="р"/><glyph d="M274 -12q-50 0 -90 13.5q-40 13.5 -68.5 38.5q-28.5 25 -43.5 61q-15 36 -15 80v158q0 44 15 80q15 36 43.5 61q28.5 25 68.5 38.5q40 13.5 90 13.5q97 0 154.5 -50q57.5 -50 57.5 -141v-6h-110v6q0 41 -26 66q-26 25 -76 25q-55 0 -81 -25q-26 -25 -26 -66v-162q0 -41 26 -66q26 -25 81 -25q50 0 76 25q26 25 26 66v9h110v-7q0 -44 -15.5 -80q-15.5 -36 -43.5 -61q-28 -25 -67 -38.5t-86 -13.5z" horiz-adv-x="539" unicode="с"/><glyph d="M189 424h-169v96h448v-96h-169v-424l-110 0z" horiz-adv-x="488" unicode="т"/><glyph d="M153 -120l52 120l-185 468v52h102l137 -370l131 370h101v-52l-248 -628l-90 0z" horiz-adv-x="511" unicode="у"/><glyph d="M349 44q-18 -20 -49.5 -38q-31.5 -18 -78.5 -18q-33 0 -61.5 11.5q-28.5 11.5 -49.5 33.5q-21 22 -33 54.5q-12 32.5 -12 74.5v196q0 42 12 74.5q12 32.5 33 54.5q21 22 49.5 33.5q28.5 11.5 61.5 11.5q47 0 78.5 -18q31.5 -18 49.5 -38l0 229h110v-229q18 20 49.5 38q31.5 18 78.5 18q33 0 61.5 -11.5q28.5 -11.5 49.5 -33.5q21 -22 33 -54.5q12 -32.5 12 -74.5v-196q0 -42 -12 -74.5q-12 -32.5 -33 -54.5q-21 -22 -49.5 -33.5q-28.5 -11.5 -61.5 -11.5q-47 0 -78.5 18q-31.5 18 -49.5 38l0 -204h-110zM257 88q32 0 53.5 12q21.5 12 38.5 28l0 264q-17 16 -38.5 28q-21.5 12 -53.5 12q-35 0 -58.5 -24.5q-23.5 -24.5 -23.5 -64.5v-166q0 -40 23.5 -64.5q23.5 -24.5 58.5 -24.5zt0 0zM551 88q35 0 58.5 24.5q23.5 24.5 23.5 64.5v166q0 40 -23.5 64.5q-23.5 24.5 -58.5 24.5q-32 0 -53.5 -12q-21.5 -12 -38.5 -28l0 -264q17 -16 38.5 -28t53.5 -12z" horiz-adv-x="808" unicode="ф"/><glyph d="M40 52l153 208l-151 208v52h99l121 -176l122 176h93v-52l-148 -204l156 -212v-52h-98l-127 185l-126 -185l-94 0z" horiz-adv-x="525" unicode="х"/><glyph d="M478 0h-398v520h110v-424h209v424h110v-424h77v-222l-108 0z" horiz-adv-x="621" unicode="ц"/><glyph d="M374 186q-23 -5 -52 -9.5q-29 -4.5 -64 -4.5q-47 0 -85.5 9.5q-38.5 9.5 -65.5 30.5q-27 21 -42 53.5q-15 32.5 -15 77.5v177h110v-166q0 -45 31.5 -63.5q31.5 -18.5 84.5 -18.5q32 0 55.5 3.5q23.5 3.5 42.5 8.5l0 236h110v-520l-110 0z" horiz-adv-x="564" unicode="ч"/><glyph d="M80 520h110v-424h158v424h110v-424h158v424h110v-520l-646 0z" horiz-adv-x="806" unicode="ш"/><glyph d="M695 0h-615v520h110v-424h158v424h110v-424h158v424h110v-424h77v-222l-108 0z" horiz-adv-x="838" unicode="щ"/><glyph d="M389 352q85 0 128.5 -48q43.5 -48 43.5 -128q0 -80 -43.5 -128q-43.5 -48 -128.5 -48h-250v424h-139v96h249v-168zM381 96q29 0 49.5 20q20.5 20 20.5 60q0 40 -20.5 60q-20.5 20 -48.5 20h-133l0 -160z" horiz-adv-x="591" unicode="ъ"/><glyph d="M559 520h110v-520h-110zM320 352q85 0 128.5 -48q43.5 -48 43.5 -128q0 -80 -43.5 -128q-43.5 -48 -128.5 -48h-240v520h110v-168zM312 96q29 0 49.5 20q20.5 20 20.5 60q0 40 -20.5 60q-20.5 20 -48.5 20h-123l0 -160z" horiz-adv-x="749" unicode="ы"/><glyph d="M330 352q85 0 128.5 -48q43.5 -48 43.5 -128q0 -80 -43.5 -128q-43.5 -48 -128.5 -48h-250v520h110v-168zM322 96q29 0 49.5 20q20.5 20 20.5 60q0 40 -20.5 60q-20.5 20 -48.5 20h-133l0 -160z" horiz-adv-x="532" unicode="ь"/><glyph d="M270 -12q-50 0 -90 13.5q-40 13.5 -68 38.5q-28 25 -43.5 61q-15.5 36 -15.5 80v7h110v-9q0 -41 26.5 -66q26.5 -25 80.5 -25q54 0 81.5 25q27.5 25 27.5 66v36h-157v88h157v38q0 41 -27 66q-27 25 -82 25q-52 0 -79.5 -25q-27.5 -25 -27.5 -66v-6h-110v6q0 91 59 141q59 50 159 50q50 0 90 -13.5q40 -13.5 68.5 -38.5q28.5 -25 44 -61q15.5 -36 15.5 -80v-158q0 -44 -15.5 -80q-15.5 -36 -44 -61q-28.5 -25 -69 -38.5t-90.5 -13.5z" horiz-adv-x="546" unicode="э"/><glyph d="M505 -12q-54 0 -95 14.5q-41 14.5 -68 40q-27 25.5 -40.5 60q-13.5 34.5 -13.5 74.5v35h-98v-212h-110v520h110v-212h98v35q0 40 13.5 74.5q13.5 34.5 40.5 60q27 25.5 68 40q41 14.5 95 14.5q54 0 95 -14.5q41 -14.5 68 -40q27 -25.5 40.5 -60q13.5 -34.5 13.5 -74.5v-166q0 -40 -13.5 -74.5q-13.5 -34.5 -40.5 -60q-27 -25.5 -68 -40q-41 -14.5 -95 -14.5zt0 0zM505 88q54 0 80.5 27.5q26.5 27.5 26.5 66.5v156q0 39 -26.5 66.5q-26.5 27.5 -80.5 27.5q-54 0 -80.5 -27.5q-26.5 -27.5 -26.5 -66.5v-156q0 -39 26.5 -66.5t80.5 -27.5z" horiz-adv-x="779" unicode="ю"/><glyph d="M50 52l102 146q-43 12 -72.5 51q-29.5 39 -29.5 106q0 40 11.5 71q11.5 31 32 52q20.5 21 48.5 31.5q28 10.5 60 10.5h270v-520h-110v192h-86l-124 -192h-102zM362 280v144h-128q-41 0 -57.5 -20.5q-16.5 -20.5 -16.5 -51.5q0 -31 16.5 -51.5q16.5 -20.5 57.5 -20.5z" horiz-adv-x="552" unicode="я"/><glyph d="M279 -12q-102 0 -162 50q-60 50 -60 141v160q0 44 15.5 80q15.5 36 44.5 61q29 25 70 38.5q41 13.5 92 13.5q98 0 156 -50q58 -50 58 -141v-117h-326v-43q0 -41 27.5 -67q27.5 -26 84.5 -26q46 0 71 18.5q25 18.5 32 50.5l110 0q-8 -79 -62.5 -124q-54.5 -45 -150.5 -45zt0 0zM383 308v33q0 41 -27 66q-27 25 -81 25q-54 0 -81 -25q-27 -25 -27 -66v-33zM122 705h110v-110h-110zM319 705h110v-110l-110 0z" horiz-adv-x="550" unicode="ё"/><glyph d="M344 -172q-18 0 -37 3l0 96h16q17 0 34.5 5q17.5 5 31.5 18q14 13 23 35.5q9 22.5 9 57.5v213q0 56 -28 81.5q-28 25.5 -67 25.5q-22 0 -41 -7q-19 -7 -35 -17q-16 -10 -28 -22q-12 -12 -20 -21l0 -296h-110v529h-72v86h72v90h110v-90h216v-86h-216v-129q22 24 58.5 43.5q36.5 19.5 90.5 19.5q39 0 72 -13q33 -13 57 -38q24 -25 37.5 -62q13.5 -37 13.5 -84v-240q0 -35 -9 -70.5q-9 -35.5 -31 -64q-22 -28.5 -57.5 -46t-89.5 -17.5z" horiz-adv-x="596" unicode="ђ"/><glyph d="M80 520h349v-96h-239v-424h-110zM268 730h99v-38l-90 -102l-89 0z" horiz-adv-x="469" unicode="ѓ"/><glyph d="M276 -12q50 0 90 13.5q40 13.5 68 38.5q28 25 43.5 61q15.5 36 15.5 80v7h-110v-9q0 -41 -26.5 -66q-26.5 -25 -80.5 -25q-54 0 -81.5 25q-27.5 25 -27.5 66v36h157v88h-157v38q0 41 27 66q27 25 82 25q52 0 79.5 -25q27.5 -25 27.5 -66v-6h110v6q0 91 -59 141q-59 50 -159 50q-50 0 -90 -13.5q-40 -13.5 -68.5 -38.5q-28.5 -25 -44 -61q-15.5 -36 -15.5 -80v-158q0 -44 15.5 -80q15.5 -36 44 -61q28.5 -25 69 -38.5t90.5 -13.5z" horiz-adv-x="546" unicode="є"/><glyph d="M278 -12q-52 0 -94 12.5q-42 12.5 -72 37q-30 24.5 -46 60q-16 35.5 -16 81.5l110 0q0 -45 35 -68q35 -23 92 -23q45 0 70.5 15.5q25.5 15.5 25.5 41.5q0 19 -12.5 32.5q-12.5 13.5 -44.5 21.5l-135 35q-24 6 -46.5 16q-22.5 10 -40 26q-17.5 16 -28 39.5q-10.5 23.5 -10.5 56.5q0 72 54 116q54 44 152 44q48 0 87 -12q39 -12 66.5 -35.5q27.5 -23.5 43 -58q15.5 -34.5 15.5 -80.5l-110 0q0 44 -30.5 65q-30.5 21 -78.5 21q-48 0 -68.5 -16.5q-20.5 -16.5 -20.5 -38.5q0 -35 57 -50l134 -33q27 -7 50.5 -17.5q23.5 -10.5 40 -27q16.5 -16.5 26 -40q9.5 -23.5 9.5 -55.5q0 -37 -15.5 -67.5q-15.5 -30.5 -43.5 -52.5q-28 -22 -67.5 -34t-88.5 -12z" horiz-adv-x="553" unicode="ѕ"/><glyph d="M80 520h110v-520h-110zM80 705h110v-110l-110 0z" horiz-adv-x="270" unicode="і"/><glyph d="M-18 705h110v-110h-110zM179 705h110v-110h-110zM80 520h110v-520l-110 0z" horiz-adv-x="270" unicode="ї"/><glyph d="M191 520v-505q0 -33 -8.5 -66.5q-8.5 -33.5 -28 -60.5q-19.5 -27 -51.5 -43.5q-32 -16.5 -80 -16.5q-10 0 -19.5 0.5q-9.5 0.5 -16.5 1.5l0 96h23q32 0 51.5 19q19.5 19 19.5 70v505zM81 705h110v-110l-110 0z" horiz-adv-x="271" unicode="ј"/><glyph d="M30 100h11q49 0 68.5 33q19.5 33 19.5 96v291h390v-168h160q32 0 60 -11q28 -11 48.5 -33q20.5 -22 32 -55q11.5 -33 11.5 -77q0 -44 -11.5 -77q-11.5 -33 -32 -55q-20.5 -22 -48.5 -33q-28 -11 -60 -11h-270v424h-176v-194q0 -59 -14 -102.5q-14 -43.5 -38 -72q-24 -28.5 -56 -42q-32 -13.5 -68 -13.5h-27zM651 96q29 0 49.5 20q20.5 20 20.5 60q0 40 -20.5 60q-20.5 20 -48.5 20h-133l0 -160z" horiz-adv-x="861" unicode="љ"/><glyph d="M80 520h110v-192h219v192h110v-168h160q32 0 60 -11q28 -11 48.5 -33q20.5 -22 32 -55q11.5 -33 11.5 -77q0 -44 -11.5 -77q-11.5 -33 -32 -55q-20.5 -22 -48.5 -33q-28 -11 -60 -11h-270v232h-219v-232h-110zM651 96q29 0 49.5 20q20.5 20 20.5 60q0 40 -20.5 60q-20.5 20 -48.5 20h-133l0 -160z" horiz-adv-x="861" unicode="њ"/><glyph d="M92 529h-72v86h72v90h110v-90h216v-86h-216v-129q22 24 58.5 43.5q36.5 19.5 90.5 19.5q39 0 72 -13q33 -13 57 -38q24 -25 37.5 -62q13.5 -37 13.5 -84v-266h-110v256q0 56 -28 81.5q-28 25.5 -67 25.5q-22 0 -41 -7q-19 -7 -35 -17q-16 -10 -28 -22q-12 -12 -20 -21l0 -296l-110 0z" horiz-adv-x="596" unicode="ћ"/><glyph d="M80 520h110v-212h69l151 212h91v-52l-144 -202l153 -214v-52h-99l-153 212h-68v-212h-110zM300 730h99v-38l-90 -102l-89 0z" horiz-adv-x="550" unicode="ќ"/><glyph d="M153 -120l52 120l-185 468v52h102l137 -370l131 370h101v-52l-248 -628h-90zM261 571q-72 0 -116.5 35.5q-44.5 35.5 -44.5 101.5v12h94v-11q0 -26 16.5 -42q16.5 -16 50.5 -16q35 0 51.5 16q16.5 16 16.5 42v11h93v-12q0 -66 -44.5 -101.5t-116.5 -35.5z" horiz-adv-x="511" unicode="ў"/><glyph d="M243 0h-163v520h110v-424h214v424h110v-520h-163v-126l-108 0z" horiz-adv-x="594" unicode="џ"/><glyph d="M90 700h315v130h110v-235h-305v-595l-120 0z" horiz-adv-x="555" unicode="Ґ"/><glyph d="M80 520h236v126h108v-222h-234v-424l-110 0z" horiz-adv-x="464" unicode="ґ"/><glyph d="M278 -12q-52 0 -94 12.5q-42 12.5 -72 37q-30 24.5 -46 60q-16 35.5 -16 81.5l110 0q0 -45 35 -68q35 -23 92 -23q45 0 70.5 15.5q25.5 15.5 25.5 41.5q0 19 -12.5 32.5q-12.5 13.5 -44.5 21.5l-135 35q-24 6 -46.5 16q-22.5 10 -40 26q-17.5 16 -28 39.5q-10.5 23.5 -10.5 56.5q0 72 54 116q54 44 152 44q48 0 87 -12q39 -12 66.5 -35.5q27.5 -23.5 43 -58q15.5 -34.5 15.5 -80.5l-110 0q0 44 -30.5 65q-30.5 21 -78.5 21q-48 0 -68.5 -16.5q-20.5 -16.5 -20.5 -38.5q0 -35 57 -50l134 -33q27 -7 50.5 -17.5q23.5 -10.5 40 -27q16.5 -16.5 26 -40q9.5 -23.5 9.5 -55.5q0 -37 -15.5 -67.5q-15.5 -30.5 -43.5 -52.5q-28 -22 -67.5 -34q-39.5 -12 -88.5 -12zt0 0zM215 705h110v-110l-110 0z" horiz-adv-x="553" unicode="ṡ"/><glyph d="M278 -12q-52 0 -94 12.5q-42 12.5 -72 37q-30 24.5 -46 60q-16 35.5 -16 81.5l110 0q0 -45 35 -68q35 -23 92 -23q45 0 70.5 15.5q25.5 15.5 25.5 41.5q0 19 -12.5 32.5q-12.5 13.5 -44.5 21.5l-135 35q-24 6 -46.5 16q-22.5 10 -40 26q-17.5 16 -28 39.5q-10.5 23.5 -10.5 56.5q0 72 54 116q54 44 152 44q48 0 87 -12q39 -12 66.5 -35.5q27.5 -23.5 43 -58q15.5 -34.5 15.5 -80.5l-110 0q0 44 -30.5 65q-30.5 21 -78.5 21q-48 0 -68.5 -16.5q-20.5 -16.5 -20.5 -38.5q0 -35 57 -50l134 -33q27 -7 50.5 -17.5q23.5 -10.5 40 -27q16.5 -16.5 26 -40q9.5 -23.5 9.5 -55.5q0 -37 -15.5 -67.5q-15.5 -30.5 -43.5 -52.5q-28 -22 -67.5 -34q-39.5 -12 -88.5 -12zt0 0zM215 -72h110v-110l-110 0z" horiz-adv-x="553" unicode="ṣ"/><glyph d="M60 363h479v-100l-479 0z" horiz-adv-x="599" unicode="–"/><glyph d="M60 363h726v-100l-726 0z" horiz-adv-x="846" unicode="—"/><glyph d="M183 456h-122v52l82 197l87 0z" horiz-adv-x="266" unicode="‘"/><glyph d="M83 705h122v-52l-82 -197l-87 0z" horiz-adv-x="266" unicode="’"/><glyph d="M83 136h122v-52l-82 -197l-87 0z" horiz-adv-x="260" unicode="‚"/><glyph d="M183 456h-122v52l82 197h87zM364 456h-122v52l82 197l87 0z" horiz-adv-x="447" unicode="“"/><glyph d="M83 705h122v-52l-82 -197h-87zM264 705h122v-52l-82 -197l-87 0z" horiz-adv-x="447" unicode="”"/><glyph d="M264 136h122v-52l-82 -197h-87zM83 136h122v-52l-82 -197l-87 0z" horiz-adv-x="447" unicode="„"/><glyph d="M216 424h-186v96h186v185h110v-185h186v-96h-186v-584l-110 0z" horiz-adv-x="542" unicode="†"/><glyph d="M216 135h-186v96h186v193h-186v96h186v185h110v-185h186v-96h-186v-193h186v-96h-186v-295l-110 0z" horiz-adv-x="542" unicode="‡"/><glyph d="M215 164q-72 0 -113.5 38.5q-41.5 38.5 -41.5 113.5v8q0 75 41.5 113.5q41.5 38.5 113.5 38.5q72 0 113.5 -38.5q41.5 -38.5 41.5 -113.5v-8q0 -74 -41.5 -113t-113.5 -39z" horiz-adv-x="430" unicode="•"/><glyph d="M70 136h135v-136h-135zM270 136h135v-136h-135zM470 136h135v-136l-135 0z" horiz-adv-x="675" unicode="…"/><glyph d="M195 434q29 0 43.5 17q14.5 17 14.5 41v86q0 24 -14.5 41q-14.5 17 -43.5 17q-29 0 -43.5 -17q-14.5 -17 -14.5 -41v-86q0 -24 14.5 -41q14.5 -17 43.5 -17zt0 0zM195 355q-72 0 -113.5 38.5q-41.5 38.5 -41.5 113.5v56q0 75 41.5 113.5q41.5 38.5 113.5 38.5q72 0 113.5 -38.5q41.5 -38.5 41.5 -113.5v-56q0 -75 -41.5 -113.5q-41.5 -38.5 -113.5 -38.5zt0 0zM597 64q29 0 43.5 17q14.5 17 14.5 41v86q0 24 -14.5 41q-14.5 17 -43.5 17q-29 0 -43.5 -17q-14.5 -17 -14.5 -41v-86q0 -24 14.5 -41q14.5 -17 43.5 -17zt0 0zM597 -15q-72 0 -113.5 38.5q-41.5 38.5 -41.5 113.5v56q0 75 41.5 113.5q41.5 38.5 113.5 38.5q72 0 113.5 -38.5q41.5 -38.5 41.5 -113.5v-56q0 -75 -41.5 -113.5q-41.5 -38.5 -113.5 -38.5zt0 0zM950 64q29 0 43.5 17q14.5 17 14.5 41v86q0 24 -14.5 41q-14.5 17 -43.5 17q-29 0 -43.5 -17q-14.5 -17 -14.5 -41v-86q0 -24 14.5 -41q14.5 -17 43.5 -17zt0 0zM950 -15q-72 0 -113.5 38.5q-41.5 38.5 -41.5 113.5v56q0 75 41.5 113.5q41.5 38.5 113.5 38.5q72 0 113.5 -38.5q41.5 -38.5 41.5 -113.5v-56q0 -75 -41.5 -113.5q-41.5 -38.5 -113.5 -38.5zt0 0zM150 40l405 660h85v-40l-405 -660l-85 0z" horiz-adv-x="1145" unicode="‰"/><glyph d="M40 275l140 210h95v-32l-119 -178l119 -179v-32l-95 0z" horiz-adv-x="335" unicode="‹"/><glyph d="M295 275l-140 210h-95v-32l119 -178l-119 -179v-32l95 0z" horiz-adv-x="335" unicode="›"/><glyph d="M-50 40l405 660h85v-40l-405 -660l-85 0z" horiz-adv-x="390" unicode="⁄"/><glyph d="M231 700v-49l-95 -159h76v65h103v-65h44v-76h-44v-58h-103v58h-182v68l131 216z" horiz-adv-x="389" unicode="₄"/><glyph d="M369 -15q-53 0 -98 14q-45 14 -79 42q-34 28 -54 71q-20 43 -24 101l-84 0v96h84v82h-84v96h84q7 109 73 168.5q66 59.5 182 59.5q49 0 93 -14q44 -14 78 -43.5q34 -29.5 54 -75.5q20 -46 20 -109v-10h-104v10q0 38 -12 65q-12 27 -31.5 44q-19.5 17 -45 25q-25.5 8 -53.5 8q-59 0 -99 -30.5q-40 -30.5 -45 -97.5l181 0v-96h-181v-82h181v-96h-181q5 -60 40.5 -94q35.5 -34 103.5 -34q31 0 57 8q26 8 45 25q19 17 29.5 44q10.5 27 10.5 65v10h104v-10q0 -63 -18.5 -109q-18.5 -46 -51.5 -75.5q-33 -29.5 -78 -43.5t-97 -14z" horiz-adv-x="674" unicode="€"/><glyph d="M343 -15q-56 0 -99.5 14q-43.5 14 -74.5 38.5q-31 24.5 -47 57.5q-16 33 -16 72q0 41 9 70l-75 0v87h603v-87h-417q-5 -12 -7.5 -25.5q-2.5 -13.5 -2.5 -29.5q0 -46 32 -71.5q32 -25.5 95 -25.5q58 0 95.5 29q37.5 29 37.5 77l110 0q0 -48 -18.5 -86.5q-18.5 -38.5 -51 -65q-32.5 -26.5 -77 -40.5q-44.5 -14 -96.5 -14zt0 0zM40 463h417q4 10 6.5 21q2.5 11 2.5 25q0 47 -32 76.5q-32 29.5 -95 29.5q-58 0 -95.5 -29q-37.5 -29 -37.5 -77l-110 0q0 48 18.5 86.5q18.5 38.5 51 65q32.5 26.5 77 40.5q44.5 14 96.5 14q55 0 99 -14q44 -14 75 -40q31 -26 47 -62q16 -36 16 -79q0 -30 -8 -57l75 0v-87l-603 0z" horiz-adv-x="683" unicode="₴"/><glyph d="M115 106h-85v96h85v82h-85v96h85v320h281q94 0 145.5 -56q51.5 -56 51.5 -152q0 -96 -51.5 -152q-51.5 -56 -145.5 -56h-171v-82h180v-96h-180v-106h-110zM383 380q41 0 70.5 27.5q29.5 27.5 29.5 84.5q0 57 -29.5 84.5q-29.5 27.5 -70.5 27.5h-158l0 -224z" horiz-adv-x="638" unicode="₽"/><glyph d="M90 700h101l273 -484v484h110v-700h-101l-273 484v-484h-110zM802 434q29 0 43.5 17q14.5 17 14.5 41v86q0 24 -14.5 41q-14.5 17 -43.5 17q-29 0 -43.5 -17q-14.5 -17 -14.5 -41v-86q0 -24 14.5 -41q14.5 -17 43.5 -17zt0 0zM802 355q-72 0 -113.5 38.5q-41.5 38.5 -41.5 113.5v56q0 75 41.5 113.5q41.5 38.5 113.5 38.5q72 0 113.5 -38.5q41.5 -38.5 41.5 -113.5v-56q0 -75 -41.5 -113.5q-41.5 -38.5 -113.5 -38.5zt0 0zM647 287h310v-84l-310 0z" horiz-adv-x="997" unicode="№"/><glyph d="M313 700h62l93 -145l95 145h61v-323h-64v219l-72 -114h-41l-70 112v-217h-64zM104 643h-94v57h252v-57h-94v-266l-64 0z" horiz-adv-x="687" unicode="™"/><glyph d="M70 105h97q-50 32 -65.5 76q-15.5 44 -15.5 97v185q0 60 19.5 106.5q19.5 46.5 55 79q35.5 32.5 86.5 49.5q51 17 114 17q63 0 114 -17q51 -17 86.5 -49.5q35.5 -32.5 55 -79q19.5 -46.5 19.5 -106.5v-185q0 -53 -15.5 -97q-15.5 -44 -65.5 -76l97 0v-105h-238v110q28 7 47.5 24q19.5 17 31.5 40q12 23 17.5 49.5q5.5 26.5 5.5 52.5v193q0 28 -9.5 53q-9.5 25 -29 43.5q-19.5 18.5 -48.5 29q-29 10.5 -68 10.5q-39 0 -68 -10.5q-29 -10.5 -48.5 -29q-19.5 -18.5 -29 -43.5q-9.5 -25 -9.5 -53v-193q0 -26 5.5 -52.5q5.5 -26.5 17.5 -49.5q12 -23 31.5 -40q19.5 -17 47.5 -24l0 -110l-238 0z" horiz-adv-x="722" unicode="Ω"/><glyph d="M251 -12q-47 0 -85 11.5q-38 11.5 -65 33q-27 21.5 -41.5 52.5q-14.5 31 -14.5 69q0 13 2 40.5q2 27.5 7 80.5q5 49 23 85q18 36 45 59.5q27 23.5 62.5 35q35.5 11.5 74.5 11.5q28 0 51.5 -7.5q23.5 -7.5 42 -19q18.5 -11.5 32 -26q13.5 -14.5 22.5 -28.5q1 16 1.5 33.5q0.5 17.5 0.5 22.5q-1 47 -13.5 79q-12.5 32 -34.5 52q-22 20 -52 28.5q-30 8.5 -66 8.5q-37 0 -63 -4q-26 -4 -46 -9l7 97q25 7 59 10.5q34 3.5 71 3.5q58 0 102.5 -18.5q44.5 -18.5 74.5 -51.5q30 -33 45.5 -79q15.5 -46 15.5 -102q0 -35 -5.5 -110q-5.5 -75 -13.5 -167q-4 -45 -23 -80.5q-19 -35.5 -50 -60q-31 -24.5 -73 -37.5q-42 -13 -93 -13zt0 0zM260 88q57 0 86.5 28.5q29.5 28.5 33.5 69.5l10 119q-19 24 -45.5 42.5q-26.5 18.5 -66.5 18.5q-46 0 -78 -26q-32 -26 -37 -73q-4 -32 -5.5 -56.5q-1.5 -24.5 -1.5 -35.5q0 -37 25.5 -62t78.5 -25z" horiz-adv-x="564" unicode="∂"/><glyph d="M20 41l250 659h118l250 -659v-41h-618zM482 105l-155 435l-158 -435z" horiz-adv-x="658" unicode="∆"/><glyph d="M90 700h499v-775h-110v675h-279v-675l-110 0z" horiz-adv-x="679" unicode="∏"/><glyph d="M50 25l162 289l-162 286v100h453v-100h-330l162 -286l-162 -289h343v-100l-466 0z" horiz-adv-x="566" unicode="∑"/><glyph d="M60 359h440v-92l-440 0z" horiz-adv-x="560" unicode="−"/><glyph d="M91 333h-90v100h168l119 -340l161 704h100v-39l-193 -833l-111 0z" horiz-adv-x="556" unicode="√"/><glyph d="M253 128q-45 0 -81 15q-36 15 -60.5 41.5q-24.5 26.5 -38 61.5q-13.5 35 -13.5 75q0 40 13.5 75q13.5 35 38 61.5q24.5 26.5 60.5 41.5q36 15 81 15q54 0 99.5 -26.5q45.5 -26.5 88.5 -76.5l7 -8l7 8q43 49 87 76q44 27 100 27q45 0 81 -15q36 -15 60.5 -41.5q24.5 -26.5 38 -61.5q13.5 -35 13.5 -75q0 -40 -13.5 -75q-13.5 -35 -38 -61q-24.5 -26 -60.5 -41q-36 -15 -81 -15q-55 0 -100 26.5q-45 26.5 -88 77.5l-6 7l-5 -6q-43 -51 -89 -78.5q-46 -27.5 -101 -27.5zt0 0zM256 230q18 0 32.5 7q14.5 7 28.5 19q14 12 28.5 27.5q14.5 15.5 31.5 32.5l3 3l-3 3q-17 17 -31.5 32.5q-14.5 15.5 -28.5 27q-14 11.5 -28.5 18.5q-14.5 7 -32.5 7q-36 0 -61 -24q-25 -24 -25 -64q0 -41 25 -65q25 -24 61 -24zt0 0zM640 230q36 0 61 24q25 24 25 65q0 40 -25 64q-25 24 -61 24q-18 0 -32.5 -7q-14.5 -7 -28.5 -18.5q-14 -11.5 -28.5 -27q-14.5 -15.5 -31.5 -32.5l-3 -3l3 -3q17 -17 31.5 -32.5q14.5 -15.5 28.5 -27.5q14 -12 28.5 -19t32.5 -7z" horiz-adv-x="895" unicode="∞"/><glyph d="M0 -64h33q71 0 71 74v528q0 76 45 119q45 43 120 43h48v-96h-33q-72 0 -72 -74v-528q0 -76 -44.5 -119q-44.5 -43 -119.5 -43l-48 0z" horiz-adv-x="317" unicode="∫"/><glyph d="M60 207q26 50 55.5 80q29.5 30 67.5 30q24 0 43.5 -7q19.5 -7 35.5 -18l18 -12q14 -10 27 -17q13 -7 26 -7q16 0 29.5 12q13.5 12 33.5 44l75 -45q-26 -49 -55.5 -79.5q-29.5 -30.5 -67.5 -30.5q-37 0 -66 18l-22 13q-18 11 -33 20.5q-15 9.5 -29 9.5q-16 0 -29.5 -12q-13.5 -12 -33.5 -44zM60 417q26 50 55.5 80q29.5 30 67.5 30q24 0 43.5 -7q19.5 -7 35.5 -18l18 -12q14 -10 27 -17q13 -7 26 -7q16 0 29.5 12q13.5 12 33.5 44l75 -45q-26 -49 -55.5 -79.5q-29.5 -30.5 -67.5 -30.5q-37 0 -66 18l-22 13q-18 11 -33 20.5q-15 9.5 -29 9.5q-16 0 -29.5 -12q-13.5 -12 -33.5 -44z" horiz-adv-x="531" unicode="≈"/><glyph d="M60 40l72 119h-72v93h129l74 123h-203v92h259l91 149h90v-40l-66 -109h66v-92h-122l-75 -123h197v-93h-254l-96 -159l-90 0z" horiz-adv-x="560" unicode="≠"/><glyph d="M60 334v90l347 162h53v-76l-280 -131l280 -131v-76h-53zM60 92h400v-92l-400 0z" horiz-adv-x="520" unicode="≤"/><glyph d="M60 248l280 131l-280 131v76h53l347 -162v-90l-347 -162h-53zM60 92h400v-92l-400 0z" horiz-adv-x="520" unicode="≥"/><glyph d="M50 350l185 350h84l185 -350l-186 -350h-83zM388 350l-111 212l-111 -211l111 -214z" horiz-adv-x="554" unicode="◊"/><glyph d="M314 -12q-91 0 -147.5 42q-56.5 42 -67.5 116l-69 0v83h67v53h-67v83h68q9 78 66 122.5q57 44.5 150 44.5q94 0 150 -46.5q56 -46.5 61 -130.5l-101 0q-3 36 -32 59.5q-29 23.5 -77 23.5q-51 0 -79 -20q-28 -20 -35 -53l154 0v-83h-156v-53h156v-83h-151q9 -29 36 -46.5q27 -17.5 75 -17.5q49 0 77.5 23.5q28.5 23.5 31.5 62.5l102 0q-2 -42 -18.5 -75q-16.5 -33 -44.5 -56.5q-28 -23.5 -66 -36t-83 -12.5z" horiz-adv-x="579" unicode=""/><glyph d="M332 527q71 -13 111.5 -58.5q40.5 -45.5 40.5 -122.5l-110 0q0 44 -30 65q-30 21 -77 21q-50 0 -70.5 -17q-20.5 -17 -20.5 -38q0 -35 57 -50l134 -33q27 -7 50.5 -17.5q23.5 -10.5 40 -27q16.5 -16.5 26 -40q9.5 -23.5 9.5 -55.5q0 -64 -43 -107q-43 -43 -118 -55l0 -81h-96v79q-86 10 -136 58.5q-50 48.5 -50 130.5l110 0q0 -45 35 -68q35 -23 92 -23q45 0 70.5 15.5q25.5 15.5 25.5 41.5q0 19 -12.5 32.5q-12.5 13.5 -44.5 21.5l-135 35q-24 6 -46.5 16q-22.5 10 -40 26q-17.5 16 -28 39.5q-10.5 23.5 -10.5 56.5q0 63 44.5 106q44.5 43 125.5 52l0 81l96 0z" horiz-adv-x="553" unicode=""/><glyph d="M297 -67h120v-50l-73 -160l-85 0z" horiz-adv-x="710" unicode=""/><glyph d="M290 -12q-92 0 -142.5 37q-50.5 37 -50.5 100q0 28 8 49l-65 0v72h496v-72h-328q-3 -8 -5 -16q-2 -8 -2 -18q0 -25 20.5 -42.5q20.5 -17.5 71.5 -17.5q45 0 70 18q25 18 25 44l107 0q0 -35 -16 -63.5q-16 -28.5 -43.5 -48.5q-27.5 -20 -65 -31q-37.5 -11 -80.5 -11zt0 0zM40 346h336q7 16 7 34q0 21 -20 40.5q-20 19.5 -69 19.5q-47 0 -70.5 -18q-23.5 -18 -23.5 -44l-107 0q0 35 15.5 63.5q15.5 28.5 42.5 48.5q27 20 64 31q37 11 80 11q91 0 141.5 -38q50.5 -38 50.5 -101q0 -29 -9 -47l58 0v-72l-496 0z" horiz-adv-x="576" unicode=""/><glyph d="M115 64h-85v83h85v47h-85v83h85v243h270q32 0 60 -10.5q28 -10.5 48.5 -30.5q20.5 -20 32 -51q11.5 -31 11.5 -71q0 -41 -11.5 -71.5q-11.5 -30.5 -32 -50.5q-20.5 -20 -48.5 -30.5q-28 -10.5 -60 -10.5h-160v-47h130v-83h-130v-64h-110zM358 277q28 0 48.5 18.5q20.5 18.5 20.5 54.5q0 37 -20.5 55.5q-20.5 18.5 -49.5 18.5h-132l0 -147z" horiz-adv-x="567" unicode=""/><glyph d="M40 96h70v112h-70v86h70v45q0 44 14.5 80q14.5 36 41 61q26.5 25 64.5 38.5q38 13.5 85 13.5q93 0 147.5 -50q54.5 -50 54.5 -141v-6h-110v6q0 41 -23.5 66q-23.5 25 -68.5 25q-49 0 -72 -25q-23 -25 -23 -66v-47h134v-86h-134v-112h297v-96l-477 0z" horiz-adv-x="570" unicode=""/><glyph d="M215 64h-135v83h135v47h-135v83h86l-126 191v52h99l130 -210h3l130 210h93v-52l-126 -191h86v-83h-130v-47h130v-83h-130v-64l-110 0z" horiz-adv-x="535" unicode=""/><glyph d="M95 424h-80v96h80v2q0 37 10 71q10 34 32.5 59q22.5 25 59.5 40q37 15 91 15q9 0 19 -0.5q10 -0.5 18 -1.5l0 -96h-23q-52 0 -74.5 -20.5q-22.5 -20.5 -22.5 -66.5v-2h330v-520h-110v424h-220v-424h-110zM425 705h110v-110l-110 0z" horiz-adv-x="615" unicode="ﬁ"/><glyph d="M95 424h-80v96h80q0 38 10 72q10 34 32.5 59.5q22.5 25.5 59.5 40.5q37 15 91 15q9 0 19 -0.5q10 -0.5 18 -1.5l0 -96h-23q-52 0 -74.5 -20.5q-22.5 -20.5 -22.5 -68.5l113 0v-96h-113v-424h-110zM425 705h110v-705l-110 0z" horiz-adv-x="615" unicode="ﬂ"/><glyph horiz-adv-x="0"/></font>
</defs>
</svg>
